<svg width="364" height="57" viewBox="0 0 364 57" fill="none" xmlns="http://www.w3.org/2000/svg">
<path d="M7.28 25.3125V7.4625H0.07V2.5625H19.67V7.4625H12.46V25.3125H7.28ZM22.5059 25.3125V2.5625H33.9859C38.1509 2.5625 41.1259 5.5725 41.1259 9.8425C41.1259 12.7825 39.5859 15.1275 37.1009 16.2825L41.5459 25.3125H35.3859L32.3759 17.0525H27.6859V25.3125H22.5059ZM27.6859 13.4125H32.6559C34.4059 13.4125 35.6659 12.1525 35.6659 10.3325C35.6659 8.5125 34.4759 7.2525 32.7959 7.2525H27.6859V13.4125ZM43.6 25.3125L51.65 2.5625H57.95L66 25.3125H60.4L58.72 20.1325H50.88L49.27 25.3125H43.6ZM52.035 16.4925H57.53L54.73 7.8125L52.035 16.4925ZM68.9053 25.3125V2.5625H74.7853L82.9053 17.9625V2.5625H88.0853V25.3125H82.3453L74.0853 10.0525V25.3125H68.9053ZM101.631 25.7325C95.9606 25.7325 91.6906 22.6875 91.5506 18.5575L97.5706 17.2975C97.7106 19.5025 99.2856 21.1125 101.911 21.1125C103.626 21.1125 105.271 20.4125 105.271 18.8725C105.271 14.5325 92.5306 15.3725 92.5306 8.3725C92.5306 4.7325 95.8906 2.1425 100.931 2.1425C106.076 2.1425 109.891 4.7325 110.311 8.3725L104.501 9.7725C104.361 7.9175 102.821 6.6225 100.791 6.6225C99.0756 6.6225 97.8506 7.5675 97.8506 8.8625C97.8506 12.9925 110.871 11.7325 110.871 19.0125C110.871 22.9675 107.056 25.7325 101.631 25.7325ZM114.45 25.3125V2.5625H121.52L126.63 20.5525L131.67 2.5625H138.53V25.3125H133.35V7.6725L128.415 25.3125H124.705L119.63 7.6725V25.3125H114.45ZM143.033 25.3125V2.5625H148.213V25.3125H143.033ZM161.745 25.7325C156.075 25.7325 151.805 22.6875 151.665 18.5575L157.685 17.2975C157.825 19.5025 159.4 21.1125 162.025 21.1125C163.74 21.1125 165.385 20.4125 165.385 18.8725C165.385 14.5325 152.645 15.3725 152.645 8.3725C152.645 4.7325 156.005 2.1425 161.045 2.1425C166.19 2.1425 170.005 4.7325 170.425 8.3725L164.615 9.7725C164.475 7.9175 162.935 6.6225 160.905 6.6225C159.19 6.6225 157.965 7.5675 157.965 8.8625C157.965 12.9925 170.985 11.7325 170.985 19.0125C170.985 22.9675 167.17 25.7325 161.745 25.7325ZM183.594 25.7325C177.924 25.7325 173.654 22.6875 173.514 18.5575L179.534 17.2975C179.674 19.5025 181.249 21.1125 183.874 21.1125C185.589 21.1125 187.234 20.4125 187.234 18.8725C187.234 14.5325 174.494 15.3725 174.494 8.3725C174.494 4.7325 177.854 2.1425 182.894 2.1425C188.039 2.1425 191.854 4.7325 192.274 8.3725L186.464 9.7725C186.324 7.9175 184.784 6.6225 182.754 6.6225C181.039 6.6225 179.814 7.5675 179.814 8.8625C179.814 12.9925 192.834 11.7325 192.834 19.0125C192.834 22.9675 189.019 25.7325 183.594 25.7325ZM196.414 25.3125V2.5625H201.594V25.3125H196.414ZM216.666 25.7325C210.016 25.7325 205.326 20.8325 205.326 13.9375C205.326 7.0425 210.016 2.1425 216.666 2.1425C223.316 2.1425 228.006 7.0425 228.006 13.9375C228.006 20.8325 223.316 25.7325 216.666 25.7325ZM216.666 20.6925C220.096 20.6925 222.546 17.8575 222.546 13.8675C222.546 9.8775 220.096 7.0425 216.666 7.0425C213.236 7.0425 210.786 9.8775 210.786 13.8675C210.786 17.8575 213.236 20.6925 216.666 20.6925ZM231.739 25.3125V2.5625H237.619L245.739 17.9625V2.5625H250.919V25.3125H245.179L236.919 10.0525V25.3125H231.739Z" fill="#D94F3D"/>
<path d="M1.75 53.3125V30.5625H6.93V48.3425H17.43V53.3125H1.75Z" fill="white"/>
<circle cx="32.0003" cy="42.3109" r="4.31085" stroke="#D94F3D" stroke-width="3"/>
<circle cx="31.9995" cy="42.312" r="9.48387" stroke="#D94F3D" stroke-width="4"/>
<line x1="32.6445" y1="28.3125" x2="32.6445" y2="33.7319" stroke="#D94F3D" stroke-width="4"/>
<line x1="32.6445" y1="50.8945" x2="32.6445" y2="56.3139" stroke="#D94F3D" stroke-width="4"/>
<line x1="46" y1="42.957" x2="40.5806" y2="42.957" stroke="#D94F3D" stroke-width="4"/>
<line x1="23.4199" y1="42.957" x2="18.0006" y2="42.957" stroke="#D94F3D" stroke-width="4"/>
<path d="M59.04 53.7325C52.565 53.7325 47.98 48.8325 47.98 41.9375C47.98 35.0425 52.6 30.1425 59.04 30.1425C64.5 30.1425 68.49 33.8525 68.91 38.3325L63.87 39.5925C63.45 36.7925 61.63 35.0425 59.11 35.0425C55.855 35.0425 53.58 37.9125 53.58 41.9375C53.58 45.9275 55.82 48.6925 59.11 48.6925C61.77 48.6925 63.8 46.8725 64.08 44.2125L69.19 46.4525C68.21 50.7925 64.08 53.7325 59.04 53.7325ZM70.767 53.3125L78.817 30.5625H85.117L93.167 53.3125H87.567L85.887 48.1325H78.047L76.437 53.3125H70.767ZM79.202 44.4925H84.697L81.897 35.8125L79.202 44.4925ZM99.073 53.3125V35.4625H91.863V30.5625H111.463V35.4625H104.253V53.3125H99.073ZM123.741 53.7325C117.091 53.7325 112.401 48.8325 112.401 41.9375C112.401 35.0425 117.091 30.1425 123.741 30.1425C130.391 30.1425 135.081 35.0425 135.081 41.9375C135.081 48.8325 130.391 53.7325 123.741 53.7325ZM123.741 48.6925C127.171 48.6925 129.621 45.8575 129.621 41.8675C129.621 37.8775 127.171 35.0425 123.741 35.0425C120.311 35.0425 117.861 37.8775 117.861 41.8675C117.861 45.8575 120.311 48.6925 123.741 48.6925ZM138.814 53.3125V30.5625H150.294C154.459 30.5625 157.434 33.5725 157.434 37.8425C157.434 40.7825 155.894 43.1275 153.409 44.2825L157.854 53.3125H151.694L148.684 45.0525H143.994V53.3125H138.814ZM143.994 41.4125H148.964C150.714 41.4125 151.974 40.1525 151.974 38.3325C151.974 36.5125 150.784 35.2525 149.104 35.2525H143.994V41.4125Z" fill="white"/>
</svg>
