<svg width="253" height="56" viewBox="0 0 253 56" fill="none" xmlns="http://www.w3.org/2000/svg">
<path d="M7.28 25V7.15H0.07V2.25H19.67V7.15H12.46V25H7.28ZM22.5059 25V2.25H33.9859C38.1509 2.25 41.1259 5.26 41.1259 9.53C41.1259 12.47 39.5859 14.815 37.1009 15.97L41.5459 25H35.3859L32.3759 16.74H27.6859V25H22.5059ZM27.6859 13.1H32.6559C34.4059 13.1 35.6659 11.84 35.6659 10.02C35.6659 8.2 34.4759 6.94 32.7959 6.94H27.6859V13.1ZM43.6 25L51.65 2.25H57.95L66 25H60.4L58.72 19.82H50.88L49.27 25H43.6ZM52.035 16.18H57.53L54.73 7.5L52.035 16.18ZM68.9053 25V2.25H74.7853L82.9053 17.65V2.25H88.0853V25H82.3453L74.0853 9.74V25H68.9053ZM101.631 25.42C95.9606 25.42 91.6906 22.375 91.5506 18.245L97.5706 16.985C97.7106 19.19 99.2856 20.8 101.911 20.8C103.626 20.8 105.271 20.1 105.271 18.56C105.271 14.22 92.5306 15.06 92.5306 8.06C92.5306 4.42 95.8906 1.83 100.931 1.83C106.076 1.83 109.891 4.42 110.311 8.06L104.501 9.46C104.361 7.605 102.821 6.31 100.791 6.31C99.0756 6.31 97.8506 7.255 97.8506 8.55C97.8506 12.68 110.871 11.42 110.871 18.7C110.871 22.655 107.056 25.42 101.631 25.42ZM114.45 25V2.25H121.52L126.63 20.24L131.67 2.25H138.53V25H133.35V7.36L128.415 25H124.705L119.63 7.36V25H114.45ZM143.033 25V2.25H148.213V25H143.033ZM161.745 25.42C156.075 25.42 151.805 22.375 151.665 18.245L157.685 16.985C157.825 19.19 159.4 20.8 162.025 20.8C163.74 20.8 165.385 20.1 165.385 18.56C165.385 14.22 152.645 15.06 152.645 8.06C152.645 4.42 156.005 1.83 161.045 1.83C166.19 1.83 170.005 4.42 170.425 8.06L164.615 9.46C164.475 7.605 162.935 6.31 160.905 6.31C159.19 6.31 157.965 7.255 157.965 8.55C157.965 12.68 170.985 11.42 170.985 18.7C170.985 22.655 167.17 25.42 161.745 25.42ZM183.594 25.42C177.924 25.42 173.654 22.375 173.514 18.245L179.534 16.985C179.674 19.19 181.249 20.8 183.874 20.8C185.589 20.8 187.234 20.1 187.234 18.56C187.234 14.22 174.494 15.06 174.494 8.06C174.494 4.42 177.854 1.83 182.894 1.83C188.039 1.83 191.854 4.42 192.274 8.06L186.464 9.46C186.324 7.605 184.784 6.31 182.754 6.31C181.039 6.31 179.814 7.255 179.814 8.55C179.814 12.68 192.834 11.42 192.834 18.7C192.834 22.655 189.019 25.42 183.594 25.42ZM196.414 25V2.25H201.594V25H196.414ZM216.666 25.42C210.016 25.42 205.326 20.52 205.326 13.625C205.326 6.73 210.016 1.83 216.666 1.83C223.316 1.83 228.006 6.73 228.006 13.625C228.006 20.52 223.316 25.42 216.666 25.42ZM216.666 20.38C220.096 20.38 222.546 17.545 222.546 13.555C222.546 9.565 220.096 6.73 216.666 6.73C213.236 6.73 210.786 9.565 210.786 13.555C210.786 17.545 213.236 20.38 216.666 20.38ZM231.739 25V2.25H237.619L245.739 17.65V2.25H250.919V25H245.179L236.919 9.74V25H231.739Z" fill="#D94F3D"/>
<path d="M1.75 53V30.25H6.93V48.03H17.43V53H1.75Z" fill="#1A1A25"/>
<circle cx="32.0003" cy="41.9984" r="4.31085" stroke="#D94F3D" stroke-width="3"/>
<circle cx="31.9995" cy="41.9995" r="9.48387" stroke="#D94F3D" stroke-width="4"/>
<line x1="32.6445" y1="28" x2="32.6445" y2="33.4194" stroke="#D94F3D" stroke-width="4"/>
<line x1="32.6445" y1="50.582" x2="32.6445" y2="56.0014" stroke="#D94F3D" stroke-width="4"/>
<line x1="46" y1="42.6445" x2="40.5806" y2="42.6445" stroke="#D94F3D" stroke-width="4"/>
<line x1="23.4199" y1="42.6445" x2="18.0006" y2="42.6445" stroke="#D94F3D" stroke-width="4"/>
<path d="M59.04 53.42C52.565 53.42 47.98 48.52 47.98 41.625C47.98 34.73 52.6 29.83 59.04 29.83C64.5 29.83 68.49 33.54 68.91 38.02L63.87 39.28C63.45 36.48 61.63 34.73 59.11 34.73C55.855 34.73 53.58 37.6 53.58 41.625C53.58 45.615 55.82 48.38 59.11 48.38C61.77 48.38 63.8 46.56 64.08 43.9L69.19 46.14C68.21 50.48 64.08 53.42 59.04 53.42ZM70.767 53L78.817 30.25H85.117L93.167 53H87.567L85.887 47.82H78.047L76.437 53H70.767ZM79.202 44.18H84.697L81.897 35.5L79.202 44.18ZM99.073 53V35.15H91.863V30.25H111.463V35.15H104.253V53H99.073ZM123.741 53.42C117.091 53.42 112.401 48.52 112.401 41.625C112.401 34.73 117.091 29.83 123.741 29.83C130.391 29.83 135.081 34.73 135.081 41.625C135.081 48.52 130.391 53.42 123.741 53.42ZM123.741 48.38C127.171 48.38 129.621 45.545 129.621 41.555C129.621 37.565 127.171 34.73 123.741 34.73C120.311 34.73 117.861 37.565 117.861 41.555C117.861 45.545 120.311 48.38 123.741 48.38ZM138.814 53V30.25H150.294C154.459 30.25 157.434 33.26 157.434 37.53C157.434 40.47 155.894 42.815 153.409 43.97L157.854 53H151.694L148.684 44.74H143.994V53H138.814ZM143.994 41.1H148.964C150.714 41.1 151.974 39.84 151.974 38.02C151.974 36.2 150.784 34.94 149.104 34.94H143.994V41.1Z" fill="#1A1A25"/>
</svg>
