<svg width="364" height="57" viewBox="0 0 364 57" fill="none" xmlns="http://www.w3.org/2000/svg">
<path d="M1.75 25.3125V2.5625H18.06V7.2525H6.93V11.8725H16.03V15.5125H6.93V20.5525H18.41V25.3125H1.75ZM22.1299 25.3125V2.5625H28.0099L36.1299 17.9625V2.5625H41.3099V25.3125H35.5699L27.3099 10.0525V25.3125H22.1299ZM55.5552 25.7325C49.4652 25.7325 45.0552 20.7975 45.0552 13.9725C45.0552 6.9725 49.8152 2.1425 56.2552 2.1425C61.1552 2.1425 65.2152 5.1175 66.0552 9.3525L60.9452 11.1725C60.5252 8.7225 58.6352 6.9725 56.1152 6.9725C52.8252 6.9725 50.5152 9.8075 50.5152 13.8325C50.5152 17.8575 52.9652 20.8325 56.3252 20.8325C58.9852 20.8325 61.0502 18.9775 61.2952 16.3525H53.8052V12.7125H66.1952L67.3152 25.3125H64.0952L63.0452 20.8675C62.2052 23.7725 59.2652 25.7325 55.5552 25.7325ZM71.332 25.3125V2.5625H76.512V25.3125H71.332ZM81.0137 25.3125V2.5625H86.8937L95.0137 17.9625V2.5625H100.194V25.3125H94.4537L86.1937 10.0525V25.3125H81.0137ZM104.709 25.3125V2.5625H121.019V7.2525H109.889V11.8725H118.989V15.5125H109.889V20.5525H121.369V25.3125H104.709Z" fill="#D94F3D"/>
<path d="M1.75 53.3125V30.5625H6.93V48.3425H17.43V53.3125H1.75Z" fill="white"/>
<circle cx="32.0003" cy="42.3109" r="4.31085" stroke="#D94F3D" stroke-width="3"/>
<circle cx="31.9995" cy="42.312" r="9.48387" stroke="#D94F3D" stroke-width="4"/>
<line x1="32.6445" y1="28.3125" x2="32.6445" y2="33.7319" stroke="#D94F3D" stroke-width="4"/>
<line x1="32.6445" y1="50.8906" x2="32.6445" y2="56.31" stroke="#D94F3D" stroke-width="4"/>
<line x1="46" y1="42.9609" x2="40.5806" y2="42.9609" stroke="#D94F3D" stroke-width="4"/>
<line x1="23.4199" y1="42.9609" x2="18.0006" y2="42.9609" stroke="#D94F3D" stroke-width="4"/>
<path d="M59.04 53.7325C52.565 53.7325 47.98 48.8325 47.98 41.9375C47.98 35.0425 52.6 30.1425 59.04 30.1425C64.5 30.1425 68.49 33.8525 68.91 38.3325L63.87 39.5925C63.45 36.7925 61.63 35.0425 59.11 35.0425C55.855 35.0425 53.58 37.9125 53.58 41.9375C53.58 45.9275 55.82 48.6925 59.11 48.6925C61.77 48.6925 63.8 46.8725 64.08 44.2125L69.19 46.4525C68.21 50.7925 64.08 53.7325 59.04 53.7325ZM70.767 53.3125L78.817 30.5625H85.117L93.167 53.3125H87.567L85.887 48.1325H78.047L76.437 53.3125H70.767ZM79.202 44.4925H84.697L81.897 35.8125L79.202 44.4925ZM99.073 53.3125V35.4625H91.863V30.5625H111.463V35.4625H104.253V53.3125H99.073ZM123.741 53.7325C117.091 53.7325 112.401 48.8325 112.401 41.9375C112.401 35.0425 117.091 30.1425 123.741 30.1425C130.391 30.1425 135.081 35.0425 135.081 41.9375C135.081 48.8325 130.391 53.7325 123.741 53.7325ZM123.741 48.6925C127.171 48.6925 129.621 45.8575 129.621 41.8675C129.621 37.8775 127.171 35.0425 123.741 35.0425C120.311 35.0425 117.861 37.8775 117.861 41.8675C117.861 45.8575 120.311 48.6925 123.741 48.6925ZM138.814 53.3125V30.5625H150.294C154.459 30.5625 157.434 33.5725 157.434 37.8425C157.434 40.7825 155.894 43.1275 153.409 44.2825L157.854 53.3125H151.694L148.684 45.0525H143.994V53.3125H138.814ZM143.994 41.4125H148.964C150.714 41.4125 151.974 40.1525 151.974 38.3325C151.974 36.5125 150.784 35.2525 149.104 35.2525H143.994V41.4125Z" fill="white"/>
</svg>
