<?xml version="1.0" encoding="utf-8"?>
<svg version="1.1" id="Layer_1" xmlns="http://www.w3.org/2000/svg"
	xmlns:xlink="http://www.w3.org/1999/xlink" x="0px" y="0px"
	viewBox="0 0 112 96" style="enable-background:new 0 0 112 96;" xml:space="preserve">
<style type="text/css">
	.st0{fill:url(#SVGID_1_);filter:url(#Adobe_OpacityMaskFilter);}
	.st1{mask:url(#mask0_00000008146892463935838390000000023873743161470125_);}
	.st2{opacity:0.1;}
	.st3{fill:none;stroke:#111827;stroke-width:2;}
	.st4{fill:none;stroke:#4F46E5;stroke-width:2;stroke-linecap:round;}
	.st5{fill:#4F46E5;}
	.st6{fill:#FFFFFF;stroke:#C9C9C9;stroke-width:1.5;stroke-linecap:round;stroke-linejoin:round;}
	.st7{fill:none;stroke:#C9C9C9;stroke-width:1.5;stroke-linecap:round;stroke-linejoin:round;}
</style>
<defs>
	<filter id="Adobe_OpacityMaskFilter" filterUnits="userSpaceOnUse" x="7" y="0" width="98" height="98">
		<feColorMatrix  type="matrix" values="1 0 0 0 0  0 1 0 0 0  0 0 1 0 0  0 0 0 1 0"/>
	</filter>
</defs>
<mask maskUnits="userSpaceOnUse" x="7" y="0" width="98" height="98" id="mask0_00000008146892463935838390000000023873743161470125_">
	
		<radialGradient id="SVGID_1_" cx="-2457.4492" cy="514.7766" r="1" gradientTransform="matrix(4.225032e-15 69 72.9204 -4.465087e-15 -37481.7148 169612)" gradientUnits="userSpaceOnUse">
		<stop  offset="0.2319" style="stop-color:#C4C4C4"/>
		<stop  offset="0.7246" style="stop-color:#C4C4C4;stop-opacity:0"/>
	</radialGradient>
	<rect x="4" y="4" class="st0" width="104" height="88"/>
</mask>
<g class="st1">
	<g class="st2">
		<circle class="st3" cx="56" cy="49" r="40"/>
	</g>
	<g class="st2">
		<circle class="st3" cx="56" cy="49" r="48"/>
	</g>
	<g class="st2">
		<circle class="st3" cx="56" cy="49" r="32"/>
	</g>
	<g class="st2">
		<circle class="st3" cx="56" cy="49" r="24"/>
	</g>
	<g class="st2">
		<circle class="st3" cx="56" cy="49" r="16"/>
	</g>
</g>
<path class="st4" d="M87.1,75c-3.5,4-7.9,7.1-13,9"/>
<path class="st5" d="M80.8,74.8l6.7-1.5c0.7-0.2,1.4,0.5,1.2,1.2l-1.5,6.7c-0.2,0.8-1.1,1-1.7,0.5l-5.2-5.2C79.7,76,80,75,80.8,74.8
	z"/>
<path class="st4" d="M30,20c3.5-4,7.9-7.1,13-9"/>
<path class="st5" d="M36.4,20.2l-6.7,1.5c-0.7,0.2-1.4-0.5-1.2-1.2l1.5-6.7c0.2-0.8,1.1-1,1.7-0.5l5.2,5.2
	C37.4,19,37.2,20,36.4,20.2z"/>
<path class="st6" d="M80.3,62.5v-25c0-0.7-0.4-1.4-1-1.8L57,23.2c-0.6-0.4-1.4-0.4-2,0L32.7,35.7c-0.6,0.4-1,1-1,1.8v25
	c0,0.7,0.4,1.4,1,1.8L55,76.8c0.6,0.4,1.4,0.4,2,0l22.3-12.6C79.9,63.9,80.3,63.2,80.3,62.5z"/>
<polyline class="st7" points="80.1,36.5 56.2,50 31.9,36.5 "/>
<line class="st7" x1="56.2" y1="50" x2="56" y2="77.1"/>
</svg>