<svg width="28" height="8" viewBox="0 0 28 8" fill="none" xmlns="http://www.w3.org/2000/svg">
<path d="M0.558947 2.69997C0.612861 2.29864 0.71835 1.9223 0.947992 1.27782C0.952859 1.27304 0.961078 1.26564 0.973957 1.25586C1.01959 1.22124 1.09947 1.17555 1.22642 1.12515C1.48091 1.02412 1.8522 0.932061 2.33249 0.85301C3.28811 0.695725 4.57902 0.604755 6.00752 0.55488C8.1135 0.481352 10.4682 0.498255 12.4114 0.512203C13.1034 0.51717 13.7433 0.521763 14.3011 0.521763C17.9241 0.521763 21.8089 0.717668 26.4019 1.04179C26.8515 1.07352 27.1672 1.36187 27.2313 1.69066C27.3618 2.36036 27.5 3.28174 27.5 4.1669C27.5 5.01802 27.4563 5.61149 27.3799 6.03195C27.3035 6.45258 27.2005 6.66385 27.1082 6.78201C27.0455 6.86221 26.9208 6.96065 26.6886 7.05757C26.4591 7.15337 26.1551 7.23501 25.7723 7.30039C25.0057 7.43131 23.9926 7.48594 22.7764 7.49754C21.564 7.50911 20.1742 7.47796 18.659 7.4436L18.6195 7.44271C17.1185 7.40866 15.4992 7.37194 13.8273 7.37194C8.68464 7.37194 3.59655 7.15863 1.50415 7.05918C1.07209 7.03864 0.785406 6.7861 0.723581 6.5019C0.61087 5.98378 0.5 5.258 0.5 4.40986C0.5 3.57724 0.502839 3.11761 0.558947 2.69997Z" stroke="#141414"/>
</svg>
