<svg id="Layer_1" data-name="Layer 1" xmlns="http://www.w3.org/2000/svg" xmlns:xlink="http://www.w3.org/1999/xlink" viewBox="0 0 96.92 36"><defs><style>.cls-1,.cls-3{fill:#fff;fill-rule:evenodd;}.cls-2{mask:url(#mask);}.cls-3{fill-opacity:0.7;}.cls-4{fill:none;stroke:#fff;stroke-linecap:round;stroke-linejoin:round;stroke-width:1.22px;}</style><mask id="mask" x="-2.37" y="1.31" width="104.53" height="34.69" maskUnits="userSpaceOnUse"><g transform="translate(-2.84 0)"><g id="prefix_logo" data-name="prefix  logo"><path class="cls-1" d="M.47,1.31H105V36H.47Z"/></g></g></mask></defs><g class="cls-2"><path class="cls-1" d="M17.86,36c6.42,0,8-2.59,8-6.14,0-4.37-3.92-5.18-7.19-5.72-2.49-.42-3.63-.64-3.63-2.16,0-1.14,1-1.57,2.61-1.57,2,0,2.53.57,2.71,2.24l5.21-.78c-.44-3.59-2.46-5.4-7.78-5.4-5.83,0-7.88,2.35-7.88,6.07,0,4.83,4.51,5.33,7.88,5.9,2.09.39,2.9.75,2.9,2.13,0,1.14-.7,1.63-2.79,1.63-2.31,0-3-.39-3.3-2.27l-5.06.75C10.05,34.44,12.28,36,17.86,36Zm16.79-3.9c-2.46,0-3.34-.54-3.34-2.31,0-1.6.88-2.24,3.53-2.24h2.64v1.85C37.48,31.13,36.6,32.06,34.65,32.06ZM32.38,36c2.86,0,4.14-.92,5.06-2.27v2h5.17V22.86c0-4.3-1.65-6.46-7.37-6.46C29.7,16.4,27.76,18,27,21.79l5.14.79c.33-1.64.81-2.13,2.94-2.13s2.38.85,2.38,2.27V24H35c-6.57,0-8.81,2-8.81,6S28.23,36,32.38,36Zm11.55-.24h5.29V8.32l-5.29,5.23ZM55.67,24.14v-1c0-1.67.77-2.81,3.08-2.81s3,1,3,2.81v1ZM58.75,36c6.09,0,7.71-2.84,8.07-5.68l-5-.75c-.22,1.71-.55,2.59-3,2.59s-3.08-1.24-3.08-2.87V27.73H66.82V24.32c0-4.76-1.87-7.92-8.07-7.92s-8.21,3.19-8.21,7.24v5.12c0,3.94,2.12,7.24,8.21,7.24Zm17.87,0c6,0,8.55-3.09,8.55-7.24V23.64c0-4.22-2.5-7.24-8.55-7.24s-8.47,3-8.47,7.24v5.12C68.15,32.91,70.53,36,76.62,36Zm0-4.12c-2.13,0-3.19-1.1-3.19-2.88V23.54c0-1.81,1.06-2.92,3.19-2.92s3.26,1.1,3.26,2.92V29c0,1.78-1.13,2.88-3.26,2.88Zm18-10.06H91.77V35.6H86.49V21.82l5.16-5.24h8.11L94.6,21.82Z" transform="translate(-2.84 0)"/></g><path id="color-dash" class="cls-3" d="M24.33,0,17.38,7.24H34.56L41.51,0Z" transform="translate(-2.84 0)"/><path class="cls-4" d="M10,3,3.45,9.49H26L32.55,3Z" transform="translate(-2.84 0)"/></svg>