<svg width="189" height="76" viewBox="0 0 189 76" fill="none" xmlns="http://www.w3.org/2000/svg">
<g id="Logo">
<g id="Group">
<g id="Group_2">
<path id="Vector" d="M45.3351 36.1474L43.5613 44.1855H39.0137L43.6208 23.2402H48.9732C51.328 23.2402 53.097 23.7283 54.2803 24.7021C55.4637 25.676 56.0541 27.1045 56.0541 28.9855C56.0541 30.495 55.6422 31.7902 54.8161 32.8759C53.9922 33.9593 52.8041 34.764 51.2541 35.2902L55.1446 44.1879H50.1946L47.1089 36.1498H45.3351V36.1474ZM46.1256 32.5379H47.2875C48.5899 32.5379 49.6018 32.2664 50.328 31.7212C51.0541 31.176 51.4161 30.345 51.4161 29.2283C51.4161 28.445 51.1803 27.8569 50.7089 27.4664C50.2375 27.0759 49.4946 26.8783 48.4803 26.8783H47.378L46.1256 32.5379Z" fill="white"/>
<path id="Vector_2" d="M64.7235 44.1859H57.2949L60.1044 31.4121H67.5402L67.0497 33.6312H62.3949L61.7854 36.4359H66.1211L65.6211 38.655H61.2854L60.5592 41.9502H65.214L64.7235 44.1859Z" fill="white"/>
<path id="Vector_3" d="M74.5224 40.9621L79.532 31.4121H83.3772L80.5677 44.1859H78.0224L79.3415 38.1383C79.6629 36.7002 79.982 35.4145 80.2962 34.2859H80.251L75.0772 44.1859H72.5224L71.9677 34.2859H71.932C71.8653 34.7978 71.751 35.4716 71.5867 36.305C71.4224 37.1383 70.8558 39.7645 69.8867 44.1859H67.3867L70.1962 31.4121H73.8701L74.4891 40.9621H74.5224Z" fill="white"/>
<path id="Vector_4" d="M90.9418 41.1451H86.6418L85.0775 44.1856H82.168L89.1323 31.3594H92.5227L93.8584 44.1856H91.1584L90.9418 41.1451ZM90.8061 38.8713L90.5704 35.8141C90.5108 35.0522 90.4799 34.3141 90.4799 33.6046V33.2903C90.2132 33.9903 89.8823 34.7284 89.4894 35.5094L87.7799 38.8737H90.8061V38.8713Z" fill="white"/>
<path id="Vector_5" d="M106.316 44.1859H103.206L99.9705 34.5216H99.9157L99.88 34.8002C99.6871 36.0573 99.4847 37.1835 99.28 38.174L97.9609 44.1859H95.4609L98.2705 31.4121H101.516L104.606 40.8216H104.642C104.716 40.3788 104.832 39.7478 104.997 38.9264C105.161 38.105 105.706 35.6002 106.632 31.4121H109.123L106.316 44.1859Z" fill="white"/>
<path id="Vector_6" d="M126.841 44.1855H114.662L119.269 23.2402H131.462L130.657 26.8783H123.024L122.026 31.476H129.136L128.317 35.114H121.207L120.014 40.514H127.648L126.841 44.1855Z" fill="white"/>
<path id="Vector_7" d="M141.757 44.1859H138.648L135.412 34.5216H135.357L135.321 34.8002C135.129 36.0573 134.929 37.1835 134.721 38.174L133.402 44.1859H130.902L133.712 31.4121H136.957L140.048 40.8216H140.083C140.157 40.3788 140.274 39.7478 140.438 38.9264C140.602 38.105 141.148 35.6002 142.074 31.4121H144.564L141.757 44.1859Z" fill="white"/>
<path id="Vector_8" d="M151.328 37.0114H156.447L154.973 43.6685C154.161 43.9376 153.408 44.1185 152.713 44.2137C152.018 44.309 151.285 44.359 150.508 44.359C148.939 44.359 147.728 43.9304 146.873 43.0757C146.018 42.2185 145.592 40.9899 145.592 39.3876C145.592 37.8257 145.916 36.4161 146.566 35.1542C147.213 33.8923 148.125 32.9209 149.301 32.2352C150.478 31.5518 151.835 31.209 153.375 31.209C154.697 31.209 155.939 31.4971 157.104 32.0733L156.058 34.2661C155.611 34.0328 155.161 33.8471 154.713 33.7066C154.266 33.5661 153.778 33.4971 153.249 33.4971C152.323 33.4971 151.492 33.7399 150.763 34.2233C150.035 34.7066 149.461 35.3947 149.044 36.2899C148.63 37.1852 148.42 38.1471 148.42 39.178C148.42 40.1804 148.639 40.9161 149.08 41.3852C149.518 41.8542 150.194 42.0876 151.104 42.0876C151.563 42.0876 152.08 42.0185 152.649 41.878L153.249 39.2661H150.82L151.328 37.0114Z" fill="white"/>
<path id="Vector_9" d="M157.803 44.1859L160.638 31.4121H163.412L160.577 44.1859H157.803Z" fill="white"/>
<path id="Vector_10" d="M174.65 44.1859H171.54L168.304 34.5216H168.25L168.214 34.8002C168.021 36.0573 167.821 37.1835 167.614 38.174L166.295 44.1859H163.795L166.604 31.4121H169.85L172.94 40.8216H172.976C173.05 40.3788 173.166 39.7478 173.331 38.9264C173.495 38.105 174.04 35.6002 174.966 31.4121H177.457L174.65 44.1859Z" fill="white"/>
<path id="Vector_11" d="M185.276 44.1859H177.848L180.657 31.4121H188.095L187.605 33.6312H182.95L182.341 36.4359H186.676L186.176 38.655H181.841L181.114 41.9502H185.769L185.276 44.1859Z" fill="white"/>
</g>
<path id="Vector_12" d="M72.1436 47.0664H65.477C65.477 47.0664 63.8103 55.1616 58.0508 56.595C58.0508 56.595 66.6674 55.6378 72.1436 47.0664Z" fill="#999999"/>
<path id="Vector_13" d="M18.8095 25.8764L0 26.5907V17.7002L7.14286 18.9716C7.14286 18.9716 8.57143 12.5431 12.8571 10.1621L7.38095 5.87639L20.2381 0.6383L24.7619 5.16211C24.7619 5.16211 30 2.78116 35.4762 3.97163L34.7619 0.162109L50 4.20973L50.2381 7.30497C50.2381 7.30497 57.619 9.92401 61.1905 12.7812L63.5714 10.4002L75 20.6383L73.0952 22.5431L76.1905 25.6383H74.2857C74.2857 25.6383 61.9048 9.44782 42.381 6.82878C42.381 6.82878 19.0476 3.01925 18.8095 25.8764Z" fill="white"/>
<path id="Vector_14" d="M74.0474 25.6383C74.0474 25.6383 64.2855 13.0193 49.0474 8.49547C49.0474 8.49547 29.2855 1.59071 21.0117 15.7526C21.0117 15.7526 44.4117 3.97166 59.707 25.6383H74.0474Z" fill="#999999"/>
<path id="Vector_15" d="M78.0944 47.0659V51.4993L83.0944 56.3517L77.142 68.0183L71.1896 62.7802C71.1896 62.7802 67.8563 67.5421 61.6658 67.304L62.6182 75.1612H42.6992L41.6658 67.304C41.6658 67.304 30.2373 66.1136 25.4754 60.6374L20.7134 65.8755L1.42773 49.4469L4.99916 48.0183L4.59678 46.0421L24.2325 43.9707C24.2325 43.9707 56.6682 70.8755 72.6206 47.0659H78.0944Z" fill="#049DE9"/>
</g>
</g>
</svg>
