<svg width="251" height="100" viewBox="0 0 251 100" fill="none" xmlns="http://www.w3.org/2000/svg">
<g id="Logo">
<g id="Group">
<g id="Group_2">
<path id="Vector" d="M60.4481 47.981L58.083 58.6985H52.0195L58.1624 30.7715H65.2989C68.4386 30.7715 70.7973 31.4223 72.3751 32.7207C73.9529 34.0191 74.7402 35.9239 74.7402 38.4318C74.7402 40.4445 74.191 42.1715 73.0894 43.6191C71.991 45.0635 70.4068 46.1366 68.3402 46.8382L73.5275 58.7016H66.9275L62.8132 47.9842H60.4481V47.981ZM61.5021 43.1683H63.0513C64.7878 43.1683 66.137 42.8064 67.1052 42.0794C68.0735 41.3524 68.556 40.2445 68.556 38.7556C68.556 37.7112 68.2418 36.927 67.6132 36.4064C66.9846 35.8858 65.9941 35.6223 64.6418 35.6223H63.1719L61.5021 43.1683Z" fill="#1A1A25"/>
<path id="Vector_2" d="M86.2993 58.6978H76.3945L80.1406 41.666H90.0548L89.4009 44.6247H83.1945L82.3818 48.3644H88.1628L87.4961 51.3232H81.7152L80.7469 55.7168H86.9533L86.2993 58.6978Z" fill="#1A1A25"/>
<path id="Vector_3" d="M99.3658 54.3993L106.045 41.666H111.172L107.426 58.6978H104.033L105.791 50.6343C106.22 48.7168 106.645 47.0025 107.064 45.4978H107.004L100.106 58.6978H96.6992L95.9595 45.4978H95.9119C95.823 46.1803 95.6706 47.0787 95.4516 48.1898C95.2325 49.3009 94.477 52.8025 93.1849 58.6978H89.8516L93.5976 41.666H98.496L99.3214 54.3993H99.3658Z" fill="#1A1A25"/>
<path id="Vector_4" d="M121.257 54.6453H115.524L113.438 58.6992H109.559L118.844 41.5977H123.365L125.146 58.6992H121.546L121.257 54.6453ZM121.076 51.6135L120.762 47.5373C120.682 46.5215 120.641 45.5373 120.641 44.5913V44.1723C120.286 45.1056 119.844 46.0897 119.32 47.131L117.041 51.6167H121.076V51.6135Z" fill="#1A1A25"/>
<path id="Vector_5" d="M141.756 58.6978H137.61L133.296 45.812H133.223L133.175 46.1835C132.918 47.8597 132.648 49.3613 132.375 50.6819L130.617 58.6978H127.283L131.029 41.666H135.356L139.477 54.212H139.524C139.623 53.6216 139.778 52.7803 139.997 51.6851C140.217 50.5898 140.944 47.2501 142.178 41.666H145.499L141.756 58.6978Z" fill="#1A1A25"/>
<path id="Vector_6" d="M169.121 58.6985H152.883L159.026 30.7715H175.283L174.21 35.6223H164.032L162.702 41.7524H172.181L171.089 46.6032H161.61L160.019 53.8032H170.197L169.121 58.6985Z" fill="#1A1A25"/>
<path id="Vector_7" d="M189.01 58.6978H184.864L180.55 45.812H180.477L180.429 46.1835C180.172 47.8597 179.905 49.3613 179.629 50.6819L177.87 58.6978H174.537L178.283 41.666H182.61L186.731 54.212H186.778C186.877 53.6216 187.032 52.7803 187.251 51.6851C187.47 50.5898 188.197 47.2501 189.432 41.666H192.753L189.01 58.6978Z" fill="#1A1A25"/>
<path id="Vector_8" d="M201.773 49.133H208.598L206.633 58.0092C205.55 58.3679 204.547 58.6092 203.62 58.7362C202.693 58.8632 201.715 58.9298 200.681 58.9298C198.589 58.9298 196.973 58.3584 195.833 57.2187C194.693 56.0759 194.125 54.4378 194.125 52.3012C194.125 50.2187 194.557 48.3393 195.423 46.6568C196.287 44.9743 197.503 43.679 199.071 42.7647C200.639 41.8536 202.449 41.3965 204.503 41.3965C206.265 41.3965 207.922 41.7806 209.474 42.5489L208.081 45.4727C207.484 45.1616 206.884 44.9139 206.287 44.7266C205.69 44.5393 205.039 44.4473 204.335 44.4473C203.1 44.4473 201.992 44.7711 201.02 45.4155C200.049 46.06 199.284 46.9774 198.728 48.1711C198.176 49.3647 197.896 50.6473 197.896 52.0219C197.896 53.3584 198.188 54.3393 198.776 54.9647C199.36 55.5901 200.262 55.9012 201.474 55.9012C202.087 55.9012 202.776 55.8092 203.535 55.6219L204.335 52.1393H201.096L201.773 49.133Z" fill="#1A1A25"/>
<path id="Vector_9" d="M210.404 58.6978L214.185 41.666H217.884L214.103 58.6978H210.404Z" fill="#1A1A25"/>
<path id="Vector_10" d="M232.868 58.6978H228.722L224.407 45.812H224.334L224.287 46.1835C224.029 47.8597 223.763 49.3613 223.487 50.6819L221.728 58.6978H218.395L222.141 41.666H226.468L230.588 54.212H230.636C230.734 53.6216 230.89 52.7803 231.109 51.6851C231.328 50.5898 232.055 47.2501 233.29 41.666H236.61L232.868 58.6978Z" fill="#1A1A25"/>
<path id="Vector_11" d="M247.036 58.6978H237.131L240.877 41.666H250.794L250.14 44.6247H243.934L243.121 48.3644H248.902L248.236 51.3232H242.455L241.486 55.7168H247.693L247.036 58.6978Z" fill="#1A1A25"/>
</g>
<path id="Vector_12" d="M96.1909 62.5391H87.302C87.302 62.5391 85.0798 73.3327 77.4004 75.2438C77.4004 75.2438 88.8893 73.9676 96.1909 62.5391Z" fill="#1A1A25"/>
<path id="Vector_13" d="M25.0794 34.2857L0 35.2381V23.3841L9.52381 25.0794C9.52381 25.0794 11.4286 16.5079 17.1429 13.3333L9.84127 7.61905L26.9841 0.634921L33.0159 6.66667C33.0159 6.66667 40 3.49206 47.3016 5.07936L46.3492 0L66.6667 5.39682L66.9841 9.52381C66.9841 9.52381 76.8254 13.0159 81.5873 16.8254L84.7619 13.6508L100 27.3016L97.4603 29.8413L101.587 33.9683H99.0476C99.0476 33.9683 82.5397 12.381 56.5079 8.88889C56.5079 8.88889 25.3968 3.80952 25.0794 34.2857Z" fill="#1A1A25"/>
<path id="Vector_14" d="M98.7299 33.9683C98.7299 33.9683 85.714 17.1429 65.3966 11.1111C65.3966 11.1111 39.0474 1.9048 28.0156 20.7873C28.0156 20.7873 59.2156 5.0794 79.6093 33.9683H98.7299Z" fill="#1A1A25"/>
<path id="Vector_15" d="M104.127 62.5391V68.4502L110.793 74.92L102.857 90.4756L94.9202 83.4915C94.9202 83.4915 90.4757 89.8407 82.2218 89.5232L83.4916 99.9994H56.9329L55.5551 89.5232C55.5551 89.5232 40.317 87.9359 33.9678 80.6343L27.6186 87.6185L1.9043 65.7137L6.6662 63.8089L6.12969 61.174L32.3106 58.4121C32.3106 58.4121 75.5583 94.2851 96.8281 62.5391H104.127Z" fill="#049DE9"/>
</g>
</g>
</svg>
