<svg width="44" height="40" viewBox="0 0 44 40" fill="none" xmlns="http://www.w3.org/2000/svg">
<g id="Logo">
<g id="Group">
<path id="Vector" d="M37.9048 24.8906H34.4389C34.4389 24.8906 33.5724 29.0992 30.5781 29.8444C30.5781 29.8444 35.0578 29.3468 37.9048 24.8906Z" fill="#999999"/>
<path id="Vector_2" d="M10.1772 13.8734L0.398438 14.2447V9.62268L4.1119 10.2837C4.1119 10.2837 4.8546 6.94156 7.08268 5.70374L4.23569 3.47566L10.9199 0.752447L13.2718 3.10431C13.2718 3.10431 15.995 1.86649 18.842 2.4854L18.4706 0.504883L26.3927 2.60918L26.5165 4.21835C26.5165 4.21835 30.3537 5.57996 32.2105 7.06534L33.4483 5.82752L39.3898 11.1502L38.3996 12.1404L40.0088 13.7496H39.0185C39.0185 13.7496 32.5818 5.33239 22.4317 3.97079C22.4317 3.97079 10.301 1.99027 10.1772 13.8734Z" fill="black"/>
<path id="Vector_3" d="M38.8928 13.7492C38.8928 13.7492 33.8177 7.18873 25.8957 4.83687C25.8957 4.83687 15.6217 1.24718 11.3203 8.60975C11.3203 8.60975 23.4856 2.485 31.4374 13.7492H38.8928Z" fill="#999999"/>
<path id="Vector_4" d="M40.9985 24.8894V27.1943L43.5979 29.717L40.5034 35.7823L37.4088 33.0591C37.4088 33.0591 35.6759 35.5347 32.4575 35.4109L32.9527 39.4957H22.597L22.0598 35.4109C22.0598 35.4109 16.1183 34.792 13.6426 31.945L11.167 34.6682L1.14062 26.1273L2.99736 25.3846L2.78817 24.3572L12.9965 23.2803C12.9965 23.2803 29.8593 37.2677 38.1528 24.8894H40.9985Z" fill="#049DE9"/>
</g>
</g>
</svg>
