<svg width="180" height="180" viewBox="0 0 180 180" fill="none" xmlns="http://www.w3.org/2000/svg">
<circle cx="90" cy="90" r="90" fill="#CCEBF5"/>
<circle cx="90" cy="90" r="52" fill="white"/>
<path d="M97.1616 75.6841L91.1208 61.8659L91.0459 61.825L90.9846 61.6888L90.9165 61.6071L90.8416 61.5186L90.7531 61.4369L90.6646 61.3756C90.6283 61.3491 90.5895 61.3263 90.5488 61.3075H90.4875L90.3649 61.2666H90.2696H90.1538H89.9358H89.8201H89.7111H89.6021L89.5204 61.3143L89.4319 61.3619L89.3297 61.4437L89.2616 61.505L89.1663 61.6071C89.14 61.6377 89.1103 61.6651 89.0777 61.6888L89.0028 61.825L88.962 61.8932L82.8871 75.6841C82.7967 75.8846 82.7683 76.1075 82.8054 76.3242C82.7987 76.4127 82.7987 76.5014 82.8054 76.5898V115.627C82.8021 115.661 82.8021 115.695 82.8054 115.729C82.8054 115.804 82.8054 115.872 82.8054 115.94C82.8072 116.79 83.1458 117.605 83.7469 118.206C84.3481 118.807 85.1629 119.146 86.0131 119.148H94.0765C94.9273 119.148 95.7431 118.81 96.3447 118.208C96.9462 117.607 97.2842 116.791 97.2842 115.94C97.2842 115.872 97.2842 115.804 97.2842 115.729C97.2842 115.654 97.2842 115.661 97.2842 115.627V76.5898C97.2912 76.4651 97.2912 76.34 97.2842 76.2153C97.2844 76.0312 97.2425 75.8495 97.1616 75.6841ZM88.172 69.4254H91.8768L93.7633 73.7159H86.2719L88.172 69.4254ZM90.0244 65.2302L90.8552 67.1167H89.1935L90.0244 65.2302ZM85.1073 76.6035C85.1073 76.3787 85.5091 76.045 86.1152 76.045H88.8802V112.698H85.9927C85.6929 112.699 85.3948 112.743 85.1073 112.828V76.6035ZM91.1958 76.045H93.9199C94.526 76.045 94.9346 76.3787 94.9346 76.6035V112.828C94.6448 112.743 94.3445 112.699 94.0425 112.698H91.1958V76.045ZM94.0765 116.812H85.9927C85.7704 116.792 85.5635 116.69 85.4127 116.526C85.262 116.361 85.1784 116.146 85.1784 115.923C85.1784 115.7 85.262 115.485 85.4127 115.32C85.5635 115.156 85.7704 115.054 85.9927 115.034H94.0765C94.1998 115.023 94.3239 115.038 94.4411 115.078C94.5583 115.118 94.6659 115.182 94.7571 115.265C94.8483 115.349 94.9212 115.45 94.971 115.564C95.0208 115.677 95.0466 115.799 95.0466 115.923C95.0466 116.047 95.0208 116.169 94.971 116.282C94.9212 116.396 94.8483 116.497 94.7571 116.581C94.6659 116.664 94.5583 116.728 94.4411 116.768C94.3239 116.808 94.1998 116.822 94.0765 116.812Z" fill="#073B4C"/>
<path d="M118.144 76.5904C118.144 76.467 118.132 76.344 118.11 76.2226C118.124 76.0561 118.101 75.8886 118.042 75.7323L114.514 66.5247C114.427 66.3109 114.281 66.1265 114.092 65.9935C113.985 65.8815 113.856 65.7924 113.713 65.7315C113.57 65.6707 113.416 65.6393 113.261 65.6394H111.981V61.8256C111.958 61.533 111.826 61.2596 111.611 61.0602C111.396 60.8608 111.113 60.75 110.82 60.75C110.526 60.75 110.244 60.8608 110.028 61.0602C109.813 61.2596 109.681 61.533 109.659 61.8256V65.6394H108.644C108.352 65.6402 108.072 65.7523 107.861 65.9526C107.639 66.0794 107.468 66.2792 107.377 66.5179L103.727 75.7255C103.657 75.9076 103.634 76.1041 103.659 76.2975C103.659 76.3929 103.659 76.4882 103.659 76.5904V115.627C103.677 115.731 103.677 115.837 103.659 115.94C103.659 116.791 103.997 117.607 104.598 118.209C105.2 118.81 106.016 119.148 106.866 119.148H114.957C115.808 119.148 116.624 118.81 117.225 118.209C117.827 117.607 118.165 116.791 118.165 115.94C118.165 115.879 118.165 115.825 118.165 115.77C118.168 115.723 118.168 115.675 118.165 115.627L118.144 76.5904ZM109.298 67.9549H112.58L114.787 73.7096H107.016L109.298 67.9549ZM115.829 115.205C115.762 115.388 115.746 115.586 115.781 115.777C115.781 115.852 115.781 115.934 115.829 115.9C115.831 116.134 115.74 116.36 115.577 116.528C115.414 116.696 115.191 116.793 114.957 116.799H106.853C106.635 116.802 106.423 116.726 106.257 116.584C106.092 116.443 105.984 116.245 105.954 116.029C105.954 115.988 106.001 115.825 106.008 115.784C106.04 115.608 106.024 115.427 105.961 115.259V76.5904C105.961 76.3656 106.362 76.0319 106.975 76.0319H114.814C115.42 76.0319 115.829 76.3656 115.829 76.5904V115.205Z" fill="#073B4C"/>
<path d="M74.6874 62.2001H65.5343C64.5975 62.1594 63.6828 62.4911 62.9898 63.1228C62.2969 63.7545 61.8822 64.6347 61.8363 65.5712V115.92C61.8329 115.981 61.8329 116.043 61.8363 116.104C61.8363 116.172 61.8363 116.254 61.8363 116.335C61.805 117.309 62.1608 118.256 62.8258 118.968C63.4907 119.68 64.4107 120.1 65.3845 120.136H74.8372C75.3217 120.118 75.7981 120.005 76.2388 119.803C76.6796 119.601 77.0762 119.314 77.4058 118.958C77.7354 118.603 77.9917 118.186 78.1597 117.731C78.3278 117.276 78.4045 116.793 78.3854 116.308C78.3892 116.233 78.3892 116.158 78.3854 116.083C78.389 116.02 78.389 115.956 78.3854 115.893V65.5712C78.3395 64.6347 77.9247 63.7545 77.2318 63.1228C76.5389 62.4911 75.6241 62.1594 74.6874 62.2001ZM76.0494 115.511C75.9792 115.696 75.9558 115.895 75.9813 116.09C75.9813 116.131 76.0358 116.295 76.0494 116.335C76.0663 116.514 76.0478 116.694 75.9949 116.865C75.942 117.037 75.8559 117.196 75.7414 117.334C75.6268 117.472 75.4862 117.586 75.3276 117.669C75.1689 117.753 74.9953 117.804 74.8168 117.82H65.3845C65.0302 117.786 64.7036 117.614 64.4745 117.341C64.2454 117.069 64.132 116.718 64.1586 116.363C64.1586 116.322 64.2131 116.131 64.2199 116.09C64.2421 115.915 64.2186 115.736 64.1518 115.573V114.715H68.6807C68.9733 114.692 69.2466 114.56 69.446 114.345C69.6454 114.13 69.7562 113.847 69.7562 113.553C69.7562 113.26 69.6454 112.977 69.446 112.762C69.2466 112.547 68.9733 112.415 68.6807 112.392H64.1518V109.736H68.6807C68.9877 109.736 69.2822 109.614 69.4993 109.397C69.7164 109.18 69.8384 108.886 69.8384 108.578C69.8384 108.271 69.7164 107.977 69.4993 107.76C69.2822 107.543 68.9877 107.421 68.6807 107.421H64.1518V104.765H68.6807C68.9877 104.765 69.2822 104.643 69.4993 104.426C69.7164 104.208 69.8384 103.914 69.8384 103.607C69.8384 103.3 69.7164 103.005 69.4993 102.788C69.2822 102.571 68.9877 102.449 68.6807 102.449H64.1518V99.7932H68.6807C68.9877 99.7932 69.2822 99.6712 69.4993 99.4541C69.7164 99.2369 69.8384 98.9425 69.8384 98.6354C69.8384 98.3284 69.7164 98.0339 69.4993 97.8167C69.2822 97.5996 68.9877 97.4776 68.6807 97.4776H64.1518V94.8216H68.6807C68.9877 94.8216 69.2822 94.6996 69.4993 94.4825C69.7164 94.2654 69.8384 93.9709 69.8384 93.6639C69.8384 93.3568 69.7164 93.0623 69.4993 92.8452C69.2822 92.6281 68.9877 92.5061 68.6807 92.5061H64.1518V89.8501H68.6807C68.9733 89.8277 69.2466 89.6956 69.446 89.4803C69.6454 89.265 69.7562 88.9824 69.7562 88.6889C69.7562 88.3955 69.6454 88.1128 69.446 87.8975C69.2466 87.6822 68.9733 87.5502 68.6807 87.5278H64.1518V84.8717H68.6807C68.9877 84.8717 69.2822 84.7497 69.4993 84.5326C69.7164 84.3155 69.8384 84.021 69.8384 83.714C69.8384 83.4069 69.7164 83.1124 69.4993 82.8953C69.2822 82.6782 68.9877 82.5562 68.6807 82.5562H64.1518V79.9002H68.6807C68.9877 79.9002 69.2822 79.7782 69.4993 79.5611C69.7164 79.344 69.8384 79.0495 69.8384 78.7424C69.8384 78.4354 69.7164 78.1409 69.4993 77.9238C69.2822 77.7066 68.9877 77.5847 68.6807 77.5847H64.1518V74.9286H68.6807C68.9877 74.9286 69.2822 74.8067 69.4993 74.5895C69.7164 74.3724 69.8384 74.0779 69.8384 73.7709C69.8384 73.4638 69.7164 73.1693 69.4993 72.9522C69.2822 72.7351 68.9877 72.6131 68.6807 72.6131H64.1518V69.9571H68.6807C68.9733 69.9347 69.2466 69.8026 69.446 69.5873C69.6454 69.372 69.7562 69.0894 69.7562 68.7959C69.7562 68.5025 69.6454 68.2198 69.446 68.0046C69.2466 67.7893 68.9733 67.6572 68.6807 67.6348H64.1518V65.5917C64.2053 65.2771 64.3749 64.994 64.6272 64.7985C64.8794 64.603 65.1959 64.5094 65.5139 64.5361H74.6874C75.0054 64.5094 75.3218 64.603 75.5741 64.7985C75.8263 64.994 75.9959 65.2771 76.0494 65.5917V115.511Z" fill="#073B4C"/>
</svg>
