<svg width="180" height="180" viewBox="0 0 180 180" fill="none" xmlns="http://www.w3.org/2000/svg">
<circle cx="90" cy="90" r="90" fill="#06D6A0"/>
<circle cx="90" cy="90" r="52" fill="white"/>
<path d="M64.2749 68C63.9183 67.9985 63.5757 68.1504 63.3225 68.4223C63.0693 68.6942 62.9263 69.0638 62.9248 69.4497V77.2072H58.4176C58.2401 77.2065 58.0642 77.2438 57.9001 77.3169C57.736 77.3901 57.5869 77.4977 57.4614 77.6335C57.3359 77.7693 57.2364 77.9307 57.1688 78.1083C57.1012 78.2859 57.0668 78.4763 57.0675 78.6684C57.0682 78.8595 57.1037 79.0486 57.1719 79.2249C57.2401 79.4012 57.3397 79.5612 57.4651 79.6958C57.5905 79.8305 57.7391 79.937 57.9025 80.0095C58.066 80.0819 58.241 80.1188 58.4176 80.1181H62.9248V86.4884H52.3422C51.9865 86.4891 51.6455 86.6424 51.3939 86.9147C51.1423 87.1869 51.0007 87.556 51 87.941C50.9993 88.1323 51.0335 88.322 51.1006 88.499C51.1677 88.6761 51.2664 88.8371 51.3911 88.9728C51.5158 89.1085 51.664 89.2163 51.8272 89.2899C51.9904 89.3636 52.1654 89.4017 52.3422 89.4021H62.9248V105.517C62.9242 105.709 62.9586 105.899 63.0262 106.077C63.0938 106.254 63.1933 106.416 63.3188 106.552C63.4443 106.688 63.5934 106.795 63.7575 106.868C63.9216 106.941 64.0974 106.979 64.2749 106.978H71.5454C72.2964 110.049 74.8592 112.339 77.9044 112.339C80.9497 112.339 83.5181 110.049 84.2714 106.978H102.692H108.812C109.563 110.049 112.125 112.339 115.171 112.339C118.216 112.339 120.787 110.049 121.54 106.978H127.65C127.827 106.979 128.003 106.941 128.167 106.868C128.331 106.795 128.481 106.688 128.606 106.552C128.732 106.416 128.831 106.254 128.899 106.077C128.966 105.899 129.001 105.709 129 105.517V92.0002C128.998 91.7803 128.951 91.5635 128.861 91.3663L122.775 77.8525C122.664 77.6068 122.492 77.3997 122.278 77.2549C122.064 77.1102 121.817 77.0335 121.564 77.0338H104.042V69.4497C104.04 69.0638 103.897 68.6942 103.644 68.4223C103.391 68.1504 103.048 67.9985 102.692 68H64.2749ZM65.6145 70.9108H101.352V104.067H84.4263C83.9575 100.599 81.2109 97.8987 77.9044 97.8987C74.598 97.8987 71.8604 100.599 71.3931 104.067H65.6145V89.4021H78.7082C78.8848 89.4013 79.0595 89.363 79.2224 89.2891C79.3853 89.2153 79.5332 89.1075 79.6576 88.9718C79.782 88.8361 79.8805 88.6752 79.9474 88.4984C80.0143 88.3215 80.0484 88.1321 80.0478 87.941C80.0471 87.5565 79.9058 87.1878 79.6548 86.9157C79.4038 86.6435 79.0635 86.4899 78.7082 86.4884H65.6145V80.1181H78.7082C79.063 80.1166 79.403 79.9634 79.6539 79.6918C79.9048 79.4203 80.0464 79.0524 80.0478 78.6684C80.0484 78.4772 80.0143 78.2878 79.9474 78.111C79.8805 77.9341 79.782 77.7732 79.6576 77.6376C79.5332 77.5019 79.3853 77.394 79.2224 77.3202C79.0595 77.2464 78.8848 77.208 78.7082 77.2072H65.6145V70.9108ZM104.042 79.9475H120.721L125.501 90.5505H104.042V79.9475ZM104.042 93.4613H126.31V104.067H121.693C121.224 100.599 118.477 97.8987 115.171 97.8987C111.864 97.8987 109.127 100.599 108.659 104.067H104.042V93.4613ZM77.8046 100.812C77.8381 100.811 77.8707 100.812 77.9044 100.812C80.0621 100.812 81.805 102.709 81.805 105.119C81.805 107.529 80.0621 109.428 77.9044 109.428C75.7467 109.428 74.0118 107.529 74.0118 105.119C74.0118 102.746 75.694 100.87 77.8046 100.812ZM115.071 100.812C115.105 100.811 115.137 100.812 115.171 100.812C117.329 100.812 119.074 102.709 119.074 105.119C119.074 107.529 117.329 109.428 115.171 109.428C113.013 109.428 111.281 107.529 111.281 105.119C111.281 102.746 112.96 100.87 115.071 100.812Z" fill="#073B4C"/>
</svg>
