<svg width="180" height="180" viewBox="0 0 180 180" fill="none" xmlns="http://www.w3.org/2000/svg">
<circle cx="90" cy="90" r="90" fill="#FFD166"/>
<circle cx="88" cy="90" r="52" fill="white"/>
<path d="M57.9998 63V65.5376H64.9484L72.9276 95.8609L71.4767 98.6846C70.6842 100.227 70.77 102.023 71.7061 103.487C72.6383 104.946 74.25 105.817 76.0174 105.817H110.192V103.28H76.0174C75.1506 103.28 74.3906 102.868 73.9325 102.152C73.4772 101.439 73.4356 100.566 73.8211 99.8155L75.1273 97.273H111.738L118.666 70.3235H68.9102L66.9831 63H57.9998ZM69.578 72.8612H79.2678V94.7354H75.3339L69.578 72.8612ZM81.7756 72.8612H87.351V94.7354H81.7756V72.8612ZM89.859 72.8612H95.5522V94.7354H89.859V72.8612ZM98.06 72.8612H103.658V94.7354H98.06V72.8612ZM106.166 72.8612H115.315L109.692 94.7354H106.166V72.8612ZM81.0883 106.69C78.1437 106.69 75.748 109.08 75.748 112.016C75.748 114.953 78.1436 117.343 81.0883 117.343C84.0331 117.343 86.4288 114.953 86.4288 112.016C86.4288 109.08 84.0331 106.69 81.0883 106.69ZM101.807 106.69C98.8622 106.69 96.4666 109.08 96.4666 112.016C96.4666 114.953 98.8622 117.343 101.807 117.343C104.752 117.343 107.147 114.953 107.147 112.016C107.147 109.08 104.752 106.69 101.807 106.69ZM81.0883 109.228C82.5977 109.228 83.8258 110.479 83.8258 112.016C83.8258 113.554 82.5978 114.805 81.0883 114.805C79.5791 114.805 78.3511 113.554 78.3511 112.016C78.3511 110.479 79.5791 109.228 81.0883 109.228ZM101.807 109.228C103.316 109.228 104.544 110.479 104.544 112.016C104.544 113.554 103.316 114.805 101.807 114.805C100.298 114.805 99.0696 113.554 99.0696 112.016C99.0696 110.479 100.298 109.228 101.807 109.228Z" fill="#073B4C" stroke="#073B4C" stroke-width="0.25"/>
</svg>
