<svg width="180" height="180" viewBox="0 0 180 180" fill="none" xmlns="http://www.w3.org/2000/svg">
<circle cx="90" cy="90" r="90" fill="#70C8E5"/>
<circle cx="90" cy="90" r="52" fill="white"/>
<path d="M84.5024 82.1097C84.5024 82.7965 83.9456 83.3532 83.2589 83.3532C82.5721 83.3532 82.0153 82.7965 82.0153 82.1097C82.0153 81.4229 82.5721 80.8661 83.2589 80.8661C83.9456 80.8661 84.5024 81.4229 84.5024 82.1097ZM96.5676 80.8661C95.8809 80.8661 95.3241 81.4229 95.3241 82.1097C95.3241 82.7965 95.8809 83.3532 96.5676 83.3532C97.2544 83.3532 97.8112 82.7965 97.8112 82.1097C97.8112 81.4229 97.2544 80.8661 96.5676 80.8661ZM89.9134 88.0132C90.3546 88.0132 90.712 87.6557 90.712 87.2145V86.2851C90.712 85.8439 90.3546 85.4864 89.9134 85.4864C89.4721 85.4864 89.1147 85.8439 89.1147 86.2851V87.2145C89.1147 87.6557 89.4721 88.0132 89.9134 88.0132ZM86.3475 92.4824C87.4302 93.1687 88.6721 93.5131 89.9134 93.5131C91.1546 93.5131 92.3965 93.1687 93.4792 92.4824C93.8522 92.2458 93.9627 91.752 93.7261 91.3803C93.4895 91.0085 92.997 90.8955 92.624 91.1333C90.9759 92.1783 88.8494 92.1783 87.2026 91.1333C86.8309 90.8955 86.3363 91.006 86.1005 91.3803C85.8646 91.7519 85.9751 92.2458 86.3475 92.4824ZM115.695 119.533V116.865C115.695 115.688 114.779 114.719 113.605 114.656C112.879 114.621 112.132 114.604 111.376 114.594C111.23 113.732 111.067 112.91 110.871 112.143C110.853 112.06 110.356 110.133 109.874 109.035C107.904 104.137 104.492 100.947 99.5169 99.2835C99.5169 99.2835 98.5584 98.9588 98.1285 98.846C97.2172 98.5925 96.1931 98.3988 95.1053 98.25V97.7814C98.877 95.9349 102.167 92.2187 103.847 87.9246C104.586 87.6605 105.241 87.2943 105.746 86.7782C107.247 85.2759 107.641 82.9116 107.219 81.2531C107.494 80.8448 107.634 80.3571 107.58 79.8426C107.419 78.3056 107.358 76.6757 107.382 74.5584C107.462 67.179 103.521 60.376 97.5761 57.6289C92.936 55.4862 87.9449 56.2076 83.8206 59.6026C81.624 58.9593 79.3761 59.3901 77.4395 60.8387C73.6825 63.6494 71.8036 69.7935 72.2846 77.6947C72.2846 77.6947 72.401 79.4982 72.427 80.0922C72.4416 80.417 72.5441 80.712 72.6858 80.9841C72.1395 82.6618 72.5189 85.2124 74.0841 86.7783C74.7621 87.4556 75.5412 87.8158 76.1796 88.0171C77.8831 92.2748 81.1529 95.9487 84.8832 97.7696V98.2533C83.7933 98.4127 82.7909 98.6016 81.871 98.8432C81.4117 98.9674 80.3897 99.3285 80.3897 99.3285C74.5143 101.343 70.8064 105.522 69.1366 112.116C68.9377 112.9 68.7739 113.726 68.6263 114.594C67.8653 114.603 67.112 114.621 66.3804 114.656C65.2177 114.72 64.3066 115.689 64.3066 116.864V119.532C63.4936 119.858 62.9165 120.651 62.9165 121.58V122.353C62.9166 123.573 63.9084 124.563 65.1269 124.563H114.874C116.093 124.563 117.083 123.573 117.083 122.354V121.58C117.083 120.652 116.507 119.859 115.695 119.533ZM114.099 116.865V119.371H90.7933V118.904C95.2414 117.276 103.526 116.164 110.679 116.182C110.687 116.182 110.737 116.184 110.754 116.183C111.7 116.187 112.629 116.208 113.523 116.253C113.852 116.269 114.099 116.533 114.099 116.865ZM104.611 85.6547C104.599 85.6668 104.581 85.6742 104.569 85.6861C104.863 84.5144 105.026 83.3368 105.055 82.1634C105.195 82.1924 105.336 82.2084 105.477 82.2084C105.574 82.2084 105.668 82.1764 105.764 82.1628C105.877 83.2997 105.518 84.7467 104.611 85.6547ZM78.3962 62.1178C80.0202 60.9026 81.9107 60.5958 83.7246 61.2515C83.9969 61.3497 84.3017 61.2944 84.5207 61.1027C88.2141 57.8876 92.7294 57.1494 96.9056 59.0789C102.291 61.5667 105.858 67.7802 105.786 74.5409C105.761 76.7219 105.825 78.4084 105.992 80.0084C106.022 80.2957 105.847 80.4555 105.77 80.5114C105.682 80.5751 105.497 80.6687 105.266 80.5634C103.033 79.5691 99.669 77.6214 96.3208 73.9872C96.1661 73.8195 95.9517 73.7299 95.7334 73.7299C95.6164 73.7299 95.4995 73.7552 95.3889 73.8078C95.0731 73.9592 94.8924 74.2991 94.9431 74.6455C95.0848 75.5989 95.2212 76.4132 95.3772 77.1697C95.4344 77.4426 95.2719 77.6116 95.1992 77.6714C95.1277 77.7319 94.9288 77.8618 94.6689 77.7533C92.2371 76.7538 89.9729 75.4871 88.612 74.3648C88.3611 74.1575 88.0114 74.1231 87.7255 74.2777C87.4403 74.431 87.2758 74.7417 87.3096 75.0641C87.3564 75.5099 87.4072 75.9122 87.463 76.282C87.5052 76.564 87.331 76.7219 87.2544 76.7772C87.1751 76.8344 86.96 76.9508 86.6967 76.8155C84.1499 75.5027 82.1567 73.9034 81.228 72.4275C81.0629 72.1656 80.7646 72.02 80.4534 72.061C80.146 72.0994 79.8879 72.3119 79.7924 72.6069C78.6824 76.0292 76.7172 78.544 75.1683 80.1253C75.156 80.1368 74.9792 80.3232 74.906 80.3952C74.6987 80.6013 74.4602 80.5395 74.3672 80.5031C74.237 80.4482 74.0284 80.2651 74.0234 80.0222C73.9968 79.4166 73.8798 77.5981 73.8798 77.5981C73.4311 70.2427 75.0779 64.6004 78.3962 62.1178ZM74.0767 82.059C74.3625 82.127 74.6505 82.1507 74.9298 82.1001C74.9553 83.3546 75.1324 84.6095 75.4569 85.8514C75.375 85.7851 75.2906 85.7264 75.213 85.6488C74.2439 84.6799 73.9503 83.1524 74.0767 82.059ZM77.511 87.074C76.8482 85.3324 76.5121 83.5517 76.5121 81.7814V81.0364C77.931 79.548 79.6229 77.3601 80.8027 74.4871C82.3781 76.2275 84.6188 77.5415 85.9647 78.2349C86.6815 78.6047 87.5322 78.5429 88.1847 78.0751C88.6636 77.7319 88.9685 77.2165 89.0458 76.6525C90.9506 77.8931 93.0868 78.8302 94.0603 79.2306C94.7882 79.5282 95.6135 79.4034 96.2179 78.9011C96.8145 78.4072 97.0913 77.6352 96.9483 76.8787C99.3378 79.0948 101.639 80.5405 103.477 81.4745V81.7814C103.477 83.5283 103.144 85.2966 102.489 87.0409C100.927 91.2697 97.6684 94.9104 93.9836 96.5429C93.6951 96.6715 93.5093 96.9575 93.5093 97.2733V98.824C93.1336 100.271 91.7754 104.022 89.9947 104.022C88.2238 104.022 86.8597 100.271 86.4808 98.824V97.2603C86.4808 96.9445 86.2943 96.6573 86.0044 96.5299C82.3448 94.9143 79.0915 91.293 77.511 87.074ZM82.2779 100.388C83.1366 100.163 84.0818 99.9858 85.1098 99.8354C85.6412 101.57 87.1803 105.618 89.9946 105.618C92.8217 105.618 94.355 101.566 94.8822 99.8325C95.9008 99.9718 96.8581 100.151 97.7113 100.388C97.8615 100.427 97.9957 100.481 98.1429 100.523C96.8393 103.867 94.2378 108.627 89.9946 108.627C85.9075 108.627 83.3465 104.394 81.8595 100.524C82.0036 100.482 82.131 100.426 82.2779 100.388ZM80.3403 101.019C82.0078 105.388 84.9841 110.223 89.9946 110.223C95.0003 110.223 97.9894 105.38 99.6677 101.012C103.831 102.584 106.698 105.417 108.394 109.633C108.819 110.593 109.25 112.236 109.317 112.509C109.486 113.174 109.626 113.871 109.755 114.591C102.463 114.664 94.4244 115.81 89.9943 117.505C85.5683 115.813 77.5433 114.666 70.2476 114.592C70.3767 113.868 70.517 113.17 70.6847 112.509C72.1783 106.612 75.278 102.923 80.3403 101.019ZM66.4623 116.253C67.363 116.208 68.2976 116.186 69.2502 116.182C69.2667 116.183 69.3165 116.182 69.3253 116.182C76.481 116.165 84.75 117.279 89.1959 118.904V119.371H65.9041V116.865C65.9041 116.538 66.151 116.269 66.4623 116.253ZM115.487 122.354C115.487 122.692 115.211 122.967 114.873 122.967H65.1269C64.7889 122.967 64.514 122.692 64.514 122.354V121.58C64.514 121.242 64.7889 120.967 65.1269 120.967H114.873C115.211 120.967 115.487 121.242 115.487 121.58L115.487 122.354Z" fill="#073B4C" stroke="#073B4C" stroke-width="0.5"/>
</svg>
