<svg width="131" height="67" viewBox="0 0 131 67" fill="none" xmlns="http://www.w3.org/2000/svg">
<path d="M21.2453 6.23412C21.1117 3.38391 23.3865 1 26.2399 1H99.3861C102.376 1 104.697 3.60657 104.353 6.57649L99.0134 52.5765C98.7208 55.098 96.5852 57 94.0468 57H28.3961C25.7257 57 23.5266 54.9016 23.4016 52.2341L21.2453 6.23412Z" fill="white" stroke="#CCCCCC" stroke-width="2" stroke-linejoin="round"/>
<path fill-rule="evenodd" clip-rule="evenodd" d="M122.314 18.4708L122.318 18.4767C122.414 18.599 125.923 23.1198 124.526 30.662C124.171 33.3716 123.207 36.3469 121.213 39.3854C122.558 41.137 122.415 43.7064 120.791 45.5378L119.816 46.6373C118.315 48.3288 115.684 48.2102 114.634 46.4532C112.911 47.7936 111.201 48.8032 109.581 49.5623C107.758 50.4161 105.894 50.6196 104.184 50.3074L104.959 55.4691C105.248 57.3957 102.981 58.8717 101.659 57.6177L97.9099 54.0626L92.2654 51.676C90.6414 50.9894 90.9718 48.4064 92.7615 47.798L98.208 45.9462C97.4554 44.5427 97.0655 42.8792 97.1832 41.0565C97.217 40.5321 97.2692 39.9953 97.3426 39.4479L95.992 39.1722C93.6653 38.6974 92.5745 36.0507 93.7203 33.6599L95.4833 29.981C96.935 26.9517 100.039 25.0917 103.05 25.4476L104.13 25.5753C112.963 15.8032 122.314 18.4708 122.314 18.4708Z" fill="white"/>
<path d="M122.318 18.4767L121.458 18.9869L121.491 19.0435L121.532 19.0952L122.318 18.4767ZM122.314 18.4708L123.174 17.9606L122.971 17.6183L122.589 17.5091L122.314 18.4708ZM124.526 30.662L123.543 30.4798L123.538 30.5059L123.534 30.5321L124.526 30.662ZM121.213 39.3854L120.377 38.8368L119.987 39.4309L120.42 39.9945L121.213 39.3854ZM120.791 45.5378L120.043 44.8743L120.043 44.8743L120.791 45.5378ZM119.816 46.6373L120.564 47.3009L120.564 47.3009L119.816 46.6373ZM114.634 46.4532L115.493 45.9402L114.913 44.9698L114.02 45.6638L114.634 46.4532ZM109.581 49.5623L110.005 50.4679L110.005 50.4679L109.581 49.5623ZM104.184 50.3074L104.363 49.3236L102.987 49.0725L103.195 50.4559L104.184 50.3074ZM104.959 55.4691L105.948 55.3206L105.948 55.3206L104.959 55.4691ZM101.659 57.6177L100.97 58.3433L100.97 58.3433L101.659 57.6177ZM97.9099 54.0626L98.598 53.337L98.4664 53.2122L98.2993 53.1415L97.9099 54.0626ZM92.2654 51.676L91.876 52.5971L91.876 52.5971L92.2654 51.676ZM92.7615 47.798L92.4396 46.8512L92.4396 46.8512L92.7615 47.798ZM98.208 45.9462L98.5299 46.8929L99.6468 46.5132L99.0893 45.4736L98.208 45.9462ZM97.1832 41.0565L96.1853 40.9921L96.1853 40.9921L97.1832 41.0565ZM97.3426 39.4479L98.3338 39.5808L98.4579 38.6549L97.5426 38.4681L97.3426 39.4479ZM95.992 39.1722L96.1919 38.1924L96.1919 38.1924L95.992 39.1722ZM93.7203 33.6599L94.6221 34.092L94.6221 34.092L93.7203 33.6599ZM95.4833 29.981L94.5815 29.5488L94.5815 29.5488L95.4833 29.981ZM103.05 25.4476L102.932 26.4407L102.932 26.4407L103.05 25.4476ZM104.13 25.5753L104.012 26.5684L104.525 26.6291L104.872 26.2459L104.13 25.5753ZM123.178 17.9665L123.174 17.9606L121.454 18.981L121.458 18.9869L123.178 17.9665ZM125.509 30.8441C126.98 22.9051 123.291 18.0959 123.104 17.8581L121.532 19.0952C121.531 19.0935 122.367 20.156 123.036 22.1107C123.702 24.0587 124.206 26.8996 123.543 30.4798L125.509 30.8441ZM122.049 39.934C124.129 36.7639 125.144 33.6443 125.518 30.7919L123.534 30.5321C123.198 33.099 122.284 35.93 120.377 38.8368L122.049 39.934ZM121.539 46.2014C123.447 44.05 123.674 40.9476 122.006 38.7763L120.42 39.9945C121.443 41.3264 121.383 43.3629 120.043 44.8743L121.539 46.2014ZM120.564 47.3009L121.539 46.2014L120.043 44.8743L119.068 45.9737L120.564 47.3009ZM113.776 46.9662C115.235 49.4075 118.698 49.404 120.564 47.3009L119.068 45.9737C117.932 47.2536 116.134 47.013 115.493 45.9402L113.776 46.9662ZM110.005 50.4679C111.69 49.6786 113.463 48.6306 115.248 47.2426L114.02 45.6638C112.358 46.9565 110.713 47.9277 109.157 48.6567L110.005 50.4679ZM104.004 51.2912C105.921 51.6409 107.995 51.4092 110.005 50.4679L109.157 48.6567C107.521 49.423 105.868 49.5982 104.363 49.3236L104.004 51.2912ZM105.948 55.3206L105.173 50.1589L103.195 50.4559L103.97 55.6176L105.948 55.3206ZM100.97 58.3433C102.051 59.3678 103.48 59.2111 104.459 58.5742C105.433 57.9399 106.159 56.7268 105.948 55.3206L103.97 55.6176C104.048 56.138 103.785 56.6262 103.367 56.8981C102.954 57.1674 102.589 57.1217 102.347 56.8921L100.97 58.3433ZM97.2217 54.7882L100.97 58.3433L102.347 56.8921L98.598 53.337L97.2217 54.7882ZM91.876 52.5971L97.5204 54.9837L98.2993 53.1415L92.6548 50.755L91.876 52.5971ZM92.4396 46.8512C91.1323 47.2956 90.386 48.4507 90.2414 49.5808C90.0965 50.7138 90.5495 52.0362 91.876 52.5971L92.6548 50.755C92.3573 50.6292 92.1636 50.3168 92.2252 49.8346C92.2873 49.3494 92.601 48.9087 93.0834 48.7447L92.4396 46.8512ZM97.8861 44.9994L92.4396 46.8512L93.0834 48.7447L98.5299 46.8929L97.8861 44.9994ZM96.1853 40.9921C96.0556 42.9994 96.485 44.8491 97.3267 46.4188L99.0893 45.4736C98.4257 44.2362 98.0753 42.759 98.1811 41.121L96.1853 40.9921ZM96.3515 39.315C96.275 39.8858 96.2205 40.4455 96.1853 40.9921L98.1811 41.121C98.2135 40.6187 98.2635 40.1048 98.3338 39.5808L96.3515 39.315ZM95.792 40.1521L97.1427 40.4277L97.5426 38.4681L96.1919 38.1924L95.792 40.1521ZM92.8185 33.2277C91.4592 36.0642 92.6824 39.5174 95.792 40.1521L96.1919 38.1924C94.6482 37.8774 93.6899 36.0372 94.6221 34.092L92.8185 33.2277ZM94.5815 29.5488L92.8185 33.2277L94.6221 34.092L96.3851 30.4131L94.5815 29.5488ZM103.167 24.4546C99.6739 24.0416 96.1914 26.1895 94.5815 29.5488L96.3851 30.4131C97.6786 27.714 100.405 26.1419 102.932 26.4407L103.167 24.4546ZM104.247 24.5823L103.167 24.4546L102.932 26.4407L104.012 26.5684L104.247 24.5823ZM122.314 18.4708C122.589 17.5091 122.588 17.5089 122.587 17.5088C122.587 17.5087 122.587 17.5085 122.586 17.5083C122.585 17.508 122.584 17.5077 122.582 17.5073C122.58 17.5066 122.576 17.5057 122.573 17.5046C122.565 17.5025 122.555 17.4998 122.543 17.4966C122.519 17.4902 122.485 17.4816 122.443 17.4714C122.359 17.451 122.24 17.424 122.089 17.3941C121.786 17.3345 121.354 17.2633 120.811 17.2112C119.725 17.107 118.193 17.0783 116.375 17.3712C112.723 17.9598 107.966 19.8396 103.388 24.9048L104.872 26.2459C109.126 21.539 113.462 19.8665 116.694 19.3458C118.318 19.0841 119.676 19.1115 120.62 19.2021C121.091 19.2473 121.458 19.3083 121.702 19.3563C121.823 19.3803 121.914 19.4011 121.971 19.415C122 19.4219 122.02 19.4271 122.032 19.4302C122.037 19.4317 122.041 19.4327 122.043 19.4331C122.043 19.4333 122.043 19.4333 122.043 19.4332C122.043 19.4332 122.042 19.4331 122.042 19.4329C122.042 19.4329 122.041 19.4327 122.041 19.4327C122.041 19.4326 122.04 19.4324 122.314 18.4708Z" fill="#CCCCCC"/>
<mask id="path-4-inside-1" fill="white">
<ellipse cx="112.767" cy="26.2675" rx="1.48803" ry="1.48803" transform="rotate(-58.5838 112.767 26.2675)"/>
</mask>
<ellipse cx="112.767" cy="26.2675" rx="1.48803" ry="1.48803" transform="rotate(-58.5838 112.767 26.2675)" fill="white"/>
<path d="M112.5 26.7044C112.259 26.557 112.183 26.2419 112.33 26.0006L115.744 28.0856C116.748 26.4416 116.229 24.2949 114.585 23.2908L112.5 26.7044ZM112.33 26.0006C112.478 25.7593 112.793 25.6832 113.034 25.8305L110.949 29.2442C112.593 30.2483 114.74 29.7296 115.744 28.0856L112.33 26.0006ZM113.034 25.8305C113.275 25.9779 113.352 26.293 113.204 26.5343L109.791 24.4493C108.786 26.0933 109.305 28.24 110.949 29.2442L113.034 25.8305ZM113.204 26.5343C113.057 26.7756 112.742 26.8518 112.5 26.7044L114.585 23.2908C112.941 22.2866 110.795 22.8053 109.791 24.4493L113.204 26.5343Z" fill="#CCCCCC" mask="url(#path-4-inside-1)"/>
<path d="M104.374 31.5059L104.448 31.8001C104.777 33.1003 106.054 33.7556 107.302 33.2637V33.2637" stroke="#CCCCCC" stroke-width="2"/>
<path d="M106.137 37.5L106.211 37.7943C106.539 39.0945 107.817 39.7498 109.065 39.2579V39.2579" stroke="#CCCCCC" stroke-width="2"/>
<path d="M111.912 34.9863L111.986 35.2806C112.315 36.5808 113.593 37.2361 114.84 36.7442V36.7442" stroke="#CCCCCC" stroke-width="2"/>
<path d="M31 1H99.6659C102.554 1 104.842 3.44051 104.655 6.32298L101.799 50.4522C101.56 54.1349 98.5039 57 94.8135 57H34.25V57C36.9135 57 39.1116 54.9165 39.2541 52.2568L41.7178 6.26747C41.8712 3.40506 39.5915 1 36.725 1H31Z" fill="white" stroke="#CCCCCC" stroke-width="2" stroke-linejoin="round"/>
<path d="M46.6384 36.875C46.3484 36.875 46.1184 36.795 45.9484 36.635C45.7884 36.475 45.7084 36.25 45.7084 35.96V27.215C45.7084 26.925 45.7884 26.7 45.9484 26.54C46.1184 26.38 46.3484 26.3 46.6384 26.3H52.0534C52.3434 26.3 52.5684 26.365 52.7284 26.495C52.8884 26.625 52.9684 26.81 52.9684 27.05C52.9684 27.3 52.8884 27.495 52.7284 27.635C52.5684 27.765 52.3434 27.83 52.0534 27.83H47.5984V30.74H51.7534C52.0434 30.74 52.2684 30.805 52.4284 30.935C52.5884 31.065 52.6684 31.255 52.6684 31.505C52.6684 31.745 52.5884 31.93 52.4284 32.06C52.2684 32.19 52.0434 32.255 51.7534 32.255H47.5984V35.345H52.0534C52.3434 35.345 52.5684 35.415 52.7284 35.555C52.8884 35.685 52.9684 35.875 52.9684 36.125C52.9684 36.365 52.8884 36.55 52.7284 36.68C52.5684 36.81 52.3434 36.875 52.0534 36.875H46.6384ZM63.9314 26.225C64.2114 26.225 64.4364 26.315 64.6064 26.495C64.7764 26.665 64.8614 26.895 64.8614 27.185V36.065C64.8614 36.345 64.7814 36.565 64.6214 36.725C64.4614 36.885 64.2514 36.965 63.9914 36.965C63.7314 36.965 63.5264 36.885 63.3764 36.725C63.2264 36.565 63.1514 36.345 63.1514 36.065V29.885L60.6014 34.715C60.4814 34.935 60.3514 35.1 60.2114 35.21C60.0714 35.31 59.9064 35.36 59.7164 35.36C59.5264 35.36 59.3614 35.31 59.2214 35.21C59.0814 35.11 58.9514 34.945 58.8314 34.715L56.2664 29.96V36.065C56.2664 36.335 56.1864 36.555 56.0264 36.725C55.8764 36.885 55.6714 36.965 55.4114 36.965C55.1514 36.965 54.9464 36.885 54.7964 36.725C54.6464 36.565 54.5714 36.345 54.5714 36.065V27.185C54.5714 26.895 54.6514 26.665 54.8114 26.495C54.9814 26.315 55.2064 26.225 55.4864 26.225C55.8764 26.225 56.1814 26.44 56.4014 26.87L59.7314 33.215L63.0464 26.87C63.2664 26.44 63.5614 26.225 63.9314 26.225ZM68.1137 36.965C67.8237 36.965 67.5887 36.88 67.4087 36.71C67.2387 36.53 67.1537 36.29 67.1537 35.99V27.215C67.1537 26.925 67.2337 26.7 67.3937 26.54C67.5637 26.38 67.7937 26.3 68.0837 26.3H71.7737C72.9037 26.3 73.7837 26.585 74.4137 27.155C75.0437 27.715 75.3587 28.505 75.3587 29.525C75.3587 30.545 75.0437 31.34 74.4137 31.91C73.7837 32.48 72.9037 32.765 71.7737 32.765H69.0887V35.99C69.0887 36.29 68.9987 36.53 68.8187 36.71C68.6487 36.88 68.4137 36.965 68.1137 36.965ZM71.5337 31.28C72.8637 31.28 73.5287 30.7 73.5287 29.54C73.5287 28.38 72.8637 27.8 71.5337 27.8H69.0887V31.28H71.5337ZM80.272 36.95C79.972 36.95 79.732 36.865 79.552 36.695C79.382 36.515 79.297 36.28 79.297 35.99V27.89H76.567C75.967 27.89 75.667 27.625 75.667 27.095C75.667 26.565 75.967 26.3 76.567 26.3H83.962C84.562 26.3 84.862 26.565 84.862 27.095C84.862 27.625 84.562 27.89 83.962 27.89H81.232V35.99C81.232 36.28 81.142 36.515 80.962 36.695C80.792 36.865 80.562 36.95 80.272 36.95ZM92.8259 26.555C93.0059 26.335 93.2209 26.225 93.4709 26.225C93.7009 26.225 93.9059 26.315 94.0859 26.495C94.2659 26.665 94.3559 26.87 94.3559 27.11C94.3559 27.31 94.2809 27.5 94.1309 27.68L90.7259 31.835V35.99C90.7259 36.3 90.6359 36.54 90.4559 36.71C90.2759 36.88 90.0459 36.965 89.7659 36.965C89.4759 36.965 89.2409 36.88 89.0609 36.71C88.8809 36.54 88.7909 36.3 88.7909 35.99V31.835L85.3859 27.68C85.2359 27.5 85.1609 27.31 85.1609 27.11C85.1609 26.87 85.2509 26.665 85.4309 26.495C85.6109 26.315 85.8159 26.225 86.0459 26.225C86.2959 26.225 86.5109 26.335 86.6909 26.555L89.7659 30.365L92.8259 26.555Z" fill="#CCCCCC"/>
<path d="M8.43679 27.5672C6.1667 22.7299 7.73895 19.1996 13.3099 16.5853C18.4629 14.167 22.6009 15.0176 24.8709 19.855L26.0554 23.1032L32.3963 43.8579C33.8308 49.0874 35.114 53.2703 31.3536 55.035C28.0111 56.6036 25.4744 53.0089 22.3687 48.5637L10.1783 30.554L8.43679 27.5672Z" fill="white" stroke="#CCCCCC" stroke-width="2"/>
<path d="M11.0967 31.623L18.0639 28.7318" stroke="#CCCCCC" stroke-width="2"/>
<path d="M24.0381 35.0098L28.7083 32.0614" stroke="#CCCCCC" stroke-width="2"/>
<path d="M21.1445 46.584L26.8905 43.5091" stroke="#CCCCCC" stroke-width="2"/>
<path d="M4.51219 15.483C3.48763 14.7308 3.49099 13.6046 4.5185 11.9826C5.46894 10.4823 6.51876 9.94612 7.54332 10.6983L8.15225 11.2642L11.7575 15.0992C12.6279 16.0947 13.3558 16.8667 12.6622 17.9615C12.0457 18.9346 11.0867 18.5276 9.908 18.0187L5.22386 15.8867L4.51219 15.483Z" fill="white" stroke="#CCCCCC" stroke-width="2"/>
<path d="M17.6638 8.10088C17.66 6.73967 16.7636 6.04172 14.8802 5.92806C13.138 5.82293 12.1039 6.40439 12.1077 7.7656L12.2043 8.64855L13.1612 14.1778C13.4475 15.5561 13.6389 16.6709 14.9102 16.7477C16.0403 16.8159 16.2727 15.7266 16.5514 14.3824L17.572 8.97246L17.6638 8.10088Z" fill="white" stroke="#CCCCCC" stroke-width="2"/>
<path d="M6.1336 9.40281C5.43035 7.90425 6.13843 6.7069 8.32953 5.67865C10.3563 4.72753 11.8941 4.87093 12.5973 6.36949L12.941 7.38668L14.6727 13.9254C15.0473 15.5782 15.3983 16.8959 13.9193 17.5899C12.6046 18.2069 11.7606 17.1206 10.7287 15.7763L6.69637 10.3172L6.1336 9.40281Z" fill="white" stroke="#CCCCCC" stroke-width="2"/>
<path d="M11.3242 19.209L11.5772 19.1695C13.74 18.8316 15.6625 17.7327 17.0532 16.0394V16.0394" stroke="#CCCCCC" stroke-width="2"/>
<path d="M28.0778 58.9621C24.4732 53.3287 26.4543 53.3663 18.6511 49.5477L19.408 47.5225C20.8572 48.0497 24.6709 49.0503 25.8134 50.8358C27.2414 53.0677 23.266 45.6962 21.3625 44.0729C19.8398 42.7743 21.7757 41.8223 23.3431 41.7617C23.8172 41.7434 27.8032 49.1161 28.1059 49.9777C28.4087 50.8393 27.1525 45.1207 26.0399 42.4164L29.1606 42.2682C29.2298 44.0081 29.9482 47.0637 31.8412 49.4265C34.6764 52.9655 37.7586 53.3784 34.7169 56.8642C33.3247 58.4596 29.2523 60.7977 28.0778 58.9621Z" fill="white" stroke="#CCCCCC" stroke-width="2"/>
<mask id="path-20-inside-2" fill="white">
<path fill-rule="evenodd" clip-rule="evenodd" d="M16.0266 32.9696C14.2834 34.0849 13.3339 35.9731 13.3392 37.8997C12.8675 38.0174 12.4065 38.2125 11.9744 38.489C9.9663 39.7739 9.29393 42.3595 10.3538 44.4402C8.46016 46.2462 8.02654 49.1604 9.46244 51.4045C11.097 53.9591 14.5353 54.6779 17.142 53.01C18.4452 52.1761 19.2939 50.9036 19.6125 49.5202C20.6544 49.4954 21.7029 49.1941 22.6449 48.5913C24.2061 47.5924 25.1383 45.9808 25.3282 44.2718C26.2657 44.3881 27.2477 44.1903 28.1056 43.6414C28.4488 43.4218 28.7493 43.1606 29.0048 42.8686C30.5066 43.4653 32.2642 43.355 33.7294 42.4176C36.1473 40.8704 36.8532 37.6561 35.3061 35.2381C34.0999 33.3531 31.8804 32.5086 29.815 32.961C28.3805 30.7502 25.4279 30.1093 23.2048 31.5318C22.6894 31.8616 22.2583 32.2734 21.9176 32.7393C20.1184 31.7786 17.8668 31.7921 16.0266 32.9696Z"/>
</mask>
<path fill-rule="evenodd" clip-rule="evenodd" d="M16.0266 32.9696C14.2834 34.0849 13.3339 35.9731 13.3392 37.8997C12.8675 38.0174 12.4065 38.2125 11.9744 38.489C9.9663 39.7739 9.29393 42.3595 10.3538 44.4402C8.46016 46.2462 8.02654 49.1604 9.46244 51.4045C11.097 53.9591 14.5353 54.6779 17.142 53.01C18.4452 52.1761 19.2939 50.9036 19.6125 49.5202C20.6544 49.4954 21.7029 49.1941 22.6449 48.5913C24.2061 47.5924 25.1383 45.9808 25.3282 44.2718C26.2657 44.3881 27.2477 44.1903 28.1056 43.6414C28.4488 43.4218 28.7493 43.1606 29.0048 42.8686C30.5066 43.4653 32.2642 43.355 33.7294 42.4176C36.1473 40.8704 36.8532 37.6561 35.3061 35.2381C34.0999 33.3531 31.8804 32.5086 29.815 32.961C28.3805 30.7502 25.4279 30.1093 23.2048 31.5318C22.6894 31.8616 22.2583 32.2734 21.9176 32.7393C20.1184 31.7786 17.8668 31.7921 16.0266 32.9696Z" fill="white"/>
<path d="M13.3392 37.8997L13.8231 39.8403L15.3434 39.4611L15.3391 37.8943L13.3392 37.8997ZM10.3538 44.4402L11.7341 45.8876L12.812 44.8596L12.1359 43.5324L10.3538 44.4402ZM19.6125 49.5202L19.5649 47.5208L18.0122 47.5578L17.6636 49.0713L19.6125 49.5202ZM25.3282 44.2718L25.5745 42.287L23.5643 42.0375L23.3405 44.0508L25.3282 44.2718ZM29.0048 42.8686L29.7432 41.0099L28.4299 40.4881L27.4994 41.5518L29.0048 42.8686ZM29.815 32.961L28.1373 34.0496L28.8907 35.2109L30.2429 34.9147L29.815 32.961ZM21.9176 32.7393L20.9755 34.5035L22.507 35.3213L23.5319 33.9199L21.9176 32.7393ZM15.3391 37.8943C15.3357 36.6227 15.9614 35.3856 17.1045 34.6542L14.9486 31.2849C12.6055 32.7842 11.3321 35.3234 11.3392 37.9052L15.3391 37.8943ZM13.0523 40.1737C13.2993 40.0156 13.5593 39.9061 13.8231 39.8403L12.8552 35.9592C12.1756 36.1287 11.5137 36.4094 10.8965 36.8044L13.0523 40.1737ZM12.1359 43.5324C11.5384 42.3593 11.9193 40.8986 13.0523 40.1737L10.8965 36.8044C8.01329 38.6492 7.04951 42.3598 8.57174 45.348L12.1359 43.5324ZM11.1471 50.3266C10.2517 48.9273 10.4993 47.0652 11.7341 45.8876L8.97355 42.9929C6.42102 45.4272 5.80134 49.3936 7.77779 52.4825L11.1471 50.3266ZM16.0641 51.3253C14.3555 52.4186 12.1659 51.9189 11.1471 50.3266L7.77779 52.4825C10.0281 55.9994 14.7151 56.9373 18.22 54.6946L16.0641 51.3253ZM17.6636 49.0713C17.459 49.9596 16.9137 50.7817 16.0641 51.3253L18.22 54.6946C19.9768 53.5705 21.1288 51.8476 21.5615 49.9692L17.6636 49.0713ZM21.567 46.9067C20.9418 47.3067 20.2514 47.5044 19.5649 47.5208L19.6602 51.5197C21.0575 51.4864 22.4641 51.0814 23.7228 50.276L21.567 46.9067ZM23.3405 44.0508C23.2144 45.1854 22.598 46.247 21.567 46.9067L23.7228 50.276C25.8143 48.9378 27.0622 46.7762 27.316 44.4927L23.3405 44.0508ZM27.0276 41.9568C26.577 42.2451 26.0663 42.348 25.5745 42.287L25.0819 46.2566C26.4651 46.4282 27.9184 46.1356 29.1835 45.3261L27.0276 41.9568ZM27.4994 41.5518C27.3671 41.703 27.2101 41.84 27.0276 41.9568L29.1835 45.3261C29.6875 45.0036 30.1315 44.6181 30.5101 44.1854L27.4994 41.5518ZM32.6514 40.7329C31.7513 41.3088 30.6726 41.3791 29.7432 41.0099L28.2663 44.7273C30.3407 45.5514 32.7771 45.4013 34.8073 44.1022L32.6514 40.7329ZM33.6215 36.3161C34.5733 37.8036 34.139 39.7811 32.6514 40.7329L34.8073 44.1022C38.1557 41.9597 39.1332 37.5086 36.9908 34.1602L33.6215 36.3161ZM30.2429 34.9147C31.5168 34.6356 32.8811 35.159 33.6215 36.3161L36.9908 34.1602C35.3188 31.5471 32.2441 30.3815 29.3871 31.0073L30.2429 34.9147ZM24.2827 33.2164C25.5791 32.387 27.3009 32.7607 28.1373 34.0496L31.4927 31.8723C29.4601 28.7397 25.2768 27.8316 22.1268 29.8471L24.2827 33.2164ZM23.5319 33.9199C23.7289 33.6506 23.9791 33.4107 24.2827 33.2164L22.1268 29.8471C21.3997 30.3124 20.7877 30.8962 20.3032 31.5586L23.5319 33.9199ZM17.1045 34.6542C18.3109 33.8823 19.7886 33.8697 20.9755 34.5035L22.8596 30.975C20.4482 29.6874 17.4226 29.7019 14.9486 31.2849L17.1045 34.6542Z" fill="#CCCCCC" mask="url(#path-20-inside-2)"/>
<path d="M12.5403 46.7153C12.5045 47.6037 12.9277 49.4075 14.5736 49.5716C16.8005 49.7937 16.8297 47.6939 16.8417 47.3248" stroke="#CCCCCC" stroke-width="2" stroke-linejoin="round"/>
<path d="M28.0931 40.4207C28.7812 40.6269 30.2583 40.6669 30.6524 39.4434C31.1856 37.788 29.5503 37.3431 29.264 37.2596" stroke="#CCCCCC" stroke-width="2" stroke-linejoin="round"/>
<path d="M22.1574 39.3745C22.6599 39.961 23.9918 40.5612 25.0122 39.6978C26.5676 38.3818 25.7076 37.2065 25.2413 36.6463" stroke="#CCCCCC" stroke-width="2" stroke-linejoin="round"/>
<path d="M15.6825 42.9171C16.2479 43.5403 17.4022 44.7418 19.0137 43.5025C20.73 42.1826 19.3546 40.7463 19.1176 40.4894" stroke="#CCCCCC" stroke-width="2" stroke-linejoin="round"/>
</svg>
