<svg width="261" height="41" viewBox="0 0 261 41" fill="none" xmlns="http://www.w3.org/2000/svg">
<path d="M17.7847 0.591096C17.8386 0.590162 17.8924 0.589228 17.9478 0.588266C18.1246 0.585769 18.3012 0.586131 18.4779 0.586756C18.6016 0.586096 18.7253 0.585344 18.849 0.584505C19.1079 0.583229 19.3667 0.583436 19.6256 0.584624C19.9562 0.58597 20.2865 0.583077 20.617 0.57899C20.8724 0.576401 21.1278 0.576365 21.3832 0.577052C21.505 0.577024 21.6267 0.576152 21.7485 0.574393C22.8155 0.56103 22.8155 0.56103 23.2213 0.895688C23.4208 1.1123 23.5529 1.30594 23.6219 1.59605C23.6413 1.67262 23.6608 1.74919 23.6808 1.82808C23.6991 1.91011 23.7175 1.99213 23.7364 2.07664C23.7576 2.16298 23.7788 2.24933 23.8007 2.33829C23.8592 2.57801 23.9157 2.81814 23.9717 3.05845C24.0392 3.34335 24.1109 3.62724 24.1819 3.91127C24.2399 4.14431 24.2976 4.37741 24.3552 4.61053C24.3692 4.6672 24.3833 4.72386 24.3977 4.78224C24.4375 4.94398 24.4767 5.10584 24.5157 5.26776C24.5384 5.36102 24.5611 5.45427 24.5844 5.55035C24.633 5.78977 24.633 5.78977 24.633 6.10163C24.6949 6.10827 24.7568 6.1149 24.8206 6.12173C25.1835 6.19668 25.5025 6.33464 25.8415 6.48172C25.9061 6.50915 25.9707 6.53659 26.0373 6.56486C26.3136 6.68305 26.5768 6.80028 26.838 6.95012C27.0414 7.05977 27.0414 7.05977 27.2237 6.98471C27.4885 6.85798 27.7395 6.7125 27.9907 6.56121C28.0433 6.52984 28.0959 6.49848 28.1501 6.46616C28.3179 6.36603 28.4855 6.26552 28.6531 6.16498C28.7636 6.09892 28.8741 6.03288 28.9846 5.96687C29.0388 5.93453 29.0929 5.90219 29.1486 5.86887C29.2567 5.80438 29.3647 5.73996 29.4728 5.6756C29.7189 5.52906 29.9646 5.38193 30.2088 5.2323C30.2906 5.1829 30.3724 5.13349 30.4567 5.08259C30.5272 5.03946 30.5976 4.99634 30.6702 4.9519C30.992 4.79473 31.3042 4.76429 31.6499 4.85418C32.1852 5.10878 32.5596 5.49604 32.9741 5.91342C33.0479 5.98705 33.1218 6.06065 33.1956 6.13421C33.3496 6.28784 33.5031 6.44188 33.6564 6.59623C33.8521 6.79329 34.0489 6.98927 34.246 7.18497C34.3983 7.33651 34.5502 7.48862 34.7018 7.64089C34.8091 7.74838 34.9168 7.85541 35.0246 7.96243C35.0899 8.02851 35.1553 8.09459 35.2226 8.16267C35.3087 8.24904 35.3087 8.24904 35.3965 8.33715C35.6945 8.69353 35.8369 9.03116 35.8115 9.49133C35.7018 10.2257 35.1196 10.933 34.7345 11.5593C34.6763 11.6543 34.6182 11.7493 34.5601 11.8443C34.5316 11.8908 34.5032 11.9373 34.4739 11.9852C34.4176 12.0774 34.3615 12.1696 34.3055 12.2619C34.1795 12.4697 34.051 12.6744 33.9155 12.8761C33.6561 13.2447 33.6561 13.2447 33.6311 13.6747C33.6924 13.7853 33.6924 13.7853 33.755 13.8982C33.798 13.9968 33.84 14.0957 33.8814 14.1949C33.9284 14.3007 33.9756 14.4065 34.023 14.5122C34.5347 15.6544 34.5347 15.6544 34.5347 16.0033C34.6183 16.0116 34.702 16.0199 34.7882 16.0285C35.2313 16.0842 35.6597 16.1943 36.0925 16.3024C36.1807 16.3242 36.2688 16.3461 36.3597 16.3685C36.5452 16.4146 36.7307 16.4609 36.9162 16.5074C37.1998 16.5782 37.4837 16.6481 37.7677 16.7178C37.9483 16.7628 38.129 16.8079 38.3096 16.853C38.3943 16.8737 38.4791 16.8945 38.5663 16.9158C38.6455 16.9358 38.7246 16.9559 38.8061 16.9765C38.8754 16.9937 38.9447 17.011 39.016 17.0288C39.4589 17.1776 39.7281 17.4103 39.9923 17.7965C40.0429 18.0617 40.0429 18.0617 40.0452 18.3551C40.0462 18.4089 40.0471 18.4627 40.048 18.5181C40.0505 18.6949 40.0502 18.8715 40.0496 19.0483C40.0502 19.1719 40.051 19.2956 40.0518 19.4193C40.0531 19.6782 40.0529 19.937 40.0517 20.1959C40.0503 20.5265 40.0532 20.8568 40.0573 21.1873C40.0599 21.4427 40.0599 21.6981 40.0593 21.9535C40.0593 22.0753 40.0602 22.1971 40.0619 22.3188C40.0753 23.3858 40.0753 23.3858 39.7406 23.7916C39.524 23.9911 39.3304 24.1232 39.0403 24.1922C38.9637 24.2116 38.8871 24.2311 38.8082 24.2511C38.7262 24.2694 38.6442 24.2878 38.5597 24.3067C38.4733 24.3279 38.387 24.3491 38.298 24.371C38.0583 24.4295 37.8182 24.486 37.5779 24.542C37.293 24.6095 37.0091 24.6812 36.725 24.7523C36.492 24.8102 36.2589 24.868 36.0258 24.9256C35.9691 24.9396 35.9124 24.9536 35.8541 24.968C35.6923 25.0078 35.5305 25.047 35.3685 25.0861C35.2753 25.1087 35.182 25.1314 35.086 25.1547C34.8465 25.2033 34.8465 25.2033 34.5347 25.2033C34.528 25.2653 34.5214 25.3273 34.5146 25.3912C34.4398 25.7527 34.3018 26.0696 34.1546 26.4069C34.1272 26.4709 34.0997 26.5348 34.0714 26.6008C34.0197 26.7212 33.9678 26.8417 33.9156 26.9619C33.8747 27.0562 33.8747 27.0562 33.833 27.1525C33.7863 27.2401 33.7396 27.3277 33.6914 27.418C33.57 27.6916 33.57 27.6916 33.6806 27.9371C33.7319 28.0162 33.7832 28.0954 33.836 28.177C33.8635 28.2207 33.891 28.2644 33.9193 28.3094C33.9783 28.4028 34.0383 28.4956 34.0991 28.5878C34.1943 28.7323 34.2868 28.8782 34.3787 29.0247C34.5016 29.2201 34.6253 29.4149 34.75 29.6091C34.9836 29.973 35.2128 30.3393 35.4362 30.7097C35.4719 30.7653 35.5075 30.8209 35.5443 30.8782C35.7883 31.284 35.8819 31.6719 35.7821 32.1423C35.5421 32.6712 35.1531 33.0404 34.7454 33.4467C34.6747 33.5179 34.6039 33.589 34.531 33.6624C34.3817 33.8123 34.232 33.9619 34.082 34.1111C33.8909 34.3013 33.7011 34.4927 33.5116 34.6844C33.3291 34.8687 33.1455 35.0518 32.962 35.235C32.8945 35.3033 32.8271 35.3716 32.7576 35.442C32.3193 35.8754 31.9011 36.2626 31.2589 36.3132C30.9036 36.2924 30.6443 36.1481 30.344 35.9675C30.2862 35.9343 30.2284 35.9012 30.1688 35.867C29.8185 35.664 29.4742 35.4516 29.131 35.2368C28.9349 35.1142 28.7383 34.9923 28.5417 34.8704C28.3964 34.7795 28.2522 34.687 28.108 34.5944C28.0173 34.5377 27.9265 34.481 27.8357 34.4243C27.7556 34.3733 27.6755 34.3224 27.593 34.2698C27.3154 34.1492 27.182 34.1664 26.894 34.2474C26.703 34.3291 26.5192 34.4133 26.3336 34.5056C25.0903 35.105 25.0903 35.105 24.633 35.105C24.6247 35.1886 24.6164 35.2723 24.6078 35.3585C24.5521 35.8016 24.442 36.23 24.3339 36.6628C24.3012 36.7951 24.3012 36.7951 24.2678 36.93C24.2217 37.1156 24.1754 37.3011 24.129 37.4865C24.0581 37.7702 23.9883 38.0541 23.9185 38.338C23.8735 38.5187 23.8284 38.6993 23.7833 38.8799C23.7626 38.9647 23.7418 39.0494 23.7205 39.1367C23.7005 39.2158 23.6805 39.2949 23.6598 39.3764C23.634 39.4803 23.634 39.4803 23.6076 39.5864C23.4587 40.0293 23.226 40.2985 22.8398 40.5626C22.5746 40.6132 22.5746 40.6132 22.2813 40.6155C22.2274 40.6165 22.1736 40.6174 22.1182 40.6184C21.9414 40.6209 21.7648 40.6205 21.5881 40.6199C21.4644 40.6205 21.3407 40.6213 21.217 40.6221C20.9581 40.6234 20.6993 40.6232 20.4404 40.622C20.1098 40.6207 19.7795 40.6235 19.449 40.6276C19.1936 40.6302 18.9382 40.6303 18.6828 40.6296C18.561 40.6296 18.4392 40.6305 18.3175 40.6322C17.2505 40.6456 17.2505 40.6456 16.8447 40.3109C16.6452 40.0943 16.5131 39.9007 16.4441 39.6106C16.415 39.4957 16.415 39.4957 16.3852 39.3785C16.3669 39.2965 16.3485 39.2145 16.3296 39.13C16.3084 39.0436 16.2872 38.9573 16.2653 38.8683C16.2068 38.6286 16.1503 38.3885 16.0943 38.1482C16.0268 37.8633 15.9551 37.5794 15.884 37.2953C15.8261 37.0623 15.7684 36.8292 15.7108 36.5961C15.6968 36.5394 15.6827 36.4828 15.6683 36.4244C15.6285 36.2626 15.5893 36.1008 15.5503 35.9389C15.5276 35.8456 15.5049 35.7524 15.4816 35.6563C15.433 35.4169 15.433 35.4169 15.433 35.105C15.3711 35.0984 15.3092 35.0917 15.2454 35.0849C14.8825 35.0099 14.5635 34.872 14.2245 34.7249C14.1599 34.6975 14.0953 34.67 14.0287 34.6418C13.7532 34.5239 13.492 34.4081 13.2329 34.2565C12.9416 34.1395 12.8361 34.2092 12.5483 34.3253C12.3823 34.4162 12.219 34.512 12.0579 34.6113C12.0124 34.6392 11.9668 34.6671 11.9198 34.6959C11.7749 34.7847 11.6304 34.8742 11.486 34.9637C11.2966 35.0803 11.1072 35.1967 10.9177 35.313C10.8714 35.3414 10.8252 35.3698 10.7776 35.3991C9.17113 36.3841 9.17113 36.3841 8.57199 36.2745C8.0301 36.0194 7.65007 35.6216 7.23074 35.2009C7.15519 35.1257 7.07962 35.0506 7.00402 34.9754C6.84637 34.8185 6.68916 34.6611 6.53224 34.5034C6.33193 34.3022 6.1304 34.1022 5.92851 33.9026C5.77237 33.7479 5.61698 33.5925 5.46178 33.4369C5.35206 33.3271 5.24167 33.218 5.13126 33.109C4.69639 32.6694 4.40679 32.3448 4.32802 31.7168C4.36968 31.3764 4.49672 31.1308 4.66882 30.8412C4.70197 30.7831 4.73512 30.725 4.76927 30.6651C4.97252 30.3128 5.18461 29.9662 5.39951 29.621C5.49132 29.4734 5.58277 29.3257 5.67418 29.178C5.79532 28.9822 5.9181 28.7876 6.04189 28.5936C6.09864 28.5025 6.15535 28.4115 6.212 28.3204C6.26297 28.2399 6.31395 28.1595 6.36647 28.0765C6.48176 27.8213 6.47794 27.7252 6.38895 27.4643C6.30628 27.2764 6.22108 27.0928 6.13068 26.9088C5.53132 25.6569 5.53132 25.6569 5.53132 25.2033C5.44767 25.195 5.36402 25.1867 5.27784 25.1781C4.83474 25.1224 4.40629 25.0123 3.97352 24.9042C3.84125 24.8715 3.84125 24.8715 3.70631 24.8381C3.52076 24.792 3.33525 24.7457 3.1498 24.6993C2.86615 24.6284 2.58225 24.5586 2.29832 24.4888C2.11765 24.4438 1.937 24.3987 1.75636 24.3536C1.67165 24.3329 1.58694 24.3122 1.49966 24.2908C1.38097 24.2608 1.38097 24.2608 1.25988 24.2301C1.19061 24.2129 1.12133 24.1956 1.04996 24.1779C0.607058 24.029 0.337852 23.7963 0.0737 23.4101C0.0231486 23.1449 0.0231486 23.1449 0.0207836 22.8516C0.01985 22.7978 0.0189164 22.7439 0.0179545 22.6885C0.0154574 22.5117 0.0158193 22.3351 0.0164437 22.1584C0.0157843 22.0347 0.0150325 21.911 0.0141928 21.7873C0.0129168 21.5284 0.0131242 21.2696 0.0143118 21.0107C0.0156582 20.6801 0.0127651 20.3498 0.00867752 20.0193C0.00608866 19.7639 0.00605397 19.5085 0.00674074 19.2531C0.00671281 19.1313 0.00583938 19.0096 0.00408065 18.8878C-0.00928295 17.8209 -0.00928238 17.8209 0.325376 17.415C0.541985 17.2155 0.735628 17.0835 1.02574 17.0144C1.14059 16.9853 1.14059 16.9853 1.25777 16.9555C1.33979 16.9372 1.42182 16.9188 1.50633 16.8999C1.59267 16.8787 1.67901 16.8575 1.76798 16.8356C2.0077 16.7771 2.24782 16.7207 2.48813 16.6646C2.77304 16.5971 3.05693 16.5254 3.34096 16.4544C3.574 16.3964 3.80709 16.3387 4.04022 16.2811C4.09688 16.2671 4.15355 16.2531 4.21193 16.2386C4.37367 16.1989 4.53553 16.1596 4.69745 16.1206C4.7907 16.0979 4.88396 16.0753 4.98004 16.0519C5.21946 16.0033 5.21946 16.0033 5.53132 16.0033C5.53775 15.9415 5.54419 15.8797 5.55081 15.816C5.62706 15.4503 5.77047 15.1306 5.92115 14.79C5.97835 14.6601 6.03521 14.53 6.0917 14.3998C6.11693 14.3428 6.14215 14.2858 6.16814 14.227C6.24291 14.0278 6.29848 13.8784 6.31098 13.6643C6.22294 13.4708 6.13399 13.3057 6.02196 13.1271C5.97557 13.0501 5.97557 13.0501 5.92825 12.9716C5.82784 12.8056 5.72589 12.6405 5.62391 12.4754C5.55512 12.3621 5.48646 12.2488 5.41791 12.1354C5.28341 11.9132 5.1484 11.6913 5.01285 11.4698C4.78912 11.1037 4.56966 10.7352 4.35208 10.3654C4.30598 10.2881 4.30598 10.2881 4.25895 10.2092C4.02308 9.81041 3.93372 9.53132 3.972 9.06434C4.20201 8.48397 4.57135 8.1088 5.01145 7.67435C5.08239 7.60329 5.15334 7.53223 5.22644 7.45902C5.37596 7.30939 5.526 7.16032 5.67646 7.01164C5.86823 6.82209 6.05875 6.63135 6.24892 6.44019C6.43195 6.25649 6.6159 6.07372 6.79979 5.89088C6.86762 5.82282 6.93546 5.75476 7.00534 5.68464C7.8921 4.81147 7.8921 4.81147 8.47454 4.80545C8.78368 4.82534 8.99017 4.8913 9.25877 5.04422C9.3335 5.08657 9.40824 5.12892 9.48524 5.17255C9.5698 5.22186 9.65436 5.27117 9.74149 5.32197C9.78898 5.34963 9.83648 5.37729 9.88542 5.40579C10.2067 5.59325 10.5268 5.78268 10.8464 5.97303C11.0143 6.07296 11.1823 6.17259 11.3503 6.27218C11.4586 6.33653 11.5668 6.40089 11.6751 6.46527C11.7246 6.4946 11.774 6.52392 11.825 6.55414C12.0538 6.69062 12.273 6.82916 12.4911 6.98301C12.6959 7.14314 12.6959 7.14314 12.9323 7.07316C13.0114 7.03557 13.0905 6.99799 13.172 6.95926C13.2615 6.91845 13.3511 6.87765 13.4433 6.83561C13.5398 6.78925 13.6361 6.74275 13.7324 6.69612C14.9836 6.10163 14.9836 6.10163 15.433 6.10163C15.4455 5.97616 15.4455 5.97616 15.4582 5.84815C15.5139 5.40505 15.624 4.9766 15.7321 4.54384C15.7539 4.45565 15.7757 4.36747 15.7982 4.27662C15.8443 4.09107 15.8906 3.90557 15.937 3.72011C16.0079 3.43646 16.0777 3.15256 16.1475 2.86863C16.1925 2.68796 16.2376 2.50731 16.2827 2.32668C16.3034 2.24196 16.3241 2.15725 16.3455 2.06997C16.3655 1.99085 16.3855 1.91172 16.4062 1.8302C16.4234 1.76092 16.4407 1.69164 16.4584 1.62027C16.6778 0.967809 17.0859 0.59673 17.7847 0.591096ZM14.4194 14.6779C14.3709 14.7199 14.3224 14.7619 14.2723 14.8052C13.1733 15.8249 12.4369 17.2941 12.0805 18.7321C12.066 18.7895 12.0515 18.8469 12.0366 18.906C11.5638 20.9853 12.0171 23.0741 13.0843 24.8768C13.3902 25.3544 13.7326 25.7918 14.1076 26.2169C14.1706 26.2897 14.1706 26.2897 14.2349 26.364C15.2545 27.463 16.7238 28.1994 18.1618 28.5558C18.2192 28.5703 18.2766 28.5848 18.3357 28.5997C20.415 29.0726 22.5038 28.6192 24.3065 27.552C24.7841 27.2461 25.2215 26.9037 25.6466 26.5287C25.6951 26.4867 25.7436 26.4447 25.7937 26.4014C26.8927 25.3818 27.6291 23.9125 27.9855 22.4745C28 22.4171 28.0145 22.3597 28.0294 22.3006C28.5022 20.2214 28.0489 18.1325 26.9817 16.3298C26.6758 15.8522 26.3334 15.4148 25.9584 14.9898C25.9164 14.9412 25.8744 14.8927 25.8311 14.8427C24.8115 13.7436 23.3422 13.0072 21.9042 12.6508C21.8468 12.6363 21.7894 12.6219 21.7303 12.607C19.0466 11.9966 16.4344 12.9006 14.4194 14.6779Z" fill="#EF6C02"/>
<rect x="11.5361" y="11.3486" width="17.9634" height="17.2049" fill="#EF6C02"/>
<path d="M25.386 14.7206C26.6264 15.7949 27.7258 17.2621 28.0169 18.9155C28.1362 19.2094 28.3285 19.2932 28.5996 19.4403C28.6995 19.4979 28.7992 19.5558 28.8988 19.614C28.9484 19.6426 28.998 19.6713 29.049 19.7008C30.4218 20.5174 31.8935 21.748 32.4058 23.3034C32.5291 23.8194 32.504 24.3336 32.2845 24.8199C32.1599 25.0192 32.019 25.193 31.8599 25.3658C31.8302 25.3981 31.8005 25.4304 31.7699 25.4636C31.0923 26.1116 30.138 26.3712 29.2516 26.5789C29.208 26.5892 29.1644 26.5994 29.1194 26.6099C28.6411 26.7164 28.164 26.7635 27.675 26.79C27.6319 26.7924 27.5887 26.7948 27.5443 26.7973C27.3265 26.8091 27.1088 26.8193 26.8908 26.8271C26.2808 26.8528 25.9576 26.9482 25.5136 27.3789C23.8095 28.9425 21.6413 29.5157 19.3777 29.4395C17.8437 29.3634 16.3526 28.75 15.1184 27.8527C15.069 27.8169 15.0196 27.7811 14.9687 27.7442C13.6163 26.7124 12.5734 25.2738 12.0863 23.6373C11.9349 23.147 11.6422 22.9041 11.2174 22.6589C10.404 22.1688 9.67577 21.5955 8.99202 20.9378C8.94354 20.8938 8.89506 20.8499 8.84512 20.8046C8.23819 20.2375 7.65509 19.394 7.58458 18.5451C7.57203 17.8281 7.75791 17.3495 8.24233 16.827C8.94505 16.1503 9.88651 15.8774 10.8117 15.6606C10.8554 15.6503 10.899 15.6401 10.944 15.6296C11.4223 15.5231 11.8994 15.476 12.3884 15.4495C12.4315 15.4471 12.4747 15.4447 12.5191 15.4422C12.7369 15.4304 12.9546 15.4202 13.1726 15.4124C13.8062 15.3858 14.1205 15.2777 14.5801 14.8303C17.555 12.0737 22.3265 12.1698 25.386 14.7206ZM9.86113 18.1058C9.75101 18.2457 9.70646 18.3825 9.70072 18.5603C9.8003 19.2512 10.3913 19.7351 10.9168 20.131C14.8053 22.9552 20.4482 24.3611 25.4302 24.8199C25.5086 24.8267 25.5871 24.8335 25.6679 24.8405C28.0006 25.042 28.0006 25.042 30.1009 24.2133C30.2491 24.0381 30.2874 23.9668 30.2688 23.738C30.0775 22.9512 29.1866 22.295 28.5901 21.8031C28.5482 21.7778 28.5063 21.7524 28.4631 21.7263C28.373 21.7564 28.373 21.7564 28.2811 21.787C28.2708 21.8528 28.2605 21.9187 28.2499 21.9865C28.2351 22.0742 28.2202 22.1618 28.2053 22.2495C28.1953 22.3144 28.1953 22.3144 28.1852 22.3805C28.124 22.7317 28.0191 23.0057 27.7169 23.2209C27.5372 23.3115 27.4266 23.3276 27.2267 23.3297C27.1297 23.3308 27.1297 23.3308 27.0308 23.3318C26.9605 23.3312 26.8902 23.3306 26.8178 23.33C26.7432 23.3295 26.6686 23.329 26.5918 23.3284C22.5389 23.2574 15.4358 22.1855 12.3888 19.2394C12.208 18.934 12.2311 18.614 12.2675 18.2688C12.3197 18.1023 12.3816 17.9502 12.4571 17.7931C12.5254 17.6483 12.5254 17.6483 12.5102 17.4196C11.5996 17.3818 10.5617 17.4511 9.86113 18.1058Z" fill="#091242"/>
<path d="M57.3584 32.3754C55.3811 32.3754 53.8669 31.8123 52.8157 30.686C51.7895 29.5597 51.2765 27.9704 51.2765 25.9181V11.802C51.2765 9.74971 51.7895 8.16041 52.8157 7.03413C53.8669 5.90785 55.3811 5.34471 57.3584 5.34471C59.3356 5.34471 60.8373 5.90785 61.8635 7.03413C62.9147 8.16041 63.4403 9.74971 63.4403 11.802V14.5802H59.5358V11.5392C59.5358 9.9124 58.8476 9.09897 57.471 9.09897C56.0944 9.09897 55.4061 9.9124 55.4061 11.5392V26.2184C55.4061 27.8202 56.0944 28.6212 57.471 28.6212C58.8476 28.6212 59.5358 27.8202 59.5358 26.2184V22.2014H63.4403V25.9181C63.4403 27.9704 62.9147 29.5597 61.8635 30.686C60.8373 31.8123 59.3356 32.3754 57.3584 32.3754ZM100.632 5.72013H106.714C108.766 5.72013 110.306 6.27076 111.332 7.37201C112.358 8.47326 112.871 10.0876 112.871 12.215V14.8055C112.871 16.9329 112.358 18.5472 111.332 19.6485C110.306 20.7497 108.766 21.3003 106.714 21.3003H104.762V32H100.632V5.72013ZM106.714 17.5461C107.39 17.5461 107.89 17.3584 108.216 16.9829C108.566 16.6075 108.741 15.9693 108.741 15.0683V11.9522C108.741 11.0512 108.566 10.413 108.216 10.0375C107.89 9.66211 107.39 9.4744 106.714 9.4744H104.762V17.5461H106.714ZM161.742 5.72013H167.824C169.876 5.72013 171.415 6.27076 172.441 7.37201C173.467 8.47326 173.981 10.0876 173.981 12.215V14.8055C173.981 16.9329 173.467 18.5472 172.441 19.6485C171.415 20.7497 169.876 21.3003 167.824 21.3003H165.871V32H161.742V5.72013ZM167.824 17.5461C168.499 17.5461 169 17.3584 169.325 16.9829C169.676 16.6075 169.851 15.9693 169.851 15.0683V11.9522C169.851 11.0512 169.676 10.413 169.325 10.0375C169 9.66211 168.499 9.4744 167.824 9.4744H165.871V17.5461H167.824Z" fill="#EF6C02"/>
<path d="M68.7268 5.72013H74.3206L78.6005 32H74.4708L73.7199 26.7816V26.8567H69.0271L68.2762 32H64.4469L68.7268 5.72013ZM73.2319 23.2901L71.3923 10.3003H71.3172L69.5151 23.2901H73.2319ZM80.2286 5.72013H86.348C88.4755 5.72013 90.0272 6.2207 91.0033 7.22184C91.9794 8.19795 92.4675 9.71217 92.4675 11.7645V13.3788C92.4675 16.1069 91.5665 17.8339 89.7644 18.5597V18.6348C90.7656 18.9352 91.4664 19.5483 91.8668 20.4744C92.2923 21.4005 92.505 22.6394 92.505 24.1911V28.8089C92.505 29.5597 92.5301 30.1729 92.5801 30.6485C92.6302 31.099 92.7553 31.5495 92.9556 32H88.7508C88.6006 31.5745 88.5005 31.1741 88.4504 30.7986C88.4004 30.4232 88.3754 29.7474 88.3754 28.7713V23.9659C88.3754 22.7645 88.1751 21.9261 87.7747 21.4505C87.3992 20.975 86.736 20.7372 85.7849 20.7372H84.3583V32H80.2286V5.72013ZM85.86 16.9829C86.6859 16.9829 87.2991 16.7702 87.6996 16.3447C88.1251 15.9192 88.3378 15.2059 88.3378 14.2048V12.1775C88.3378 11.2264 88.1626 10.5381 87.8122 10.1126C87.4868 9.68714 86.9612 9.4744 86.2354 9.4744H84.3583V16.9829H85.86ZM116.61 5.72013H122.204L126.483 32H122.354L121.603 26.7816V26.8567H116.91L116.159 32H112.33L116.61 5.72013ZM121.115 23.2901L119.275 10.3003H119.2L117.398 23.2901H121.115ZM128.112 5.72013H134.231C136.358 5.72013 137.91 6.2207 138.886 7.22184C139.862 8.19795 140.351 9.71217 140.351 11.7645V13.3788C140.351 16.1069 139.45 17.8339 137.647 18.5597V18.6348C138.649 18.9352 139.349 19.5483 139.75 20.4744C140.175 21.4005 140.388 22.6394 140.388 24.1911V28.8089C140.388 29.5597 140.413 30.1729 140.463 30.6485C140.513 31.099 140.638 31.5495 140.839 32H136.634C136.484 31.5745 136.384 31.1741 136.333 30.7986C136.283 30.4232 136.258 29.7474 136.258 28.7713V23.9659C136.258 22.7645 136.058 21.9261 135.658 21.4505C135.282 20.975 134.619 20.7372 133.668 20.7372H132.241V32H128.112V5.72013ZM133.743 16.9829C134.569 16.9829 135.182 16.7702 135.583 16.3447C136.008 15.9192 136.221 15.2059 136.221 14.2048V12.1775C136.221 11.2264 136.046 10.5381 135.695 10.1126C135.37 9.68714 134.844 9.4744 134.118 9.4744H132.241V16.9829H133.743ZM146.033 9.4744H141.716V5.72013H154.48V9.4744H150.163V32H146.033V9.4744ZM175.848 5.72013H179.978V28.2457H186.773V32H175.848V5.72013ZM191.716 5.72013H197.309L201.589 32H197.46L196.709 26.7816V26.8567H192.016L191.265 32H187.436L191.716 5.72013ZM196.221 23.2901L194.381 10.3003H194.306L192.504 23.2901H196.221ZM203.217 5.72013H208.398L212.415 21.4505H212.491V5.72013H216.17V32H211.927L206.972 12.8157H206.897V32H203.217V5.72013ZM218.864 5.72013H230.126V9.4744H222.993V16.4198H228.662V20.1741H222.993V28.2457H230.126V32H218.864V5.72013ZM235.355 9.4744H231.038V5.72013H243.803V9.4744H239.485V32H235.355V9.4744Z" fill="white"/>
</svg>
