<svg width="23" height="32" viewBox="6 3 20 28" fill="none" xmlns="http://www.w3.org/2000/svg">
  <path fill-rule="evenodd" clip-rule="evenodd" fill="currentColor" d="M22.5 5h-13C8.67157 5 8 5.67157 8 6.5v20c0 .8284.67157 1.5 1.5 1.5h13c.8284 0 1.5-.6716 1.5-1.5v-20c0-.82843-.6716-1.5-1.5-1.5zm-13-2C7.567 3 6 4.567 6 6.5v20C6 28.433 7.567 30 9.5 30h13c1.933 0 3.5-1.567 3.5-3.5v-20C26 4.567 24.433 3 22.5 3h-13zM22 9c0 .55228-.4477 1-1 1H11c-.5523 0-1-.44772-1-1s.4477-1 1-1h10c.5523 0 1 .44772 1 1zm-1 5c.5523 0 1-.4477 1-1s-.4477-1-1-1H11c-.5523 0-1 .4477-1 1s.4477 1 1 1h10zm-2.5 3c0 .5523-.4477 1-1 1H11c-.5523 0-1-.4477-1-1s.4477-1 1-1h6.5c.5523 0 1 .4477 1 1zM16 26c1.1046 0 2-.8954 2-2s-.8954-2-2-2-2 .8954-2 2 .8954 2 2 2z"></path>
</svg>
