<svg width="30" height="32" viewBox="3 2.5 26 27.5" fill="none" xmlns="http://www.w3.org/2000/svg">
  <path fill-rule="evenodd" clip-rule="evenodd" fill="currentColor" d="M16 4.5c-4.4183 0-8 3.58172-8 8v2c0 .5523-.44772 1-1 1s-1-.4477-1-1v-2c0-5.52285 4.4772-10 10-10s10 4.47715 10 10v2c0 .5523-.4477 1-1 1s-1-.4477-1-1v-2c0-4.41828-3.5817-8-8-8zM9 25v-3.5c0-1.1046-.89543-2-2-2s-2 .8954-2 2V25c0 1.1046.89543 2 2 2s2-.8954 2-2zm-2-7.5c-2.20914 0-4 1.7909-4 4V25c0 2.2091 1.79086 4 4 4s4-1.7909 4-4v-3.5c0-2.2091-1.79086-4-4-4zm20 4V25c0 1.1046-.8954 2-2 2s-2-.8954-2-2v-3.5c0-1.1046.8954-2 2-2s2 .8954 2 2zm-6 0c0-2.2091 1.7909-4 4-4 2.2091 0 4 1.7909 4 4V25c0 2.2091-1.7909 4-4 4-2.2091 0-4-1.7909-4-4v-3.5z"></path>
</svg>
