<?xml version="1.0" encoding="UTF-8"?>
<svg id="Layer_2" data-name="Layer 2" xmlns="http://www.w3.org/2000/svg" viewBox="0 0 461 461">
  <defs>
    <style>
      .cls-1 {
        fill: none;
      }

      .cls-1, .cls-2 {
        stroke-width: 0px;
      }
    </style>
  </defs>
  <g id="bg">
    <g>
      <path class="cls-2" d="m106.79,265.15c-.37.33-.64.71-.99.86-3.67,1.52-4.89,4.71-5.72,8.2-.11.46-.54.85-.82,1.28-.42-.37-1.11-.67-1.23-1.11-.96-3.72-2.62-6.84-6.38-8.46-.17-.07-.15-1.39.11-1.53,4.19-2.28,5.58-6.21,6.44-10.51.1-.49.48-.92.73-1.38.24.43.64.85.69,1.31.49,4.53,1.96,8.42,6.45,10.48.27.12.42.49.72.87Z"/>
      <path class="cls-2" d="m372.08,199.46c.3,2.3.62,4.59.91,6.89.41,3.29,3.14,3.47,5.51,4.18.74.22,1.41.66,2.12.99-.6.27-1.19.56-1.8.8-5.19,2.01-6.07,3.35-6.23,8.88-.04,1.34-.57,2.68-.96,3.99-.06.2-.67.36-.97.3-.16-.03-.31-.57-.33-.88-.12-2.58,0-5.2-.37-7.75-.49-3.38-2.96-4.59-6.12-4.76-.26-.01-.5-.37-.75-.57.25-.2.47-.52.75-.58,6.69-1.49,6.83-4.26,7.11-9.76.04-.71.08-1.44.27-2.12.08-.29.55-.47.85-.69.2.32.4.63.6.95-.19.05-.38.1-.58.14Z"/>
      <path class="cls-2" d="m73.81,427.43c-.73-1.38-1.15-1.88-1.28-2.45-.55-2.37-1-4.77-1.51-7.15-.92-4.29-3.05-7.42-7.68-8.45-1.07-.24-1.96-1.33-2.93-2.03.81-.77,1.5-1.95,2.46-2.26,6.87-2.16,7.57-7.91,8.3-13.72.32-2.54.74-5.07,1.26-7.57.13-.62.79-1.13,1.21-1.68.4.58,1.08,1.13,1.17,1.76.4,2.9.72,5.82.93,8.74.5,7.18,3.87,11.66,11.34,12.55.8.1,1.52.87,2.27,1.33-.66.59-1.25,1.61-1.99,1.72-8.31,1.3-11.12,7.01-11.99,14.46-.15,1.33-.83,2.6-1.55,4.74Z"/>
      <path class="cls-2" d="m358.79,405.16c-.24-.35-.5-.6-.59-.9-.57-1.84-1.67-3.16-3.5-3.88-.18-.07-.26-1.11-.12-1.19,2.08-1.14,3.32-2.9,4.01-5.12.06-.19.37-.48.48-.44.21.07.46.3.51.51.5,2.16,1.25,4.1,3.57,4.96.11.04.14.81.03.87-1.96.99-3.13,2.58-3.76,4.64-.06.19-.33.31-.62.56Z"/>
      <path class="cls-2" d="m372.35,16.25c.25.9.35,1.18.4,1.46.24,1.29.65,2.58.66,3.87.06,6.37,2.16,10.93,9.44,11.29.62.03,1.21.73,1.81,1.11-.27.31-.53.87-.82.89-10.33.55-10.06,8.33-10.68,15.53-.06.66-.46,1.29-.69,1.93-.26-.67-.63-1.31-.75-2-.25-1.41-.51-2.85-.51-4.27-.04-6.69-3.4-10.21-10-10.85-.65-.06-1.24-.79-1.86-1.21.61-.35,1.21-1,1.82-1,10.16.01,9.35-7.99,10.65-14.46.11-.57.26-1.13.54-2.3Z"/>
      <path class="cls-2" d="m55.3,100.13c-.66.51-1.09,1.11-1.62,1.21-6.2,1.27-7.7,6.12-8.76,11.34-.12.57-.46,1.09-.7,1.63-.33-.53-.85-1.03-.97-1.6-1.3-5.98-4.19-10.37-10.83-11.17-.4-.05-.74-.57-1.11-.87.35-.39.65-1.07,1.04-1.12,6.52-.79,10.19-4.36,10.91-10.94.04-.36.62-.65.94-.98.21.36.58.71.61,1.08.46,5.93,3.1,9.86,9.44,10.51.32.03.59.49,1.05.9Z"/>
      <path class="cls-2" d="m417.67,93.5c-1.36-1.83-2.87-3.85-4.37-5.87.18-.51.3-1.2.54-1.51,1.19-1.56,2.4-3.06,3.64-4.46.27-.31.76-.41,1-.1,1.29,1.64,2.54,3.41,3.79,5.22.16.23.27,1.31.23,1.35-1.56,1.8-3.15,3.53-4.82,5.36Z"/>
      <rect class="cls-1" width="461" height="461"/>
    </g>
  </g>
</svg>