<svg xmlns="http://www.w3.org/2000/svg" viewBox="0 0 155 155" width="155" height="155" style="enable-background:new 0 0 216.8 246.1;">
    <defs>
      <style type="text/css">
      .st0{fill:#E01E5A;}
      .st1{fill:#36C5F0;}
      .st2{fill:#2EB67D;}
      .st3{fill:#ECB22E;}
  </style>
    </defs>
    <g transform="matrix(1, 0, 0, 1, -33.654701232910156, -45.89277267456055)">
      <path d="M133.5,188.6c-1.1,2-3.2,3.3-5.7,3.3c-3.6,0-6.5-2.9-6.5-6.5c0-3.6,2.9-6.5,6.5-6.5c2.4,0,4.5,1.3,5.7,3.3l6.2-3.4 c-2.3-4.2-6.8-7-11.9-7c-7.5,0-13.6,6.1-13.6,13.6c0,7.5,6.1,13.6,13.6,13.6c5.1,0,9.6-2.8,11.9-7L133.5,188.6z"/>
      <path d="M47.1,195.7l2.2-5.2c2.5,1.8,5.6,2.8,8.8,2.8c2.3,0,3.8-0.9,3.8-2.3c-0.1-3.8-14.1-0.9-14.2-10.5 c-0.1-4.9,4.3-8.7,10.5-8.7c3.7,0,7.4,0.9,10,3l-2.1,5.3c-2.4-1.5-5.4-2.6-8.2-2.6c-1.9,0-3.2,0.9-3.2,2.1 c0.1,3.8,14.2,1.7,14.4,10.9c0,5-4.3,8.5-10.3,8.5C54.3,199,50.2,198,47.1,195.7"/>
      <rect x="72.3" y="160.5" width="7.8" height="38"/>
      <polygon points="142.8,160.5 142.8,198.5 150.6,198.5 150.6,187.1 159.8,198.5 169.7,198.5 158,185 168.9,172.3 159.4,172.3 &#10;&#9;&#9;150.6,182.8 150.6,160.5 &#9;"/>
      <path d="M103.1,188.7c-1.1,1.9-3.5,3.3-6.1,3.3c-3.6,0-6.5-2.9-6.5-6.5c0-3.6,2.9-6.5,6.5-6.5c2.6,0,5,1.4,6.1,3.4V188.7z M103.1,172.3v3.1c-1.3-2.1-4.4-3.6-7.7-3.6c-6.8,0-12.2,6-12.2,13.6c0,7.6,5.4,13.6,12.2,13.6c3.3,0,6.4-1.5,7.7-3.6v3.1h7.8 v-26.2H103.1z"/>
    </g>
    <g transform="matrix(1, 0, 0, 1, -33.654701232910156, -45.89277267456055)">
      <g>
        <path class="st0" d="M79.7,109.7c0,5.8-4.7,10.5-10.5,10.5s-10.5-4.7-10.5-10.5s4.7-10.5,10.5-10.5h10.5V109.7z"/>
        <path class="st0" d="M84.9,109.7c0-5.8,4.7-10.5,10.5-10.5s10.5,4.7,10.5,10.5v26.1c0,5.8-4.7,10.5-10.5,10.5s-10.5-4.7-10.5-10.5 V109.7z"/>
      </g>
      <g>
        <path class="st1" d="M95.3,67.9c-5.8,0-10.5-4.7-10.5-10.5S89.6,47,95.3,47s10.5,4.7,10.5,10.5v10.5H95.3z"/>
        <path class="st1" d="M95.3,73.2c5.8,0,10.5,4.7,10.5,10.5s-4.7,10.5-10.5,10.5H69.2c-5.8,0-10.5-4.7-10.5-10.5s4.7-10.5,10.5-10.5 H95.3z"/>
      </g>
      <g>
        <path class="st2" d="M137.1,83.6c0-5.8,4.7-10.5,10.5-10.5c5.8,0,10.5,4.7,10.5,10.5s-4.7,10.5-10.5,10.5h-10.5V83.6z"/>
        <path class="st2" d="M131.9,83.6c0,5.8-4.7,10.5-10.5,10.5S111,89.4,111,83.6V57.5c0-5.8,4.7-10.5,10.5-10.5s10.5,4.7,10.5,10.5 V83.6z"/>
      </g>
      <g>
        <path class="st3" d="M121.5,125.4c5.8,0,10.5,4.7,10.5,10.5c0,5.8-4.7,10.5-10.5,10.5s-10.5-4.7-10.5-10.5v-10.5H121.5z"/>
        <path class="st3" d="M121.5,120.2c-5.8,0-10.5-4.7-10.5-10.5s4.7-10.5,10.5-10.5h26.1c5.8,0,10.5,4.7,10.5,10.5 s-4.7,10.5-10.5,10.5H121.5z"/>
      </g>
    </g>
  </svg>