<svg width="354" height="43" viewBox="0 0 354 43" fill="none" xmlns="http://www.w3.org/2000/svg">
<path d="M112.374 14.4677C111.853 20.3105 107.184 24.3582 100.983 24.3582C94.1295 24.3582 88.9395 19.4306 88.9395 12.7719C88.9395 6.08118 94.0623 1.18555 100.363 1.18555C103.073 1.18555 105.031 1.96949 106.433 3.27499V1.67511H112.307V11.044H106.301C105.78 8.49699 103.69 6.83312 100.916 6.83312C97.4892 6.83312 95.1374 9.41212 95.1374 12.7719C95.1374 16.1316 97.486 18.7106 100.916 18.7106C103.69 18.7106 105.681 17.0147 106.17 14.4677H112.374Z" fill="#EF6C00"/>
<path d="M131.826 18.9378H133.848V23.8654H126.015V22.9503C124.873 23.7342 123.503 24.1918 121.772 24.1918C117.497 24.1918 113.84 20.6656 113.84 15.8372C113.84 11.0088 117.494 7.51465 121.772 7.51465C123.503 7.51465 124.873 7.94022 126.015 8.72096V7.90502H133.848V12.8326H131.826V18.9378ZM126.015 18.317V13.3574C124.972 12.4775 123.993 12.2151 123.014 12.2151C121.055 12.2151 119.555 13.783 119.555 15.8372C119.555 17.8915 121.055 19.4593 123.014 19.4593C123.993 19.4593 124.972 19.2002 126.015 18.317Z" fill="white"/>
<path d="M150.003 13.5843C147.034 13.6483 145.172 13.9426 143.671 14.269V18.9375H146.999V23.8651H135.803V18.9375H137.86V12.8355H135.803V7.90789H143.668V9.57176C145.168 8.49344 147.063 7.64551 150 7.64551V13.5843H150.003Z" fill="white"/>
<path d="M171.318 1.6709C177.356 1.6709 181.013 4.80346 181.013 9.96147C181.013 15.2475 177.228 18.4792 170.991 18.4792H168.217V23.8644H159.895V18.9368H162.179V6.59852H159.895V1.6709H171.318ZM171.218 13.2572C173.503 13.2572 174.94 11.9837 174.94 9.96147C174.94 8.06721 173.503 6.8929 171.218 6.8929H168.217V13.2572H171.218Z" fill="#EF6C00"/>
<path d="M199.449 18.9378H201.471V23.8654H193.638V22.9503C192.496 23.7342 191.126 24.1918 189.395 24.1918C185.12 24.1918 181.463 20.6656 181.463 15.8372C181.463 11.0088 185.117 7.51465 189.395 7.51465C191.126 7.51465 192.496 7.94022 193.638 8.72096V7.90502H201.471V12.8326H199.449V18.9378ZM193.638 18.317V13.3574C192.595 12.4775 191.616 12.2151 190.637 12.2151C188.678 12.2151 187.178 13.783 187.178 15.8372C187.178 17.8915 188.678 19.4593 190.637 19.4593C191.616 19.4593 192.595 19.2002 193.638 18.317Z" fill="white"/>
<path d="M217.63 13.5843C214.661 13.6483 212.799 13.9426 211.298 14.269V18.9375H214.626V23.8651H203.43V18.9375H205.487V12.8355H203.43V7.90789H211.295V9.57176C212.795 8.49344 214.69 7.64551 217.627 7.64551V13.5843H217.63Z" fill="white"/>
<path d="M233.129 23.5061C230.944 24.2228 229.571 24.354 227.939 24.354C224.087 24.354 221.508 21.4167 221.508 17.0106V12.8317H218.375V7.90409H221.508V3.13965H227.318V7.90409H232.377V12.8317H227.318V16.7802C227.318 18.2489 228.102 19.0008 229.603 19.0008C230.288 19.0008 231.136 18.8696 232.508 18.6425L233.129 23.5061Z" fill="white"/>
<path d="M254.54 1.6709C260.578 1.6709 264.232 4.80346 264.232 9.96147C264.232 15.2475 260.446 18.4792 254.21 18.4792H251.436V23.8644H243.113V18.9368H245.398V6.59852H243.113V1.6709H254.54ZM254.444 13.2572C256.728 13.2572 258.165 11.9837 258.165 9.96147C258.165 8.06721 256.728 6.8929 254.444 6.8929H251.442V13.2572H254.444Z" fill="#EF6C00"/>
<path d="M275.103 23.865H265.213V18.9374H267.27V5.62001H265.213V0.692383H273.078V18.9374H275.1V23.865H275.103Z" fill="white"/>
<path d="M294.13 18.9378H296.153V23.8654H288.32V22.9503C287.177 23.7342 285.808 24.1918 284.077 24.1918C279.802 24.1918 276.145 20.6656 276.145 15.8372C276.145 11.0088 279.799 7.51465 284.077 7.51465C285.808 7.51465 287.177 7.94022 288.32 8.72096V7.90502H296.153V12.8326H294.13V18.9378ZM288.323 18.317V13.3574C287.28 12.4775 286.301 12.2151 285.321 12.2151C283.363 12.2151 281.863 13.783 281.863 15.8372C281.863 17.8915 283.363 19.4593 285.321 19.4593C286.297 19.4593 287.276 19.2002 288.323 18.317Z" fill="white"/>
<path d="M318.935 23.8647H311.102V15.5741C311.102 13.4527 309.991 12.5728 308.523 12.5728C307.643 12.5728 306.792 12.9983 305.976 13.8463V18.9371H307.998V23.8647H298.107V18.9371H300.165V12.8352H298.107V7.90753H305.972V8.98585C307.246 7.94273 308.583 7.41797 310.215 7.41797C314.164 7.41797 316.906 10.061 316.906 14.5342V18.9403H318.928V23.8647H318.935Z" fill="white"/>
<path d="M336.395 17.5011H325.525C325.852 18.8066 326.699 19.7537 328.495 19.7537C329.538 19.7537 330.354 19.3281 330.779 18.6434H336.36C335.643 22.0383 332.542 24.291 328.495 24.291C323.173 24.291 319.65 20.7648 319.65 15.8692C319.65 10.9736 323.077 7.51465 328.104 7.51465C332.904 7.51465 336.459 10.6792 336.459 15.5428C336.462 16.1316 336.462 16.9155 336.395 17.5011ZM325.56 14.0422H330.914C330.686 12.6727 329.803 11.6935 328.335 11.6935C326.866 11.6935 325.951 12.6055 325.56 14.0422Z" fill="white"/>
<path d="M351.934 23.5061C349.748 24.2228 348.376 24.354 346.744 24.354C342.891 24.354 340.312 21.4167 340.312 17.0106V12.8317H337.18V7.90409H340.312V3.13965H346.123V7.90409H351.182V12.8317H346.123V16.7802C346.123 18.2489 346.907 19.0008 348.408 19.0008C349.092 19.0008 349.94 18.8696 351.313 18.6425L351.934 23.5061Z" fill="white"/>
<path d="M98.1861 32.3731H96.7014V30.7636H93.0569V33.2114H96.2087V34.7377H93.0569V37.0639H96.7014V35.4544H98.1861V38.5902H90.2188V37.1311H91.4027V30.6964H90.2188V29.2373H98.1861V32.3731Z" fill="white"/>
<path d="M108.575 38.593H104.902V37.1339H105.945V35.0988C105.945 33.9565 105.341 33.323 104.349 33.323C103.785 33.323 103.165 33.6525 102.669 34.2573V37.1339H103.705V38.593H100.045V37.1339H101.078V33.5438H100.045V32.0847H102.672V32.6222C103.235 32.1551 103.897 31.8799 104.681 31.8799C106.387 31.8799 107.529 33.1182 107.529 35.0028V37.1339H108.575V38.593Z" fill="white"/>
<path d="M116.581 33.5435V38.9927C116.581 40.8901 115.122 42.1029 113.17 42.1029C111.314 42.1029 109.964 40.9733 109.798 39.3927H111.407C111.516 40.1478 112.178 40.6598 113.141 40.6598C114.201 40.6598 114.985 40.0422 114.985 38.9959V38.1032C114.447 38.5031 113.746 38.7495 112.975 38.7495C111.078 38.7495 109.66 37.236 109.66 35.3514C109.66 33.4539 111.078 31.9404 112.975 31.9404C113.746 31.9404 114.447 32.1868 114.985 32.5868V32.0908H117.612V33.5499H116.581V33.5435ZM114.988 36.3785V34.3018C114.533 33.6011 113.874 33.3099 113.212 33.3099C112.015 33.3099 111.257 34.2603 111.257 35.345C111.257 36.4169 112.012 37.3672 113.212 37.3672C113.871 37.3672 114.533 37.0792 114.988 36.3785Z" fill="white"/>
<path d="M122.705 38.5934H119.045V37.1343H120.078V33.5442H119.045V32.0851H121.672V37.1343H122.705V38.5934ZM119.787 29.938C119.787 29.3333 120.267 28.8789 120.859 28.8789C121.451 28.8789 121.947 29.3333 121.947 29.938C121.947 30.53 121.451 30.9843 120.859 30.9843C120.27 30.9843 119.787 30.53 119.787 29.938Z" fill="white"/>
<path d="M132.708 38.593H129.035V37.1339H130.081V35.0988C130.081 33.9565 129.477 33.323 128.485 33.323C127.921 33.323 127.301 33.6525 126.805 34.2573V37.1339H127.838V38.593H124.178V37.1339H125.211V33.5438H124.178V32.0847H126.805V32.6222C127.368 32.1551 128.03 31.8799 128.814 31.8799C130.52 31.8799 131.662 33.1182 131.662 35.0028V37.1339H132.708V38.593Z" fill="white"/>
<path d="M140.564 35.966H140.552H135.544C135.749 36.7787 136.357 37.3963 137.47 37.3963C138.088 37.3963 138.558 37.1883 138.792 36.7915H140.484C140.113 37.9882 138.916 38.801 137.416 38.801C135.339 38.801 133.947 37.2747 133.947 35.3484C133.947 33.4094 135.378 31.9375 137.345 31.9375C139.243 31.9375 140.593 33.2846 140.593 35.2397C140.593 35.47 140.593 35.7164 140.564 35.966ZM135.544 34.7117H139.08C138.942 33.8318 138.363 33.1854 137.387 33.1854C136.369 33.1854 135.749 33.8734 135.544 34.7117Z" fill="white"/>
<path d="M146.235 34.7405C147.265 34.9197 148.299 35.47 148.299 36.7627C148.299 37.9882 147.377 38.7978 145.793 38.7978C144.734 38.7978 143.963 38.4266 143.454 38.001V38.593H142.008V36.3499H143.454C144.046 37.0379 144.609 37.5594 145.614 37.5594C146.452 37.5594 146.686 37.2011 146.686 36.8587C146.686 36.5003 146.423 36.2251 145.848 36.1164L144.664 35.9244C143.259 35.678 142.27 35.086 142.27 33.8733C142.27 32.5678 143.413 31.8799 144.926 31.8799C145.723 31.8799 146.302 32.1007 146.702 32.4846V32.0591H148.132V34.0685H146.702C146.164 33.4766 145.768 33.0926 144.955 33.0926C144.225 33.0926 143.937 33.4094 143.937 33.7677C143.937 34.1133 144.171 34.3885 144.913 34.5261L146.235 34.7405Z" fill="white"/>
<path d="M150.541 38.5391C150.1 38.3599 149.882 38.0431 149.882 37.6591C149.882 37.096 150.362 36.6416 150.941 36.6416C151.533 36.6416 152.013 37.096 152.013 37.6591C152.013 37.9055 152 38.0303 151.668 38.6351L150.855 40.1613H149.809L150.541 38.5391Z" fill="white"/>
<path d="M166.542 32.3731H165.057V30.7636H163.035V37.1343H164.603V38.5934H159.816V37.1343H161.384V30.7636H159.362V32.3731H157.877V29.2373H166.545V32.3731H166.542Z" fill="white"/>
<path d="M173.326 33.5981C172.171 33.6397 171.291 33.8445 170.67 34.0653V37.1339H172.279V38.593H168.043V37.1339H169.076V33.5437H168.043V32.0846H170.67V32.7854C171.316 32.3182 172.196 31.9727 173.326 31.9727V33.5981Z" fill="white"/>
<path d="M181.306 37.1342H182.352V38.5933H179.725V38.1389C179.204 38.5229 178.516 38.7437 177.744 38.7437C175.914 38.7437 174.455 37.2302 174.455 35.3455C174.455 33.4481 175.914 31.9346 177.744 31.9346C178.516 31.9346 179.204 32.1554 179.725 32.5393V32.085H182.352V33.544H181.306V37.1342ZM179.722 36.6126V34.0656C179.159 33.5153 178.58 33.3105 177.975 33.3105C176.845 33.3105 176.049 34.2608 176.049 35.3455C176.049 36.4174 176.845 37.3678 177.975 37.3678C178.58 37.3678 179.159 37.163 179.722 36.6126Z" fill="white"/>
<path d="M192.63 38.593H188.957V37.1339H190.003V35.0988C190.003 33.9565 189.398 33.323 188.406 33.323C187.843 33.323 187.223 33.6525 186.727 34.2573V37.1339H187.76V38.593H184.1V37.1339H185.133V33.5438H184.1V32.0847H186.727V32.6222C187.29 32.1551 187.952 31.8799 188.736 31.8799C190.442 31.8799 191.584 33.1182 191.584 35.0028V37.1339H192.63V38.593Z" fill="white"/>
<path d="M198.434 34.7405C199.464 34.9197 200.498 35.47 200.498 36.7627C200.498 37.9882 199.576 38.7978 197.992 38.7978C196.933 38.7978 196.162 38.4266 195.653 38.001V38.593H194.207V36.3499H195.653C196.245 37.0379 196.808 37.5594 197.813 37.5594C198.651 37.5594 198.885 37.2011 198.885 36.8587C198.885 36.5003 198.623 36.2251 198.047 36.1164L196.863 35.9244C195.458 35.678 194.469 35.086 194.469 33.8733C194.469 32.5678 195.612 31.8799 197.125 31.8799C197.922 31.8799 198.501 32.1007 198.901 32.4846V32.0591H200.331V34.0685H198.901C198.364 33.4766 197.967 33.0926 197.154 33.0926C196.424 33.0926 196.136 33.4094 196.136 33.7677C196.136 34.1133 196.37 34.3885 197.112 34.5261L198.434 34.7405Z" fill="white"/>
<path d="M215.042 38.593H211.381V37.1339H212.412V35.0988C212.412 33.9565 211.848 33.323 210.844 33.323C210.348 33.323 209.797 33.5566 209.343 34.2157C209.397 34.4621 209.426 34.7245 209.426 34.9996V37.1307H210.472V38.5898H206.802V37.1307H207.849V35.0956C207.849 33.9533 207.27 33.3198 206.281 33.3198C205.814 33.3198 205.305 33.5822 204.863 34.1869V37.1307H205.897V38.5898H202.236V37.1307H203.27V33.5438H202.236V32.0847H204.863V32.539C205.305 32.1263 205.785 31.8799 206.61 31.8799C207.465 31.8799 208.22 32.2383 208.729 32.8718C209.417 32.2127 210.105 31.8799 211.176 31.8799C212.773 31.8799 214.011 33.1182 214.011 35.0028V37.1339H215.042V38.593Z" fill="white"/>
<path d="M220.024 38.5934H216.363V37.1343H217.397V33.5442H216.363V32.0851H218.99V37.1343H220.024V38.5934ZM217.106 29.938C217.106 29.3333 217.586 28.8789 218.178 28.8789C218.769 28.8789 219.265 29.3333 219.265 29.938C219.265 30.53 218.769 30.9843 218.178 30.9843C217.589 30.9843 217.106 30.53 217.106 29.938Z" fill="white"/>
<path d="M225.844 34.7405C226.874 34.9197 227.908 35.47 227.908 36.7627C227.908 37.9882 226.986 38.7978 225.403 38.7978C224.343 38.7978 223.572 38.4266 223.063 38.001V38.593H221.617V36.3499H223.063C223.655 37.0379 224.219 37.5594 225.223 37.5594C226.062 37.5594 226.295 37.2011 226.295 36.8587C226.295 36.5003 226.033 36.2251 225.457 36.1164L224.273 35.9244C222.868 35.678 221.88 35.086 221.88 33.8733C221.88 32.5678 223.022 31.8799 224.535 31.8799C225.332 31.8799 225.911 32.1007 226.311 32.4846V32.0591H227.742V34.0685H226.311C225.774 33.4766 225.377 33.0926 224.564 33.0926C223.835 33.0926 223.547 33.4094 223.547 33.7677C223.547 34.1133 223.78 34.3885 224.523 34.5261L225.844 34.7405Z" fill="white"/>
<path d="M233.657 34.7405C234.687 34.9197 235.72 35.47 235.72 36.7627C235.72 37.9882 234.799 38.7978 233.215 38.7978C232.156 38.7978 231.385 38.4266 230.876 38.001V38.593H229.43V36.3499H230.876C231.468 37.0379 232.031 37.5594 233.036 37.5594C233.874 37.5594 234.108 37.2011 234.108 36.8587C234.108 36.5003 233.845 36.2251 233.269 36.1164L232.085 35.9244C230.681 35.678 229.692 35.086 229.692 33.8733C229.692 32.5678 230.834 31.8799 232.348 31.8799C233.145 31.8799 233.724 32.1007 234.124 32.4846V32.0591H235.554V34.0685H234.124C233.586 33.4766 233.189 33.0926 232.377 33.0926C231.647 33.0926 231.359 33.4094 231.359 33.7677C231.359 34.1133 231.593 34.3885 232.335 34.5261L233.657 34.7405Z" fill="white"/>
<path d="M241.116 38.5934H237.455V37.1343H238.489V33.5442H237.455V32.0851H240.082V37.1343H241.116V38.5934ZM238.197 29.938C238.197 29.3333 238.677 28.8789 239.269 28.8789C239.861 28.8789 240.357 29.3333 240.357 29.938C240.357 30.53 239.861 30.9843 239.269 30.9843C238.681 30.9843 238.197 30.53 238.197 29.938Z" fill="white"/>
<path d="M249.509 35.3455C249.509 37.3262 247.967 38.7981 246.003 38.7981C244.009 38.7981 242.467 37.3262 242.467 35.3455C242.467 33.3777 244.009 31.9346 246.003 31.9346C247.967 31.9346 249.509 33.3777 249.509 35.3455ZM247.913 35.3455C247.913 34.2448 247.1 33.3777 245.999 33.3777C244.87 33.3777 244.06 34.2448 244.06 35.3455C244.06 36.459 244.873 37.355 245.999 37.355C247.1 37.355 247.913 36.459 247.913 35.3455Z" fill="white"/>
<path d="M259.579 38.593H255.906V37.1339H256.952V35.0988C256.952 33.9565 256.348 33.323 255.356 33.323C254.793 33.323 254.172 33.6525 253.676 34.2573V37.1339H254.709V38.593H251.049V37.1339H252.082V33.5438H251.049V32.0847H253.676V32.6222C254.239 32.1551 254.901 31.8799 255.685 31.8799C257.391 31.8799 258.533 33.1182 258.533 35.0028V37.1339H259.579V38.593Z" fill="white"/>
<path d="M265.387 34.7405C266.417 34.9197 267.451 35.47 267.451 36.7627C267.451 37.9882 266.529 38.7978 264.945 38.7978C263.886 38.7978 263.115 38.4266 262.606 38.001V38.593H261.16V36.3499H262.606C263.198 37.0379 263.762 37.5594 264.766 37.5594C265.605 37.5594 265.838 37.2011 265.838 36.8587C265.838 36.5003 265.576 36.2251 265 36.1164L263.816 35.9244C262.411 35.678 261.423 35.086 261.423 33.8733C261.423 32.5678 262.565 31.8799 264.078 31.8799C264.875 31.8799 265.454 32.1007 265.854 32.4846V32.0591H267.284V34.0685H265.854C265.317 33.4766 264.92 33.0926 264.107 33.0926C263.378 33.0926 263.09 33.4094 263.09 33.7677C263.09 34.1133 263.323 34.3885 264.066 34.5261L265.387 34.7405Z" fill="white"/>
<path d="M280.425 37.1342H281.471V38.5933H278.844V38.1389C278.323 38.5229 277.635 38.7437 276.864 38.7437C275.033 38.7437 273.574 37.2302 273.574 35.3455C273.574 33.4481 275.033 31.9346 276.864 31.9346C277.635 31.9346 278.323 32.1554 278.844 32.5393V32.085H281.471V33.544H280.425V37.1342ZM278.841 36.6126V34.0656C278.278 33.5153 277.699 33.3105 277.094 33.3105C275.964 33.3105 275.168 34.2608 275.168 35.3455C275.168 36.4174 275.964 37.3678 277.094 37.3678C277.699 37.3678 278.278 37.163 278.841 36.6126Z" fill="white"/>
<path d="M291.749 38.593H288.076V37.1339H289.122V35.0988C289.122 33.9565 288.518 33.323 287.526 33.323C286.962 33.323 286.342 33.6525 285.846 34.2573V37.1339H286.879V38.593H283.219V37.1339H284.252V33.5438H283.219V32.0847H285.846V32.6222C286.409 32.1551 287.071 31.8799 287.855 31.8799C289.561 31.8799 290.703 33.1182 290.703 35.0028V37.1339H291.749V38.593Z" fill="white"/>
<path d="M300.885 38.5931H298.258V38.1387C297.737 38.5227 297.049 38.7435 296.278 38.7435C294.447 38.7435 292.988 37.23 292.988 35.3325C292.988 33.4479 294.447 31.9344 296.278 31.9344C297.049 31.9344 297.737 32.1552 298.258 32.5391V30.2833H297.212V28.8242H299.839V37.134H300.885V38.5931ZM298.258 36.6124V34.123C297.695 33.5183 297.116 33.3103 296.511 33.3103C295.382 33.3103 294.585 34.2606 294.585 35.3325C294.585 36.4204 295.382 37.3676 296.511 37.3676C297.116 37.3676 297.692 37.1628 298.258 36.6124Z" fill="white"/>
<path d="M319.789 38.593H316.129V37.1339H317.159V35.0988C317.159 33.9565 316.596 33.323 315.591 33.323C315.095 33.323 314.545 33.5566 314.09 34.2157C314.145 34.4621 314.174 34.7245 314.174 34.9996V37.1307H315.22V38.5898H311.547V37.1307H312.593V35.0956C312.593 33.9533 312.014 33.3198 311.025 33.3198C310.558 33.3198 310.049 33.5822 309.607 34.1869V37.1307H310.641V38.5898H306.98V37.1307H308.014V33.5438H306.98V32.0847H309.607V32.539C310.049 32.1263 310.529 31.8799 311.355 31.8799C312.209 31.8799 312.964 32.2383 313.473 32.8718C314.161 32.2127 314.849 31.8799 315.921 31.8799C317.517 31.8799 318.756 33.1182 318.756 35.0028V37.1339H319.786V38.593H319.789Z" fill="white"/>
<path d="M328.086 35.3455C328.086 37.3262 326.543 38.7981 324.579 38.7981C322.585 38.7981 321.043 37.3262 321.043 35.3455C321.043 33.3777 322.585 31.9346 324.579 31.9346C326.543 31.9346 328.086 33.3777 328.086 35.3455ZM326.489 35.3455C326.489 34.2448 325.676 33.3777 324.576 33.3777C323.446 33.3777 322.636 34.2448 322.636 35.3455C322.636 36.459 323.449 37.355 324.576 37.355C325.679 37.355 326.489 36.459 326.489 35.3455Z" fill="white"/>
<path d="M334.912 33.5981C333.757 33.6397 332.877 33.8445 332.256 34.0653V37.1339H333.865V38.593H329.629V37.1339H330.662V33.5437H329.629V32.0846H332.256V32.7854C332.902 32.3182 333.782 31.9727 334.912 31.9727V33.5981Z" fill="white"/>
<path d="M342.656 35.966H342.643H337.636C337.841 36.7787 338.448 37.3963 339.562 37.3963C340.18 37.3963 340.65 37.1883 340.883 36.7915H342.576C342.205 37.9882 341.008 38.801 339.508 38.801C337.431 38.801 336.039 37.2747 336.039 35.3484C336.039 33.4094 337.469 31.9375 339.437 31.9375C341.335 31.9375 342.685 33.2846 342.685 35.2397C342.682 35.47 342.682 35.7164 342.656 35.966ZM337.633 34.7117H341.168C341.031 33.8318 340.452 33.1854 339.476 33.1854C338.458 33.1854 337.841 33.8734 337.633 34.7117Z" fill="white"/>
<path d="M343.992 37.6722C343.992 37.093 344.488 36.6387 345.064 36.6387C345.656 36.6387 346.152 37.093 346.152 37.6722C346.152 38.2769 345.656 38.7185 345.064 38.7185C344.488 38.7185 343.992 38.2769 343.992 37.6722Z" fill="white"/>
<path d="M347.582 37.6722C347.582 37.093 348.078 36.6387 348.654 36.6387C349.246 36.6387 349.742 37.093 349.742 37.6722C349.742 38.2769 349.246 38.7185 348.654 38.7185C348.078 38.7185 347.582 38.2769 347.582 37.6722Z" fill="white"/>
<path d="M351.176 37.6722C351.176 37.093 351.672 36.6387 352.248 36.6387C352.84 36.6387 353.336 37.093 353.336 37.6722C353.336 38.2769 352.84 38.7185 352.248 38.7185C351.669 38.7185 351.176 38.2769 351.176 37.6722Z" fill="white"/>
<path d="M17.9641 39.1437C17.9609 38.9838 17.9513 38.8238 17.9513 38.6638C17.9513 25.9415 28.2673 15.6255 40.9895 15.6255C53.7117 15.6255 64.0278 25.9415 64.0278 38.6638C64.0278 38.8238 64.0182 38.9838 64.015 39.1437H80.5001C80.5001 39.0094 80.5065 38.8782 80.5065 38.7438C80.5065 37.5247 80.4489 36.3184 80.3401 35.128C79.7738 35.2432 79.1882 35.304 78.5867 35.304C73.7262 35.304 69.7873 31.3651 69.7873 26.5047C69.7873 22.9466 71.9024 19.8812 74.9421 18.4957C73.6942 16.4063 72.2607 14.4384 70.6641 12.621C69.0546 14.368 66.7508 15.4655 64.1878 15.4655C59.3273 15.4655 55.3884 11.5266 55.3884 6.66621C55.3884 5.09513 55.8012 3.62325 56.5243 2.34654C54.3101 1.39622 51.9935 0.641075 49.5937 0.103516C49.1873 4.58957 45.4212 8.1061 40.8295 8.1061C36.2507 8.1061 32.491 4.60877 32.0718 0.138713C29.3904 0.749867 26.8114 1.6362 24.3668 2.75931C25.1699 4.08721 25.6307 5.64229 25.6307 7.30617C25.6307 12.1666 21.6918 16.1055 16.8314 16.1055C14.3387 16.1055 12.0893 15.0656 10.4862 13.3985C8.92475 15.2704 7.53606 17.2862 6.33615 19.4268C9.40792 20.7995 11.5486 23.8809 11.5486 27.4614C11.5486 32.3219 8.40959 37.8606 3.54916 37.8606C3.0884 37.8606 1.7509 38.2478 1.30933 38.1806C1.25494 39.0349 1.30933 37.8734 1.30933 38.7406C1.30933 38.875 1.31253 39.0061 1.31573 39.1405H17.9641V39.1437Z" fill="white"/>
<path d="M9.31937 39.4641C9.31617 39.3841 9.31297 39.3041 9.31297 39.2241C9.31297 32.863 14.471 27.705 20.8321 27.705C27.1932 27.705 32.3512 32.863 32.3512 39.2241C32.3512 39.3041 32.348 39.3841 32.3448 39.4641H40.5874C40.5874 39.3969 40.5906 39.3297 40.5906 39.2625C40.5906 38.6546 40.5618 38.0498 40.5074 37.4546C40.2226 37.5122 39.9314 37.541 39.6307 37.541C37.202 37.541 35.231 35.57 35.231 33.1414C35.231 31.3623 36.2869 29.8296 37.81 29.1353C37.1861 28.089 36.4693 27.1066 35.6726 26.1979C34.8694 27.0714 33.7143 27.6218 32.4344 27.6218C30.0058 27.6218 28.0347 25.6507 28.0347 23.2221C28.0347 22.4382 28.2427 21.699 28.6011 21.0623C27.494 20.5855 26.3357 20.2112 25.1358 19.9424C24.9342 22.1854 23.0495 23.9453 20.7553 23.9453C18.4643 23.9453 16.586 22.195 16.3748 19.9616C15.0341 20.2688 13.7446 20.7103 12.5223 21.2735C12.9223 21.9358 13.1559 22.7134 13.1559 23.5453C13.1559 25.9739 11.1848 27.945 8.75621 27.945C7.5083 27.945 6.38519 27.4266 5.58525 26.5915C4.80451 27.5258 4.11016 28.5369 3.51181 29.6056C5.04769 30.2936 6.11961 31.8327 6.11961 33.6245C6.11961 36.0532 4.14856 38.0242 1.71995 38.0242C1.48956 38.0242 1.26238 38.005 1.0416 37.973C1.0128 38.4018 1 38.8305 1 39.2657C1 39.3329 1.0032 39.4001 1.0032 39.4673H9.31937V39.4641Z" fill="#EF6C00" stroke="white" stroke-width="1.5" stroke-miterlimit="10"/>
</svg>
