<svg width="373" height="40" viewBox="0 0 373 45" fill="none" xmlns="http://www.w3.org/2000/svg">
<path d="M118.287 15.1261C117.737 21.2791 112.821 25.5417 106.291 25.5417C99.073 25.5417 93.6074 20.3524 93.6074 13.3402C93.6074 6.29424 99.0022 1.13867 105.637 1.13867C108.491 1.13867 110.553 1.96424 112.029 3.33905V1.65423H118.216V11.5206H111.891C111.342 8.83832 109.141 7.0861 106.22 7.0861C102.611 7.0861 100.134 9.80204 100.134 13.3402C100.134 16.8783 102.608 19.5942 106.22 19.5942C109.141 19.5942 111.237 17.8083 111.753 15.1261H118.287Z" fill="#EF6C00"/>
<path d="M138.771 19.8324H140.9V25.0216H132.652V24.0579C131.449 24.8835 130.006 25.3653 128.183 25.3653C123.682 25.3653 119.83 21.652 119.83 16.5672C119.83 11.4824 123.678 7.80273 128.183 7.80273C130.006 7.80273 131.449 8.2509 132.652 9.07309V8.21383H140.9V13.4031H138.771V19.8324ZM132.652 19.1787V13.9557C131.553 13.0291 130.522 12.7527 129.491 12.7527C127.429 12.7527 125.848 14.4039 125.848 16.5672C125.848 18.7305 127.429 20.3816 129.491 20.3816C130.522 20.3816 131.553 20.1087 132.652 19.1787Z" fill="#1A1A25"/>
<path d="M157.913 14.1955C154.786 14.2629 152.825 14.5729 151.245 14.9166V19.8329H154.749V25.0222H142.959V19.8329H145.126V13.407H142.959V8.21772H151.242V9.96994C152.822 8.83436 154.817 7.94141 157.91 7.94141V14.1955H157.913Z" fill="#1A1A25"/>
<path d="M180.36 1.65039C186.718 1.65039 190.57 4.94928 190.57 10.3812C190.57 15.9478 186.583 19.3512 180.016 19.3512H177.095V25.0223H168.33V19.833H170.736V6.83965H168.33V1.65039H180.36ZM180.255 13.8519C182.661 13.8519 184.174 12.5108 184.174 10.3812C184.174 8.38632 182.661 7.14966 180.255 7.14966H177.095V13.8519H180.255Z" fill="#EF6C00"/>
<path d="M209.986 19.8324H212.115V25.0216H203.866V24.0579C202.663 24.8835 201.221 25.3653 199.398 25.3653C194.896 25.3653 191.045 21.652 191.045 16.5672C191.045 11.4824 194.893 7.80273 199.398 7.80273C201.221 7.80273 202.663 8.2509 203.866 9.07309V8.21383H212.115V13.4031H209.986V19.8324ZM203.866 19.1787V13.9557C202.768 13.0291 201.737 12.7527 200.706 12.7527C198.643 12.7527 197.063 14.4039 197.063 16.5672C197.063 18.7305 198.643 20.3816 200.706 20.3816C201.737 20.3816 202.768 20.1087 203.866 19.1787Z" fill="#1A1A25"/>
<path d="M229.132 14.1955C226.005 14.2629 224.044 14.5729 222.464 14.9166V19.8329H225.968V25.0222H214.178V19.8329H216.344V13.407H214.178V8.21772H222.46V9.96994C224.041 8.83436 226.036 7.94141 229.129 7.94141V14.1955H229.132Z" fill="#1A1A25"/>
<path d="M245.453 24.6451C243.152 25.3999 241.706 25.538 239.988 25.538C235.931 25.538 233.215 22.4447 233.215 17.8047V13.4039H229.916V8.21467H233.215V3.19727H239.334V8.21467H244.662V13.4039H239.334V17.5621C239.334 19.1087 240.16 19.9006 241.74 19.9006C242.461 19.9006 243.354 19.7625 244.8 19.5232L245.453 24.6451Z" fill="#1A1A25"/>
<path d="M268 1.65039C274.358 1.65039 278.206 4.94928 278.206 10.3812C278.206 15.9478 274.22 19.3512 267.653 19.3512H264.731V25.0223H255.967V19.833H258.373V6.83965H255.967V1.65039H268ZM267.899 13.8519C270.305 13.8519 271.818 12.5108 271.818 10.3812C271.818 8.38632 270.305 7.14966 267.899 7.14966H264.738V13.8519H267.899Z" fill="#EF6C00"/>
<path d="M289.658 25.0221H279.242V19.8329H281.409V5.8084H279.242V0.619141H287.525V19.8329H289.654V25.0221H289.658Z" fill="#1A1A25"/>
<path d="M309.693 19.8324H311.822V25.0216H303.573V24.0579C302.371 24.8835 300.928 25.3653 299.105 25.3653C294.603 25.3653 290.752 21.652 290.752 16.5672C290.752 11.4824 294.6 7.80273 299.105 7.80273C300.928 7.80273 302.371 8.2509 303.573 9.07309V8.21383H311.822V13.4031H309.693V19.8324ZM303.577 19.1787V13.9557C302.478 13.0291 301.447 12.7527 300.416 12.7527C298.354 12.7527 296.774 14.4039 296.774 16.5672C296.774 18.7305 298.354 20.3816 300.416 20.3816C301.444 20.3816 302.475 20.1087 303.577 19.1787Z" fill="#1A1A25"/>
<path d="M335.814 25.0212H327.565V16.2904C327.565 14.0563 326.396 13.1297 324.849 13.1297C323.922 13.1297 323.026 13.5778 322.167 14.4708V19.8319H324.296V25.0212H313.881V19.8319H316.048V13.406H313.881V8.21673H322.163V9.3523C323.505 8.25379 324.913 7.70117 326.632 7.70117C330.79 7.70117 333.678 10.4845 333.678 15.1953V19.8353H335.807V25.0212H335.814Z" fill="#1A1A25"/>
<path d="M354.204 18.3194H342.757C343.101 19.6942 343.994 20.6916 345.884 20.6916C346.983 20.6916 347.842 20.2435 348.29 19.5224H354.167C353.412 23.0976 350.147 25.4698 345.884 25.4698C340.28 25.4698 336.57 21.7564 336.57 16.6009C336.57 11.4453 340.179 7.80273 345.473 7.80273C350.527 7.80273 354.271 11.1353 354.271 16.2572C354.274 16.8772 354.274 17.7028 354.204 18.3194ZM342.794 14.6768H348.431C348.192 13.2346 347.262 12.2035 345.716 12.2035C344.169 12.2035 343.205 13.1638 342.794 14.6768Z" fill="#1A1A25"/>
<path d="M370.565 24.6451C368.263 25.3999 366.818 25.538 365.099 25.538C361.042 25.538 358.326 22.4447 358.326 17.8047V13.4039H355.027V8.21467H358.326V3.19727H364.445V8.21467H369.773V13.4039H364.445V17.5621C364.445 19.1087 365.271 19.9006 366.851 19.9006C367.573 19.9006 368.465 19.7625 369.911 19.5232L370.565 24.6451Z" fill="#1A1A25"/>
<path d="M103.345 33.9839H101.782V32.289H97.944V34.8667H101.263V36.4741H97.944V38.9238H101.782V37.2289H103.345V40.5311H94.9551V38.9946H96.2018V32.2182H94.9551V30.6816H103.345V33.9839Z" fill="#1A1A25"/>
<path d="M114.286 40.5344H110.418V38.9978H111.516V36.8547C111.516 35.6517 110.88 34.9846 109.835 34.9846C109.242 34.9846 108.588 35.3316 108.066 35.9685V38.9978H109.158V40.5344H105.303V38.9978H106.391V35.2171H105.303V33.6805H108.069V34.2466C108.662 33.7546 109.36 33.4648 110.185 33.4648C111.981 33.4648 113.184 34.7689 113.184 36.7536V38.9978H114.286V40.5344Z" fill="#1A1A25"/>
<path d="M122.718 35.2155V40.954C122.718 42.9522 121.182 44.2293 119.126 44.2293C117.172 44.2293 115.75 43.0399 115.575 41.3753H117.27C117.384 42.1705 118.082 42.7096 119.096 42.7096C120.211 42.7096 121.037 42.0593 121.037 40.9574V40.0173C120.471 40.4385 119.733 40.6979 118.921 40.6979C116.922 40.6979 115.43 39.1041 115.43 37.1194C115.43 35.1212 116.922 33.5273 118.921 33.5273C119.733 33.5273 120.471 33.7868 121.037 34.208V33.6857H123.803V35.2223H122.718V35.2155ZM121.04 38.201V36.0141C120.562 35.2762 119.868 34.9696 119.17 34.9696C117.91 34.9696 117.111 35.9703 117.111 37.1126C117.111 38.2415 117.906 39.2423 119.17 39.2423C119.864 39.2423 120.562 38.939 121.04 38.201Z" fill="#1A1A25"/>
<path d="M129.167 40.533H125.312V38.9964H126.401V35.2157H125.312V33.6791H128.079V38.9964H129.167V40.533ZM126.094 31.4181C126.094 30.7812 126.6 30.3027 127.223 30.3027C127.846 30.3027 128.369 30.7812 128.369 31.4181C128.369 32.0415 127.846 32.52 127.223 32.52C126.603 32.52 126.094 32.0415 126.094 31.4181Z" fill="#1A1A25"/>
<path d="M139.7 40.5344H135.832V38.9978H136.934V36.8547C136.934 35.6517 136.297 34.9846 135.252 34.9846C134.659 34.9846 134.006 35.3316 133.483 35.9685V38.9978H134.572V40.5344H130.717V38.9978H131.805V35.2171H130.717V33.6805H133.483V34.2466C134.076 33.7546 134.774 33.4648 135.599 33.4648C137.395 33.4648 138.598 34.7689 138.598 36.7536V38.9978H139.7V40.5344Z" fill="#1A1A25"/>
<path d="M147.972 37.7678H147.959H142.685C142.901 38.6237 143.541 39.274 144.714 39.274C145.364 39.274 145.86 39.055 146.106 38.6371H147.888C147.497 39.8974 146.237 40.7533 144.657 40.7533C142.47 40.7533 141.004 39.146 141.004 37.1174C141.004 35.0754 142.51 33.5254 144.582 33.5254C146.581 33.5254 148.003 34.944 148.003 37.0029C148.003 37.2455 148.003 37.5049 147.972 37.7678ZM142.685 36.4469H146.409C146.264 35.5202 145.654 34.8396 144.626 34.8396C143.555 34.8396 142.901 35.564 142.685 36.4469Z" fill="#1A1A25"/>
<path d="M153.943 36.4773C155.029 36.666 156.117 37.2456 156.117 38.6069C156.117 39.8975 155.146 40.75 153.478 40.75C152.363 40.75 151.551 40.3591 151.015 39.911V40.5344H149.492V38.1722H151.015C151.639 38.8967 152.232 39.446 153.29 39.446C154.173 39.446 154.419 39.0686 154.419 38.708C154.419 38.3306 154.142 38.0408 153.536 37.9263L152.289 37.7241C150.81 37.4646 149.769 36.8412 149.769 35.5641C149.769 34.1893 150.971 33.4648 152.565 33.4648C153.404 33.4648 154.014 33.6973 154.435 34.1017V33.6535H155.942V35.7697H154.435C153.869 35.1463 153.452 34.7419 152.596 34.7419C151.827 34.7419 151.524 35.0755 151.524 35.4529C151.524 35.8169 151.77 36.1066 152.552 36.2515L153.943 36.4773Z" fill="#1A1A25"/>
<path d="M158.479 40.4767C158.014 40.288 157.785 39.9544 157.785 39.5501C157.785 38.957 158.29 38.4785 158.9 38.4785C159.523 38.4785 160.029 38.957 160.029 39.5501C160.029 39.8095 160.015 39.9409 159.665 40.5778L158.809 42.1851H157.707L158.479 40.4767Z" fill="#1A1A25"/>
<path d="M175.332 33.9839H173.769V32.289H171.639V38.9979H173.29V40.5345H168.249V38.9979H169.9V32.289H167.771V33.9839H166.207V30.6816H175.335V33.9839H175.332Z" fill="#1A1A25"/>
<path d="M182.475 35.2743C181.259 35.3181 180.332 35.5337 179.679 35.7663V38.9977H181.374V40.5343H176.912V38.9977H178V35.217H176.912V33.6804H179.679V34.4184C180.359 33.9264 181.286 33.5625 182.475 33.5625V35.2743Z" fill="#1A1A25"/>
<path d="M190.878 38.9972H191.98V40.5337H189.214V40.0552C188.665 40.4596 187.94 40.6921 187.128 40.6921C185.201 40.6921 183.664 39.0983 183.664 37.1135C183.664 35.1153 185.201 33.5215 187.128 33.5215C187.94 33.5215 188.665 33.754 189.214 34.1583V33.6799H191.98V35.2164H190.878V38.9972ZM189.211 38.4479V35.7657C188.617 35.1861 188.008 34.9704 187.371 34.9704C186.181 34.9704 185.342 35.9712 185.342 37.1135C185.342 38.2424 186.181 39.2432 187.371 39.2432C188.008 39.2432 188.617 39.0275 189.211 38.4479Z" fill="#1A1A25"/>
<path d="M202.804 40.5344H198.935V38.9978H200.037V36.8547C200.037 35.6517 199.4 34.9846 198.356 34.9846C197.763 34.9846 197.109 35.3316 196.587 35.9685V38.9978H197.675V40.5344H193.82V38.9978H194.909V35.2171H193.82V33.6805H196.587V34.2466C197.18 33.7546 197.877 33.4648 198.703 33.4648C200.499 33.4648 201.702 34.7689 201.702 36.7536V38.9978H202.804V40.5344Z" fill="#1A1A25"/>
<path d="M208.916 36.4773C210.001 36.666 211.09 37.2456 211.09 38.6069C211.09 39.8975 210.119 40.75 208.451 40.75C207.336 40.75 206.524 40.3591 205.988 39.911V40.5344H204.465V38.1722H205.988C206.611 38.8967 207.204 39.446 208.262 39.446C209.145 39.446 209.391 39.0686 209.391 38.708C209.391 38.3306 209.115 38.0408 208.508 37.9263L207.262 37.7241C205.782 37.4646 204.741 36.8412 204.741 35.5641C204.741 34.1893 205.944 33.4648 207.538 33.4648C208.377 33.4648 208.987 33.6973 209.408 34.1017V33.6535H210.914V35.7697H209.408C208.842 35.1463 208.424 34.7419 207.568 34.7419C206.8 34.7419 206.497 35.0755 206.497 35.4529C206.497 35.8169 206.743 36.1066 207.524 36.2515L208.916 36.4773Z" fill="#1A1A25"/>
<path d="M226.405 40.5344H222.55V38.9978H223.635V36.8547C223.635 35.6517 223.042 34.9846 221.984 34.9846C221.462 34.9846 220.882 35.2305 220.404 35.9247C220.461 36.1842 220.492 36.4605 220.492 36.7503V38.9944H221.593V40.531H217.728V38.9944H218.83V36.8513C218.83 35.6484 218.22 34.9812 217.179 34.9812C216.687 34.9812 216.151 35.2575 215.686 35.8944V38.9944H216.775V40.531H212.92V38.9944H214.008V35.2171H212.92V33.6805H215.686V34.159C216.151 33.7243 216.657 33.4648 217.526 33.4648C218.426 33.4648 219.221 33.8422 219.757 34.5094C220.481 33.8153 221.206 33.4648 222.335 33.4648C224.016 33.4648 225.32 34.7689 225.32 36.7536V38.9978H226.405V40.5344Z" fill="#1A1A25"/>
<path d="M231.652 40.533H227.797V38.9964H228.885V35.2157H227.797V33.6791H230.563V38.9964H231.652V40.533ZM228.579 31.4181C228.579 30.7812 229.084 30.3027 229.707 30.3027C230.331 30.3027 230.853 30.7812 230.853 31.4181C230.853 32.0415 230.331 32.52 229.707 32.52C229.087 32.52 228.579 32.0415 228.579 31.4181Z" fill="#1A1A25"/>
<path d="M237.781 36.4773C238.866 36.666 239.955 37.2456 239.955 38.6069C239.955 39.8975 238.984 40.75 237.316 40.75C236.201 40.75 235.389 40.3591 234.853 39.911V40.5344H233.33V38.1722H234.853C235.477 38.8967 236.07 39.446 237.128 39.446C238.011 39.446 238.257 39.0686 238.257 38.708C238.257 38.3306 237.98 38.0408 237.374 37.9263L236.127 37.7241C234.648 37.4646 233.606 36.8412 233.606 35.5641C233.606 34.1893 234.809 33.4648 236.403 33.4648C237.242 33.4648 237.852 33.6973 238.273 34.1017V33.6535H239.78V35.7697H238.273C237.707 35.1463 237.289 34.7419 236.434 34.7419C235.665 34.7419 235.362 35.0755 235.362 35.4529C235.362 35.8169 235.608 36.1066 236.39 36.2515L237.781 36.4773Z" fill="#1A1A25"/>
<path d="M246.01 36.4773C247.095 36.666 248.183 37.2456 248.183 38.6069C248.183 39.8975 247.213 40.75 245.545 40.75C244.43 40.75 243.617 40.3591 243.082 39.911V40.5344H241.559V38.1722H243.082C243.705 38.8967 244.298 39.446 245.356 39.446C246.239 39.446 246.485 39.0686 246.485 38.708C246.485 38.3306 246.209 38.0408 245.602 37.9263L244.355 37.7241C242.876 37.4646 241.835 36.8412 241.835 35.5641C241.835 34.1893 243.038 33.4648 244.632 33.4648C245.471 33.4648 246.081 33.6973 246.502 34.1017V33.6535H248.008V35.7697H246.502C245.936 35.1463 245.518 34.7419 244.662 34.7419C243.894 34.7419 243.591 35.0755 243.591 35.4529C243.591 35.8169 243.836 36.1066 244.618 36.2515L246.01 36.4773Z" fill="#1A1A25"/>
<path d="M253.865 40.533H250.01V38.9964H251.098V35.2157H250.01V33.6791H252.776V38.9964H253.865V40.533ZM250.792 31.4181C250.792 30.7812 251.297 30.3027 251.92 30.3027C252.544 30.3027 253.066 30.7812 253.066 31.4181C253.066 32.0415 252.544 32.52 251.92 32.52C251.3 32.52 250.792 32.0415 250.792 31.4181Z" fill="#1A1A25"/>
<path d="M262.704 37.1135C262.704 39.1993 261.08 40.7494 259.011 40.7494C256.911 40.7494 255.287 39.1993 255.287 37.1135C255.287 35.0412 256.911 33.5215 259.011 33.5215C261.08 33.5215 262.704 35.0412 262.704 37.1135ZM261.022 37.1135C261.022 35.9544 260.166 35.0412 259.007 35.0412C257.818 35.0412 256.965 35.9544 256.965 37.1135C256.965 38.2862 257.821 39.2297 259.007 39.2297C260.166 39.2297 261.022 38.2862 261.022 37.1135Z" fill="#1A1A25"/>
<path d="M273.308 40.5344H269.439V38.9978H270.541V36.8547C270.541 35.6517 269.904 34.9846 268.86 34.9846C268.267 34.9846 267.613 35.3316 267.091 35.9685V38.9978H268.179V40.5344H264.324V38.9978H265.413V35.2171H264.324V33.6805H267.091V34.2466C267.684 33.7546 268.381 33.4648 269.207 33.4648C271.003 33.4648 272.206 34.7689 272.206 36.7536V38.9978H273.308V40.5344Z" fill="#1A1A25"/>
<path d="M279.422 36.4773C280.507 36.666 281.595 37.2456 281.595 38.6069C281.595 39.8975 280.625 40.75 278.957 40.75C277.842 40.75 277.03 40.3591 276.494 39.911V40.5344H274.971V38.1722H276.494C277.117 38.8967 277.71 39.446 278.768 39.446C279.651 39.446 279.897 39.0686 279.897 38.708C279.897 38.3306 279.621 38.0408 279.014 37.9263L277.768 37.7241C276.288 37.4646 275.247 36.8412 275.247 35.5641C275.247 34.1893 276.45 33.4648 278.044 33.4648C278.883 33.4648 279.493 33.6973 279.914 34.1017V33.6535H281.42V35.7697H279.914C279.348 35.1463 278.93 34.7419 278.074 34.7419C277.306 34.7419 277.003 35.0755 277.003 35.4529C277.003 35.8169 277.249 36.1066 278.03 36.2515L279.422 36.4773Z" fill="#1A1A25"/>
<path d="M295.261 38.9972H296.363V40.5337H293.597V40.0552C293.047 40.4596 292.323 40.6921 291.511 40.6921C289.583 40.6921 288.047 39.0983 288.047 37.1135C288.047 35.1153 289.583 33.5215 291.511 33.5215C292.323 33.5215 293.047 33.754 293.597 34.1583V33.6799H296.363V35.2164H295.261V38.9972ZM293.593 38.4479V35.7657C293 35.1861 292.39 34.9704 291.753 34.9704C290.564 34.9704 289.725 35.9712 289.725 37.1135C289.725 38.2424 290.564 39.2432 291.753 39.2432C292.39 39.2432 293 39.0275 293.593 38.4479Z" fill="#1A1A25"/>
<path d="M307.185 40.5344H303.316V38.9978H304.418V36.8547C304.418 35.6517 303.781 34.9846 302.737 34.9846C302.144 34.9846 301.49 35.3316 300.968 35.9685V38.9978H302.056V40.5344H298.201V38.9978H299.29V35.2171H298.201V33.6805H300.968V34.2466C301.561 33.7546 302.258 33.4648 303.084 33.4648C304.88 33.4648 306.083 34.7689 306.083 36.7536V38.9978H307.185V40.5344Z" fill="#1A1A25"/>
<path d="M316.807 40.5336H314.04V40.0551C313.491 40.4595 312.766 40.692 311.954 40.692C310.027 40.692 308.49 39.0982 308.49 37.1C308.49 35.1152 310.027 33.5214 311.954 33.5214C312.766 33.5214 313.491 33.7539 314.04 34.1583V31.7827H312.938V30.2461H315.705V38.9971H316.807V40.5336ZM314.04 38.4478V35.8262C313.447 35.1894 312.837 34.9703 312.2 34.9703C311.011 34.9703 310.172 35.9711 310.172 37.1C310.172 38.2456 311.011 39.2431 312.2 39.2431C312.837 39.2431 313.444 39.0274 314.04 38.4478Z" fill="#1A1A25"/>
<path d="M336.713 40.5344H332.858V38.9978H333.943V36.8547C333.943 35.6517 333.35 34.9846 332.292 34.9846C331.77 34.9846 331.19 35.2305 330.712 35.9247C330.769 36.1842 330.8 36.4605 330.8 36.7503V38.9944H331.901V40.531H328.033V38.9944H329.135V36.8513C329.135 35.6484 328.525 34.9812 327.484 34.9812C326.992 34.9812 326.456 35.2575 325.991 35.8944V38.9944H327.079V40.531H323.225V38.9944H324.313V35.2171H323.225V33.6805H325.991V34.159C326.456 33.7243 326.962 33.4648 327.831 33.4648C328.731 33.4648 329.526 33.8422 330.062 34.5094C330.786 33.8153 331.511 33.4648 332.639 33.4648C334.321 33.4648 335.625 34.7689 335.625 36.7536V38.9978H336.71V40.5344H336.713Z" fill="#1A1A25"/>
<path d="M345.452 37.1135C345.452 39.1993 343.828 40.7494 341.759 40.7494C339.659 40.7494 338.035 39.1993 338.035 37.1135C338.035 35.0412 339.659 33.5215 341.759 33.5215C343.828 33.5215 345.452 35.0412 345.452 37.1135ZM343.77 37.1135C343.77 35.9544 342.914 35.0412 341.755 35.0412C340.566 35.0412 339.713 35.9544 339.713 37.1135C339.713 38.2862 340.569 39.2297 341.755 39.2297C342.918 39.2297 343.77 38.2862 343.77 37.1135Z" fill="#1A1A25"/>
<path d="M352.639 35.2743C351.423 35.3181 350.496 35.5337 349.843 35.7663V38.9977H351.538V40.5343H347.076V38.9977H348.165V35.217H347.076V33.6804H349.843V34.4184C350.523 33.9264 351.45 33.5625 352.639 33.5625V35.2743Z" fill="#1A1A25"/>
<path d="M360.797 37.7678H360.783H355.51C355.725 38.6237 356.365 39.274 357.538 39.274C358.188 39.274 358.684 39.055 358.93 38.6371H360.712C360.321 39.8974 359.061 40.7533 357.481 40.7533C355.294 40.7533 353.828 39.146 353.828 37.1174C353.828 35.0754 355.334 33.5254 357.407 33.5254C359.405 33.5254 360.827 34.944 360.827 37.0029C360.824 37.2455 360.824 37.5049 360.797 37.7678ZM355.506 36.4469H359.23C359.085 35.5202 358.475 34.8396 357.447 34.8396C356.376 34.8396 355.725 35.564 355.506 36.4469Z" fill="#1A1A25"/>
<path d="M362.201 39.563C362.201 38.9531 362.724 38.4746 363.33 38.4746C363.953 38.4746 364.476 38.9531 364.476 39.563C364.476 40.1999 363.953 40.6649 363.33 40.6649C362.724 40.6649 362.201 40.1999 362.201 39.563Z" fill="#1A1A25"/>
<path d="M365.982 39.563C365.982 38.9531 366.505 38.4746 367.111 38.4746C367.735 38.4746 368.257 38.9531 368.257 39.563C368.257 40.1999 367.735 40.6649 367.111 40.6649C366.505 40.6649 365.982 40.1999 365.982 39.563Z" fill="#1A1A25"/>
<path d="M369.768 39.563C369.768 38.9531 370.29 38.4746 370.896 38.4746C371.52 38.4746 372.042 38.9531 372.042 39.563C372.042 40.1999 371.52 40.6649 370.896 40.6649C370.286 40.6649 369.768 40.1999 369.768 39.563Z" fill="#1A1A25"/>
<path d="M18.8653 41.1131C18.8619 40.9446 18.8518 40.7761 18.8518 40.6076C18.8518 27.2099 29.7155 16.3462 43.1133 16.3462C56.511 16.3462 67.3747 27.2099 67.3747 40.6076C67.3747 40.7761 67.3646 40.9446 67.3612 41.1131H84.7217C84.7217 40.9715 84.7284 40.8334 84.7284 40.6919C84.7284 39.408 84.6678 38.1377 84.5532 36.8842C83.9568 37.0055 83.3401 37.0695 82.7066 37.0695C77.5881 37.0695 73.4401 32.9215 73.4401 27.803C73.4401 24.0559 75.6674 20.8278 78.8686 19.3687C77.5544 17.1684 76.0448 15.096 74.3634 13.1821C72.6684 15.0219 70.2423 16.1777 67.5432 16.1777C62.4247 16.1777 58.2767 12.0296 58.2767 6.91115C58.2767 5.25665 58.7113 3.70661 59.4729 2.36212C57.1411 1.36134 54.7015 0.566101 52.1742 0C51.7463 4.72425 47.7802 8.42749 42.9448 8.42749C38.1228 8.42749 34.1635 4.74446 33.722 0.0370663C30.8983 0.680669 28.1823 1.61406 25.6079 2.7968C26.4537 4.19521 26.9389 5.83286 26.9389 7.58508C26.9389 12.7036 22.7909 16.8516 17.6724 16.8516C15.0474 16.8516 12.6786 15.7565 10.9904 14.0009C9.346 15.9721 7.88358 18.095 6.61996 20.3493C9.85482 21.7949 12.1091 25.0399 12.1091 28.8105C12.1091 33.929 8.80349 39.7618 3.685 39.7618C3.19977 39.7618 1.79125 40.1696 1.32624 40.0988C1.26896 40.9985 1.32624 39.7753 1.32624 40.6885C1.32624 40.83 1.32961 40.9682 1.33298 41.1097H18.8653V41.1131Z" fill="#1A1A25"/>
<path d="M9.76109 41.4508C9.75772 41.3666 9.75435 41.2823 9.75435 41.1981C9.75435 34.4992 15.1862 29.0673 21.8851 29.0673C28.5839 29.0673 34.0158 34.4992 34.0158 41.1981C34.0158 41.2823 34.0124 41.3666 34.0091 41.4508H42.6893C42.6893 41.38 42.6927 41.3093 42.6927 41.2385C42.6927 40.5983 42.6623 39.9614 42.6051 39.3347C42.3052 39.3953 41.9985 39.4256 41.6818 39.4256C39.1242 39.4256 37.0485 37.3499 37.0485 34.7924C37.0485 32.9189 38.1605 31.3048 39.7644 30.5736C39.1074 29.4717 38.3526 28.4372 37.5135 27.4802C36.6677 28.4002 35.4513 28.9797 34.1034 28.9797C31.5459 28.9797 29.4702 26.904 29.4702 24.3465C29.4702 23.5209 29.6892 22.7425 30.0666 22.072C28.9007 21.5699 27.6809 21.1756 26.4173 20.8926C26.205 23.2547 24.2202 25.108 21.8042 25.108C19.3915 25.108 17.4136 23.2648 17.1912 20.9128C15.7793 21.2363 14.4213 21.7013 13.1341 22.2943C13.5553 22.9919 13.8013 23.8107 13.8013 24.6868C13.8013 27.2444 11.7256 29.3201 9.16803 29.3201C7.85386 29.3201 6.67112 28.7742 5.82871 27.8947C5.00652 28.8786 4.2753 29.9435 3.64517 31.0689C5.2626 31.7934 6.39144 33.4142 6.39144 35.3012C6.39144 37.8588 4.31573 39.9345 1.75817 39.9345C1.51556 39.9345 1.27631 39.9142 1.04381 39.8805C1.01348 40.3321 1 40.7836 1 41.2419C1 41.3126 1.00337 41.3834 1.00337 41.4542H9.76109V41.4508Z" fill="#EF6C00" stroke="white" stroke-width="1.5" stroke-miterlimit="10"/>
</svg>
