<svg width="333" height="62" viewBox="0 0 333 62" fill="none" xmlns="http://www.w3.org/2000/svg">
<path d="M27.1978 0.031783C27.2801 0.0303553 27.3624 0.0289276 27.4472 0.0274566C27.7175 0.0236378 27.9876 0.0241913 28.2579 0.0251461C28.4471 0.0241377 28.6362 0.0229881 28.8254 0.0217039C29.2213 0.0197526 29.6171 0.0200696 30.013 0.0218858C30.5185 0.0239449 31.0237 0.0195209 31.5292 0.0132699C31.9197 0.00931086 32.3102 0.00925644 32.7008 0.0103067C32.887 0.010264 33.0733 0.00893009 33.2595 0.0062405C34.8911 -0.0141961 34.8911 -0.0141961 35.5117 0.49759C35.8169 0.828844 36.0188 1.12498 36.1244 1.56864C36.1541 1.68573 36.1838 1.80283 36.2145 1.92348C36.2425 2.04891 36.2706 2.17435 36.2995 2.30359C36.3319 2.43563 36.3644 2.56768 36.3978 2.70372C36.4873 3.07033 36.5737 3.43754 36.6594 3.80504C36.7626 4.24075 36.8722 4.67488 36.9809 5.10926C37.0695 5.46564 37.1578 5.8221 37.2459 6.17861C37.2673 6.26527 37.2887 6.35192 37.3108 6.4412C37.3716 6.68855 37.4316 6.93608 37.4914 7.1837C37.526 7.32631 37.5606 7.46892 37.5963 7.61586C37.6707 7.98199 37.6707 7.98199 37.6707 8.45892C37.7653 8.46906 37.86 8.47921 37.9576 8.48966C38.5125 8.60427 39.0004 8.81526 39.5188 9.04017C39.6176 9.08213 39.7164 9.12409 39.8182 9.16732C40.2408 9.34806 40.6433 9.52734 41.0427 9.75649C41.3537 9.92418 41.3537 9.92418 41.6325 9.80939C42.0375 9.61559 42.4213 9.3931 42.8055 9.16173C42.886 9.11377 42.9664 9.0658 43.0493 9.01638C43.306 8.86326 43.5623 8.70955 43.8185 8.55579C43.9875 8.45476 44.1565 8.35377 44.3255 8.25283C44.4083 8.20337 44.4911 8.15391 44.5764 8.10296C44.7416 8.00434 44.9068 7.90582 45.0721 7.80739C45.4485 7.58329 45.8241 7.3583 46.1976 7.12947C46.3227 7.05392 46.4478 6.97837 46.5767 6.90053C46.6845 6.83457 46.7922 6.76861 46.9033 6.70066C47.3953 6.4603 47.8728 6.41375 48.4015 6.55121C49.2201 6.94057 49.7926 7.5328 50.4266 8.17109C50.5394 8.28369 50.6523 8.39624 50.7653 8.50874C51.0007 8.74368 51.2356 8.97925 51.4699 9.21529C51.7692 9.51665 52.0701 9.81637 52.3715 10.1156C52.6046 10.3474 52.8368 10.58 53.0687 10.8129C53.2328 10.9773 53.3975 11.1409 53.5623 11.3046C53.6622 11.4056 53.7621 11.5067 53.8651 11.6108C53.9967 11.7429 53.9967 11.7429 54.1311 11.8776C54.5868 12.4227 54.8046 12.939 54.7658 13.6427C54.5979 14.7657 53.7076 15.8475 53.1186 16.8051C53.0297 16.9504 52.9408 17.0957 52.852 17.2411C52.8084 17.3122 52.7649 17.3833 52.7201 17.4566C52.634 17.5975 52.5482 17.7385 52.4627 17.8797C52.2698 18.1974 52.0734 18.5105 51.8662 18.819C51.4695 19.3827 51.4695 19.3827 51.4312 20.0402C51.525 20.2094 51.525 20.2094 51.6208 20.3821C51.6864 20.5328 51.7508 20.684 51.814 20.8357C51.8859 20.9976 51.9581 21.1594 52.0306 21.321C52.8131 23.0677 52.8131 23.0677 52.8131 23.6013C52.941 23.614 53.0689 23.6267 53.2007 23.6398C53.8783 23.725 54.5336 23.8934 55.1954 24.0587C55.3302 24.0921 55.4651 24.1255 55.604 24.1599C55.8878 24.2303 56.1715 24.3011 56.4551 24.3721C56.8889 24.4806 57.323 24.5873 57.7572 24.694C58.0335 24.7628 58.3098 24.8317 58.586 24.9008C58.7156 24.9325 58.8451 24.9641 58.9786 24.9968C59.0996 25.0274 59.2206 25.058 59.3453 25.0896C59.4512 25.116 59.5572 25.1423 59.6663 25.1695C60.3436 25.3972 60.7553 25.7531 61.1593 26.3437C61.2366 26.7492 61.2366 26.7492 61.2402 27.1978C61.2416 27.2801 61.2431 27.3624 61.2445 27.4472C61.2484 27.7175 61.2478 27.9876 61.2469 28.2579C61.2479 28.4471 61.249 28.6362 61.2503 28.8254C61.2523 29.2213 61.2519 29.6171 61.2501 30.013C61.2481 30.5185 61.2525 31.0237 61.2587 31.5292C61.2627 31.9197 61.2627 32.3102 61.2617 32.7008C61.2617 32.887 61.2631 33.0733 61.2658 33.2595C61.2862 34.8911 61.2862 34.8911 60.7744 35.5117C60.4432 35.8169 60.147 36.0188 59.7034 36.1244C59.5863 36.1541 59.4692 36.1838 59.3485 36.2145C59.2231 36.2425 59.0976 36.2706 58.9684 36.2995C58.8364 36.3319 58.7043 36.3644 58.5683 36.3978C58.2017 36.4873 57.8345 36.5737 57.467 36.6594C57.0312 36.7626 56.5971 36.8722 56.1627 36.9809C55.8064 37.0695 55.4499 37.1578 55.0934 37.2459C55.0067 37.2673 54.9201 37.2887 54.8308 37.3108C54.5834 37.3716 54.3359 37.4316 54.0883 37.4914C53.9457 37.526 53.8031 37.5606 53.6561 37.5963C53.29 37.6707 53.29 37.6707 52.8131 37.6707C52.8029 37.7655 52.7928 37.8603 52.7823 37.958C52.6681 38.5108 52.4569 38.9954 52.2318 39.5113C52.1899 39.6091 52.1479 39.707 52.1047 39.8078C52.0256 39.992 51.9461 40.1762 51.8663 40.3601C51.8038 40.5043 51.8038 40.5043 51.74 40.6515C51.6686 40.7854 51.5971 40.9194 51.5235 41.0575C51.3379 41.476 51.3379 41.476 51.5069 41.8513C51.5854 41.9724 51.6638 42.0935 51.7447 42.2182C51.7867 42.2851 51.8287 42.3519 51.8719 42.4207C51.9622 42.5636 52.0539 42.7055 52.1469 42.8466C52.2925 43.0675 52.434 43.2905 52.5746 43.5146C52.7625 43.8134 52.9517 44.1113 53.1424 44.4083C53.4996 44.9649 53.8501 45.5251 54.1917 46.0914C54.2463 46.1764 54.3009 46.2615 54.3571 46.3491C54.7302 46.9697 54.8734 47.5629 54.7208 48.2823C54.3536 49.0912 53.7588 49.6558 53.1354 50.2771C53.0272 50.3859 52.9189 50.4948 52.8075 50.6069C52.5791 50.8363 52.3502 51.065 52.1207 51.2932C51.8286 51.584 51.5383 51.8767 51.2485 52.1699C50.9695 52.4517 50.6886 52.7317 50.408 53.012C50.3048 53.1164 50.2017 53.2209 50.0955 53.3285C49.4252 53.9912 48.7856 54.5833 47.8035 54.6607C47.2602 54.6289 46.8636 54.4083 46.4044 54.1321C46.316 54.0814 46.2276 54.0307 46.1365 53.9785C45.6007 53.6679 45.0742 53.3431 44.5493 53.0146C44.2494 52.8271 43.9487 52.6408 43.6482 52.4543C43.426 52.3153 43.2055 52.1739 42.985 52.0323C42.8462 51.9455 42.7074 51.8588 42.5685 51.7721C42.446 51.6942 42.3236 51.6162 42.1974 51.5359C41.7728 51.3514 41.5689 51.3778 41.1284 51.5015C40.8362 51.6265 40.5552 51.7552 40.2714 51.8965C38.37 52.8131 38.37 52.8131 37.6707 52.8131C37.658 52.941 37.6453 53.0689 37.6322 53.2007C37.547 53.8783 37.3786 54.5336 37.2133 55.1954C37.1632 55.3977 37.1632 55.3977 37.1121 55.604C37.0417 55.8878 36.9709 56.1715 36.8999 56.4551C36.7914 56.8889 36.6847 57.323 36.578 57.7572C36.5092 58.0335 36.4403 58.3098 36.3712 58.586C36.3395 58.7156 36.3079 58.8451 36.2752 58.9786C36.2446 59.0996 36.214 59.2206 36.1824 59.3453C36.1429 59.5042 36.1429 59.5042 36.1025 59.6663C35.8748 60.3436 35.5189 60.7553 34.9283 61.1593C34.5228 61.2366 34.5228 61.2366 34.0742 61.2402C33.9919 61.2416 33.9096 61.2431 33.8248 61.2445C33.5545 61.2484 33.2844 61.2478 33.0141 61.2468C32.8249 61.2479 32.6358 61.249 32.4466 61.2503C32.0507 61.2522 31.6549 61.2519 31.259 61.2501C30.7535 61.2481 30.2483 61.2525 29.7428 61.2587C29.3523 61.2627 28.9618 61.2627 28.5712 61.2617C28.385 61.2617 28.1987 61.2631 28.0125 61.2658C26.3809 61.2862 26.3809 61.2862 25.7603 60.7744C25.4551 60.4432 25.2532 60.147 25.1476 59.7034C25.103 59.5277 25.103 59.5277 25.0575 59.3485C25.0295 59.2231 25.0014 59.0976 24.9725 58.9684C24.9401 58.8364 24.9076 58.7043 24.8742 58.5683C24.7847 58.2017 24.6983 57.8345 24.6126 57.467C24.5094 57.0312 24.3998 56.5971 24.2911 56.1627C24.2025 55.8064 24.1142 55.4499 24.0261 55.0934C24.0047 55.0067 23.9833 54.9201 23.9612 54.8308C23.9004 54.5834 23.8404 54.3359 23.7806 54.0883C23.746 53.9457 23.7113 53.8031 23.6757 53.6561C23.6013 53.29 23.6013 53.29 23.6013 52.8131C23.5067 52.8029 23.412 52.7928 23.3144 52.7823C22.7595 52.6677 22.2716 52.4567 21.7532 52.2318C21.6544 52.1899 21.5556 52.1479 21.4538 52.1047C21.0325 51.9245 20.633 51.7473 20.2368 51.5155C19.7912 51.3365 19.6299 51.4431 19.1898 51.6208C18.936 51.7598 18.6862 51.9062 18.4399 52.0581C18.3702 52.1008 18.3005 52.1434 18.2287 52.1874C18.0071 52.3233 17.7862 52.4601 17.5652 52.597C17.2757 52.7753 16.9859 52.9533 16.6961 53.1312C16.6254 53.1746 16.5547 53.2181 16.4819 53.2628C14.0252 54.7691 14.0252 54.7691 13.109 54.6016C12.2803 54.2114 11.6991 53.6031 11.0578 52.9598C10.9423 52.8448 10.8267 52.7299 10.7111 52.615C10.47 52.3749 10.2296 52.1342 9.9896 51.8931C9.68327 51.5854 9.37508 51.2796 9.06633 50.9743C8.82756 50.7378 8.58991 50.5001 8.35257 50.262C8.18477 50.0942 8.01596 49.9274 7.84712 49.7606C7.18209 49.0883 6.7392 48.592 6.61875 47.6316C6.68245 47.1111 6.87673 46.7355 7.13992 46.2926C7.19061 46.2037 7.2413 46.1149 7.29353 46.0233C7.60435 45.4845 7.9287 44.9545 8.25735 44.4265C8.39776 44.2009 8.53759 43.975 8.67739 43.749C8.86264 43.4497 9.05041 43.1521 9.23972 42.8553C9.32651 42.7161 9.41323 42.5769 9.49987 42.4376C9.57782 42.3145 9.65577 42.1914 9.73609 42.0646C9.9124 41.6743 9.90657 41.5274 9.77047 41.1284C9.64405 40.841 9.51375 40.5603 9.37551 40.2789C8.45892 38.3643 8.45892 38.3643 8.45892 37.6707C8.331 37.658 8.20307 37.6453 8.07127 37.6322C7.39365 37.547 6.73843 37.3786 6.07662 37.2133C5.87434 37.1632 5.87434 37.1632 5.66797 37.1121C5.38421 37.0417 5.10053 36.9709 4.81691 36.8999C4.38314 36.7914 3.94897 36.6847 3.51477 36.578C3.23848 36.5092 2.96221 36.4403 2.68597 36.3712C2.55642 36.3395 2.42687 36.3079 2.29339 36.2752C2.11189 36.2293 2.11189 36.2293 1.92671 36.1824C1.82077 36.156 1.71483 36.1297 1.60567 36.1025C0.92836 35.8748 0.51667 35.5189 0.112708 34.9283C0.0354007 34.5228 0.0354007 34.5228 0.0317838 34.0742C0.0303561 33.9919 0.0289284 33.9096 0.0274575 33.8248C0.0236386 33.5545 0.0241921 33.2844 0.0251469 33.0141C0.0241386 32.8249 0.0229889 32.6358 0.0217047 32.4466C0.0197534 32.0507 0.0200705 31.6549 0.0218867 31.259C0.0239458 30.7535 0.0195213 30.2483 0.0132703 29.7428C0.00931125 29.3523 0.00925819 28.9618 0.0103085 28.5712C0.0102657 28.385 0.00893003 28.1987 0.00624044 28.0125C-0.0141962 26.3809 -0.0141953 26.3809 0.497591 25.7603C0.828845 25.4551 1.12498 25.2532 1.56864 25.1476C1.74428 25.103 1.74428 25.103 1.92348 25.0575C2.04892 25.0295 2.17435 25.0014 2.30359 24.9725C2.43563 24.9401 2.56768 24.9076 2.70372 24.8742C3.07033 24.7847 3.43754 24.6983 3.80505 24.6126C4.24075 24.5094 4.67488 24.3998 5.10926 24.2911C5.46564 24.2025 5.8221 24.1142 6.17862 24.0261C6.26527 24.0047 6.35192 23.9833 6.4412 23.9612C6.68855 23.9004 6.93608 23.8404 7.1837 23.7806C7.32631 23.746 7.46892 23.7113 7.61586 23.6757C7.98199 23.6013 7.98199 23.6013 8.45892 23.6013C8.46876 23.5068 8.47859 23.4123 8.48873 23.3149C8.60533 22.7556 8.82464 22.2667 9.05508 21.7458C9.14255 21.5472 9.2295 21.3483 9.3159 21.1492C9.35448 21.0619 9.39305 20.9747 9.4328 20.8848C9.54714 20.5802 9.63211 20.3517 9.65124 20.0244C9.5166 19.7284 9.38057 19.4759 9.20924 19.2028C9.13831 19.0851 9.13831 19.0851 9.06594 18.9651C8.91238 18.7111 8.75647 18.4586 8.60051 18.2061C8.49532 18.0329 8.39031 17.8596 8.28549 17.6862C8.0798 17.3464 7.87332 17.0071 7.66604 16.6683C7.32389 16.1084 6.98828 15.5449 6.65554 14.9794C6.58504 14.8612 6.58504 14.8612 6.51311 14.7406C6.15241 14.1307 6.01575 13.7039 6.07429 12.9897C6.42604 12.1022 6.99086 11.5284 7.66389 10.864C7.77239 10.7554 7.88088 10.6467 7.99267 10.5347C8.22132 10.3059 8.45078 10.0779 8.68088 9.85058C8.97414 9.5607 9.26551 9.269 9.55632 8.97667C9.83623 8.69573 10.1175 8.41623 10.3988 8.13662C10.5025 8.03254 10.6062 7.92845 10.7131 7.82122C12.0692 6.48591 12.0692 6.48591 12.9599 6.47669C13.4327 6.50712 13.7485 6.60798 14.1592 6.84184C14.2735 6.9066 14.3878 6.97137 14.5056 7.0381C14.6349 7.1135 14.7642 7.18891 14.8974 7.2666C14.9701 7.3089 15.0427 7.3512 15.1175 7.39478C15.6089 7.68146 16.0984 7.97115 16.5872 8.26226C16.8439 8.41508 17.1008 8.56743 17.3577 8.71974C17.5233 8.81814 17.6889 8.91657 17.8545 9.01502C17.9301 9.05987 18.0058 9.10472 18.0837 9.15092C18.4336 9.35964 18.7688 9.57151 19.1024 9.8068C19.4156 10.0517 19.4156 10.0517 19.7771 9.94466C19.898 9.88717 20.019 9.82969 20.1436 9.77047C20.2806 9.70807 20.4175 9.64567 20.5586 9.58137C20.706 9.51048 20.8534 9.43937 21.0006 9.36806C22.914 8.45892 22.914 8.45892 23.6013 8.45892C23.6204 8.26703 23.6204 8.26703 23.6398 8.07127C23.725 7.39365 23.8934 6.73843 24.0587 6.07662C24.0921 5.94176 24.1255 5.80691 24.1599 5.66797C24.2303 5.38421 24.3011 5.10053 24.3721 4.81691C24.4806 4.38314 24.5873 3.94897 24.694 3.51477C24.7628 3.23848 24.8317 2.96221 24.9008 2.68597C24.9325 2.55642 24.9641 2.42687 24.9968 2.29339C25.0274 2.17239 25.058 2.05138 25.0896 1.92671C25.116 1.82077 25.1423 1.71483 25.1695 1.60567C25.5049 0.607882 26.1291 0.0403995 27.1978 0.031783ZM22.0513 21.5744C21.9771 21.6386 21.9029 21.7029 21.8264 21.7691C20.1456 23.3284 19.0195 25.5754 18.4744 27.7744C18.4523 27.8622 18.4301 27.9499 18.4074 28.0403C17.6842 31.2201 18.3775 34.4145 20.0095 37.1714C20.4774 37.9017 21.001 38.5706 21.5744 39.2207C21.6708 39.332 21.6708 39.332 21.7691 39.4456C23.3284 41.1264 25.5754 42.2525 27.7744 42.7976C27.8622 42.8197 27.9499 42.8419 28.0403 42.8646C31.2201 43.5878 34.4145 42.8945 37.1714 41.2625C37.9017 40.7946 38.5706 40.271 39.2207 39.6976C39.2949 39.6334 39.3691 39.5691 39.4456 39.5029C41.1264 37.9436 42.2525 35.6966 42.7976 33.4976C42.8197 33.4098 42.8419 33.3221 42.8646 33.2317C43.5878 30.0519 42.8945 26.8575 41.2625 24.1006C40.7946 23.3703 40.271 22.7014 39.6976 22.0513C39.6334 21.9771 39.5691 21.9029 39.5029 21.8264C37.9436 20.1456 35.6966 19.0195 33.4976 18.4744C33.4098 18.4523 33.3221 18.4301 33.2317 18.4074C29.1275 17.474 25.1327 18.8564 22.0513 21.5744Z" fill="#091242"/>
<rect x="17.6426" y="16.4829" width="27.471" height="26.3111" fill="#091242"/>
<path d="M38.8239 21.6399C40.7208 23.2829 42.402 25.5267 42.8472 28.0551C43.0297 28.5047 43.3237 28.6327 43.7383 28.8577C43.891 28.9459 44.0436 29.0344 44.1959 29.1233C44.2717 29.1672 44.3475 29.211 44.4256 29.2562C46.5249 30.5049 48.7755 32.3868 49.5591 34.7655C49.7476 35.5545 49.7092 36.3409 49.3736 37.0846C49.183 37.3894 48.9675 37.6552 48.7242 37.9194C48.6788 37.9688 48.6334 38.0182 48.5865 38.0691C47.5503 39.0599 46.0909 39.457 44.7355 39.7747C44.6687 39.7903 44.602 39.806 44.5333 39.8221C43.8017 39.9848 43.0722 40.057 42.3244 40.0975C42.2584 40.1012 42.1924 40.1048 42.1244 40.1086C41.7914 40.1267 41.4584 40.1423 41.1251 40.1541C40.1922 40.1934 39.698 40.3394 39.019 40.998C36.4129 43.3892 33.0971 44.2658 29.6355 44.1493C27.2895 44.0329 25.0093 43.0948 23.1219 41.7227C23.0463 41.6679 22.9707 41.6131 22.8929 41.5567C20.8247 39.9787 19.2298 37.7787 18.4849 35.2761C18.2534 34.5263 17.8058 34.1549 17.1561 33.7799C15.9122 33.0303 14.7985 32.1537 13.7529 31.1478C13.6787 31.0806 13.6046 31.0134 13.5282 30.9441C12.6001 30.0768 11.7084 28.787 11.6005 27.4888C11.5813 26.3922 11.8656 25.6604 12.6064 24.8613C13.681 23.8264 15.1208 23.4091 16.5358 23.0775C16.6025 23.0618 16.6692 23.0462 16.7379 23.0301C17.4695 22.8673 18.1991 22.7952 18.9468 22.7546C19.0128 22.751 19.0788 22.7473 19.1468 22.7435C19.4799 22.7255 19.8128 22.7099 20.1462 22.698C21.115 22.6573 21.5958 22.4919 22.2986 21.8078C26.848 17.5922 34.145 17.7391 38.8239 21.6399ZM15.082 26.817C14.9136 27.0309 14.8455 27.2401 14.8367 27.5119C14.989 28.5686 15.8927 29.3086 16.6964 29.9139C22.643 34.233 31.2725 36.383 38.8914 37.0846C39.0114 37.095 39.1313 37.1054 39.2549 37.1161C42.8222 37.4243 42.8222 37.4243 46.0341 36.1569C46.2608 35.889 46.3195 35.78 46.291 35.4301C45.9984 34.2269 44.6359 33.2233 43.7238 32.4711C43.6597 32.4324 43.5956 32.3936 43.5296 32.3537C43.3918 32.3996 43.3918 32.3996 43.2513 32.4465C43.2355 32.5471 43.2197 32.6478 43.2034 32.7516C43.1808 32.8856 43.1581 33.0197 43.1353 33.1538C43.1201 33.253 43.1201 33.253 43.1045 33.3542C43.0109 33.8912 42.8505 34.3102 42.3885 34.6393C42.1137 34.7779 41.9445 34.8025 41.6388 34.8057C41.4905 34.8073 41.4905 34.8073 41.3392 34.809C41.2317 34.808 41.1241 34.8071 41.0134 34.8061C40.8994 34.8053 40.7853 34.8046 40.6679 34.8038C34.4698 34.6951 23.6073 33.0558 18.9476 28.5504C18.6711 28.0835 18.7063 27.594 18.762 27.0663C18.8418 26.8116 18.9366 26.579 19.0519 26.3386C19.1563 26.1173 19.1563 26.1173 19.1331 25.7676C17.7406 25.7096 16.1533 25.8157 15.082 26.817Z" fill="#EF6C02"/>
<path d="M79.135 35.1081C76.7966 35.1081 75.0058 34.4421 73.7626 33.1101C72.549 31.7781 71.9422 29.8985 71.9422 27.4713V10.7769C71.9422 8.34966 72.549 6.47006 73.7626 5.13806C75.0058 3.80606 76.7966 3.14006 79.135 3.14006C81.4734 3.14006 83.2494 3.80606 84.463 5.13806C85.7062 6.47006 86.3278 8.34966 86.3278 10.7769V14.0625H81.7102V10.4661C81.7102 8.54206 80.8962 7.58006 79.2682 7.58006C77.6402 7.58006 76.8262 8.54206 76.8262 10.4661V27.8265C76.8262 29.7209 77.6402 30.6681 79.2682 30.6681C80.8962 30.6681 81.7102 29.7209 81.7102 27.8265V23.0757H86.3278V27.4713C86.3278 29.8985 85.7062 31.7781 84.463 33.1101C83.2494 34.4421 81.4734 35.1081 79.135 35.1081ZM130.313 3.58406H137.506C139.933 3.58406 141.753 4.23526 142.967 5.53766C144.181 6.84006 144.787 8.74926 144.787 11.2653V14.3289C144.787 16.8449 144.181 18.7541 142.967 20.0565C141.753 21.3589 139.933 22.0101 137.506 22.0101H135.197V34.6641H130.313V3.58406ZM137.506 17.5701C138.305 17.5701 138.897 17.3481 139.282 16.9041C139.696 16.4601 139.903 15.7053 139.903 14.6397V10.9545C139.903 9.88886 139.696 9.13406 139.282 8.69006C138.897 8.24606 138.305 8.02406 137.506 8.02406H135.197V17.5701H137.506ZM202.584 3.58406H209.777C212.204 3.58406 214.025 4.23526 215.238 5.53766C216.452 6.84006 217.059 8.74926 217.059 11.2653V14.3289C217.059 16.8449 216.452 18.7541 215.238 20.0565C214.025 21.3589 212.204 22.0101 209.777 22.0101H207.468V34.6641H202.584V3.58406ZM209.777 17.5701C210.576 17.5701 211.168 17.3481 211.553 16.9041C211.968 16.4601 212.175 15.7053 212.175 14.6397V10.9545C212.175 9.88886 211.968 9.13406 211.553 8.69006C211.168 8.24606 210.576 8.02406 209.777 8.02406H207.468V17.5701H209.777Z" fill="#EF6C02"/>
<path d="M92.5799 3.58406H99.1955L104.257 34.6641H99.3731L98.4851 28.4925V28.5813H92.9351L92.0471 34.6641H87.5183L92.5799 3.58406ZM97.9079 24.3633L95.7323 9.00086H95.6435L93.5123 24.3633H97.9079ZM106.183 3.58406H113.42C115.936 3.58406 117.771 4.17606 118.925 5.36006C120.08 6.51446 120.657 8.30526 120.657 10.7325V12.6417C120.657 15.8681 119.591 17.9105 117.46 18.7689V18.8577C118.644 19.2129 119.473 19.9381 119.947 21.0333C120.45 22.1285 120.701 23.5937 120.701 25.4289V30.8901C120.701 31.7781 120.731 32.5033 120.79 33.0657C120.849 33.5985 120.997 34.1313 121.234 34.6641H116.261C116.084 34.1609 115.965 33.6873 115.906 33.2433C115.847 32.7993 115.817 32.0001 115.817 30.8457V25.1625C115.817 23.7417 115.581 22.7501 115.107 22.1877C114.663 21.6253 113.879 21.3441 112.754 21.3441H111.067V34.6641H106.183V3.58406ZM112.843 16.9041C113.819 16.9041 114.545 16.6525 115.018 16.1493C115.521 15.6461 115.773 14.8025 115.773 13.6185V11.2209C115.773 10.0961 115.566 9.28206 115.151 8.77886C114.767 8.27566 114.145 8.02406 113.287 8.02406H111.067V16.9041H112.843ZM149.209 3.58406H155.825L160.886 34.6641H156.002L155.114 28.4925V28.5813H149.564L148.676 34.6641H144.147L149.209 3.58406ZM154.537 24.3633L152.361 9.00086H152.273L150.141 24.3633H154.537ZM162.812 3.58406H170.049C172.565 3.58406 174.4 4.17606 175.554 5.36006C176.709 6.51446 177.286 8.30526 177.286 10.7325V12.6417C177.286 15.8681 176.22 17.9105 174.089 18.7689V18.8577C175.273 19.2129 176.102 19.9381 176.576 21.0333C177.079 22.1285 177.33 23.5937 177.33 25.4289V30.8901C177.33 31.7781 177.36 32.5033 177.419 33.0657C177.478 33.5985 177.626 34.1313 177.863 34.6641H172.89C172.713 34.1609 172.594 33.6873 172.535 33.2433C172.476 32.7993 172.446 32.0001 172.446 30.8457V25.1625C172.446 23.7417 172.21 22.7501 171.736 22.1877C171.292 21.6253 170.508 21.3441 169.383 21.3441H167.696V34.6641H162.812V3.58406ZM169.472 16.9041C170.448 16.9041 171.174 16.6525 171.647 16.1493C172.15 15.6461 172.402 14.8025 172.402 13.6185V11.2209C172.402 10.0961 172.195 9.28206 171.78 8.77886C171.396 8.27566 170.774 8.02406 169.916 8.02406H167.696V16.9041H169.472ZM184.007 8.02406H178.901V3.58406H193.997V8.02406H188.891V34.6641H184.007V8.02406ZM219.267 3.58406H224.151V30.2241H232.188V34.6641H219.267V3.58406ZM238.033 3.58406H244.649L249.71 34.6641H244.826L243.938 28.4925V28.5813H238.388L237.5 34.6641H232.972L238.033 3.58406ZM243.361 24.3633L241.186 9.00086H241.097L238.966 24.3633H243.361ZM251.636 3.58406H257.763L262.514 22.1877H262.603V3.58406H266.954V34.6641H261.937L256.076 11.9757H255.987V34.6641H251.636V3.58406ZM270.14 3.58406H283.46V8.02406H275.024V16.2381H281.728V20.6781H275.024V30.2241H283.46V34.6641H270.14V3.58406ZM289.644 8.02406H284.538V3.58406H299.634V8.02406H294.528V34.6641H289.644V8.02406Z" fill="#091242"/>
<path d="M73.0283 41.9648H78.823V43.8964H75.153V47.4698H78.0697V49.4014H75.153V53.5543H78.823V55.4858H73.0283V41.9648ZM80.6892 41.9648H83.3548L85.4216 50.0581H85.4602V41.9648H87.3532V55.4858H85.1705L82.6208 45.6155H82.5822V55.4858H80.6892V41.9648ZM92.5895 55.679C91.5593 55.679 90.7738 55.3893 90.233 54.8098C89.6921 54.2174 89.4217 53.374 89.4217 52.2794V45.1712C89.4217 44.0766 89.6921 43.2396 90.233 42.6601C90.7738 42.0678 91.5593 41.7716 92.5895 41.7716C93.6197 41.7716 94.4052 42.0678 94.946 42.6601C95.4869 43.2396 95.7573 44.0766 95.7573 45.1712V46.3302H93.7484V45.036C93.7484 44.1475 93.3814 43.7032 92.6474 43.7032C91.9134 43.7032 91.5464 44.1475 91.5464 45.036V52.4339C91.5464 53.3096 91.9134 53.7474 92.6474 53.7474C93.3814 53.7474 93.7484 53.3096 93.7484 52.4339V49.7877H92.6861V47.8561H95.7573V52.2794C95.7573 53.374 95.4869 54.2174 94.946 54.8098C94.4052 55.3893 93.6197 55.679 92.5895 55.679ZM97.7653 41.9648H99.8901V55.4858H97.7653V41.9648ZM102.125 41.9648H104.791L106.858 50.0581H106.896V41.9648H108.789V55.4858H106.606L104.057 45.6155H104.018V55.4858H102.125V41.9648ZM111.012 41.9648H116.807V43.8964H113.137V47.4698H116.054V49.4014H113.137V53.5543H116.807V55.4858H111.012V41.9648ZM121.473 55.679C120.443 55.679 119.664 55.3893 119.136 54.8098C118.608 54.2174 118.344 53.374 118.344 52.2794V51.5068H120.353V52.4339C120.353 53.3096 120.72 53.7474 121.454 53.7474C121.814 53.7474 122.085 53.6444 122.265 53.4384C122.458 53.2195 122.555 52.8718 122.555 52.3953C122.555 51.8287 122.426 51.3329 122.168 50.908C121.911 50.4702 121.434 49.9486 120.739 49.3434C119.863 48.5708 119.252 47.8754 118.904 47.2573C118.556 46.6263 118.383 45.9181 118.383 45.1326C118.383 44.0638 118.653 43.2396 119.194 42.6601C119.735 42.0678 120.52 41.7716 121.55 41.7716C122.568 41.7716 123.334 42.0678 123.849 42.6601C124.377 43.2396 124.641 44.0766 124.641 45.1712V45.7314H122.632V45.036C122.632 44.5724 122.542 44.2376 122.362 44.0316C122.181 43.8127 121.917 43.7032 121.57 43.7032C120.861 43.7032 120.507 44.1346 120.507 44.9974C120.507 45.4867 120.636 45.9438 120.894 46.3688C121.164 46.7937 121.647 47.3088 122.342 47.914C123.231 48.6867 123.842 49.3885 124.177 50.0195C124.512 50.6505 124.679 51.3909 124.679 52.2408C124.679 53.3482 124.403 54.1981 123.849 54.7905C123.308 55.3828 122.516 55.679 121.473 55.679ZM127.237 55.4858H126.542V53.4384H128.589V55.2734L127.527 57.8037H126.542L127.237 55.4858ZM136.225 43.8964H134.003V41.9648H140.571V43.8964H138.349V55.4858H136.225V43.8964ZM142.243 41.9648H145.392C146.486 41.9648 147.285 42.2223 147.787 42.7374C148.289 43.2396 148.54 44.0187 148.54 45.0746V45.9052C148.54 47.3088 148.077 48.1973 147.149 48.5708V48.6094C147.665 48.7639 148.025 49.0794 148.231 49.5559C148.45 50.0323 148.559 50.6698 148.559 51.4682V53.844C148.559 54.2303 148.572 54.5458 148.598 54.7905C148.624 55.0223 148.688 55.2541 148.791 55.4858H146.628C146.551 55.2669 146.499 55.0609 146.473 54.8677C146.448 54.6746 146.435 54.3269 146.435 53.8247V51.3523C146.435 50.7342 146.332 50.3028 146.126 50.0581C145.933 49.8134 145.591 49.6911 145.102 49.6911H144.368V55.4858H142.243V41.9648ZM145.141 47.7595C145.566 47.7595 145.881 47.6501 146.087 47.4312C146.306 47.2122 146.415 46.8452 146.415 46.3302V45.2871C146.415 44.7978 146.325 44.4436 146.145 44.2247C145.978 44.0058 145.707 43.8964 145.334 43.8964H144.368V47.7595H145.141ZM152.319 41.9648H155.197L157.399 55.4858H155.275L154.888 52.8009V52.8396H152.474L152.088 55.4858H150.117L152.319 41.9648ZM154.637 51.0046L153.691 44.3213H153.652L152.725 51.0046H154.637ZM159.074 41.9648H161.74L163.806 50.0581H163.845V41.9648H165.738V55.4858H163.555L161.006 45.6155H160.967V55.4858H159.074V41.9648ZM170.723 55.679C169.693 55.679 168.914 55.3893 168.386 54.8098C167.858 54.2174 167.594 53.374 167.594 52.2794V51.5068H169.603V52.4339C169.603 53.3096 169.97 53.7474 170.704 53.7474C171.065 53.7474 171.335 53.6444 171.515 53.4384C171.708 53.2195 171.805 52.8718 171.805 52.3953C171.805 51.8287 171.676 51.3329 171.419 50.908C171.161 50.4702 170.685 49.9486 169.989 49.3434C169.114 48.5708 168.502 47.8754 168.154 47.2573C167.807 46.6263 167.633 45.9181 167.633 45.1326C167.633 44.0638 167.903 43.2396 168.444 42.6601C168.985 42.0678 169.77 41.7716 170.801 41.7716C171.818 41.7716 172.584 42.0678 173.099 42.6601C173.627 43.2396 173.891 44.0766 173.891 45.1712V45.7314H171.882V45.036C171.882 44.5724 171.792 44.2376 171.612 44.0316C171.432 43.8127 171.168 43.7032 170.82 43.7032C170.112 43.7032 169.758 44.1346 169.758 44.9974C169.758 45.4867 169.886 45.9438 170.144 46.3688C170.414 46.7937 170.897 47.3088 171.593 47.914C172.481 48.6867 173.093 49.3885 173.428 50.0195C173.762 50.6505 173.93 51.3909 173.93 52.2408C173.93 53.3482 173.653 54.1981 173.099 54.7905C172.558 55.3828 171.766 55.679 170.723 55.679ZM175.792 41.9648H178.824L180.177 51.642H180.215L181.567 41.9648H184.6V55.4858H182.591V45.2485H182.552L181.007 55.4858H179.23L177.685 45.2485H177.646V55.4858H175.792V41.9648ZM186.829 41.9648H188.954V55.4858H186.829V41.9648ZM193.951 55.679C192.921 55.679 192.142 55.3893 191.614 54.8098C191.086 54.2174 190.822 53.374 190.822 52.2794V51.5068H192.831V52.4339C192.831 53.3096 193.198 53.7474 193.932 53.7474C194.293 53.7474 194.563 53.6444 194.743 53.4384C194.936 53.2195 195.033 52.8718 195.033 52.3953C195.033 51.8287 194.904 51.3329 194.647 50.908C194.389 50.4702 193.913 49.9486 193.217 49.3434C192.342 48.5708 191.73 47.8754 191.382 47.2573C191.035 46.6263 190.861 45.9181 190.861 45.1326C190.861 44.0638 191.131 43.2396 191.672 42.6601C192.213 42.0678 192.998 41.7716 194.029 41.7716C195.046 41.7716 195.812 42.0678 196.327 42.6601C196.855 43.2396 197.119 44.0766 197.119 45.1712V45.7314H195.11V45.036C195.11 44.5724 195.02 44.2376 194.84 44.0316C194.66 43.8127 194.396 43.7032 194.048 43.7032C193.34 43.7032 192.986 44.1346 192.986 44.9974C192.986 45.4867 193.114 45.9438 193.372 46.3688C193.642 46.7937 194.125 47.3088 194.821 47.914C195.709 48.6867 196.321 49.3885 196.656 50.0195C196.99 50.6505 197.158 51.3909 197.158 52.2408C197.158 53.3482 196.881 54.1981 196.327 54.7905C195.786 55.3828 194.994 55.679 193.951 55.679ZM201.782 55.679C200.752 55.679 199.973 55.3893 199.445 54.8098C198.917 54.2174 198.653 53.374 198.653 52.2794V51.5068H200.662V52.4339C200.662 53.3096 201.029 53.7474 201.763 53.7474C202.123 53.7474 202.394 53.6444 202.574 53.4384C202.767 53.2195 202.864 52.8718 202.864 52.3953C202.864 51.8287 202.735 51.3329 202.477 50.908C202.22 50.4702 201.743 49.9486 201.048 49.3434C200.172 48.5708 199.561 47.8754 199.213 47.2573C198.865 46.6263 198.691 45.9181 198.691 45.1326C198.691 44.0638 198.962 43.2396 199.503 42.6601C200.044 42.0678 200.829 41.7716 201.859 41.7716C202.877 41.7716 203.643 42.0678 204.158 42.6601C204.686 43.2396 204.95 44.0766 204.95 45.1712V45.7314H202.941V45.036C202.941 44.5724 202.851 44.2376 202.671 44.0316C202.49 43.8127 202.226 43.7032 201.879 43.7032C201.17 43.7032 200.816 44.1346 200.816 44.9974C200.816 45.4867 200.945 45.9438 201.203 46.3688C201.473 46.7937 201.956 47.3088 202.651 47.914C203.54 48.6867 204.151 49.3885 204.486 50.0195C204.821 50.6505 204.988 51.3909 204.988 52.2408C204.988 53.3482 204.712 54.1981 204.158 54.7905C203.617 55.3828 202.825 55.679 201.782 55.679ZM206.851 41.9648H208.975V55.4858H206.851V41.9648ZM214.282 55.679C213.239 55.679 212.44 55.3828 211.886 54.7905C211.333 54.1981 211.056 53.3611 211.056 52.2794V45.1712C211.056 44.0895 211.333 43.2525 211.886 42.6601C212.44 42.0678 213.239 41.7716 214.282 41.7716C215.325 41.7716 216.123 42.0678 216.677 42.6601C217.231 43.2525 217.507 44.0895 217.507 45.1712V52.2794C217.507 53.3611 217.231 54.1981 216.677 54.7905C216.123 55.3828 215.325 55.679 214.282 55.679ZM214.282 53.7474C215.016 53.7474 215.383 53.3032 215.383 52.4146V45.036C215.383 44.1475 215.016 43.7032 214.282 43.7032C213.548 43.7032 213.181 44.1475 213.181 45.036V52.4146C213.181 53.3032 213.548 53.7474 214.282 53.7474ZM219.588 41.9648H222.254L224.321 50.0581H224.359V41.9648H226.252V55.4858H224.069L221.52 45.6155H221.481V55.4858H219.588V41.9648ZM231.237 55.679C230.207 55.679 229.428 55.3893 228.9 54.8098C228.372 54.2174 228.108 53.374 228.108 52.2794V51.5068H230.117V52.4339C230.117 53.3096 230.484 53.7474 231.218 53.7474C231.579 53.7474 231.849 53.6444 232.029 53.4384C232.222 53.2195 232.319 52.8718 232.319 52.3953C232.319 51.8287 232.19 51.3329 231.933 50.908C231.675 50.4702 231.199 49.9486 230.503 49.3434C229.628 48.5708 229.016 47.8754 228.668 47.2573C228.321 46.6263 228.147 45.9181 228.147 45.1326C228.147 44.0638 228.417 43.2396 228.958 42.6601C229.499 42.0678 230.284 41.7716 231.315 41.7716C232.332 41.7716 233.098 42.0678 233.613 42.6601C234.141 43.2396 234.405 44.0766 234.405 45.1712V45.7314H232.396V45.036C232.396 44.5724 232.306 44.2376 232.126 44.0316C231.946 43.8127 231.682 43.7032 231.334 43.7032C230.626 43.7032 230.272 44.1346 230.272 44.9974C230.272 45.4867 230.4 45.9438 230.658 46.3688C230.928 46.7937 231.411 47.3088 232.107 47.914C232.995 48.6867 233.607 49.3885 233.942 50.0195C234.276 50.6505 234.444 51.3909 234.444 52.2408C234.444 53.3482 234.167 54.1981 233.613 54.7905C233.072 55.3828 232.28 55.679 231.237 55.679ZM242.265 55.679C241.492 55.679 240.906 55.415 240.507 54.8871C240.108 54.3591 239.908 53.5929 239.908 52.5885V51.1784C239.908 50.4702 240.03 49.8778 240.275 49.4014C240.52 48.9249 240.919 48.5772 241.473 48.3583V48.3197C240.97 48.1136 240.597 47.7853 240.352 47.3346C240.121 46.871 240.005 46.2786 240.005 45.5575V45.3064C240.005 44.2119 240.269 43.3813 240.797 42.8147C241.325 42.2481 242.117 41.9648 243.172 41.9648H245.606V43.8964H243.211C242.863 43.8964 242.593 43.9994 242.4 44.2054C242.22 44.4114 242.129 44.7463 242.129 45.2098V46.0404C242.129 46.5555 242.232 46.9225 242.438 47.1414C242.657 47.3603 242.979 47.4698 243.404 47.4698H244.235V45.9631H246.321V47.4698H246.92V49.4014H246.321V53.844C246.321 54.2303 246.334 54.5458 246.36 54.7905C246.385 55.0223 246.45 55.2541 246.553 55.4858H244.428C244.325 55.2025 244.261 54.8484 244.235 54.4235H244.196C243.964 54.8484 243.694 55.1639 243.385 55.3699C243.089 55.576 242.715 55.679 242.265 55.679ZM243.057 53.7474C243.726 53.7474 244.119 53.3418 244.235 52.5305V49.4014H243.424C242.934 49.4014 242.58 49.5366 242.361 49.807C242.142 50.0645 242.033 50.5024 242.033 51.1205V52.4919C242.033 52.9426 242.123 53.2645 242.303 53.4577C242.484 53.6508 242.735 53.7474 243.057 53.7474ZM252.479 41.9648H255.512L256.864 51.642H256.902L258.255 41.9648H261.287V55.4858H259.278V45.2485H259.24L257.694 55.4858H255.917L254.372 45.2485H254.333V55.4858H252.479V41.9648ZM266.588 55.679C265.545 55.679 264.746 55.3828 264.193 54.7905C263.639 54.1981 263.362 53.3611 263.362 52.2794V45.1712C263.362 44.0895 263.639 43.2525 264.193 42.6601C264.746 42.0678 265.545 41.7716 266.588 41.7716C267.631 41.7716 268.429 42.0678 268.983 42.6601C269.537 43.2525 269.813 44.0895 269.813 45.1712V52.2794C269.813 53.3611 269.537 54.1981 268.983 54.7905C268.429 55.3828 267.631 55.679 266.588 55.679ZM266.588 53.7474C267.322 53.7474 267.689 53.3032 267.689 52.4146V45.036C267.689 44.1475 267.322 43.7032 266.588 43.7032C265.854 43.7032 265.487 44.1475 265.487 45.036V52.4146C265.487 53.3032 265.854 53.7474 266.588 53.7474ZM271.894 41.9648H275.043C276.137 41.9648 276.936 42.2223 277.438 42.7374C277.94 43.2396 278.191 44.0187 278.191 45.0746V45.9052C278.191 47.3088 277.728 48.1973 276.8 48.5708V48.6094C277.316 48.7639 277.676 49.0794 277.882 49.5559C278.101 50.0323 278.211 50.6698 278.211 51.4682V53.844C278.211 54.2303 278.223 54.5458 278.249 54.7905C278.275 55.0223 278.339 55.2541 278.442 55.4858H276.279C276.202 55.2669 276.15 55.0609 276.124 54.8677C276.099 54.6746 276.086 54.3269 276.086 53.8247V51.3523C276.086 50.7342 275.983 50.3028 275.777 50.0581C275.584 49.8134 275.242 49.6911 274.753 49.6911H274.019V55.4858H271.894V41.9648ZM274.792 47.7595C275.217 47.7595 275.532 47.6501 275.738 47.4312C275.957 47.2122 276.066 46.8452 276.066 46.3302V45.2871C276.066 44.7978 275.976 44.4436 275.796 44.2247C275.629 44.0058 275.358 43.8964 274.985 43.8964H274.019V47.7595H274.792ZM280.329 41.9648H286.123V43.8964H282.453V47.4698H285.37V49.4014H282.453V53.5543H286.123V55.4858H280.329V41.9648ZM288.084 53.4384H290.131V55.4858H288.084V53.4384ZM292.368 53.4384H294.416V55.4858H292.368V53.4384ZM296.653 53.4384H298.7V55.4858H296.653V53.4384Z" fill="#091242"/>
</svg>
