<svg id="Layer_1" data-name="Layer 1" xmlns="http://www.w3.org/2000/svg" xmlns:xlink="http://www.w3.org/1999/xlink" viewBox="0 0 1295.28 2426.62"><defs><style>.cls-1{fill:none;}.cls-2{fill:#353240;}.cls-3{clip-path:url(#clip-path);}.cls-4{clip-path:url(#clip-path-2);}.cls-5,.cls-8{fill:#fff;}.cls-6{clip-path:url(#clip-path-3);}.cls-7{clip-path:url(#clip-path-5);}.cls-8{opacity:0.9;}</style><clipPath id="clip-path" transform="translate(0 -4.28)"><path id="SVGID" class="cls-1" d="M1043.65,2194.07a2.45,2.45,0,0,0,2.47,2.43h41.37c11.82,0,19.21-6.55,19.21-17,0-9.95-7.39-17-19.21-17h-39.62l-4.22,4.22v27.31"/></clipPath><clipPath id="clip-path-2" transform="translate(0 -4.28)"><rect id="SVGID-2" data-name="SVGID" class="cls-1" x="-2171.78" y="-2802.72" width="4363.25" height="5646.55"/></clipPath><clipPath id="clip-path-3" transform="translate(0 -4.28)"><path id="SVGID-3" data-name="SVGID" class="cls-1" d="M1199.18,2011.09l-121,121.13h17c31.28,0,49.69,19.65,49.69,41.23,0,16.9-11.42,29.35-23.48,34.79a2.32,2.32,0,0,0,.1,4.31c14,5.55,24.18,20.31,24.18,37.56,0,24.5-16.26,43.91-47.78,43.91h-86.68a2.45,2.45,0,0,1-2.47-2.43v-89.83L876.05,2334.52a2.88,2.88,0,0,0,2,4.91h323.09a2.2,2.2,0,0,0,2.2-2.22V2012.83a2.45,2.45,0,0,0-4.18-1.74"/></clipPath><clipPath id="clip-path-5" transform="translate(0 -4.28)"><path id="SVGID-5" data-name="SVGID" class="cls-1" d="M1043.65,2229.25a2.45,2.45,0,0,1,2.47-2.43H1089c13.54,0,20.92,8.25,20.92,18.44,0,11.64-7.87,18.43-20.92,18.43h-42.85a2.45,2.45,0,0,1-2.47-2.43v-32"/></clipPath></defs><path class="cls-2" d="M783.28,1918.89h512v512h-512Z" transform="translate(0 -4.28)"/><g class="cls-3"><g class="cls-4"><path class="cls-5" d="M1008,2126.9h134.34v105.25H1008Z" transform="translate(0 -4.28)"/></g></g><g class="cls-6"><g class="cls-4"><path class="cls-5" d="M839.55,1974.72H1239v400.35H839.55Z" transform="translate(0 -4.28)"/></g></g><g class="cls-7"><g class="cls-4"><path class="cls-5" d="M1008,2191.17h137.53v108.17H1008Z" transform="translate(0 -4.28)"/></g></g><path class="cls-8" d="M17.88,32.4c-1.83-1.34-3.37-3-5.09-4.5C11.33,26.63,9.93,25.27,8.5,24v-9.5l9.32-5.21A20.42,20.42,0,0,1,21,10.9c1.76.92,3.49,1.89,5.21,2.87.44.25,1.05.34,1.15,1-.12,0-.27,0-.36.07l-9.12,6.75Z" transform="translate(0 -4.28)"/><path class="cls-8" d="M0,16.23V8.09L9,4.28,16,8.11l-9.48,5v9Z" transform="translate(0 -4.28)"/><path class="cls-5" d="M17.88,32.4V21.59L27,14.84c.09-.07.24-.05.36-.07V24c-3,2.76-6,5.52-9,8.27A1,1,0,0,1,17.88,32.4Z" transform="translate(0 -4.28)"/><path class="cls-8" d="M29.3,13,19.87,8.12l6.92-3.84C29.71,5.51,32.6,6.72,35.48,8c.14.06.23.23.34.34Z" transform="translate(0 -4.28)"/><path class="cls-5" d="M29.3,13l6.52-4.75c.37,2.59,0,5.19.18,7.79l-6.7,6.13Z" transform="translate(0 -4.28)"/></svg>