<svg id="Layer_1" data-name="Layer 1" xmlns="http://www.w3.org/2000/svg" viewBox="0 0 36 28.12"><defs><style>.cls-1,.cls-2{fill:#fff;}.cls-1{opacity:0.9;isolation:isolate;}</style></defs><path class="cls-1" d="M17.88,32.06c-1.83-1.34-3.37-3-5.09-4.5-1.46-1.27-2.86-2.63-4.29-3.9v-9.5L17.82,9A20.19,20.19,0,0,1,21,10.56c1.76.92,3.49,1.89,5.21,2.87.44.25,1.05.34,1.15,1a.62.62,0,0,0-.36.07l-9.12,6.75Z" transform="translate(0 -3.94)"/><path class="cls-1" d="M0,15.89V7.75L9,3.94l7,3.83-9.48,5v9Z" transform="translate(0 -3.94)"/><path class="cls-2" d="M17.88,32.06V21.25L27,14.5c.09-.07.24-.05.36-.07v9.23l-9,8.27A1,1,0,0,1,17.88,32.06Z" transform="translate(0 -3.94)"/><path class="cls-1" d="M29.3,12.66,19.87,7.78l6.92-3.84c2.92,1.23,5.81,2.44,8.69,3.72.14.06.23.23.34.34Z" transform="translate(0 -3.94)"/><path class="cls-2" d="M29.3,12.66l6.52-4.75c.37,2.59,0,5.19.18,7.79l-6.7,6.13Z" transform="translate(0 -3.94)"/></svg>