<svg id="Layer_1" data-name="Layer 1" xmlns="http://www.w3.org/2000/svg" xmlns:xlink="http://www.w3.org/1999/xlink" viewBox="0 0 43.57 43.8"><defs><style>.cls-1{fill:none;}.cls-2{clip-path:url(#clip-path);}.cls-3{clip-path:url(#clip-path-2);}.cls-4{fill:#fff;}.cls-5{clip-path:url(#clip-path-3);}.cls-6{clip-path:url(#clip-path-5);}</style><clipPath id="clip-path" transform="translate(3.79 3.9)"><path id="SVGID" class="cls-1" d="M18.48,20.1a.28.28,0,0,0,.26.26h4.53a1.84,1.84,0,0,0,2.08-1.58,1.23,1.23,0,0,0,0-.27,1.88,1.88,0,0,0-1.88-1.88H18.93l-.45.47v3"/></clipPath><clipPath id="clip-path-2" transform="translate(3.79 3.9)"><rect id="SVGID-2" data-name="SVGID" class="cls-1" x="-333.32" y="-526.59" width="477.36" height="617.76"/></clipPath><clipPath id="clip-path-3" transform="translate(3.79 3.9)"><path id="SVGID-3" data-name="SVGID" class="cls-1" d="M35.48.07,22.24,13.33h1.87c3.42,0,5.43,2.15,5.43,4.51A4.22,4.22,0,0,1,27,21.64a.25.25,0,0,0-.18.3.27.27,0,0,0,.18.18,4.41,4.41,0,0,1,2.65,4.11,4.68,4.68,0,0,1-4.49,4.84,4.58,4.58,0,0,1-.74,0H14.88a.29.29,0,0,1-.26-.27V20.94L.13,35.46a.32.32,0,0,0,0,.46A.33.33,0,0,0,.35,36H35.7a.25.25,0,0,0,.25-.25V.26a.27.27,0,0,0-.3-.26.36.36,0,0,0-.17.07"/></clipPath><clipPath id="clip-path-5" transform="translate(3.79 3.9)"><path id="SVGID-5" data-name="SVGID" class="cls-1" d="M18.48,23.94a.27.27,0,0,1,.26-.26h4.67a2,2,0,0,1,2.34,1.71,2.56,2.56,0,0,1,0,.39c0,1.27-.88,2-2.31,2H18.8a.26.26,0,0,1-.26-.26h0V23.94"/></clipPath></defs><g class="cls-2"><g class="cls-3"><path class="cls-4" d="M14.57,12.75H29.28V24.22H14.57Z" transform="translate(3.79 3.9)"/></g></g><g class="cls-5"><g class="cls-3"><path class="cls-4" d="M-3.79-3.9H39.78V39.91H-3.79Z" transform="translate(3.79 3.9)"/></g></g><g class="cls-6"><g class="cls-3"><path class="cls-4" d="M14.57,19.77H29.62V31.61h-15Z" transform="translate(3.79 3.9)"/></g></g></svg>