<svg id="Layer_1" data-name="Layer 1" xmlns="http://www.w3.org/2000/svg" xmlns:xlink="http://www.w3.org/1999/xlink" viewBox="0 0 28.09 28.15"><defs><style>.cls-1{fill:none;}.cls-2{clip-path:url(#clip-path);}.cls-3{clip-path:url(#clip-path-2);}.cls-4{fill:#fff;}.cls-5{clip-path:url(#clip-path-3);}.cls-6{clip-path:url(#clip-path-5);}</style><clipPath id="clip-path" transform="translate(-3.96 -3.93)"><path id="SVGID" class="cls-1" d="M18.31,19.35a.18.18,0,0,0,.17.17h2.91a1.19,1.19,0,0,0,1.35-1.19,1.21,1.21,0,0,0-1.35-1.2H18.6l-.29.3v1.92"/></clipPath><clipPath id="clip-path-2" transform="translate(-3.96 -3.93)"><rect id="SVGID-2" data-name="SVGID" class="cls-1" x="-207.78" y="-331.99" width="306.79" height="397.02"/></clipPath><clipPath id="clip-path-3" transform="translate(-3.96 -3.93)"><path id="SVGID-3" data-name="SVGID" class="cls-1" d="M29.24,6.48,20.73,15h1.2c2.2,0,3.49,1.38,3.49,2.9a2.71,2.71,0,0,1-1.65,2.44.16.16,0,0,0,0,.31,2.83,2.83,0,0,1,1.7,2.64,3,3,0,0,1-3.36,3.09H16a.18.18,0,0,1-.17-.17V19.89L6.52,29.22a.21.21,0,0,0,.14.35H29.38a.16.16,0,0,0,.16-.16V6.6a.18.18,0,0,0-.3-.12"/></clipPath><clipPath id="clip-path-5" transform="translate(-3.96 -3.93)"><path id="SVGID-5" data-name="SVGID" class="cls-1" d="M18.31,21.82a.18.18,0,0,1,.17-.17h3A1.32,1.32,0,0,1,23,23c0,.82-.56,1.29-1.48,1.29h-3a.17.17,0,0,1-.17-.17V21.82"/></clipPath></defs><g class="cls-2"><g class="cls-3"><path class="cls-4" d="M15.8,14.63h9.45V22H15.8Z" transform="translate(-3.96 -3.93)"/></g></g><g class="cls-5"><g class="cls-3"><path class="cls-4" d="M4,3.93H32V32.08H4Z" transform="translate(-3.96 -3.93)"/></g></g><g class="cls-6"><g class="cls-3"><path class="cls-4" d="M15.8,19.14h9.67v7.61H15.8Z" transform="translate(-3.96 -3.93)"/></g></g></svg>