<svg id="Layer_1" data-name="Layer 1" xmlns="http://www.w3.org/2000/svg" xmlns:xlink="http://www.w3.org/1999/xlink" viewBox="0 0 1295.28 2430.89"><defs><style>.cls-1{fill:none;}.cls-2{fill:#fff;}.cls-3{fill:#353240;}.cls-4{clip-path:url(#clip-path);}.cls-5{clip-path:url(#clip-path-2);}.cls-6{clip-path:url(#clip-path-3);}.cls-7{clip-path:url(#clip-path-5);}</style><clipPath id="clip-path" transform="translate(0 0)"><path id="SVGID" class="cls-1" d="M1043.65,2194.07a2.45,2.45,0,0,0,2.47,2.43h41.37c11.82,0,19.21-6.55,19.21-17,0-9.95-7.39-17-19.21-17h-39.62l-4.22,4.22v27.31"/></clipPath><clipPath id="clip-path-2" transform="translate(0 0)"><rect id="SVGID-2" data-name="SVGID" class="cls-1" x="-2171.78" y="-2802.72" width="4363.25" height="5646.55"/></clipPath><clipPath id="clip-path-3" transform="translate(0 0)"><path id="SVGID-3" data-name="SVGID" class="cls-1" d="M1199.18,2011.09l-121,121.13h17c31.28,0,49.69,19.65,49.69,41.23,0,16.9-11.42,29.35-23.48,34.79a2.32,2.32,0,0,0,.1,4.31c14,5.55,24.18,20.31,24.18,37.56,0,24.5-16.26,43.91-47.78,43.91h-86.68a2.45,2.45,0,0,1-2.47-2.43v-89.83L876.05,2334.52a2.88,2.88,0,0,0,2,4.91h323.09a2.2,2.2,0,0,0,2.2-2.22V2012.83a2.45,2.45,0,0,0-4.18-1.74"/></clipPath><clipPath id="clip-path-5" transform="translate(0 0)"><path id="SVGID-5" data-name="SVGID" class="cls-1" d="M1043.65,2229.25a2.45,2.45,0,0,1,2.47-2.43H1089c13.54,0,20.92,8.25,20.92,18.44,0,11.64-7.87,18.43-20.92,18.43h-42.85a2.45,2.45,0,0,1-2.47-2.43v-32"/></clipPath></defs><path class="cls-2" d="M18,0h0A18,18,0,0,1,36,18h0A18,18,0,0,1,18,36h0A18,18,0,0,1,0,18H0A18,18,0,0,1,18,0Z" transform="translate(0 0)"/><path class="cls-1" d="M19.85,11.4l-2-3.5L7.91,25.37h3.93Zm2.51,4.4-2,3.55,1.45,2.53H19l-2,3.49H27.82Z" transform="translate(0 0)"/><path class="cls-3" d="M783.28,1918.89h512v512h-512Z" transform="translate(0 0)"/><g class="cls-4"><g class="cls-5"><path class="cls-2" d="M1008,2126.9h134.34v105.25H1008Z" transform="translate(0 0)"/></g></g><g class="cls-6"><g class="cls-5"><path class="cls-2" d="M839.55,1974.72H1239v400.35H839.55Z" transform="translate(0 0)"/></g></g><g class="cls-7"><g class="cls-5"><path class="cls-2" d="M1008,2191.17h137.53v108.17H1008Z" transform="translate(0 0)"/></g></g></svg>