<svg id="Layer_1" data-name="Layer 1" xmlns="http://www.w3.org/2000/svg" xmlns:xlink="http://www.w3.org/1999/xlink" viewBox="0 0 1293.03 2430.9"><defs><style>.cls-1{fill:none;}.cls-2{fill:#353240;}.cls-3{clip-path:url(#clip-path);}.cls-4{clip-path:url(#clip-path-2);}.cls-5{fill:#fff;}.cls-6{clip-path:url(#clip-path-3);}.cls-7{clip-path:url(#clip-path-5);}.cls-8{fill:#562b82;}</style><clipPath id="clip-path" transform="translate(-2.25 0)"><path id="SVGID" class="cls-1" d="M1043.65,2194.07a2.45,2.45,0,0,0,2.47,2.43h41.37c11.82,0,19.21-6.55,19.21-17,0-9.95-7.39-17-19.21-17h-39.62l-4.22,4.22v27.31"/></clipPath><clipPath id="clip-path-2" transform="translate(-2.25 0)"><rect id="SVGID-2" data-name="SVGID" class="cls-1" x="-2171.78" y="-2802.72" width="4363.25" height="5646.55"/></clipPath><clipPath id="clip-path-3" transform="translate(-2.25 0)"><path id="SVGID-3" data-name="SVGID" class="cls-1" d="M1199.18,2011.09l-121,121.13h17c31.28,0,49.69,19.65,49.69,41.23,0,16.9-11.42,29.35-23.48,34.79a2.32,2.32,0,0,0,.1,4.31c14,5.55,24.18,20.31,24.18,37.56,0,24.5-16.26,43.91-47.78,43.91h-86.68a2.45,2.45,0,0,1-2.47-2.43v-89.83L876.05,2334.52a2.88,2.88,0,0,0,2,4.91h323.09a2.2,2.2,0,0,0,2.2-2.22V2012.83a2.45,2.45,0,0,0-4.18-1.74"/></clipPath><clipPath id="clip-path-5" transform="translate(-2.25 0)"><path id="SVGID-5" data-name="SVGID" class="cls-1" d="M1043.65,2229.25a2.45,2.45,0,0,1,2.47-2.43H1089c13.54,0,20.92,8.25,20.92,18.44,0,11.64-7.87,18.43-20.92,18.43h-42.85a2.45,2.45,0,0,1-2.47-2.43v-32"/></clipPath></defs><path class="cls-2" d="M783.28,1918.89h512v512h-512Z" transform="translate(-2.25 0)"/><g class="cls-3"><g class="cls-4"><path class="cls-5" d="M1008,2126.9h134.34v105.25H1008Z" transform="translate(-2.25 0)"/></g></g><g class="cls-6"><g class="cls-4"><path class="cls-5" d="M839.55,1974.72H1239v400.35H839.55Z" transform="translate(-2.25 0)"/></g></g><g class="cls-7"><g class="cls-4"><path class="cls-5" d="M1008,2191.17h137.53v108.17H1008Z" transform="translate(-2.25 0)"/></g></g><path class="cls-8" d="M21.46,1.81c6,0,9.72,2.72,9.72,5.25a.9.9,0,0,1-.1.42,1,1,0,0,1-.27.34l-3.92,3.86L24.94,13.6l2.56,1a5.93,5.93,0,0,1,3.3,2.23,5.69,5.69,0,0,1,1.11,3.77,4.73,4.73,0,0,1-.42,2,4.88,4.88,0,0,1-1.17,1.64l-7.18,7.05a12.36,12.36,0,0,1-8.83,2.92c-6.67,0-10.23-2.92-10.23-5a1.17,1.17,0,0,1,.06-.46,1.1,1.1,0,0,1,.24-.4l0,0,0,0L8.6,24.17l.07-.06L8.79,24l1.46-1.75-2.07-1A5.64,5.64,0,0,1,5.47,19a5.53,5.53,0,0,1-.83-3.41A5.47,5.47,0,0,1,6.4,11.6l7.16-7a11.15,11.15,0,0,1,7.9-2.75Zm0-1.8a13.24,13.24,0,0,0-4.95.74,12.76,12.76,0,0,0-4.27,2.57l-7.13,7a7.16,7.16,0,0,0-1.7,2.38,7.09,7.09,0,0,0-.6,2.84,7.27,7.27,0,0,0,1.1,4.35,7.4,7.4,0,0,0,3.46,2.93L3.16,27a2.79,2.79,0,0,0-.7,1,2.9,2.9,0,0,0-.21,1.2C2.25,32.51,6.76,36,14.31,36A14,14,0,0,0,24.47,32.5l7.14-7a6.69,6.69,0,0,0,1.57-2.23,6.53,6.53,0,0,0,.56-2.65,7.47,7.47,0,0,0-1.42-4.78A7.73,7.73,0,0,0,28.19,13l3.92-3.86a2.63,2.63,0,0,0,.67-.92A2.51,2.51,0,0,0,33,7.06C33,3.6,28.69,0,21.46,0Z" transform="translate(-2.25 0)"/><path class="cls-5" d="M21.46,1.81c6,0,9.72,2.72,9.72,5.25a.9.9,0,0,1-.1.42,1,1,0,0,1-.27.34l-3.92,3.86L24.94,13.6l2.56,1a5.93,5.93,0,0,1,3.3,2.23,5.69,5.69,0,0,1,1.11,3.77,4.73,4.73,0,0,1-.42,2,4.88,4.88,0,0,1-1.17,1.64l-7.18,7.05a12.36,12.36,0,0,1-8.83,2.92c-6.67,0-10.23-2.92-10.23-5a1.17,1.17,0,0,1,.06-.46,1.1,1.1,0,0,1,.24-.4l0,0,0,0L8.6,24.17l.07-.06L8.79,24l1.46-1.75-2.07-1A5.64,5.64,0,0,1,5.47,19a5.53,5.53,0,0,1-.83-3.41A5.47,5.47,0,0,1,6.4,11.6l7.16-7a11.15,11.15,0,0,1,7.9-2.75Zm0-1.8a13.24,13.24,0,0,0-4.95.74,12.76,12.76,0,0,0-4.27,2.57l-7.13,7a7.16,7.16,0,0,0-1.7,2.38,7.09,7.09,0,0,0-.6,2.84,7.27,7.27,0,0,0,1.1,4.35,7.4,7.4,0,0,0,3.46,2.93L3.16,27a2.79,2.79,0,0,0-.7,1,2.9,2.9,0,0,0-.21,1.2C2.25,32.51,6.76,36,14.31,36A14,14,0,0,0,24.47,32.5l7.14-7a6.69,6.69,0,0,0,1.57-2.23,6.53,6.53,0,0,0,.56-2.65,7.47,7.47,0,0,0-1.42-4.78A7.73,7.73,0,0,0,28.19,13l3.92-3.86a2.63,2.63,0,0,0,.67-.92A2.51,2.51,0,0,0,33,7.06C33,3.6,28.69,0,21.46,0Z" transform="translate(-2.25 0)"/></svg>