<svg id="Layer_1" data-name="Layer 1" xmlns="http://www.w3.org/2000/svg" viewBox="0 0 31.5 36.03"><defs><style>.cls-1{fill:#fff;}</style></defs><path class="cls-1" d="M21.46,1.8c6,0,9.72,2.72,9.72,5.25a.9.9,0,0,1-.1.42,1,1,0,0,1-.27.34l-3.92,3.86-1.95,1.92,2.56,1a5.91,5.91,0,0,1,3.3,2.23,5.66,5.66,0,0,1,1.11,3.77,4.61,4.61,0,0,1-.42,2,4.88,4.88,0,0,1-1.17,1.64l-7.18,7.05a12.4,12.4,0,0,1-8.83,2.92c-6.67,0-10.23-2.92-10.23-5a1.19,1.19,0,0,1,.06-.46,1,1,0,0,1,.24-.4h0L8.6,24.16l.07-.06L8.79,24l1.46-1.75-2.07-1A5.63,5.63,0,0,1,5.47,19a5.55,5.55,0,0,1-.83-3.41,5.49,5.49,0,0,1,1.76-4l7.16-7a11.11,11.11,0,0,1,7.9-2.75Zm0-1.8a13.24,13.24,0,0,0-4.95.74,12.6,12.6,0,0,0-4.27,2.57l-7.13,7a7.31,7.31,0,0,0-1.7,2.38,7.09,7.09,0,0,0-.6,2.84,7.25,7.25,0,0,0,1.1,4.35,7.44,7.44,0,0,0,3.46,2.93L3.16,27a2.83,2.83,0,0,0-.7,1,3.07,3.07,0,0,0-.21,1.2c0,3.31,4.51,6.8,12.06,6.8a14,14,0,0,0,10.16-3.5l7.14-7a6.69,6.69,0,0,0,1.57-2.23,6.57,6.57,0,0,0,.56-2.65,7.43,7.43,0,0,0-1.42-4.78A7.72,7.72,0,0,0,28.19,13l3.92-3.86a2.63,2.63,0,0,0,.67-.92A2.45,2.45,0,0,0,33,7.05C33,3.59,28.69,0,21.46,0Z" transform="translate(-2.25 0.01)"/></svg>