<svg width="208" height="76" viewBox="0 0 208 76" fill="none" xmlns="http://www.w3.org/2000/svg">
<g id="Logo">
<g id="Group">
<g id="Group_2">
<path id="Vector" d="M7.4111 22.25L6.20812 27.353H3.125L6.24887 14.0562H9.87721C11.4741 14.0562 12.6732 14.3647 13.4765 14.9836C14.2778 15.6026 14.6794 16.5087 14.6794 17.7039C14.6794 18.6624 14.4 19.4851 13.8412 20.1739C13.2824 20.8627 12.4772 21.373 11.4256 21.7067L14.0644 27.3549H10.7057L8.61214 22.2519H7.4111V22.25ZM7.94662 19.9585H8.73438C9.61721 19.9585 10.3041 19.7858 10.7969 19.4405C11.2897 19.0951 11.5342 18.5673 11.5342 17.8572C11.5342 17.3605 11.3732 16.9879 11.053 16.7376C10.7329 16.4893 10.2284 16.3651 9.54154 16.3651H8.79259L7.94662 19.9585Z" fill="#009DEA"/>
<path id="Vector_2" d="M23.1602 27.353H14.9004L18.0243 14.0562H26.2938L25.7486 16.367H20.5719L19.8947 19.2872H24.7163L24.1595 21.5981H19.3398L18.5307 25.0266H23.7074L23.1602 27.353Z" fill="#009DEA"/>
<path id="Vector_3" d="M33.2307 23.9963L38.8013 14.0562H43.0777L39.9538 27.353H37.1229L38.5878 21.0587C38.9449 19.5608 39.298 18.2239 39.6492 17.0481H39.5987L33.8458 27.353H31.0052L30.3882 17.0481H30.3474C30.2737 17.5817 30.1456 18.2821 29.9633 19.1494C29.7809 20.0167 29.1503 22.7506 28.0734 27.353H25.293L28.4168 14.0562H32.5012L33.188 23.9963H33.2307Z" fill="#009DEA"/>
<path id="Vector_4" d="M50.6601 24.1885H45.8792L44.1407 27.3531H40.9062L48.65 14.002H52.4199L53.9062 27.3531H50.9046L50.6601 24.1885ZM50.5088 21.8233L50.2468 18.6392C50.1789 17.8457 50.1459 17.0773 50.1459 16.3381V16.0102C49.849 16.7378 49.4823 17.5081 49.0438 18.321L47.1423 21.8233H50.5088Z" fill="#009DEA"/>
<path id="Vector_5" d="M66.926 27.353H63.4684L59.8692 17.2945H59.809L59.7683 17.5855C59.5529 18.8952 59.3298 20.0652 59.1008 21.0955L57.6359 27.353H54.8555L57.9793 14.0562H61.5883L65.0245 23.8507H65.0653C65.1468 23.3909 65.2768 22.7312 65.4592 21.8775C65.6415 21.0237 66.2469 18.416 67.2792 14.0562H70.0499L66.926 27.353Z" fill="#009DEA"/>
<path id="Vector_6" d="M8.35978 46.3681H5.27666L7.84366 35.4171H4.28711L4.84397 33.0713H15.0538L14.4969 35.4171H10.9287L8.35978 46.3681Z" fill="white"/>
<path id="Vector_7" d="M17.5713 41.2651L16.3683 46.3681H13.2852L16.409 33.0713H20.0374C21.6342 33.0713 22.8333 33.3798 23.6366 33.9987C24.4379 34.6177 24.8396 35.5238 24.8396 36.719C24.8396 37.6775 24.5602 38.5002 24.0014 39.189C23.4426 39.8778 22.6374 40.3881 21.5857 40.7219L24.2245 46.37H20.8678L18.7742 41.2671H17.5713V41.2651ZM18.1068 38.9737H18.8945C19.7774 38.9737 20.4642 38.801 20.9571 38.4556C21.4499 38.1102 21.6944 37.5825 21.6944 36.8723C21.6944 36.3756 21.5333 36.0031 21.2132 35.7528C20.893 35.5044 20.3886 35.3802 19.7017 35.3802H18.9527L18.1068 38.9737Z" fill="white"/>
<path id="Vector_8" d="M33.039 43.2031H28.2581L26.5196 46.3677H23.2852L31.0289 33.0166H34.7988L36.2851 46.3677H33.2835L33.039 43.2031ZM32.8877 40.8379L32.6257 37.6539C32.5578 36.8603 32.5248 36.092 32.5248 35.3527V35.0248C32.228 35.7524 31.8612 36.5227 31.4227 37.3357L29.5213 40.8379H32.8877Z" fill="white"/>
<path id="Vector_9" d="M49.3069 46.3681H45.8493L42.25 36.3096H42.1899L42.1491 36.6007C41.9338 37.9104 41.7106 39.0804 41.4817 40.1107L40.0168 46.3681H37.2363L40.3602 33.0713H43.9691L47.4054 42.8659H47.4461C47.5276 42.4041 47.6576 41.7463 47.84 40.8926C48.0224 40.0389 48.6278 37.4311 49.66 33.0713H52.4307L49.3069 46.3681Z" fill="white"/>
<path id="Vector_10" d="M61.0625 42.4387C61.0625 43.7057 60.5639 44.7089 59.5666 45.4442C58.5693 46.1815 57.2169 46.5502 55.5133 46.5502C54.0232 46.5502 52.8241 46.2766 51.9141 45.7314V43.2401C53.2141 43.8959 54.4209 44.2218 55.5327 44.2218C56.2875 44.2218 56.8773 44.0938 57.3022 43.8357C57.7272 43.5777 57.9387 43.2245 57.9387 42.7763C57.9387 42.5163 57.894 42.2874 57.8028 42.0895C57.7117 41.8916 57.5817 41.7092 57.4128 41.5384C57.244 41.3677 56.8269 41.0592 56.1594 40.611C55.23 40.0114 54.5761 39.4157 54.1978 38.8278C53.8194 38.2399 53.6312 37.6055 53.6312 36.9264C53.6312 36.1444 53.8408 35.4459 54.2579 34.8308C54.6751 34.2158 55.2708 33.7365 56.043 33.3931C56.8152 33.0497 57.702 32.8789 58.707 32.8789C60.17 32.8789 61.5069 33.1797 62.7195 33.7792L61.6175 35.898C60.5658 35.4498 59.5957 35.2247 58.707 35.2247C58.1482 35.2247 57.6884 35.3605 57.3314 35.6341C56.9743 35.9077 56.7958 36.2686 56.7958 36.7168C56.7958 37.0874 56.9064 37.4095 57.1296 37.685C57.3527 37.9605 57.8514 38.3253 58.6255 38.7813C59.4404 39.2663 60.0516 39.8019 60.4552 40.3859C60.8588 40.9699 61.0625 41.6568 61.0625 42.4387Z" fill="white"/>
<path id="Vector_11" d="M70.1116 43.0114L75.6821 33.0713H79.9585L76.8347 46.3681H74.0038L75.4687 40.0738C75.8257 38.5759 76.1788 37.239 76.53 36.0632H76.4796L70.7266 46.3681H67.886L67.269 36.0632H67.2283C67.1546 36.5968 67.0265 37.2972 66.8441 38.1646C66.6617 39.0319 66.0311 41.7657 64.9543 46.3681H62.1738L65.2977 33.0713H69.382L70.0689 43.0114H70.1116Z" fill="white"/>
<path id="Vector_12" d="M79.5645 46.3681L82.7194 33.0713H85.8025L82.6476 46.3681H79.5645Z" fill="white"/>
<path id="Vector_13" d="M94.4258 42.4387C94.4258 43.7057 93.9272 44.7089 92.9299 45.4442C91.9325 46.1815 90.5802 46.5502 88.8766 46.5502C87.3864 46.5502 86.1873 46.2766 85.2773 45.7314V43.2401C86.5773 43.8959 87.7842 44.2218 88.896 44.2218C89.6508 44.2218 90.2406 44.0938 90.6655 43.8357C91.0905 43.5777 91.3019 43.2245 91.3019 42.7763C91.3019 42.5163 91.2573 42.2874 91.1661 42.0895C91.0749 41.8916 90.9449 41.7092 90.7761 41.5384C90.6073 41.3677 90.1902 41.0592 89.5227 40.611C88.5933 40.0114 87.9394 39.4157 87.5611 38.8278C87.1827 38.2399 86.9945 37.6055 86.9945 36.9264C86.9945 36.1444 87.2041 35.4459 87.6212 34.8308C88.0384 34.2158 88.634 33.7365 89.4063 33.3931C90.1785 33.0497 91.0652 32.8789 92.0703 32.8789C93.5333 32.8789 94.8701 33.1797 96.0828 33.7792L94.9807 35.898C93.9291 35.4498 92.959 35.2247 92.0703 35.2247C91.5115 35.2247 91.0517 35.3605 90.6946 35.6341C90.3376 35.9077 90.1591 36.2686 90.1591 36.7168C90.1591 37.0874 90.2697 37.4095 90.4928 37.685C90.716 37.9605 91.2146 38.3253 91.9888 38.7813C92.8037 39.2663 93.4149 39.8019 93.8185 40.3859C94.2221 40.9699 94.4258 41.6568 94.4258 42.4387Z" fill="white"/>
<path id="Vector_14" d="M104.564 42.4387C104.564 43.7057 104.066 44.7089 103.069 45.4442C102.071 46.1815 100.719 46.5502 99.0153 46.5502C97.5251 46.5502 96.326 46.2766 95.416 45.7314V43.2401C96.716 43.8959 97.9229 44.2218 99.0347 44.2218C99.7894 44.2218 100.379 44.0938 100.804 43.8357C101.229 43.5777 101.441 43.2245 101.441 42.7763C101.441 42.5163 101.396 42.2874 101.305 42.0895C101.214 41.8916 101.084 41.7092 100.915 41.5384C100.746 41.3677 100.329 41.0592 99.6614 40.611C98.732 40.0114 98.0781 39.4157 97.6997 38.8278C97.3214 38.2399 97.1332 37.6055 97.1332 36.9264C97.1332 36.1444 97.3427 35.4459 97.7599 34.8308C98.177 34.2158 98.7727 33.7365 99.5449 33.3931C100.317 33.0497 101.204 32.8789 102.209 32.8789C103.672 32.8789 105.009 33.1797 106.221 33.7792L105.119 35.898C104.068 35.4498 103.098 35.2247 102.209 35.2247C101.65 35.2247 101.19 35.3605 100.833 35.6341C100.476 35.9077 100.298 36.2686 100.298 36.7168C100.298 37.0874 100.408 37.4095 100.632 37.685C100.855 37.9605 101.353 38.3253 102.127 38.7813C102.942 39.2663 103.554 39.8019 103.957 40.3859C104.361 40.9699 104.564 41.6568 104.564 42.4387Z" fill="white"/>
<path id="Vector_15" d="M105.68 46.3681L108.835 33.0713H111.918L108.763 46.3681H105.68Z" fill="white"/>
<path id="Vector_16" d="M125.453 37.8362C125.453 39.5514 125.12 41.0882 124.452 42.4425C123.785 43.7968 122.871 44.8213 121.713 45.512C120.554 46.2028 119.219 46.5481 117.71 46.5481C115.985 46.5481 114.638 46.1019 113.672 45.2074C112.706 44.3129 112.221 43.0711 112.221 41.482C112.221 39.8755 112.554 38.397 113.222 37.0485C113.889 35.7 114.809 34.6638 115.981 33.9421C117.153 33.2203 118.509 32.8594 120.044 32.8594C121.763 32.8594 123.094 33.2959 124.037 34.1691C124.98 35.0422 125.453 36.2665 125.453 37.8362ZM119.794 35.2071C118.979 35.2071 118.23 35.4846 117.549 36.0395C116.868 36.5944 116.334 37.357 115.946 38.3271C115.558 39.2973 115.364 40.3489 115.364 41.484C115.364 42.3746 115.587 43.0478 116.035 43.5038C116.484 43.9578 117.116 44.1868 117.931 44.1868C118.746 44.1868 119.489 43.9229 120.16 43.3952C120.832 42.8674 121.356 42.1223 121.732 41.158C122.108 40.1937 122.299 39.111 122.299 37.9119C122.299 37.0504 122.079 36.3849 121.641 35.9153C121.204 35.4419 120.587 35.2071 119.794 35.2071Z" fill="white"/>
<path id="Vector_17" d="M137.869 46.3681H134.412L130.813 36.3096H130.752L130.712 36.6007C130.496 37.9104 130.273 39.0804 130.044 40.1107L128.579 46.3681H125.799L128.923 33.0713H132.532L135.968 42.8659H136.009C136.09 42.4041 136.22 41.7463 136.403 40.8926C136.585 40.0369 137.19 37.4311 138.223 33.0713H140.993L137.869 46.3681Z" fill="white"/>
</g>
<g id="Group_3">
<path id="Vector_18" d="M154.841 24.7981C154.542 24.6603 153.929 24.5129 153.494 24.4779C151.798 24.3421 151.719 24.2936 149.94 22.5997C149.078 21.7809 148.29 21.0844 148.209 21.0669C148.059 21.1154 145.871 23.2866 145.729 23.5117C145.661 23.6203 146.131 24.1112 147.072 25.0581C148.698 26.6957 148.913 27.076 149.063 28.4885C149.243 30.1766 149.387 30.4676 150.803 31.8937C151.841 32.9395 152.051 33.118 152.204 33.0463C152.431 32.9492 157.6 27.8172 157.699 27.5921C157.827 27.303 155.615 25.1396 154.841 24.7981Z" fill="white"/>
<path id="Vector_19" d="M174.5 54.0515C174.346 53.8012 174.356 53.7759 174.979 53.2055C175.586 52.6506 175.627 52.6273 175.87 52.7728C176.095 52.9183 176.161 52.8873 176.556 52.4934C176.954 52.0995 176.985 52.0355 176.842 51.8085C176.698 51.5815 176.729 51.5174 177.224 50.978C177.719 50.4386 177.783 50.4076 178.146 50.4483C178.38 50.4736 178.557 50.4251 178.574 50.3455C178.633 50.1282 177.699 49.2046 177.513 49.2919C177.432 49.323 176.452 50.2815 175.324 51.4166L173.281 53.4927L173.805 54.0185C174.232 54.4473 174.352 54.521 174.49 54.4337C174.605 54.3503 174.605 54.2377 174.5 54.0515Z" fill="white"/>
<path id="Vector_20" d="M147.288 21.2569C147.241 21.154 147.047 20.8203 146.702 20.471C146.147 19.9122 146.099 19.8792 145.831 19.9995C145.532 20.1354 145.54 20.1431 144.861 19.4427C144.859 19.4407 144.855 19.4369 144.853 19.4349C144.432 18.9207 144.108 18.783 143.743 19.2098C143.576 19.4039 143.578 19.691 143.747 19.8831L144.094 20.277C144.665 20.9173 144.721 21.0221 144.608 21.1986C144.414 21.4722 144.451 21.6604 145.033 22.194C145.874 22.9643 145.794 22.8828 146.605 22.0776C147.04 21.6449 147.333 21.3539 147.288 21.2569Z" fill="white"/>
</g>
<g id="Group_4">
<path id="Vector_21" d="M179.014 46.9385L178.975 46.76C178.937 46.5912 178.791 46.3468 178.646 46.2012C178.339 45.9102 178.269 45.5629 178.487 45.3456C178.737 45.0953 178.659 44.7247 178.248 44.3114C177.79 43.8496 177.767 43.4868 178.155 43.1007C178.325 42.9318 178.415 42.6971 178.407 42.4468C178.417 42.0665 178.36 41.9947 177.524 41.1507C177.128 40.751 176.907 40.5142 176.804 40.3668L176.112 39.7032L173.236 36.915C173.236 36.915 172.734 36.4125 172.235 37.0431C172.235 37.0431 172.093 37.272 171.878 37.3787C171.835 37.4059 171.787 37.4234 171.738 37.4253C171.569 37.4544 171.373 37.3923 171.17 37.1207C170.859 36.8549 170.335 36.3368 169.392 35.3861C167.14 33.1179 167.173 33.1819 167.731 32.4C168.203 31.7403 168.203 31.7558 165.217 28.7813C162.151 25.7428 162.425 25.8883 161.453 26.8546C160.789 27.5143 160.391 27.6171 160.015 27.2368C159.902 27.1243 159.629 27.0253 159.402 27.0253L159.086 27.0234C159.029 27.0234 158.975 27.0447 158.936 27.0855L155.205 30.8361L151.483 34.5789C151.439 34.6235 151.416 34.6876 151.423 34.7516L151.451 34.998C151.474 35.3123 151.635 35.4908 153.397 37.2662L155.209 39.0901C155.271 39.1522 155.288 39.2472 155.25 39.3268L155.156 39.5247L155.061 39.711C155.021 39.7925 155.036 39.8895 155.1 39.9535L158.412 43.2908L161.759 46.6611C161.806 46.7077 161.827 46.7717 161.817 46.8377L161.781 47.1054C161.755 47.3227 161.674 47.5497 161.592 47.6293C161.519 47.7011 161.462 47.8873 161.47 48.0406C161.486 48.2987 161.783 48.6305 164.14 51.0054C166.61 53.4929 166.812 53.6791 167.07 53.6655C167.231 53.6655 167.425 53.586 167.514 53.4967C167.838 53.1746 168.186 53.2329 168.733 53.6869C169.224 54.1002 169.264 54.1079 169.734 53.9643C170.186 53.8208 170.252 53.8363 170.687 54.1933C170.952 54.4126 171.234 54.5503 171.338 54.527C171.459 54.5037 173.129 52.9108 175.285 50.7706L178.956 47.1268C179.008 47.0821 179.03 47.0084 179.014 46.9385ZM156.228 30.9195C156.241 30.8729 156.264 30.8303 156.299 30.7934C156.412 30.6828 156.592 30.6828 156.703 30.7953L161.691 35.8207C161.802 35.9332 161.802 36.1137 161.689 36.2243C161.577 36.3349 161.396 36.3349 161.286 36.2223L160.203 35.1319C159.827 34.769 159.328 34.2801 158.659 33.6204C156.228 31.2028 156.092 31.067 156.228 30.9195ZM155.162 32.7279C155.275 32.6173 155.455 32.6173 155.566 32.7298L160.554 37.7552C160.665 37.8677 160.665 38.0481 160.552 38.1587C160.44 38.2693 160.259 38.2693 160.149 38.1568L155.16 33.1314C155.05 33.0189 155.05 32.8385 155.162 32.7279ZM159.012 39.9283L154.023 34.9029C153.913 34.7904 153.913 34.6099 154.025 34.4993C154.138 34.3888 154.318 34.3887 154.429 34.5013L159.417 39.5266C159.528 39.6392 159.528 39.8196 159.415 39.9302C159.303 40.0408 159.122 40.0408 159.012 39.9283ZM172.825 49.3057C172.736 49.395 172.59 49.395 172.503 49.3038C172.413 49.2145 172.413 49.069 172.505 48.9817L176.961 44.5578C177.051 44.4686 177.196 44.4686 177.284 44.5598C177.373 44.649 177.373 44.7945 177.282 44.8818L172.825 49.3057ZM171.197 53.1746C171.108 53.2639 170.962 53.2639 170.875 53.1727C170.786 53.0835 170.786 52.9379 170.877 52.8506L177.359 46.4147C177.448 46.3254 177.594 46.3254 177.681 46.4166C177.771 46.5059 177.771 46.6514 177.679 46.7387L171.197 53.1746Z" fill="white"/>
<path id="Vector_22" d="M168.339 31.7654C168.339 31.9594 168.207 32.2815 168.046 32.491L167.871 32.7239C167.809 32.8073 167.817 32.9237 167.891 32.9975L169.895 35.0154C170.766 35.8924 171.28 36.4182 171.562 36.7306C171.562 36.7306 172.008 37.0857 172.295 36.6374C172.295 36.6374 172.98 36.1019 173.386 36.3503L176.954 39.9456C177.016 39.8758 177.045 39.6895 177.014 39.5324C176.967 39.2743 176.669 38.9251 175.262 37.5067C173.684 35.9176 173.541 35.7876 173.194 35.7469C173 35.7294 172.716 35.7701 172.58 35.8575C172.353 35.9855 172.282 35.9778 172.08 35.7255C171.87 35.4655 171.88 35.4092 172.107 35.1357C172.245 34.9669 172.367 34.7495 172.375 34.6603C172.383 34.571 172.448 34.507 172.538 34.4993C172.619 34.4993 174.059 33.4399 175.735 32.1457C178.359 30.12 178.82 29.7902 179.063 29.8251C179.208 29.8426 179.589 29.7223 179.888 29.5534C180.324 29.3284 180.47 29.2973 180.607 29.4351C180.84 29.6699 181.68 29.6252 182.676 29.3129C183.766 28.9694 184.034 28.8006 184.23 28.3175C184.467 27.7451 184.275 27.2755 183.398 26.2957L182.722 25.5254C182.682 25.4788 182.623 25.4536 182.561 25.4536L182.181 25.4594C181.583 25.4575 181.129 25.7621 180.15 26.8642C179.76 27.3144 179.226 27.91 178.966 28.2011C178.706 28.4746 178.487 28.7734 178.463 28.8452C178.448 28.9267 177.045 30.0754 175.361 31.3928C173.706 32.6734 172.297 33.8337 172.169 33.9812C172.163 33.987 172.159 33.9928 172.156 34.0006C172.06 34.1519 171.973 34.1733 171.839 34.1015C171.701 34.0122 171.548 34.051 171.306 34.2606C171.03 34.5012 170.925 34.5264 170.757 34.3887C170.467 34.1772 170.452 33.8221 170.71 33.694C170.993 33.5407 170.995 33.2031 170.689 32.8946C170.4 32.6036 170.068 32.5784 169.866 32.8267C169.606 33.1488 169.509 33.1643 169.276 32.9296C169.082 32.7355 169.067 32.621 169.198 32.299C169.288 32.0816 169.33 31.7984 169.29 31.6606C169.241 31.4996 168.566 30.7545 167.489 29.6679C165.919 28.0885 165.743 27.9411 165.493 27.9488C165.332 27.9488 165.186 27.9799 165.153 28.0129C165.128 28.0361 165.836 28.8142 166.729 29.7475C168.244 31.3288 168.349 31.4511 168.339 31.7654Z" fill="white"/>
</g>
<path id="Vector_23" d="M200.593 41.9094L207.138 42.5846L207.134 32.9336L200.63 33.4362C200.298 30.9545 199.67 28.568 198.781 26.3114L205.469 23.269L200.589 14.9413L194.687 19.0373C193.09 16.9301 191.227 15.0364 189.147 13.4065L193.334 7.77387L185.036 2.84553L181.9 9.18446C179.644 8.257 177.253 7.58954 174.764 7.22089L175.532 0.222259L165.881 0.162109L166.374 7.12775C163.731 7.46148 161.195 8.13088 158.807 9.09327L156.048 2.64374L147.555 7.37611L151.68 13.1485C150.607 13.9673 149.587 14.8521 148.632 15.8028L156.232 22.0932C159.934 18.7326 164.851 16.6837 170.245 16.6837C181.764 16.6837 191.103 26.0223 191.103 37.5418C191.103 49.0613 181.764 58.3999 170.245 58.3999C164.411 58.3999 159.137 56.0037 155.351 52.1425H143.283H0L149.018 59.6572L149.007 59.6417C149.721 60.3286 150.47 60.9805 151.248 61.5956L147.037 67.399L155.392 72.2323L158.46 65.8468C160.755 66.8053 163.192 67.4921 165.73 67.8666L165.196 75.1621L174.843 74.8711L174.102 67.9578C176.762 67.6241 179.316 66.9489 181.718 65.9787L184.886 72.5815L193.111 67.5329L188.969 61.8168C191.006 60.2432 192.842 58.4174 194.427 56.3879L199.879 60.6604L205.017 52.4898L198.635 49.1273C199.569 46.8455 200.234 44.426 200.593 41.9094Z" fill="#009DEA"/>
</g>
</g>
</svg>
