<svg width="212" height="41" viewBox="0 0 212 41" fill="none" xmlns="http://www.w3.org/2000/svg">
<path d="M37.7624 0.742978C37.3285 1.09232 35.7678 2.22972 34.949 2.79029C34.6901 2.96903 34.2492 3.39149 33.9693 3.72459C33.4724 4.31766 33.4654 4.32578 33.3254 4.17955C33.2415 4.09018 33.1435 3.90332 33.0945 3.75708C33.0455 3.60272 32.9685 3.48086 32.9126 3.48086C32.7586 3.48086 32.3527 4.00081 32.3037 4.26079C32.2827 4.39078 32.2197 4.6995 32.1637 4.94323C32.1077 5.21945 32.0938 5.42256 32.1357 5.47943C32.1707 5.52817 32.5696 5.89377 33.0245 6.29186C34.5362 7.62424 36.0478 9.15972 36.4957 9.81779C37.3215 11.0283 37.5734 11.9626 37.6364 13.9855C37.6714 15.0336 37.6994 15.3667 37.7764 15.3992C37.8253 15.4235 38.0703 15.3829 38.3222 15.3098C38.5672 15.2367 38.8821 15.1798 39.022 15.1798C39.295 15.1798 39.337 15.0498 39.162 14.6924C39.106 14.5786 39.064 14.4405 39.057 14.3836C39.057 14.2618 39.4699 14.0424 39.7009 14.0424C39.7919 14.0424 40.0508 13.9124 40.2817 13.7418C40.9396 13.2787 43.4869 11.5483 44.0258 11.207C44.1028 11.1583 44.1308 10.9958 44.1308 10.6058C44.1308 10.3134 44.1098 10.0534 44.0888 10.0209C44.0468 9.97215 42.0593 11.3695 40.5617 12.5069C39.8268 13.0594 39.5749 13.1162 39.344 12.775C39.26 12.6532 39.197 12.4907 39.197 12.4094C39.197 12.2551 39.4699 11.9707 39.7079 11.8814C39.8618 11.8245 40.7926 11.1908 42.3112 10.1021C42.7381 9.79342 43.312 9.4197 43.5919 9.26534C43.8648 9.11098 44.0958 8.94849 44.0958 8.89162C44.0958 8.72914 43.9418 8.15231 43.8718 8.05482C43.8159 7.97358 43.7389 7.98983 43.5149 8.12794C43.067 8.38792 41.5834 9.42782 40.4497 10.2727C39.8828 10.6952 39.365 11.0364 39.288 11.0364C39.099 11.0364 38.8471 10.7033 38.8471 10.4434C38.8471 10.1915 38.8611 10.1834 40.0718 9.33846C40.5757 8.98911 41.1565 8.5829 41.3665 8.42041C41.5764 8.26605 42.1643 7.87609 42.6751 7.55112L43.5989 6.95805L43.396 6.47871C43.277 6.21874 43.172 5.99938 43.158 5.99938C43.095 5.99938 40.4007 7.90046 39.4979 8.57478C38.8051 9.10285 38.4342 9.22472 38.2312 8.98911C38.1053 8.84288 38.1263 8.47728 38.2732 8.2823C38.3852 8.12794 40.2467 6.77119 41.3665 6.03188C41.6534 5.84502 42.0733 5.5688 42.2902 5.42256L42.6891 5.16258L42.5562 4.87011C42.4792 4.70762 42.3602 4.48827 42.2902 4.38265L42.1573 4.18767L41.7444 4.51264C41.5204 4.69137 40.8276 5.19508 40.2118 5.63379C39.5959 6.06438 38.8261 6.6412 38.5042 6.9093C37.8183 7.478 37.5244 7.57549 37.3495 7.29114C37.1955 7.03929 37.2095 6.70619 37.3705 6.53558C37.4474 6.45434 37.7973 6.18624 38.1613 5.92626C40.0298 4.58576 40.6806 4.12267 41.1425 3.81395C41.6954 3.44024 41.7024 3.42399 41.3315 2.96903C41.1005 2.6928 41.0026 2.6928 40.6037 2.98528C40.4287 3.10714 39.6869 3.64334 38.9521 4.17142C38.2242 4.69137 37.3844 5.32507 37.0835 5.56067C36.7826 5.81252 36.4747 5.99938 36.3767 5.99938C36.1737 5.99938 35.9778 5.73128 35.9778 5.4713C35.9778 5.13821 36.1038 5.03259 39.029 2.9934C39.6029 2.58719 40.1698 2.16473 40.2887 2.05911L40.4917 1.856L40.2467 1.61228C39.9598 1.32793 39.8828 1.3198 39.6309 1.51478C39.5259 1.60415 39.127 1.88038 38.7421 2.14848C37.5734 2.94466 35.7538 4.29329 35.5159 4.53701C35.166 4.89448 34.998 4.91885 34.8091 4.667C34.6131 4.3989 34.6061 4.21204 34.7881 3.95207C34.9351 3.72459 34.991 3.68396 36.7826 2.4247C38.7701 1.0192 39.078 0.702357 38.7141 0.474877C38.4622 0.320517 38.1892 0.393635 37.7624 0.742978Z" fill="white"/>
<path d="M45.0417 0.677161C43.4671 1.63582 42.4803 2.27764 42.2913 2.4645C42.2843 2.47262 42.3893 2.62699 42.5293 2.7976C43.663 4.20309 44.4888 5.92544 44.7407 7.39593C44.7547 7.50967 44.8247 7.4853 45.1466 7.23345C45.3636 7.07096 45.9794 6.59163 46.5323 6.17729C47.1761 5.68984 47.589 5.31612 47.701 5.12926C48.2819 4.1381 47.9879 2.432 47.0572 1.33523C46.3643 0.522799 45.6715 0.29532 45.0417 0.677161Z" fill="white"/>
<path d="M20.1566 1.03527C19.6737 1.22213 19.2818 1.59585 19.2188 1.94519C19.1488 2.29453 19.4007 2.86323 19.7227 3.10696C20.2475 3.51318 21.1153 3.5538 21.6892 3.20445C21.9411 3.05009 22.235 2.67638 22.326 2.40015C22.466 1.96956 22.1511 1.42524 21.6052 1.16526C21.2903 1.0109 20.4225 0.929657 20.1566 1.03527Z" fill="white"/>
<path d="M24.117 1.62061C23.928 1.76684 23.7601 1.88871 23.7461 1.89683C23.7391 1.90495 23.781 2.13243 23.844 2.39241C23.928 2.74988 23.963 3.37545 23.991 4.90281C24.026 6.82014 24.019 6.95825 23.879 7.38071C23.802 7.63256 23.6481 7.94941 23.5431 8.09565C23.2772 8.44499 22.2694 9.12743 21.7096 9.33866C20.5828 9.76113 19.0852 9.38741 18.2034 8.46124C17.6086 7.8438 17.5456 7.63256 17.5176 6.1377C17.5036 5.43901 17.4616 4.86219 17.4266 4.86219C17.1397 4.86219 13.1997 7.62444 12.5908 8.25813C12.5208 8.32313 12.4648 8.40437 12.4648 8.43687C12.4648 8.51811 13.5286 9.4199 14.8443 10.4517C16.9297 12.0928 17.6576 12.694 19.3232 14.132C22.5494 16.9186 22.7383 17.1298 23.3402 18.5516C23.907 19.9083 23.879 19.494 23.9 28.382C23.914 32.7122 23.9 36.9368 23.872 37.7655C23.851 38.5942 23.83 39.2766 23.837 39.2847C23.844 39.301 24.5089 38.846 25.3137 38.2773C26.1185 37.7167 27.4411 36.7987 28.2459 36.2381C29.0577 35.6776 30.2684 34.8326 30.9403 34.3533C31.6121 33.874 32.5709 33.224 33.0608 32.9072C34.0895 32.241 35.4612 31.2255 35.8811 30.8192C36.042 30.6649 36.259 30.348 36.3569 30.1124L36.5389 29.69V22.175C36.5319 18.0316 36.5039 14.197 36.4759 13.6364C36.3849 12.1415 36.077 11.3129 35.2512 10.3542C34.7753 9.80175 33.1307 8.21751 32.13 7.34009C31.7241 6.98262 31.1222 6.4383 30.7933 6.11333C29.5966 4.9678 26.7833 2.73363 25.5516 1.96995C25.0267 1.63685 24.5649 1.36875 24.5299 1.36875C24.4949 1.36875 24.3129 1.48249 24.117 1.62061ZM27.0982 9.37928C27.945 9.67176 28.7358 10.3461 28.9878 10.996C29.1627 11.4347 29.1627 12.2634 28.9878 12.7184C28.8338 13.1083 28.3789 13.6445 27.966 13.9289C26.6433 14.8225 24.7398 14.5301 23.7461 13.2789C23.0462 12.3853 23.0322 11.1585 23.7181 10.2161C23.907 9.94798 24.7048 9.4524 25.1177 9.33866C25.5656 9.2168 26.6783 9.24117 27.0982 9.37928ZM32.9908 18.8034C33.4387 18.9822 33.9006 19.4696 34.0895 19.9896C34.3204 20.6152 34.2715 21.5413 33.9635 22.2725C33.5506 23.2474 32.5009 24.1167 31.7521 24.1167C31.1642 24.1167 30.8703 23.9786 30.4714 23.5155C30.0095 22.9793 29.8625 22.4431 29.9045 21.4845C29.9395 20.7614 30.1285 20.2252 30.5204 19.6971C30.7653 19.3803 31.3602 18.9009 31.6751 18.7709C31.99 18.641 32.6269 18.6572 32.9908 18.8034ZM29.4357 26.7896C31.0942 27.6833 30.7303 30.7867 28.8338 31.9241C28.4349 32.1679 28.3229 32.1922 27.8191 32.2004C27.3222 32.2004 27.2242 32.176 26.9723 31.981C26.6433 31.7292 26.2794 31.1361 26.1745 30.6649C26.0485 30.1368 26.1395 29.1131 26.3564 28.4795C26.7063 27.4639 27.7631 26.6434 28.7358 26.6434C29.0018 26.6434 29.2607 26.6921 29.4357 26.7896Z" fill="white"/>
<path d="M25.5514 10.5132C25.4954 10.5376 25.3134 10.6107 25.1455 10.6838C24.7886 10.8301 24.4316 11.3338 24.4316 11.6994C24.4316 12.9586 26.4751 13.6248 27.4409 12.6905C28.3507 11.7969 27.6788 10.6026 26.2162 10.5051C25.9083 10.4807 25.6074 10.4889 25.5514 10.5132Z" fill="white"/>
<path d="M31.8842 19.9656C31.7303 20.0468 31.5203 20.2256 31.4083 20.3555C31.1914 20.6236 30.9395 21.3873 30.9395 21.761C30.9395 22.346 31.3454 22.8984 31.7862 22.8984C32.0102 22.8984 32.5561 22.5003 32.738 22.1998C33.0109 21.7285 33.1929 21.103 33.1509 20.7699C33.0879 20.3393 32.976 20.1524 32.675 19.9656C32.3531 19.7787 32.2411 19.7706 31.8842 19.9656Z" fill="white"/>
<path d="M28.1687 27.9973C27.8188 28.1923 27.4199 28.7204 27.3149 29.1428C27.056 30.134 27.3639 31.0195 27.9658 31.0195C28.7496 31.0195 29.5684 29.5247 29.3304 28.5091C29.1975 27.9404 28.6936 27.7211 28.1687 27.9973Z" fill="white"/>
<path d="M18.6934 5.39822C18.6934 6.58436 18.7214 7.16118 18.7843 7.2993C18.8333 7.42928 19.0713 7.62427 19.4282 7.82737C19.974 8.14422 19.995 8.15234 20.7578 8.15234C21.4577 8.15234 21.5696 8.12797 21.9476 7.92486C22.1785 7.803 22.4724 7.58364 22.5984 7.43741L22.8223 7.18556V5.49571C22.8223 4.56954 22.7943 3.80586 22.7594 3.80586C22.7314 3.80586 22.5844 3.91147 22.4374 4.04959C22.1155 4.34206 21.4997 4.61828 21.0238 4.67515C20.331 4.76452 19.4212 4.44768 18.9453 3.96834L18.6934 3.70837V5.39822Z" fill="white"/>
<path d="M7.5026 7.50102C6.92874 7.68788 6.47385 8.01285 6.06095 8.52468C5.53608 9.19087 5.4521 9.50772 5.41011 11.0595L5.38212 12.335L5.18617 12.4975C5.0812 12.5868 4.96922 12.6599 4.94123 12.6599C4.85725 12.6599 3.12868 14.0573 2.83475 14.366C2.68079 14.5285 2.26789 14.8616 1.91798 15.0972C1.54007 15.3491 1.24614 15.609 1.20415 15.7228C1.11318 15.9584 1.10618 16.6408 1.19016 17.0795C1.22515 17.2502 1.23914 17.437 1.21815 17.4939C1.20415 17.5589 0.980209 17.7051 0.735269 17.827C0.210399 18.087 0.0774316 18.2982 0.0774316 18.8913C0.0774316 19.3787 0.266385 19.858 0.630295 20.3211C0.791255 20.5161 0.917224 20.7192 0.917224 20.7761C0.917224 20.8248 0.742267 20.9792 0.532319 21.1173C0.063435 21.426 -0.00654771 21.5641 0.000450559 22.1735C0.00744883 22.9778 0.231394 23.4246 0.784257 23.7496C1.26714 24.0339 1.31613 24.1477 1.07818 24.3751C0.602302 24.8301 0.427345 25.0982 0.427345 25.3744C0.427345 25.7563 0.69328 26.6987 0.847242 26.8774C0.917224 26.9587 1.19716 27.1049 1.47009 27.2024C2.12793 27.4299 2.16292 27.5274 1.88998 28.2098C1.71503 28.6485 1.68004 28.811 1.72203 29.0466C1.79901 29.5259 1.94597 29.7778 2.35187 30.1271C2.56182 30.3059 2.73678 30.4683 2.73678 30.4765C2.73678 30.7039 2.92573 31.5407 3.0237 31.7682C3.17767 32.1176 3.58357 32.4182 4.10144 32.5644C4.59132 32.6944 4.69629 32.8325 4.69629 33.3281C4.70329 34.1811 5.22816 34.9773 5.93499 35.2048C6.76078 35.4729 6.83776 35.5541 7.11769 36.4234C7.39063 37.2684 8.06946 37.7639 8.95124 37.7639C9.32215 37.7639 9.33615 37.7721 9.80503 38.3001C10.3859 38.9501 10.6658 39.0638 11.6316 39.0638C12.1564 39.0638 12.4084 39.1044 12.7093 39.2344C13.1432 39.4213 13.5561 39.4457 14.011 39.3076C14.9838 39.0151 15.9985 38.5601 17.0622 37.9427C17.7271 37.5608 18.2869 37.2684 18.3079 37.2927C18.3359 37.3171 18.3219 37.5202 18.2939 37.7314C18.2589 37.9508 18.2449 38.1864 18.2589 38.2676C18.2729 38.3408 18.5599 38.5601 18.9308 38.7632C19.2877 38.9663 19.7776 39.2832 20.0155 39.4619C20.8133 40.055 21.5761 40.0794 22.15 39.535C22.6888 39.0232 22.6469 39.8356 22.6539 29.8022C22.6539 24.627 22.6329 20.6217 22.5979 20.3374C22.5559 20.0693 22.3879 19.4518 22.206 18.9562C21.8211 17.8838 21.6601 17.6889 20.4074 16.6815C19.9105 16.2834 18.7558 15.3572 17.853 14.6179C16.9503 13.8786 15.7256 12.9037 15.1377 12.4406C14.5499 11.9856 13.983 11.5307 13.878 11.4413C13.2972 10.9295 12.1495 9.94643 11.5546 9.45085C11.1837 9.134 10.6238 8.66279 10.3229 8.39469C9.29416 7.48478 8.41237 7.20855 7.5026 7.50102ZM9.65807 11.2301C9.85402 11.4738 9.81903 11.5632 9.30115 12.1481C8.84627 12.6599 7.19467 13.9598 7.00572 13.9598C6.92874 13.9598 6.86576 13.9679 6.86576 13.9761C6.86576 13.9923 6.91474 14.1792 6.97073 14.3985C7.02672 14.6098 7.0967 15.0728 7.11769 15.4222L7.16668 16.0559L7.53059 16.1128C7.72654 16.1371 7.97848 16.2184 8.08345 16.2752C8.19543 16.3402 8.2864 16.3971 8.3004 16.3971C8.3074 16.3971 8.33539 16.0315 8.35639 15.5847C8.37738 15.1378 8.42637 14.7073 8.46836 14.626C8.50335 14.5529 8.90925 14.2279 9.36414 13.9192C9.81903 13.6105 10.4629 13.1393 10.7988 12.8874C11.1277 12.6274 11.4496 12.4162 11.5056 12.4162C11.6526 12.4162 11.9045 12.8062 11.9045 13.0337C11.9045 13.1393 11.8205 13.3343 11.7156 13.4642C11.4846 13.7405 10.064 14.7804 9.61608 14.9916C9.32915 15.1297 9.30815 15.1541 9.34314 15.3734C9.36414 15.5034 9.38513 15.9259 9.38513 16.324C9.38513 16.8114 9.41313 17.047 9.46211 17.047C9.5111 17.047 9.70006 17.1527 9.88201 17.2908C10.2039 17.5183 10.2249 17.5264 10.2949 17.372C10.3299 17.2908 10.3649 17.1852 10.3649 17.1364C10.3649 17.0877 10.4279 16.8521 10.5119 16.6083C10.6448 16.1859 10.6798 16.1453 11.1907 15.8203C11.4846 15.6334 12.1145 15.211 12.5763 14.886C13.0452 14.5529 13.4861 14.2848 13.5631 14.2848C13.7241 14.2848 13.899 14.4798 13.997 14.7885C14.06 14.9754 14.046 15.0403 13.913 15.211C13.7451 15.4222 12.5833 16.2915 11.9745 16.6571L11.5896 16.8927L11.5126 17.437C11.4636 17.7376 11.4146 18.1113 11.3866 18.2657C11.3446 18.5338 11.3656 18.5582 11.7016 18.81C11.8975 18.9562 12.1005 19.0781 12.1495 19.0781C12.2054 19.0781 12.3314 18.8913 12.4434 18.6557C12.5623 18.3957 12.7233 18.1763 12.8493 18.1032C12.9682 18.0382 13.5631 17.632 14.1789 17.2014C14.7948 16.7708 15.3547 16.3971 15.4176 16.3727C15.5646 16.3159 15.8095 16.584 15.8655 16.8602C15.9705 17.3395 15.7466 17.5751 14.3049 18.5094C13.5841 18.9725 13.5071 19.0456 13.4441 19.3137C13.4091 19.4762 13.2762 19.7687 13.1572 19.9555L12.9333 20.3049L13.2062 20.6298C13.6261 21.1417 13.6891 21.1579 13.997 20.8736C14.144 20.7355 14.6408 20.3942 15.1097 20.1018C15.5716 19.8174 16.1665 19.4356 16.4324 19.2568C17.1252 18.7938 17.1882 18.7775 17.4331 19.07C17.86 19.5656 17.6431 19.9068 16.3974 20.703C15.9635 20.9792 15.4666 21.3285 15.3057 21.4748C15.1377 21.621 14.8718 21.8322 14.7108 21.9297C14.5569 22.0353 14.4239 22.1816 14.4309 22.2466C14.4309 22.3116 14.5499 22.5716 14.6898 22.8153C15.1167 23.5465 15.3337 23.514 17.2442 22.4009C17.93 22.0029 18.5319 21.6779 18.5879 21.6779C18.7068 21.6779 18.9658 22.0516 19.0148 22.3034C19.0847 22.6122 18.7698 22.9209 17.8251 23.4815C17.3702 23.7496 16.8383 24.0745 16.6563 24.2045C16.4674 24.3264 16.1385 24.4889 15.9215 24.5539C15.7046 24.6189 15.5156 24.692 15.5016 24.7082C15.4806 24.7245 15.5856 25.0007 15.7186 25.3176C15.9635 25.8781 15.9775 25.8944 16.3204 25.9756C16.5164 26.0244 16.7613 26.065 16.8663 26.065C16.9713 26.065 17.6221 25.7481 18.3009 25.3663C18.9868 24.9845 19.6096 24.6839 19.6866 24.7001C19.7636 24.7164 19.8965 24.8626 19.9805 25.0251C20.2255 25.5288 20.1135 25.6507 18.5459 26.5687L17.1952 27.3649L16.7193 27.308C16.1805 27.2511 16.1875 27.2349 16.3414 27.8767C16.3974 28.1123 16.4604 28.3967 16.4814 28.5185C16.5164 28.681 16.5724 28.746 16.6773 28.746C16.7613 28.746 17.0342 28.8191 17.2862 28.9166L17.7481 29.0791L19.0427 28.2992C19.7566 27.8767 20.4004 27.5355 20.4774 27.5436C20.5614 27.5599 20.6733 27.6898 20.7433 27.8605C20.9533 28.3642 20.8483 28.5023 19.7146 29.1603C19.1687 29.4772 18.5529 29.8671 18.3359 30.0134C17.895 30.3221 17.6991 30.3465 17.1952 30.1677C16.5934 29.9565 16.5934 29.9565 16.5934 30.6877C16.5934 31.2889 16.6074 31.3376 16.7543 31.3864C16.8383 31.4189 17.1812 31.5895 17.5101 31.7682L18.119 32.0932L18.8048 31.6057C19.1897 31.3458 19.7776 30.9477 20.1135 30.7364L20.7363 30.3465L20.9183 30.509C21.0233 30.5983 21.1352 30.7852 21.1702 30.9314C21.2542 31.2726 21.1562 31.3864 20.3024 31.8901C19.9385 32.1094 19.2877 32.5157 18.8608 32.7919L18.084 33.2956L17.6711 33.0844C17.1182 32.8 16.5094 32.5563 16.4674 32.605C16.4464 32.6213 16.4184 32.8244 16.3974 33.0356L16.3694 33.4337L17.0202 34.2624C17.3842 34.7092 17.7201 35.0829 17.7621 35.0829C17.8111 35.0829 18.063 34.9286 18.3219 34.7498C18.5879 34.563 19.1757 34.1974 19.6306 33.9293L20.4634 33.4581L20.6314 33.6368C20.8343 33.8562 20.8483 34.2705 20.6594 34.4655C20.5894 34.5386 20.0855 34.8148 19.5466 35.0748C19.0078 35.3348 18.3499 35.7004 18.084 35.8872C17.3772 36.3747 17.2862 36.3584 16.5864 35.5623C16.2644 35.1967 15.8795 34.8067 15.7256 34.693C15.4666 34.4899 15.4526 34.4817 15.3617 34.6361C15.1587 34.9529 15.2497 35.3104 15.7466 36.2203C16.3274 37.2765 16.3624 37.6827 15.8515 37.6827C15.4666 37.6827 15.2917 37.5527 14.9348 37.0246C14.7528 36.7403 14.4869 36.3747 14.3469 36.2041C14.102 35.9116 14.088 35.9035 13.822 35.9847C13.3392 36.1391 13.3322 36.1716 13.5491 37.2115C13.6611 37.7233 13.7241 38.2027 13.7031 38.2758C13.6681 38.3733 13.5701 38.4139 13.3462 38.4139C13.0942 38.4139 13.0032 38.3733 12.9193 38.227C12.8213 38.0402 12.5204 37.0246 12.4294 36.5534C12.3734 36.2366 12.3524 36.2285 11.8555 36.1716C11.6316 36.1553 11.3936 36.1147 11.3237 36.0903C11.2047 36.0497 11.1977 36.1066 11.2187 37.0003C11.2397 38.0727 11.2397 38.0808 10.7358 37.967C10.4209 37.9021 10.3229 37.6258 10.2179 36.5291C10.1759 36.066 10.099 35.6516 10.057 35.5948C10.015 35.546 9.77004 35.4079 9.5111 35.2942L9.03522 35.0911L9.00023 35.2698C8.97923 35.3673 8.93724 35.6841 8.89525 35.9766C8.81827 36.594 8.7063 36.724 8.38438 36.6184C7.96448 36.4803 7.9085 36.3097 7.92249 35.2129L7.93649 34.2299L7.4886 33.8074C7.24366 33.5718 6.98473 33.3768 6.92174 33.3768C6.85176 33.3768 6.71879 33.5556 6.59282 33.8155C6.47385 34.0593 6.32689 34.2786 6.2639 34.303C6.20792 34.3274 6.17992 34.3192 6.20092 34.2705C6.22191 34.2218 6.17992 34.1893 6.10294 34.1893C5.89999 34.1893 5.53608 33.7343 5.53608 33.4743C5.53608 33.3525 5.63406 33.0194 5.74603 32.735C5.865 32.4507 5.94198 32.1582 5.92099 32.0851C5.89999 32.012 5.73204 31.7682 5.53608 31.5489C5.20717 31.167 5.18617 31.1589 5.0532 31.297C4.82926 31.5326 4.22041 31.7682 4.06645 31.6707C3.90549 31.5651 3.64655 31.0939 3.64655 30.8827C3.64655 30.7933 3.77252 30.509 3.93348 30.2571C4.17142 29.8671 4.21341 29.7453 4.17842 29.5341C4.10144 29.0628 4.05245 29.0303 3.64655 29.136C2.84875 29.3472 2.59681 29.2416 2.59681 28.681C2.59681 28.4292 2.86274 28.0879 3.20566 27.9092C3.40861 27.8036 3.40861 27.7873 3.17767 27.0724L2.98171 26.4793L2.6318 26.4306C1.75002 26.3006 1.54707 26.2275 1.4001 25.9594C1.16916 25.5125 1.21815 25.3663 1.63805 25.1794C1.84799 25.0982 2.12793 24.9926 2.26789 24.9682C2.56182 24.9032 2.55482 24.9195 2.43585 24.0502L2.35187 23.4571L1.77801 23.2296C1.03619 22.9453 0.833245 22.734 0.861238 22.2872C0.882233 21.9785 0.896229 21.9622 1.12717 21.9379C1.26014 21.9216 1.55407 21.9541 1.77801 22.0029C2.00895 22.0516 2.19791 22.0841 2.2119 22.0678C2.2189 22.0516 2.25389 21.7672 2.27489 21.4342L2.32388 20.8248L2.05794 20.6217C1.91098 20.508 1.59606 20.2074 1.35812 19.9393C0.97321 19.5168 0.917224 19.4193 0.917224 19.1594C0.917224 18.5582 1.12717 18.5663 2.00895 19.2081C2.28889 19.4031 2.54082 19.5656 2.58281 19.5656C2.6248 19.5656 2.69479 19.4275 2.73678 19.2568C2.78576 19.0944 2.86974 18.8913 2.93273 18.8181C3.0237 18.6881 3.00971 18.6394 2.76477 18.2982C2.2329 17.5751 1.827 16.8602 1.827 16.6571C1.827 16.389 2.01595 16.1534 2.2329 16.1534C2.36587 16.1534 2.55482 16.3321 2.98171 16.8602L3.54857 17.5589L3.91248 17.2502L4.2694 16.9414L4.12243 16.5271C3.88449 15.8365 3.64655 14.9347 3.64655 14.7479C3.64655 14.6504 3.70953 14.4473 3.78652 14.301C3.89849 14.0898 3.96147 14.0411 4.14343 14.0573C4.31139 14.0736 4.34638 14.1061 4.31838 14.2279C4.29739 14.3173 4.36037 14.5204 4.45135 14.6829C4.54233 14.8454 4.73828 15.276 4.87825 15.6497C5.02521 16.0234 5.17217 16.3077 5.21416 16.2915C5.26315 16.2671 5.4801 16.2102 5.70404 16.1534L6.10994 16.0559L6.06795 15.6415C5.879 13.6511 5.886 13.5861 6.47385 13.253C6.72579 13.1068 7.37663 12.5949 7.92949 12.1075C8.48236 11.62 8.99323 11.1813 9.07021 11.1326C9.29416 10.9863 9.49011 11.0188 9.65807 11.2301ZM7.28565 11.6038C7.28565 11.945 6.91474 12.4487 6.44586 12.7331L6.02596 12.993V12.6762C6.02596 12.4081 6.08195 12.2781 6.39687 11.8719C6.59282 11.6038 6.83776 11.3276 6.93574 11.2544C7.0967 11.1326 7.11769 11.1326 7.20167 11.2544C7.24366 11.3276 7.28565 11.49 7.28565 11.6038Z" fill="white"/>
<path d="M6.3055 17.5334C5.53569 17.6959 4.87785 18.2078 4.42296 18.9796C4.20602 19.3533 3.57617 20.7832 3.57617 20.8969C3.57617 20.9294 5.31174 21.9287 6.34049 22.4974C6.64841 22.668 6.98433 22.8711 7.0893 22.9442C7.27126 23.0904 7.27826 23.0904 7.42522 22.8792C7.60718 22.603 8.10405 22.3268 8.41198 22.3268H8.64992L8.62892 20.117C8.61493 18.549 8.57994 17.8747 8.52395 17.8097C8.307 17.5659 6.92135 17.3953 6.3055 17.5334Z" fill="white"/>
<path d="M9.80469 19.7053C9.80469 20.2821 9.82568 21.2001 9.84668 21.7607L9.89567 22.7844L10.2456 23.02C11.0504 23.5806 11.9182 24.9698 12.1211 26.026C12.1841 26.3509 12.2611 26.5215 12.387 26.6272C12.709 26.8953 14.8854 28.0977 15.0464 28.0977C15.2214 28.0977 15.2214 28.0733 15.0604 27.204C14.6825 25.2217 13.4228 22.5407 12.1071 20.9158C11.3653 20.0059 10.0286 18.6735 9.84668 18.6735C9.82568 18.6735 9.80469 19.1366 9.80469 19.7053Z" fill="white"/>
<path d="M3.36719 22.5551C3.36719 22.9613 3.60513 24.4805 3.78708 25.228C3.97604 26.016 4.43092 27.3322 4.80883 28.1771C5.21473 29.1032 6.31346 30.7768 7.20924 31.8574C7.91606 32.7023 8.9728 33.6366 9.47668 33.8559L9.66563 33.9453V31.5487V29.1601L9.28073 28.957C8.49692 28.5427 8.02804 27.9415 7.47517 26.6578C7.08327 25.756 6.99229 25.4229 6.9433 24.773L6.90132 24.2531L5.22173 23.2538C4.29796 22.7013 3.50015 22.2464 3.45817 22.2464C3.40218 22.2464 3.36719 22.3601 3.36719 22.5551Z" fill="white"/>
<path d="M8.44826 23.9603C8.21032 24.2853 8.16833 24.4965 8.21732 25.1464C8.2943 26.3326 9.1341 27.6731 9.98788 27.9818C10.4568 28.1605 10.6807 28.0874 10.9047 27.6975C11.1146 27.3319 11.1216 26.5357 10.9257 25.8695C10.5967 24.7565 9.61698 23.7166 8.88216 23.7084C8.68621 23.7084 8.58823 23.7653 8.44826 23.9603Z" fill="white"/>
<path d="M12.2532 28.1517C12.2532 28.233 12.1552 28.4848 12.0432 28.7204C11.8123 29.1835 11.3644 29.5572 11.0425 29.5572H10.8535V32.027V34.4968L11.0705 34.5862C11.4274 34.7324 12.3232 34.7811 12.771 34.6837C13.8068 34.4643 14.3806 33.92 14.9055 32.7013C15.2274 31.9539 15.2624 31.7914 15.3324 31.0359C15.4444 29.7116 15.5214 29.8741 14.5486 29.3298C14.0727 29.0698 13.3939 28.6636 13.03 28.4361C12.6731 28.2005 12.3511 28.0136 12.3162 28.0136C12.2812 28.0136 12.2532 28.0786 12.2532 28.1517Z" fill="white"/>
<circle cx="37.0583" cy="28.2809" r="10.9411" fill="white"/>
<circle cx="37.058" cy="28.2807" r="10.2846" fill="#1A99DE"/>
<path d="M41.2095 29.0934L37.8509 27.816L36.6134 24.3491C36.5504 24.1727 36.4365 24.0205 36.2871 23.913C36.1377 23.8055 35.9599 23.7479 35.7778 23.7479C35.5957 23.7479 35.4179 23.8055 35.2685 23.913C35.1191 24.0205 35.0052 24.1727 34.9422 24.3491L33.7047 27.816L30.3461 29.0934C30.1753 29.1585 30.0278 29.276 29.9237 29.4303C29.8195 29.5845 29.7637 29.768 29.7637 29.956C29.7637 30.144 29.8195 30.3275 29.9237 30.4817C30.0278 30.636 30.1753 30.7535 30.3461 30.8186L33.7047 32.096L34.9422 35.5629C35.0052 35.7393 35.1191 35.8915 35.2685 35.999C35.4179 36.1065 35.5957 36.1641 35.7778 36.1641C35.9599 36.1641 36.1377 36.1065 36.2871 35.999C36.4365 35.8915 36.5504 35.7393 36.6134 35.5629L37.8509 32.096L41.2095 30.8186C41.3803 30.7535 41.5278 30.636 41.6319 30.4817C41.7361 30.3275 41.7919 30.144 41.7919 29.956C41.7919 29.768 41.7361 29.5845 41.6319 29.4303C41.5278 29.276 41.3803 29.1585 41.2095 29.0934ZM40.9439 30.0749L37.4196 31.4157C37.3674 31.4355 37.32 31.4668 37.2807 31.5074C37.2414 31.548 37.2111 31.5969 37.1919 31.6508L35.893 35.2888C35.8842 35.3131 35.8685 35.334 35.8479 35.3488C35.8274 35.3635 35.8029 35.3715 35.7778 35.3715C35.7527 35.3715 35.7282 35.3635 35.7077 35.3488C35.6871 35.334 35.6714 35.3131 35.6626 35.2888L34.3637 31.6508C34.3445 31.5969 34.3142 31.548 34.2749 31.5074C34.2356 31.4668 34.1881 31.4355 34.1359 31.4157L30.6117 30.0749C30.5882 30.0659 30.5679 30.0497 30.5536 30.0284C30.5392 30.0072 30.5316 29.9819 30.5316 29.956C30.5316 29.9301 30.5392 29.9049 30.5536 29.8836C30.5679 29.8623 30.5882 29.8461 30.6117 29.8371L34.1359 28.4963C34.1881 28.4765 34.2356 28.4452 34.2749 28.4046C34.3142 28.364 34.3445 28.3151 34.3637 28.2612L35.6626 24.6232C35.6714 24.599 35.6871 24.578 35.7077 24.5632C35.7282 24.5485 35.7527 24.5405 35.7778 24.5405C35.8029 24.5405 35.8274 24.5485 35.8479 24.5632C35.8685 24.578 35.8842 24.599 35.893 24.6232L37.1919 28.2612C37.2111 28.3151 37.2414 28.364 37.2807 28.4046C37.32 28.4452 37.3674 28.4765 37.4196 28.4963L40.9439 29.8371C40.9674 29.8461 40.9877 29.8623 41.002 29.8836C41.0164 29.9049 41.024 29.9301 41.024 29.956C41.024 29.9819 41.0164 30.0072 41.002 30.0284C40.9877 30.0497 40.9674 30.0659 40.9439 30.0749ZM37.9533 23.0869C37.9533 22.9818 37.9937 22.881 38.0657 22.8067C38.1377 22.7324 38.2354 22.6906 38.3372 22.6906H39.4889V21.5018C39.4889 21.3967 39.5294 21.2959 39.6014 21.2215C39.6734 21.1472 39.771 21.1055 39.8728 21.1055C39.9746 21.1055 40.0723 21.1472 40.1443 21.2215C40.2163 21.2959 40.2567 21.3967 40.2567 21.5018V22.6906H41.4085C41.5103 22.6906 41.6079 22.7324 41.6799 22.8067C41.7519 22.881 41.7924 22.9818 41.7924 23.0869C41.7924 23.192 41.7519 23.2928 41.6799 23.3672C41.6079 23.4415 41.5103 23.4832 41.4085 23.4832H40.2567V24.6721C40.2567 24.7772 40.2163 24.878 40.1443 24.9523C40.0723 25.0266 39.9746 25.0684 39.8728 25.0684C39.771 25.0684 39.6734 25.0266 39.6014 24.9523C39.5294 24.878 39.4889 24.7772 39.4889 24.6721V23.4832H38.3372C38.2354 23.4832 38.1377 23.4415 38.0657 23.3672C37.9937 23.2928 37.9533 23.192 37.9533 23.0869ZM44.3518 26.2573C44.3518 26.3624 44.3113 26.4632 44.2393 26.5375C44.1673 26.6118 44.0697 26.6536 43.9678 26.6536H43.328V27.3141C43.328 27.4192 43.2876 27.52 43.2156 27.5943C43.1436 27.6686 43.0459 27.7103 42.9441 27.7103C42.8423 27.7103 42.7446 27.6686 42.6726 27.5943C42.6006 27.52 42.5602 27.4192 42.5602 27.3141V26.6536H41.9203C41.8185 26.6536 41.7209 26.6118 41.6489 26.5375C41.5769 26.4632 41.5364 26.3624 41.5364 26.2573C41.5364 26.1522 41.5769 26.0514 41.6489 25.9771C41.7209 25.9027 41.8185 25.861 41.9203 25.861H42.5602V25.2005C42.5602 25.0954 42.6006 24.9946 42.6726 24.9203C42.7446 24.846 42.8423 24.8042 42.9441 24.8042C43.0459 24.8042 43.1436 24.846 43.2156 24.9203C43.2876 24.9946 43.328 25.0954 43.328 25.2005V25.861H43.9678C44.0697 25.861 44.1673 25.9027 44.2393 25.9771C44.3113 26.0514 44.3518 26.1522 44.3518 26.2573Z" fill="white"/>
<path d="M67.915 5.1689C67.915 6.50301 67.6102 7.623 67.0008 8.52887C66.4079 9.43474 65.6091 10.0606 64.6044 10.4065L66.5561 18.1641H62.5538L61.0962 11.123H59.8115L58.6009 18.1641H54.9445L57.9833 0.672481H63.1221C64.6703 0.672481 65.8561 1.0513 66.6797 1.80894C67.5032 2.55011 67.915 3.6701 67.915 5.1689ZM64.135 5.66302C64.135 4.98773 63.9538 4.51832 63.5915 4.2548C63.2291 3.99127 62.8174 3.85951 62.3562 3.85951H61.0715L60.2809 8.43005H61.5162C62.2409 8.43005 62.8585 8.19946 63.3691 7.73829C63.8797 7.27712 64.135 6.58536 64.135 5.66302ZM79.544 4.00774H74.9735L74.3311 7.63947H78.6052L78.0617 10.7524H73.8123L73.1205 14.7547H78.1111L77.5181 18.1641H68.8959L71.9347 0.672481H80.1122L79.544 4.00774ZM96.1956 18.1641H92.4651L94.7133 6.0089H94.6392L89.5004 18.1641H86.7828L85.9922 6.0089H85.9181L83.9169 18.1641H80.4828L83.5463 0.672481H88.3145L89.1545 12.1112H89.2533L94.0215 0.672481H99.2591L96.1956 18.1641ZM107.936 18.1641L107.862 14.8782H103.786L102.476 18.1641H98.5234L106.108 0.672481H110.876L111.79 18.1641H107.936ZM107.763 4.45244H107.664L104.774 11.963H107.912L107.763 4.45244ZM125.788 18.1641H121.712L119.414 7.26888H119.34L117.561 18.1641H114.152L117.191 0.672481H121.366L123.565 11.7159H123.663L125.492 0.672481H128.827L125.788 18.1641Z" fill="#1A99DE"/>
<path d="M65.9385 23.9089H62.7268L60.2315 38.1641H56.4762L58.9715 23.9089H55.7598L56.328 20.6725H66.5067L65.9385 23.9089ZM78.7299 25.1689C78.7299 26.503 78.4252 27.623 77.8158 28.5289C77.2228 29.4347 76.424 30.0606 75.4193 30.4065L77.3711 38.1641H73.3687L71.9111 31.123H70.6264L69.4158 38.1641H65.7594L68.7982 20.6725H73.937C75.4852 20.6725 76.6711 21.0513 77.4946 21.8089C78.3181 22.5501 78.7299 23.6701 78.7299 25.1689ZM74.9499 25.663C74.9499 24.9877 74.7687 24.5183 74.4064 24.2548C74.044 23.9913 73.6323 23.8595 73.1711 23.8595H71.8864L71.0958 28.43H72.3311C73.0558 28.43 73.6734 28.1995 74.184 27.7383C74.6946 27.2771 74.9499 26.5854 74.9499 25.663ZM87.5672 38.1641L87.4931 34.8782H83.4166L82.1072 38.1641H78.1543L85.739 20.6725H90.5071L91.4212 38.1641H87.5672ZM87.3942 24.4524H87.2954L84.4049 31.963H87.5425L87.3942 24.4524ZM105.419 38.1641H101.343L99.0451 27.2689H98.971L97.1922 38.1641H93.7828L96.8216 20.6725H100.997L103.196 31.7159H103.294L105.123 20.6725H108.458L105.419 38.1641ZM118.938 24.6748C118.658 24.3454 118.312 24.0901 117.901 23.9089C117.489 23.7113 117.061 23.6124 116.616 23.6124C116.385 23.6124 116.138 23.6619 115.875 23.7607C115.628 23.843 115.397 23.9748 115.183 24.156C114.985 24.3371 114.812 24.5677 114.664 24.8477C114.532 25.1113 114.466 25.4324 114.466 25.8113C114.466 26.2889 114.606 26.6842 114.886 26.9971C115.183 27.3101 115.619 27.6312 116.196 27.9606C116.525 28.1583 116.871 28.3971 117.233 28.6771C117.612 28.9406 117.95 29.2618 118.246 29.6406C118.559 30.003 118.815 30.4312 119.012 30.9253C119.21 31.403 119.309 31.963 119.309 32.6053C119.309 33.61 119.136 34.4912 118.79 35.2488C118.461 35.99 118.008 36.6158 117.431 37.1264C116.871 37.6205 116.229 37.9911 115.504 38.2382C114.779 38.4852 114.03 38.6088 113.256 38.6088C112.185 38.6088 111.205 38.4276 110.316 38.0652C109.426 37.7029 108.735 37.2582 108.241 36.7311L110.489 33.89C110.818 34.2688 111.222 34.5817 111.699 34.8288C112.194 35.0594 112.704 35.1747 113.231 35.1747C113.495 35.1747 113.758 35.1253 114.022 35.0264C114.285 34.9276 114.516 34.7876 114.713 34.6065C114.928 34.4253 115.092 34.2029 115.208 33.9394C115.339 33.6759 115.405 33.3794 115.405 33.05C115.405 32.5724 115.257 32.1524 114.961 31.79C114.681 31.4112 114.211 31.0324 113.552 30.6536C113.174 30.4394 112.803 30.2006 112.441 29.9371C112.095 29.6736 111.782 29.3606 111.502 28.9983C111.238 28.6359 111.024 28.2242 110.859 27.763C110.695 27.3018 110.612 26.7665 110.612 26.1571C110.612 25.3171 110.761 24.5348 111.057 23.8101C111.354 23.0854 111.765 22.4595 112.292 21.9325C112.819 21.4054 113.454 20.9937 114.195 20.6972C114.936 20.3842 115.751 20.2278 116.641 20.2278C117.645 20.2278 118.543 20.3842 119.333 20.6972C120.124 21.0101 120.742 21.4219 121.186 21.9325L118.938 24.6748ZM137.109 38.1641H133.378L135.626 26.0089H135.552L130.414 38.1641H127.696L126.905 26.0089H126.831L124.83 38.1641H121.396L124.46 20.6725H129.228L130.068 32.1112H130.167L134.935 20.6725H140.172L137.109 38.1641ZM144.822 38.1641H140.993L144.032 20.6725H147.861L144.822 38.1641ZM158.355 24.6748C158.075 24.3454 157.73 24.0901 157.318 23.9089C156.906 23.7113 156.478 23.6124 156.033 23.6124C155.803 23.6124 155.556 23.6619 155.292 23.7607C155.045 23.843 154.814 23.9748 154.6 24.156C154.403 24.3371 154.23 24.5677 154.081 24.8477C153.95 25.1113 153.884 25.4324 153.884 25.8113C153.884 26.2889 154.024 26.6842 154.304 26.9971C154.6 27.3101 155.037 27.6312 155.613 27.9606C155.943 28.1583 156.288 28.3971 156.651 28.6771C157.03 28.9406 157.367 29.2618 157.664 29.6406C157.977 30.003 158.232 30.4312 158.43 30.9253C158.627 31.403 158.726 31.963 158.726 32.6053C158.726 33.61 158.553 34.4912 158.207 35.2488C157.878 35.99 157.425 36.6158 156.848 37.1264C156.288 37.6205 155.646 37.9911 154.921 38.2382C154.197 38.4852 153.447 38.6088 152.673 38.6088C151.603 38.6088 150.623 38.4276 149.733 38.0652C148.844 37.7029 148.152 37.2582 147.658 36.7311L149.906 33.89C150.236 34.2688 150.639 34.5817 151.117 34.8288C151.611 35.0594 152.121 35.1747 152.648 35.1747C152.912 35.1747 153.176 35.1253 153.439 35.0264C153.703 34.9276 153.933 34.7876 154.131 34.6065C154.345 34.4253 154.51 34.2029 154.625 33.9394C154.757 33.6759 154.823 33.3794 154.823 33.05C154.823 32.5724 154.674 32.1524 154.378 31.79C154.098 31.4112 153.628 31.0324 152.97 30.6536C152.591 30.4394 152.22 30.2006 151.858 29.9371C151.512 29.6736 151.199 29.3606 150.919 28.9983C150.656 28.6359 150.441 28.2242 150.277 27.763C150.112 27.3018 150.03 26.7665 150.03 26.1571C150.03 25.3171 150.178 24.5348 150.474 23.8101C150.771 23.0854 151.183 22.4595 151.71 21.9325C152.237 21.4054 152.871 20.9937 153.612 20.6972C154.353 20.3842 155.168 20.2278 156.058 20.2278C157.063 20.2278 157.96 20.3842 158.751 20.6972C159.541 21.0101 160.159 21.4219 160.604 21.9325L158.355 24.6748ZM170.473 24.6748C170.193 24.3454 169.847 24.0901 169.436 23.9089C169.024 23.7113 168.596 23.6124 168.151 23.6124C167.92 23.6124 167.673 23.6619 167.41 23.7607C167.163 23.843 166.932 23.9748 166.718 24.156C166.52 24.3371 166.347 24.5677 166.199 24.8477C166.067 25.1113 166.002 25.4324 166.002 25.8113C166.002 26.2889 166.142 26.6842 166.422 26.9971C166.718 27.3101 167.154 27.6312 167.731 27.9606C168.06 28.1583 168.406 28.3971 168.769 28.6771C169.147 28.9406 169.485 29.2618 169.781 29.6406C170.094 30.003 170.35 30.4312 170.547 30.9253C170.745 31.403 170.844 31.963 170.844 32.6053C170.844 33.61 170.671 34.4912 170.325 35.2488C169.996 35.99 169.543 36.6158 168.966 37.1264C168.406 37.6205 167.764 37.9911 167.039 38.2382C166.314 38.4852 165.565 38.6088 164.791 38.6088C163.72 38.6088 162.74 38.4276 161.851 38.0652C160.962 37.7029 160.27 37.2582 159.776 36.7311L162.024 33.89C162.353 34.2688 162.757 34.5817 163.234 34.8288C163.729 35.0594 164.239 35.1747 164.766 35.1747C165.03 35.1747 165.293 35.1253 165.557 35.0264C165.82 34.9276 166.051 34.7876 166.249 34.6065C166.463 34.4253 166.627 34.2029 166.743 33.9394C166.874 33.6759 166.94 33.3794 166.94 33.05C166.94 32.5724 166.792 32.1524 166.496 31.79C166.216 31.4112 165.746 31.0324 165.087 30.6536C164.709 30.4394 164.338 30.2006 163.976 29.9371C163.63 29.6736 163.317 29.3606 163.037 28.9983C162.773 28.6359 162.559 28.2242 162.394 27.763C162.23 27.3018 162.147 26.7665 162.147 26.1571C162.147 25.3171 162.296 24.5348 162.592 23.8101C162.889 23.0854 163.3 22.4595 163.827 21.9325C164.354 21.4054 164.989 20.9937 165.73 20.6972C166.471 20.3842 167.286 20.2278 168.176 20.2278C169.18 20.2278 170.078 20.3842 170.869 20.6972C171.659 21.0101 172.277 21.4219 172.721 21.9325L170.473 24.6748ZM176.76 38.1641H172.931L175.97 20.6725H179.799L176.76 38.1641ZM194.963 26.9477C194.963 28.3806 194.774 29.7971 194.395 31.1971C194.016 32.5806 193.472 33.8241 192.764 34.9276C192.072 36.0311 191.216 36.9205 190.195 37.5958C189.19 38.2711 188.054 38.6088 186.785 38.6088C185.896 38.6088 185.097 38.4523 184.389 38.1394C183.697 37.8099 183.112 37.357 182.635 36.7805C182.157 36.1876 181.795 35.4876 181.548 34.6806C181.301 33.857 181.177 32.9429 181.177 31.9382C181.177 30.5053 181.358 29.0889 181.721 27.6889C182.1 26.2889 182.635 25.0371 183.327 23.9336C184.035 22.8301 184.891 21.9407 185.896 21.2654C186.917 20.5737 188.07 20.2278 189.355 20.2278C190.294 20.2278 191.109 20.3925 191.801 20.7219C192.509 21.0348 193.094 21.4878 193.555 22.0807C194.032 22.6736 194.386 23.3819 194.617 24.2054C194.848 25.0289 194.963 25.943 194.963 26.9477ZM191.035 27.4912C191.035 27.0301 191.002 26.5771 190.936 26.1324C190.87 25.6877 190.755 25.3007 190.59 24.9713C190.442 24.6419 190.236 24.3783 189.972 24.1807C189.709 23.9666 189.379 23.8595 188.984 23.8595C188.358 23.8595 187.798 24.1148 187.304 24.6254C186.827 25.136 186.423 25.7783 186.094 26.5524C185.764 27.3265 185.517 28.1665 185.352 29.0724C185.188 29.9783 185.105 30.8183 185.105 31.5924C185.105 32.0535 185.138 32.49 185.204 32.9018C185.287 33.3135 185.402 33.6759 185.55 33.9888C185.715 34.2853 185.929 34.5241 186.192 34.7053C186.472 34.87 186.81 34.9523 187.205 34.9523C187.798 34.9523 188.334 34.7135 188.811 34.2359C189.289 33.7582 189.692 33.1488 190.022 32.4077C190.351 31.6665 190.598 30.8594 190.763 29.9865C190.944 29.1136 191.035 28.2818 191.035 27.4912ZM207.983 38.1641H203.906L201.609 27.2689H201.534L199.756 38.1641H196.346L199.385 20.6725H203.56L205.759 31.7159H205.858L207.686 20.6725H211.021L207.983 38.1641Z" fill="white"/>
</svg>
