<svg width="36" height="42" viewBox="0 0 36 42" fill="none" xmlns="http://www.w3.org/2000/svg">
<g id="Group">
<g id="Group_2">
<g id="Group_3">
<path id="Vector" d="M6.59439 13.7965C6.42706 13.7193 6.0837 13.6368 5.84031 13.6172C4.89066 13.5411 4.84612 13.514 3.84974 12.5654C3.3673 12.1069 2.92615 11.7168 2.88052 11.707C2.79685 11.7342 1.57121 12.9501 1.49189 13.0761C1.45386 13.1369 1.71681 13.4118 2.24379 13.9421C3.15433 14.8592 3.27494 15.0721 3.35861 15.8631C3.45966 16.8084 3.54006 16.9714 4.33325 17.7701C4.91456 18.3557 5.03192 18.4557 5.11775 18.4155C5.24488 18.3611 8.13949 15.4872 8.1949 15.3611C8.26661 15.1992 7.02793 13.9877 6.59439 13.7965Z" fill="black"/>
<path id="Vector_2" d="M17.6081 30.1784C17.5223 30.0382 17.5277 30.0241 17.8765 29.7046C18.2166 29.3939 18.2394 29.3808 18.3753 29.4623C18.5013 29.5438 18.5382 29.5264 18.7599 29.3058C18.9826 29.0853 19 29.0494 18.9196 28.9223C18.8392 28.7952 18.8566 28.7593 19.1337 28.4572C19.4108 28.1552 19.4466 28.1378 19.6498 28.1606C19.7813 28.1747 19.8801 28.1476 19.8899 28.103C19.9225 27.9813 19.3999 27.4641 19.2956 27.513C19.2499 27.5304 18.7012 28.0672 18.0699 28.7028L16.9258 29.8654L17.2192 30.1599C17.4582 30.4 17.5256 30.4413 17.6027 30.3924C17.6668 30.3457 17.6668 30.2827 17.6081 30.1784Z" fill="black"/>
<path id="Vector_3" d="M2.36706 11.8136C2.34098 11.756 2.23233 11.5691 2.03892 11.3735C1.72816 11.0606 1.70099 11.0421 1.55105 11.1095C1.38372 11.1855 1.38806 11.1899 1.00777 10.7976C1.00668 10.7965 1.00451 10.7944 1.00342 10.7933C0.767638 10.5053 0.586186 10.4282 0.381912 10.6672C0.288467 10.7759 0.289549 10.9367 0.38408 11.0443L0.578579 11.2649C0.898029 11.6234 0.929535 11.6821 0.866515 11.781C0.757858 11.9342 0.778503 12.0396 1.10447 12.3384C1.57495 12.7697 1.53041 12.7241 1.98459 12.2732C2.22798 12.0309 2.39205 11.8679 2.36706 11.8136Z" fill="black"/>
</g>
<g id="Group_4">
<path id="Vector_4" d="M20.1314 26.1937L20.1097 26.0938C20.088 25.9992 20.0065 25.8623 19.925 25.7808C19.7533 25.6178 19.7142 25.4233 19.8359 25.3016C19.9761 25.1615 19.9326 24.9539 19.7022 24.7225C19.4458 24.4639 19.4328 24.2607 19.6501 24.0445C19.7457 23.95 19.7957 23.8185 19.7913 23.6783C19.7968 23.4654 19.7653 23.4252 19.297 22.9525C19.0753 22.7287 18.9514 22.5961 18.8938 22.5135L18.5059 22.1419L16.8957 20.5805C16.8957 20.5805 16.6142 20.2991 16.335 20.6522C16.335 20.6522 16.2557 20.7805 16.1351 20.8402C16.1112 20.8554 16.084 20.8652 16.0568 20.8663C15.9623 20.8826 15.8526 20.8478 15.7385 20.6957C15.5646 20.5468 15.2712 20.2567 14.7432 19.7243C13.4817 18.4541 13.5001 18.49 13.8131 18.0521C14.0771 17.6827 14.0771 17.6914 12.4049 16.0257C10.6881 14.3241 10.8413 14.4056 10.297 14.9467C9.92535 15.3161 9.70261 15.3737 9.49182 15.1608C9.4288 15.0977 9.27559 15.0423 9.14846 15.0423L8.97135 15.0412C8.93984 15.0412 8.90942 15.0532 8.88769 15.076L6.79822 17.1763L4.7142 19.2723C4.68921 19.2973 4.67617 19.3332 4.68051 19.369L4.69573 19.507C4.70877 19.683 4.79895 19.783 5.78555 20.7772L6.8004 21.7986C6.83517 21.8333 6.84495 21.8866 6.82322 21.9311L6.77106 22.042L6.71782 22.1463C6.695 22.1919 6.70369 22.2462 6.73955 22.2821L8.59432 24.151L10.4686 26.0383C10.4947 26.0644 10.5067 26.1003 10.5012 26.1372L10.4806 26.2872C10.4665 26.4089 10.4208 26.536 10.3752 26.5805C10.3339 26.6207 10.3024 26.725 10.3067 26.8109C10.3154 26.9554 10.4817 27.1412 11.8019 28.4711C13.185 29.8641 13.298 29.9684 13.4426 29.9608C13.5327 29.9608 13.6414 29.9163 13.6914 29.8663C13.8728 29.6859 14.0673 29.7185 14.3737 29.9728C14.6486 30.2042 14.6715 30.2086 14.9344 30.1282C15.1876 30.0478 15.2245 30.0564 15.4679 30.2564C15.6168 30.3792 15.7743 30.4563 15.833 30.4433C15.9004 30.4302 16.8359 29.5382 18.0431 28.3397L20.0988 26.2991C20.1282 26.2741 20.1401 26.2328 20.1314 26.1937ZM7.37084 17.223C7.37845 17.197 7.39149 17.1731 7.41105 17.1524C7.47407 17.0905 7.57512 17.0905 7.63705 17.1535L10.4306 19.9677C10.4925 20.0307 10.4925 20.1318 10.4295 20.1937C10.3665 20.2556 10.2654 20.2556 10.2035 20.1926L9.59721 19.582C9.38642 19.3788 9.10717 19.105 8.73231 18.7355C7.37085 17.3817 7.29478 17.3056 7.37084 17.223ZM6.77432 18.2357C6.83734 18.1738 6.9384 18.1738 7.00033 18.2368L9.79388 21.051C9.85581 21.114 9.85581 21.2151 9.79279 21.277C9.72977 21.3389 9.62872 21.3389 9.56679 21.2759L6.77323 18.4617C6.7113 18.3987 6.7113 18.2977 6.77432 18.2357ZM8.93006 22.268L6.13651 19.4538C6.07458 19.3907 6.07458 19.2897 6.1376 19.2278C6.20062 19.1658 6.30166 19.1658 6.3636 19.2288L9.15715 22.043C9.21909 22.1061 9.21909 22.2071 9.15607 22.269C9.09305 22.331 8.99199 22.331 8.93006 22.268ZM16.6653 27.5193C16.6153 27.5693 16.5338 27.5693 16.4849 27.5182C16.435 27.4683 16.435 27.3868 16.486 27.3379L18.9819 24.8605C19.0318 24.8105 19.1133 24.8105 19.1622 24.8616C19.2122 24.9116 19.2122 24.9931 19.1611 25.042L16.6653 27.5193ZM15.7537 29.6859C15.7037 29.7359 15.6222 29.7359 15.5733 29.6848C15.5233 29.6349 15.5233 29.5534 15.5744 29.5045L19.2046 25.9003C19.2546 25.8504 19.3361 25.8504 19.385 25.9014C19.435 25.9514 19.435 26.0329 19.3839 26.0818L15.7537 29.6859Z" fill="black"/>
<path id="Vector_5" d="M14.1556 17.6967C14.1556 17.8054 14.0817 17.9857 13.9915 18.1031L13.8937 18.2335C13.859 18.2802 13.8633 18.3454 13.9046 18.3867L15.027 19.5167C15.5149 20.0078 15.8028 20.3023 15.9604 20.4772C15.9604 20.4772 16.2103 20.6761 16.3711 20.4251C16.3711 20.4251 16.7547 20.1252 16.9817 20.2642L18.9799 22.2776C19.0147 22.2385 19.031 22.1342 19.0136 22.0462C18.9875 21.9017 18.8202 21.7061 18.0325 20.9118C17.1491 20.0219 17.0687 19.9491 16.8742 19.9263C16.7655 19.9165 16.6069 19.9394 16.5308 19.9883C16.4037 20.06 16.3635 20.0556 16.2505 19.9144C16.1331 19.7688 16.1386 19.7373 16.2657 19.5841C16.3429 19.4895 16.4113 19.3678 16.4156 19.3178C16.42 19.2679 16.4569 19.232 16.5069 19.2277C16.5526 19.2277 17.3588 18.6344 18.2976 17.9097C19.7666 16.7753 20.0252 16.5906 20.161 16.6101C20.2425 16.6199 20.4555 16.5525 20.6228 16.458C20.8673 16.332 20.9488 16.3146 21.0259 16.3917C21.1563 16.5232 21.6268 16.4982 22.1842 16.3233C22.7949 16.131 22.9448 16.0364 23.0545 15.7659C23.1871 15.4453 23.0795 15.1824 22.5884 14.6337L22.2103 14.2023C22.1875 14.1762 22.1549 14.1621 22.1201 14.1621L21.9071 14.1654C21.5725 14.1643 21.3182 14.3349 20.7695 14.952C20.5511 15.2041 20.2523 15.5377 20.1067 15.7007C19.9611 15.8539 19.8383 16.0212 19.8253 16.0614C19.8166 16.1071 19.031 16.7503 18.0879 17.4881C17.161 18.2052 16.3722 18.855 16.3005 18.9376C16.2972 18.9408 16.295 18.9441 16.2929 18.9484C16.2396 19.0332 16.1907 19.0451 16.1158 19.0049C16.0386 18.9549 15.9528 18.9767 15.817 19.094C15.6627 19.2288 15.604 19.2429 15.5095 19.1657C15.3476 19.0473 15.3389 18.8485 15.4834 18.7767C15.642 18.6909 15.6431 18.5018 15.4714 18.3291C15.3095 18.1661 15.1237 18.152 15.0107 18.291C14.8651 18.4714 14.8108 18.4801 14.6804 18.3486C14.5717 18.24 14.5631 18.1759 14.6369 17.9955C14.6869 17.8738 14.7108 17.7152 14.688 17.638C14.6608 17.5478 14.2827 17.1306 13.6797 16.5221C12.8006 15.6377 12.7018 15.5551 12.5616 15.5594C12.4714 15.5594 12.3899 15.5768 12.3715 15.5953C12.3573 15.6083 12.7539 16.044 13.2537 16.5667C14.1024 17.4522 14.161 17.5207 14.1556 17.6967Z" fill="black"/>
</g>
<path id="Vector_6" d="M32.2149 23.3785L35.8799 23.7566L35.8777 18.352L32.2355 18.6335C32.0497 17.2437 31.6977 15.9073 31.2001 14.6436L34.9454 12.9399L32.2127 8.27635L28.9074 10.5701C28.0132 9.39008 26.9701 8.32959 25.8053 7.41688L28.1501 4.26259L23.5028 1.50272L21.747 5.05252C20.4833 4.53314 19.1446 4.15936 17.7506 3.95292L18.1809 0.0336836L12.7763 0L13.0523 3.90076C11.5724 4.08765 10.1522 4.46251 8.81468 5.00145L7.26959 1.38971L2.5137 4.03984L4.82373 7.27236C4.22287 7.73089 3.65133 8.22637 3.11674 8.75878L7.37281 12.2814C9.44598 10.3995 12.1993 9.25208 15.22 9.25208C21.6709 9.25208 26.9005 14.4817 26.9005 20.9326C26.9005 27.3836 21.6709 32.6132 15.22 32.6132C11.9527 32.6132 8.99939 31.2713 6.87951 29.109H0.121094L3.33297 33.3173L3.32645 33.3086C3.72631 33.6932 4.14572 34.0583 4.58143 34.4028L2.22359 37.6527L6.90233 40.3593L8.62018 36.7834C9.90559 37.3202 11.2703 37.7048 12.6915 37.9145L12.3927 42L17.7951 41.837L17.3801 37.9656C18.8697 37.7787 20.2996 37.4006 21.6448 36.8573L23.4192 40.5549L28.0251 37.7276L25.7053 34.5266C26.8462 33.6454 27.8741 32.623 28.7618 31.4864L31.815 33.879L34.6923 29.3035L31.1186 27.4205C31.6412 26.1427 32.0139 24.7878 32.2149 23.3785Z" fill="#009DEA"/>
</g>
</g>
</svg>
