<svg width="75" height="62" viewBox="0 0 75 62" fill="none" xmlns="http://www.w3.org/2000/svg">
<path d="M58.5325 0.896929C57.86 1.43841 55.441 3.20138 54.1719 4.07027C53.7706 4.34731 53.0872 5.00212 52.6533 5.51842C51.8831 6.43768 51.8723 6.45027 51.6553 6.22361C51.5252 6.08509 51.3733 5.79546 51.2974 5.56879C51.2214 5.32953 51.1021 5.14064 51.0153 5.14064C50.7767 5.14064 50.1475 5.94657 50.0716 6.34953C50.0391 6.55102 49.9414 7.02954 49.8547 7.40731C49.7679 7.83546 49.7462 8.15028 49.8113 8.23843C49.8655 8.31398 50.4838 8.88065 51.1889 9.49769C53.5319 11.5629 55.8749 13.9429 56.5692 14.9629C57.8491 16.8392 58.2397 18.2873 58.3373 21.4229C58.3915 23.0473 58.4349 23.5636 58.5542 23.614C58.6302 23.6518 59.0098 23.5888 59.4003 23.4755C59.78 23.3622 60.2681 23.274 60.485 23.274C60.9081 23.274 60.9732 23.0725 60.702 22.5185C60.6152 22.3422 60.5501 22.1281 60.5393 22.0399C60.5393 21.8511 61.1793 21.511 61.5372 21.511C61.6783 21.511 62.0796 21.3096 62.4376 21.0451C63.4572 20.3273 67.4056 17.6451 68.2409 17.1162C68.3602 17.0407 68.4036 16.7888 68.4036 16.1844C68.4036 15.731 68.371 15.3281 68.3385 15.2777C68.2734 15.2021 65.1928 17.3681 62.8715 19.131C61.7325 19.9873 61.342 20.0755 60.984 19.5466C60.8539 19.3577 60.7562 19.1059 60.7562 18.9799C60.7562 18.7407 61.1793 18.2999 61.5481 18.1614C61.7867 18.0733 63.2294 17.091 65.5833 15.4036C66.245 14.9251 67.1345 14.3458 67.5683 14.1066C67.9914 13.8673 68.3494 13.6155 68.3494 13.5273C68.3494 13.2755 68.1107 12.3814 68.0022 12.2303C67.9155 12.1044 67.7961 12.1295 67.449 12.3436C66.7548 12.7466 64.4552 14.3584 62.6979 15.6681C61.8193 16.3229 61.0166 16.8518 60.8972 16.8518C60.6044 16.8518 60.2139 16.3355 60.2139 15.9325C60.2139 15.5421 60.2356 15.5296 62.1121 14.2199C62.8932 13.6784 63.7935 13.0488 64.1189 12.797C64.4443 12.5577 65.3555 11.9532 66.1473 11.4495L67.5792 10.5303L67.2646 9.78732C67.0802 9.38435 66.9175 9.04435 66.8958 9.04435C66.7982 9.04435 62.622 11.991 61.2227 13.0362C60.1488 13.8547 59.5739 14.0436 59.2593 13.6784C59.064 13.4518 59.0966 12.8851 59.3244 12.5829C59.4979 12.3436 62.3833 10.2407 64.1189 9.09472C64.5636 8.80509 65.2145 8.37695 65.5507 8.15028L66.169 7.74731L65.9629 7.29398C65.8436 7.04213 65.6592 6.70213 65.5507 6.53842L65.3446 6.2362L64.7047 6.7399C64.3575 7.01694 63.2837 7.79768 62.3291 8.47769C61.3745 9.14509 60.1813 10.0392 59.6823 10.4547C58.6193 11.3362 58.1637 11.4873 57.8925 11.0466C57.6539 10.6562 57.6756 10.1399 57.9251 9.87547C58.0444 9.74954 58.5868 9.33398 59.1508 8.93102C62.0471 6.85324 63.0559 6.13546 63.7718 5.65694C64.6287 5.07768 64.6396 5.05249 64.0647 4.34731C63.7067 3.91916 63.5548 3.91916 62.9365 4.37249C62.6654 4.56138 61.5155 5.39249 60.3766 6.21101C59.2485 7.01694 57.9468 7.99917 57.4803 8.36435C57.0139 8.75472 56.5366 9.04435 56.3848 9.04435C56.0702 9.04435 55.7665 8.6288 55.7665 8.22583C55.7665 7.70954 55.9617 7.54583 60.4959 4.38508C61.3854 3.75545 62.264 3.10064 62.4484 2.93693L62.763 2.62212L62.3833 2.24434C61.9386 1.8036 61.8193 1.791 61.4288 2.09323C61.2661 2.23175 60.6478 2.65989 60.0512 3.07545C58.2397 4.30953 55.4193 6.3999 55.0505 6.77768C54.5082 7.33176 54.2478 7.36954 53.955 6.97916C53.6512 6.56361 53.6404 6.27398 53.9224 5.87101C54.1502 5.51842 54.237 5.45546 57.0139 3.5036C60.0945 1.32508 60.5718 0.833965 60.0078 0.481371C59.6173 0.242111 59.1942 0.355446 58.5325 0.896929Z" fill="#1A1A25"/>
<path d="M69.8143 0.797646C67.3736 2.28358 65.8442 3.27839 65.5513 3.56802C65.5404 3.58062 65.7032 3.81987 65.9201 4.08432C67.6774 6.26284 68.9574 8.93248 69.3479 11.2117C69.3696 11.388 69.478 11.3503 69.977 10.9599C70.3133 10.708 71.2678 9.96507 72.1248 9.32285C73.1227 8.56729 73.7627 7.98803 73.9363 7.6984C74.8366 6.1621 74.381 3.51765 72.9383 1.81765C71.8644 0.558385 70.7906 0.205791 69.8143 0.797646Z" fill="#1A1A25"/>
<path d="M31.2413 1.34862C30.4928 1.63825 29.8854 2.21751 29.7878 2.75899C29.6793 3.30047 30.0698 4.18196 30.5688 4.55974C31.3823 5.18937 32.7274 5.25233 33.6169 4.71085C34.0074 4.47159 34.4629 3.89233 34.604 3.46418C34.8209 2.79677 34.3328 1.95306 33.4867 1.5501C32.9986 1.31084 31.6535 1.18491 31.2413 1.34862Z" fill="#1A1A25"/>
<path d="M37.3811 2.25666C37.0882 2.48333 36.8279 2.67222 36.8062 2.68481C36.7953 2.6974 36.8604 3.05 36.9581 3.45296C37.0882 4.00704 37.1425 4.97667 37.1859 7.34408C37.2401 10.3159 37.2292 10.53 37.0123 11.1848C36.893 11.5752 36.6543 12.0663 36.4916 12.293C36.0794 12.8345 34.5174 13.8922 33.6496 14.2197C31.9032 14.8745 29.5819 14.2952 28.2151 12.8596C27.2931 11.9026 27.1955 11.5752 27.1521 9.25816C27.1304 8.17519 27.0653 7.28112 27.0111 7.28112C26.5663 7.28112 20.4593 11.5626 19.5156 12.5448C19.4071 12.6456 19.3203 12.7715 19.3203 12.8219C19.3203 12.9478 20.9691 14.3456 23.0084 15.9448C26.2409 18.4886 27.369 19.4204 29.9507 21.6493C34.9513 25.9686 35.2442 26.296 36.1771 28.4997C37.0557 30.6027 37.0123 29.9604 37.0448 43.7368C37.0665 50.4486 37.0448 56.9968 37.0014 58.2812C36.9689 59.5657 36.9364 60.6235 36.9472 60.6361C36.9581 60.6612 37.9886 59.9561 39.236 59.0746C40.4834 58.2057 42.5336 56.7827 43.781 55.9138C45.0393 55.0449 46.9159 53.7353 47.9572 52.9923C48.9986 52.2494 50.4847 51.242 51.244 50.7509C52.8385 49.7183 54.9646 48.1442 55.6155 47.5146C55.8649 47.2753 56.2012 46.7842 56.3531 46.419L56.6351 45.7642V34.116C56.6243 27.6938 56.5809 21.75 56.5375 20.8811C56.3965 18.5641 55.9192 17.2797 54.6392 15.7937C53.9016 14.9374 51.3525 12.4819 49.8013 11.1219C49.1721 10.5678 48.2393 9.72409 47.7295 9.22038C45.8746 7.44482 41.5139 3.98185 39.6048 2.79815C38.7913 2.28185 38.0753 1.86629 38.0211 1.86629C37.9669 1.86629 37.6848 2.04259 37.3811 2.25666ZM42.0021 14.2826C43.3146 14.736 44.5403 15.7811 44.9308 16.7885C45.202 17.4685 45.202 18.753 44.9308 19.4582C44.6922 20.0626 43.9871 20.8937 43.3471 21.3345C41.297 22.7197 38.3465 22.2663 36.8062 20.3271C35.7215 18.9419 35.6998 17.0404 36.7628 15.5797C37.0557 15.1641 38.2923 14.396 38.9323 14.2197C39.6265 14.0308 41.3512 14.0685 42.0021 14.2826ZM51.1355 28.8901C51.8297 29.1671 52.5457 29.9227 52.8385 30.7286C53.1965 31.6982 53.1206 33.1338 52.6433 34.2671C52.0033 35.7782 50.3762 37.1256 49.2155 37.1256C48.3044 37.1256 47.8488 36.9116 47.2305 36.1938C46.5146 35.3627 46.2868 34.5316 46.3518 33.0456C46.4061 31.9249 46.699 31.0938 47.3064 30.2752C47.6861 29.7841 48.6081 29.0412 49.0962 28.8397C49.5843 28.6382 50.5714 28.6634 51.1355 28.8901ZM45.6251 41.2686C48.1959 42.6538 47.6318 47.4642 44.6922 49.2271C44.0739 49.6049 43.9003 49.6427 43.1193 49.6553C42.3492 49.6553 42.1973 49.6175 41.8068 49.3153C41.297 48.9249 40.7329 48.0057 40.5702 47.2753C40.375 46.4568 40.516 44.8701 40.8522 43.8879C41.3946 42.3138 43.0326 41.0419 44.5403 41.0419C44.9525 41.0419 45.3539 41.1175 45.6251 41.2686Z" fill="#1A1A25"/>
<path d="M39.6047 16.0473C39.5179 16.0851 39.2359 16.1984 38.9756 16.3117C38.4224 16.5384 37.8691 17.3191 37.8691 17.8858C37.8691 19.8377 41.0366 20.8702 42.5335 19.4221C43.9436 18.0369 42.9023 16.1858 40.6352 16.0347C40.1579 15.9969 39.6915 16.0095 39.6047 16.0473Z" fill="#1A1A25"/>
<path d="M49.4214 30.6923C49.1828 30.8183 48.8574 31.0953 48.6838 31.2968C48.3475 31.7123 47.957 32.8961 47.957 33.4753C47.957 34.382 48.5862 35.2383 49.2696 35.2383C49.6167 35.2383 50.4628 34.6212 50.7448 34.1553C51.1678 33.4249 51.4499 32.4553 51.3848 31.939C51.2872 31.2716 51.1136 30.982 50.6472 30.6923C50.1482 30.4027 49.9746 30.3901 49.4214 30.6923Z" fill="#1A1A25"/>
<path d="M43.6617 43.1476C43.1193 43.4498 42.501 44.2683 42.3383 44.9231C41.937 46.4594 42.4143 47.832 43.3471 47.832C44.562 47.832 45.8312 45.515 45.4623 43.9409C45.2563 43.0594 44.4752 42.7194 43.6617 43.1476Z" fill="#1A1A25"/>
<path d="M28.9727 8.11391C28.9727 9.95244 29.016 10.8465 29.1137 11.0606C29.1896 11.2621 29.5584 11.5643 30.1116 11.8791C30.9577 12.3702 30.9903 12.3828 32.1726 12.3828C33.2573 12.3828 33.4309 12.345 34.0167 12.0302C34.3746 11.8413 34.8302 11.5013 35.0255 11.2747L35.3726 10.8843V8.26502C35.3726 6.82947 35.3292 5.64576 35.275 5.64576C35.2316 5.64576 35.0038 5.80946 34.776 6.02354C34.277 6.47687 33.3224 6.90502 32.5848 6.99317C31.5109 7.13169 30.1008 6.64058 29.3632 5.89761L28.9727 5.49465V8.11391Z" fill="#1A1A25"/>
<path d="M11.629 11.3744C10.7395 11.6641 10.0345 12.1678 9.39448 12.9611C8.58093 13.9937 8.45076 14.4848 8.38568 16.89L8.34229 18.8671L8.03856 19.1189C7.87585 19.2574 7.7023 19.3708 7.65891 19.3708C7.52874 19.3708 4.84945 21.5367 4.39386 22.0152C4.15522 22.2671 3.51523 22.7834 2.97286 23.1485C2.38711 23.5389 1.93152 23.9419 1.86644 24.1182C1.72542 24.4834 1.71458 25.5411 1.84474 26.2211C1.89898 26.4856 1.92067 26.7752 1.88813 26.8634C1.86644 26.9641 1.51932 27.1908 1.13967 27.3797C0.326118 27.7826 0.120019 28.11 0.120019 29.0293C0.120019 29.7849 0.412897 30.5278 0.976957 31.2456C1.22645 31.5478 1.4217 31.8626 1.4217 31.9508C1.4217 32.0263 1.15051 32.2656 0.825095 32.4797C0.0983243 32.9582 -0.010149 33.1723 0.000698367 34.1167C0.0115457 35.3634 0.35866 36.056 1.2156 36.5597C1.96406 37.0004 2.03999 37.1767 1.67119 37.5293C0.933568 38.2345 0.662385 38.6501 0.662385 39.0782C0.662385 39.6701 1.07458 41.1308 1.31322 41.4078C1.4217 41.5338 1.85559 41.7604 2.27864 41.9116C3.29828 42.2641 3.35252 42.4153 2.92948 43.473C2.65829 44.153 2.60406 44.4049 2.66914 44.7701C2.78846 45.513 3.01625 45.9034 3.6454 46.4449C3.97082 46.7219 4.242 46.9738 4.242 46.9864C4.242 47.339 4.53488 48.636 4.68674 48.9886C4.92538 49.5301 5.55453 49.996 6.35723 50.2227C7.11654 50.4242 7.27925 50.6382 7.27925 51.4064C7.2901 52.7286 8.10365 53.9627 9.19923 54.3153C10.4792 54.7308 10.5985 54.8568 11.0324 56.2042C11.4555 57.5138 12.5077 58.282 13.8744 58.282C14.4493 58.282 14.471 58.2946 15.1978 59.1131C16.0981 60.1205 16.532 60.2968 18.0289 60.2968C18.8425 60.2968 19.233 60.3597 19.6994 60.5612C20.372 60.8509 21.012 60.8886 21.717 60.6746C23.2248 60.2212 24.7977 59.516 26.4465 58.559C27.477 57.9671 28.3448 57.5138 28.3773 57.5516C28.4207 57.5894 28.399 57.9042 28.3556 58.2316C28.3014 58.5716 28.2797 58.9368 28.3014 59.0627C28.3231 59.176 28.7678 59.516 29.3427 59.8309C29.8959 60.1457 30.6552 60.6368 31.024 60.9138C32.2606 61.8331 33.443 61.8709 34.3325 61.0272C35.1677 60.2338 35.1026 61.4931 35.1135 45.9412C35.1135 37.9197 35.0809 31.7115 35.0267 31.2708C34.9616 30.8552 34.7013 29.8982 34.4193 29.13C33.8226 27.4678 33.5732 27.1656 31.6315 25.6041C30.8613 24.9871 29.0715 23.5515 27.6722 22.4056C26.2729 21.2597 24.3746 19.7485 23.4635 19.0308C22.5523 18.3256 21.6736 17.6204 21.5109 17.4819C20.6106 16.6885 18.8316 15.1648 17.9096 14.3967C17.3347 13.9056 16.4669 13.1752 16.0005 12.7596C14.4059 11.3493 13.0392 10.9211 11.629 11.3744ZM14.97 17.1545C15.2737 17.5322 15.2195 17.6708 14.4168 18.5774C13.7117 19.3708 11.1517 21.3856 10.8589 21.3856C10.7395 21.3856 10.6419 21.3982 10.6419 21.4108C10.6419 21.4359 10.7179 21.7256 10.8046 22.0656C10.8914 22.393 10.9999 23.1108 11.0324 23.6522L11.1084 24.6345L11.6724 24.7226C11.9761 24.7604 12.3666 24.8863 12.5294 24.9745C12.7029 25.0752 12.8439 25.1634 12.8656 25.1634C12.8765 25.1634 12.9199 24.5967 12.9524 23.9041C12.9849 23.2115 13.0609 22.5441 13.126 22.4182C13.1802 22.3048 13.8093 21.8011 14.5144 21.3226C15.2195 20.8441 16.2174 20.1137 16.7381 19.7234C17.2479 19.3204 17.7469 18.993 17.8337 18.993C18.0615 18.993 18.452 19.5974 18.452 19.95C18.452 20.1137 18.3218 20.4159 18.1591 20.6174C17.8012 21.0456 15.5991 22.6574 14.9049 22.9848C14.4602 23.1989 14.4276 23.2367 14.4819 23.5767C14.5144 23.7782 14.547 24.433 14.547 25.05C14.547 25.8056 14.5903 26.1708 14.6663 26.1708C14.7422 26.1708 15.0351 26.3345 15.3171 26.5486C15.8161 26.9011 15.8486 26.9137 15.9571 26.6745C16.0113 26.5486 16.0656 26.3848 16.0656 26.3093C16.0656 26.2337 16.1632 25.8686 16.2934 25.4908C16.4995 24.836 16.5537 24.773 17.3456 24.2693C17.8012 23.9797 18.7774 23.3248 19.4933 22.8211C20.2201 22.3048 20.9035 21.8893 21.0228 21.8893C21.2723 21.8893 21.5435 22.1915 21.6953 22.67C21.793 22.9597 21.7713 23.0604 21.5652 23.3248C21.3048 23.6522 19.5042 24.9997 18.5605 25.5663L17.9639 25.9315L17.8445 26.7752C17.7686 27.2411 17.6927 27.8204 17.6493 28.0597C17.5842 28.4752 17.6167 28.513 18.1374 28.9034C18.4411 29.13 18.7557 29.3189 18.8316 29.3189C18.9184 29.3189 19.1137 29.0293 19.2872 28.6641C19.4716 28.2612 19.7211 27.9212 19.9164 27.8078C20.1008 27.7071 21.0228 27.0774 21.9774 26.41C22.9319 25.7426 23.7997 25.1634 23.8973 25.1256C24.1251 25.0374 24.5048 25.453 24.5916 25.8811C24.7543 26.6241 24.4072 26.9893 22.1726 28.4374C21.0553 29.1552 20.936 29.2686 20.8384 29.6841C20.7842 29.936 20.5781 30.3893 20.3937 30.6789L20.0465 31.2204L20.4696 31.7241C21.1204 32.5175 21.2181 32.5426 21.6953 32.1019C21.9231 31.8878 22.6933 31.3589 23.4201 30.9056C24.136 30.4649 25.058 29.873 25.4702 29.596C26.5441 28.8782 26.6417 28.853 27.0214 29.3063C27.6831 30.0745 27.3468 30.6034 25.416 31.8375C24.7434 32.2656 23.9733 32.8071 23.7238 33.0338C23.4635 33.2604 23.0513 33.5878 22.8018 33.7389C22.5631 33.9026 22.357 34.1293 22.3679 34.2301C22.3679 34.3308 22.5523 34.7338 22.7692 35.1115C23.4309 36.2449 23.7672 36.1945 26.7285 34.4693C27.7915 33.8523 28.7244 33.3486 28.8112 33.3486C28.9956 33.3486 29.3969 33.9278 29.4729 34.3182C29.5813 34.7967 29.0932 35.2752 27.6288 36.1441C26.9238 36.5597 26.0994 37.0634 25.8173 37.2649C25.5244 37.4538 25.0146 37.7056 24.6784 37.8064C24.3421 37.9071 24.0492 38.0204 24.0275 38.0456C23.995 38.0708 24.1577 38.499 24.3638 38.9901C24.7434 39.859 24.7651 39.8841 25.2967 40.0101C25.6004 40.0856 25.98 40.1486 26.1427 40.1486C26.3055 40.1486 27.3143 39.6575 28.3664 39.0656C29.4295 38.4738 30.3949 38.0078 30.5142 38.033C30.6335 38.0582 30.8396 38.2849 30.9698 38.5367C31.3495 39.3175 31.1759 39.5064 28.7461 40.9293L26.6526 42.1634L25.915 42.0753C25.0797 41.9871 25.0906 41.9619 25.3292 42.9567C25.416 43.3219 25.5136 43.7627 25.5461 43.9516C25.6004 44.2034 25.6872 44.3041 25.8499 44.3041C25.98 44.3041 26.4031 44.4175 26.7936 44.5686L27.5095 44.8204L29.5163 43.6116C30.6227 42.9567 31.6206 42.4278 31.74 42.4404C31.8701 42.4656 32.0437 42.6671 32.1522 42.9316C32.4776 43.7123 32.3149 43.9264 30.5576 44.9464C29.7115 45.4375 28.7569 46.0419 28.4207 46.2686C27.7373 46.7471 27.4336 46.7849 26.6526 46.5079C25.7197 46.1805 25.7197 46.1805 25.7197 47.3138C25.7197 48.2456 25.7414 48.3212 25.9692 48.3968C26.0994 48.4471 26.6309 48.7116 27.1407 48.9886L28.0844 49.4923L29.1475 48.7368C29.7441 48.3338 30.6552 47.7168 31.1759 47.3893L32.1413 46.7849L32.4233 47.0367C32.5861 47.1753 32.7596 47.4649 32.8138 47.6916C32.944 48.2205 32.7922 48.3968 31.4688 49.1775C30.9047 49.5175 29.8959 50.1471 29.2342 50.5753L28.0302 51.356L27.3902 51.0286C26.5332 50.5879 25.5895 50.2101 25.5244 50.2856C25.4919 50.3108 25.4485 50.6256 25.416 50.9531L25.3726 51.5701L26.3814 52.8545C26.9454 53.5471 27.4661 54.1264 27.5312 54.1264C27.6071 54.1264 27.9976 53.8871 28.399 53.6101C28.8112 53.3205 29.7224 52.7538 30.4274 52.3382L31.7183 51.6079L31.9786 51.8849C32.2932 52.2249 32.3149 52.8671 32.022 53.1694C31.9135 53.2827 31.1325 53.7108 30.2973 54.1138C29.462 54.5168 28.4424 55.0834 28.0302 55.3731C26.9346 56.1286 26.7936 56.1034 25.7089 54.8694C25.2099 54.3027 24.6133 53.6982 24.3746 53.5219C23.9733 53.2071 23.9516 53.1945 23.8106 53.4338C23.496 53.9249 23.637 54.479 24.4072 55.8894C25.3075 57.5264 25.3617 58.156 24.5699 58.156C23.9733 58.156 23.7021 57.9546 23.1489 57.136C22.8669 56.6953 22.4547 56.1286 22.2377 55.8642C21.8581 55.4108 21.8364 55.3983 21.4242 55.5242C20.6757 55.7634 20.6648 55.8138 21.0011 57.4257C21.1747 58.219 21.2723 58.962 21.2398 59.0753C21.1855 59.2264 21.0337 59.2894 20.6865 59.2894C20.296 59.2894 20.155 59.2264 20.0249 58.9997C19.873 58.7101 19.4066 57.136 19.2655 56.4057C19.1788 55.9145 19.1462 55.902 18.3761 55.8138C18.0289 55.7886 17.6601 55.7257 17.5517 55.6879C17.3673 55.6249 17.3564 55.7131 17.389 57.0983C17.4215 58.7605 17.4215 58.7731 16.6405 58.5968C16.1524 58.496 16.0005 58.0679 15.8378 56.3679C15.7727 55.6501 15.6534 55.0079 15.5883 54.9197C15.5232 54.8442 15.1436 54.6301 14.7422 54.4538L14.0046 54.139L13.9504 54.416C13.9178 54.5671 13.8527 55.0582 13.7876 55.5116C13.6683 56.4686 13.4948 56.6701 12.9958 56.5064C12.3449 56.2923 12.2582 56.0279 12.2799 54.3279L12.3016 52.8042L11.6073 52.1494C11.2277 51.7842 10.8263 51.4819 10.7287 51.4819C10.6202 51.4819 10.4141 51.759 10.2189 52.1619C10.0345 52.5397 9.80668 52.8797 9.70905 52.9175C9.62227 52.9553 9.57888 52.9427 9.61143 52.8671C9.64397 52.7916 9.57888 52.7412 9.45956 52.7412C9.14499 52.7412 8.58093 52.036 8.58093 51.6331C8.58093 51.4442 8.73279 50.9279 8.90635 50.4871C9.09075 50.0464 9.21007 49.5931 9.17753 49.4797C9.14499 49.3664 8.88465 48.9886 8.58093 48.6486C8.07111 48.0568 8.03856 48.0442 7.83246 48.2582C7.48535 48.6234 6.54163 48.9886 6.30299 48.8375C6.0535 48.6738 5.65215 47.9434 5.65215 47.616C5.65215 47.4775 5.8474 47.0367 6.09689 46.6464C6.4657 46.0419 6.53079 45.853 6.47655 45.5256C6.35723 44.7953 6.2813 44.7449 5.65215 44.9086C4.41556 45.236 4.02505 45.0723 4.02505 44.2034C4.02505 43.813 4.43725 43.2841 4.96877 43.0071C5.28334 42.8434 5.28334 42.8182 4.92538 41.7101L4.62166 40.7908L4.07929 40.7153C2.71253 40.5138 2.39796 40.4004 2.17016 39.9849C1.8122 39.2923 1.88813 39.0656 2.53897 38.776C2.86439 38.6501 3.29828 38.4864 3.51523 38.4486C3.97082 38.3478 3.95997 38.373 3.77557 37.0256L3.6454 36.1064L2.75592 35.7538C1.6061 35.313 1.29153 34.9856 1.33492 34.293C1.36746 33.8145 1.38916 33.7893 1.74712 33.7515C1.95322 33.7263 2.4088 33.7767 2.75592 33.8523C3.11388 33.9278 3.40676 33.9782 3.42845 33.953C3.4393 33.9278 3.49354 33.4871 3.52608 32.9708L3.60201 32.0263L3.18981 31.7115C2.96202 31.5352 2.47389 31.0693 2.10508 30.6537C1.50848 29.9989 1.4217 29.8478 1.4217 29.4449C1.4217 28.513 1.74712 28.5256 3.11388 29.5204C3.54777 29.8226 3.93828 30.0745 4.00336 30.0745C4.06844 30.0745 4.17692 29.8604 4.242 29.596C4.31793 29.3441 4.4481 29.0293 4.54573 28.916C4.68674 28.7145 4.66505 28.6389 4.28539 28.11C3.46099 26.9893 2.83185 25.8811 2.83185 25.5663C2.83185 25.1508 3.12473 24.7856 3.46099 24.7856C3.66709 24.7856 3.95997 25.0626 4.62166 25.8811L5.50029 26.9641L6.06435 26.4856L6.61756 26.0071L6.38977 25.3648C6.02096 24.2945 5.65215 22.8967 5.65215 22.6071C5.65215 22.456 5.74978 22.1411 5.8691 21.9145C6.04266 21.5871 6.14028 21.5115 6.42231 21.5367C6.68265 21.5619 6.73689 21.6122 6.6935 21.8011C6.66095 21.9397 6.75858 22.2545 6.8996 22.5063C7.04061 22.7582 7.34434 23.4256 7.56128 24.0048C7.78908 24.5841 8.01687 25.0248 8.08195 24.9997C8.15788 24.9619 8.49415 24.8737 8.84127 24.7856L9.47041 24.6345L9.40533 23.9923C9.11245 20.9071 9.1233 20.8063 10.0345 20.29C10.425 20.0634 11.4338 19.27 12.2907 18.5145C13.1477 17.7589 13.9395 17.0789 14.0588 17.0033C14.4059 16.7767 14.7097 16.827 14.97 17.1545ZM11.2928 17.7337C11.2928 18.2626 10.7179 19.0434 9.99108 19.4841L9.34024 19.8871V19.3959C9.34024 18.9804 9.42702 18.7789 9.91515 18.1493C10.2189 17.7337 10.5985 17.3056 10.7504 17.1922C10.9999 17.0033 11.0324 17.0033 11.1626 17.1922C11.2277 17.3056 11.2928 17.5574 11.2928 17.7337Z" fill="#1A1A25"/>
<path d="M9.77342 26.9268C8.58022 27.1787 7.56057 27.972 6.85549 29.1683C6.51923 29.7476 5.54297 31.9639 5.54297 32.1402C5.54297 32.1906 8.2331 33.7394 9.82766 34.6209C10.3049 34.8854 10.8256 35.2002 10.9883 35.3135C11.2704 35.5402 11.2812 35.5402 11.509 35.2128C11.791 34.7846 12.5612 34.3565 13.0385 34.3565H13.4073L13.3747 30.9313C13.353 28.5009 13.2988 27.4557 13.212 27.355C12.8758 26.9772 10.728 26.7128 9.77342 26.9268Z" fill="#1A1A25"/>
<path d="M15.1973 30.2887C15.1973 31.1828 15.2298 32.6057 15.2623 33.4746L15.3383 35.0613L15.8806 35.4265C17.1281 36.2954 18.4732 38.4487 18.7877 40.0858C18.8854 40.5895 19.0047 40.8539 19.1999 41.0176C19.6989 41.4332 23.0724 43.2969 23.3219 43.2969C23.5931 43.2969 23.5931 43.2591 23.3436 41.9117C22.7578 38.8391 20.8053 34.6835 18.766 32.165C17.6162 30.7546 15.5444 28.6894 15.2623 28.6894C15.2298 28.6894 15.1973 29.4072 15.1973 30.2887Z" fill="#1A1A25"/>
<path d="M5.21875 34.7084C5.21875 35.3381 5.58756 37.6929 5.86959 38.8514C6.16247 40.0729 6.86754 42.1129 7.4533 43.4225C8.08244 44.8581 9.78547 47.4522 11.1739 49.127C12.2695 50.4366 13.9075 51.8848 14.6885 52.2248L14.9813 52.3633V48.6485V44.9462L14.3847 44.6314C13.1698 43.9892 12.4431 43.0573 11.5861 41.0677C10.9787 39.6699 10.8377 39.1536 10.7617 38.1462L10.6966 37.3403L8.09329 35.7914C6.66144 34.9351 5.42485 34.2299 5.35977 34.2299C5.27299 34.2299 5.21875 34.4062 5.21875 34.7084Z" fill="#1A1A25"/>
<path d="M13.0931 36.889C12.7242 37.3927 12.6592 37.7202 12.7351 38.7276C12.8544 40.5661 14.1561 42.6439 15.4795 43.1224C16.2062 43.3994 16.5533 43.2861 16.9005 42.6816C17.2259 42.115 17.2367 40.8809 16.933 39.8483C16.4232 38.1231 14.9046 36.5113 13.7656 36.4987C13.4619 36.4987 13.31 36.5868 13.0931 36.889Z" fill="#1A1A25"/>
<path d="M18.9937 43.3829C18.9937 43.5088 18.8418 43.8991 18.6683 44.2643C18.3103 44.9821 17.6161 45.5614 17.1171 45.5614H16.8242V49.3895V53.2177L17.1605 53.3562C17.7137 53.5829 19.1022 53.6584 19.7964 53.5073C21.4018 53.1673 22.2913 52.3236 23.1048 50.4347C23.6038 49.2762 23.658 49.0243 23.7665 47.8532C23.9401 45.8006 24.0594 46.0525 22.5516 45.2088C21.814 44.8058 20.7618 44.1762 20.1977 43.8236C19.6445 43.4584 19.1455 43.1688 19.0913 43.1688C19.0371 43.1688 18.9937 43.2695 18.9937 43.3829Z" fill="#1A1A25"/>
</svg>
