<svg width="180" height="58" viewBox="0 0 277 100" fill="none" xmlns="http://www.w3.org/2000/svg">
<path d="M9.88277 29.451L8.2788 36.255H4.16797L8.33313 18.5259H13.1709C15.3001 18.5259 16.8989 18.9372 17.9699 19.7625C19.0384 20.5878 19.5739 21.7959 19.5739 23.3895C19.5739 24.6675 19.2013 25.7645 18.4563 26.6829C17.7112 27.6013 16.6376 28.2817 15.2354 28.7266L18.7538 36.2575H14.2756L11.4842 29.4536H9.88277V29.451ZM10.5968 26.3957H11.6471C12.8243 26.3957 13.7401 26.1655 14.3972 25.705C15.0543 25.2445 15.3803 24.5408 15.3803 23.5939C15.3803 22.9316 15.1655 22.4349 14.7387 22.1012C14.3118 21.77 13.6392 21.6045 12.7234 21.6045H11.7248L10.5968 26.3957Z" fill="#009DEA"/>
<path d="M30.8822 36.255H19.8691L24.0343 18.5259H35.0603L34.3334 21.6071H27.4311L26.5282 25.5006H32.957L32.2146 28.5818H25.7883L24.7095 33.1531H31.6118L30.8822 36.255Z" fill="#009DEA"/>
<path d="M44.3082 31.7794L51.7357 18.5259H57.4376L53.2724 36.255H49.4979L51.4511 27.8626C51.9271 25.8654 52.398 24.0829 52.8662 22.5151H52.799L45.1283 36.255H41.3409L40.5182 22.5151H40.4639C40.3656 23.2266 40.1948 24.1605 39.9517 25.3169C39.7085 26.4733 38.8677 30.1185 37.4319 36.255H33.7246L37.8898 18.5259H43.3355L44.2513 31.7794H44.3082Z" fill="#009DEA"/>
<path d="M67.5481 32.0354H61.1736L58.8556 36.2549H54.543L64.8679 18.4534H69.8946L71.8762 36.2549H67.8741L67.5481 32.0354ZM67.3463 28.8818L66.9971 24.6364C66.9065 23.5783 66.8625 22.5539 66.8625 21.5682V21.131C66.4667 22.1011 65.9778 23.1282 65.3931 24.2122L62.8578 28.8818H67.3463Z" fill="#009DEA"/>
<path d="M89.2347 36.255H84.6246L79.8256 22.8437H79.7454L79.691 23.2317C79.4039 24.978 79.1064 26.538 78.8011 27.9117L76.8479 36.255H73.1406L77.3058 18.5259H82.1177L86.6994 31.5853H86.7537C86.8624 30.9722 87.0357 30.0926 87.2789 28.9543C87.5221 27.816 88.3292 24.339 89.7055 18.5259H93.3998L89.2347 36.255Z" fill="#009DEA"/>
<path d="M11.147 61.6082H7.03619L10.4589 47.0069H5.7168L6.45928 43.8792H20.0724L19.3299 47.0069H14.5723L11.147 61.6082Z" fill="#1A1A25"/>
<path d="M23.4277 54.8043L21.8237 61.6082H17.7129L21.878 43.8792H26.7158C28.845 43.8792 30.4438 44.2905 31.5148 45.1158C32.5833 45.941 33.1188 47.1492 33.1188 48.7428C33.1188 50.0208 32.7463 51.1177 32.0012 52.0361C31.2561 52.9545 30.1825 53.6349 28.7803 54.0799L32.2987 61.6108H27.8231L25.0317 54.8069H23.4277V54.8043ZM24.1417 51.749H25.1921C26.3692 51.749 27.285 51.5187 27.9421 51.0582C28.5992 50.5977 28.9252 49.8941 28.9252 48.9472C28.9252 48.2849 28.7105 47.7882 28.2836 47.4545C27.8567 47.1233 27.1841 46.9577 26.2683 46.9577H25.2697L24.1417 51.749Z" fill="#1A1A25"/>
<path d="M44.052 57.3887H37.6775L35.3595 61.6082H31.0469L41.3718 43.8066H46.3985L48.3801 61.6082H44.378L44.052 57.3887ZM43.8502 54.2351L43.501 49.9897C43.4104 48.9316 43.3664 47.9071 43.3664 46.9215V46.4842C42.9706 47.4544 42.4817 48.4815 41.897 49.5654L39.3617 54.2351H43.8502Z" fill="#1A1A25"/>
<path d="M65.7425 61.6082H61.1324L56.3334 48.1969H56.2532L56.1989 48.585C55.9117 50.3313 55.6142 51.8913 55.3089 53.265L53.3557 61.6082H49.6484L53.8136 43.8792H58.6255L63.2072 56.9386H63.2615C63.3702 56.3229 63.5435 55.4459 63.7867 54.3076C64.0299 53.1693 64.837 49.6923 66.2134 43.8792H69.9077L65.7425 61.6082Z" fill="#1A1A25"/>
<path d="M81.4167 56.3692C81.4167 58.0586 80.7518 59.3961 79.4221 60.3766C78.0923 61.3597 76.2892 61.8512 74.0177 61.8512C72.0309 61.8512 70.4321 61.4864 69.2188 60.7595V57.4377C70.9521 58.3121 72.5612 58.7467 74.0436 58.7467C75.05 58.7467 75.8364 58.576 76.403 58.2319C76.9696 57.8878 77.2516 57.417 77.2516 56.8194C77.2516 56.4727 77.1921 56.1674 77.0705 55.9036C76.9489 55.6397 76.7755 55.3965 76.5505 55.1688C76.3254 54.9412 75.7692 54.5298 74.8792 53.9322C73.64 53.1328 72.7682 52.3386 72.2637 51.5547C71.7592 50.7708 71.5083 49.9249 71.5083 49.0194C71.5083 47.9768 71.7877 47.0455 72.3439 46.2254C72.9001 45.4053 73.6944 44.7663 74.724 44.3084C75.7536 43.8505 76.9359 43.6228 78.276 43.6228C80.2267 43.6228 82.0091 44.0238 83.6261 44.8232L82.1566 47.6483C80.7544 47.0506 79.4609 46.7506 78.276 46.7506C77.531 46.7506 76.9178 46.9316 76.4418 47.2964C75.9658 47.6612 75.7278 48.1424 75.7278 48.74C75.7278 49.2341 75.8752 49.6636 76.1728 50.0309C76.4703 50.3983 77.1351 50.8847 78.1674 51.4926C79.2539 52.1394 80.0689 52.8534 80.607 53.6321C81.1451 54.4108 81.4167 55.3266 81.4167 56.3692Z" fill="#1A1A25"/>
<path d="M93.484 57.1326L100.911 43.8792H106.613L102.448 61.6082H98.6737L100.627 53.2158C101.103 51.2186 101.574 49.4361 102.042 47.8684H101.975L94.3041 61.6082H90.5167L89.694 47.8684H89.6397C89.5414 48.5798 89.3706 49.5138 89.1274 50.6702C88.8842 51.8266 88.0435 55.4717 86.6076 61.6082H82.9004L87.0655 43.8792H92.5113L93.4271 57.1326H93.484Z" fill="#1A1A25"/>
<path d="M106.088 61.6082L110.294 43.8792H114.405L110.199 61.6082H106.088Z" fill="#1A1A25"/>
<path d="M125.901 56.3692C125.901 58.0586 125.236 59.3961 123.906 60.3766C122.577 61.3597 120.774 61.8512 118.502 61.8512C116.515 61.8512 114.916 61.4864 113.703 60.7595V57.4377C115.436 58.3121 117.046 58.7467 118.528 58.7467C119.534 58.7467 120.321 58.576 120.887 58.2319C121.454 57.8878 121.736 57.417 121.736 56.8194C121.736 56.4727 121.676 56.1674 121.555 55.9036C121.433 55.6397 121.26 55.3965 121.035 55.1688C120.81 54.9412 120.254 54.5298 119.364 53.9322C118.124 53.1328 117.253 52.3386 116.748 51.5547C116.244 50.7708 115.993 49.9249 115.993 49.0194C115.993 47.9768 116.272 47.0455 116.828 46.2254C117.385 45.4053 118.179 44.7663 119.208 44.3084C120.238 43.8505 121.42 43.6228 122.76 43.6228C124.711 43.6228 126.494 44.0238 128.11 44.8232L126.641 47.6483C125.239 47.0506 123.945 46.7506 122.76 46.7506C122.015 46.7506 121.402 46.9316 120.926 47.2964C120.45 47.6612 120.212 48.1424 120.212 48.74C120.212 49.2341 120.36 49.6636 120.657 50.0309C120.955 50.3983 121.62 50.8847 122.652 51.4926C123.738 52.1394 124.553 52.8534 125.091 53.6321C125.629 54.4108 125.901 55.3266 125.901 56.3692Z" fill="#1A1A25"/>
<path d="M139.423 56.3692C139.423 58.0586 138.758 59.3961 137.428 60.3766C136.098 61.3597 134.295 61.8512 132.024 61.8512C130.037 61.8512 128.438 61.4864 127.225 60.7595V57.4377C128.958 58.3121 130.567 58.7467 132.049 58.7467C133.056 58.7467 133.842 58.576 134.409 58.2319C134.975 57.8878 135.257 57.417 135.257 56.8194C135.257 56.4727 135.198 56.1674 135.076 55.9036C134.955 55.6397 134.781 55.3965 134.556 55.1688C134.331 54.9412 133.775 54.5298 132.885 53.9322C131.646 53.1328 130.774 52.3386 130.27 51.5547C129.765 50.7708 129.514 49.9249 129.514 49.0194C129.514 47.9768 129.794 47.0455 130.35 46.2254C130.906 45.4053 131.7 44.7663 132.73 44.3084C133.76 43.8505 134.942 43.6228 136.282 43.6228C138.233 43.6228 140.015 44.0238 141.632 44.8232L140.162 47.6483C138.76 47.0506 137.467 46.7506 136.282 46.7506C135.537 46.7506 134.924 46.9316 134.448 47.2964C133.972 47.6612 133.734 48.1424 133.734 48.74C133.734 49.2341 133.881 49.6636 134.179 50.0309C134.476 50.3983 135.141 50.8847 136.173 51.4926C137.26 52.1394 138.075 52.8534 138.613 53.6321C139.151 54.4108 139.423 55.3266 139.423 56.3692Z" fill="#1A1A25"/>
<path d="M140.906 61.6082L145.113 43.8792H149.224L145.017 61.6082H140.906Z" fill="#1A1A25"/>
<path d="M167.271 50.233C167.271 52.5199 166.826 54.5689 165.936 56.3746C165.046 58.1804 163.827 59.5464 162.283 60.4673C160.738 61.3883 158.958 61.8488 156.946 61.8488C154.646 61.8488 152.85 61.2538 151.562 60.0612C150.274 58.8686 149.627 57.2128 149.627 55.094C149.627 52.952 150.072 50.9806 150.962 49.1826C151.852 47.3846 153.078 46.0031 154.641 45.0407C156.203 44.0784 158.012 43.5972 160.058 43.5972C162.35 43.5972 164.125 44.1793 165.382 45.3434C166.639 46.5076 167.271 48.14 167.271 50.233ZM159.724 46.7275C158.638 46.7275 157.639 47.0975 156.731 47.8373C155.823 48.5772 155.112 49.594 154.594 50.8875C154.077 52.181 153.818 53.5832 153.818 55.0966C153.818 56.2841 154.115 57.1818 154.713 57.7898C155.311 58.3951 156.154 58.7004 157.241 58.7004C158.327 58.7004 159.318 58.3486 160.213 57.6449C161.108 56.9412 161.807 55.9478 162.309 54.662C162.811 53.3762 163.064 51.9327 163.064 50.3339C163.064 49.1852 162.772 48.2978 162.187 47.6718C161.605 47.0405 160.782 46.7275 159.724 46.7275Z" fill="#1A1A25"/>
<path d="M183.826 61.6082H179.216L174.417 48.1969H174.337L174.283 48.585C173.996 50.3313 173.698 51.8913 173.393 53.265L171.44 61.6082H167.732L171.898 43.8792H176.71L181.291 56.9386H181.346C181.454 56.3229 181.627 55.4459 181.871 54.3076C182.114 53.1667 182.921 49.6923 184.297 43.8792H187.992L183.826 61.6082Z" fill="#1A1A25"/>
<path d="M206.456 32.848C206.058 32.6643 205.24 32.4677 204.661 32.4211C202.4 32.24 202.294 32.1753 199.921 29.9168C198.773 28.8251 197.722 27.8963 197.614 27.873C197.414 27.9377 194.496 30.8326 194.307 31.1327C194.217 31.2776 194.843 31.9321 196.098 33.1946C198.266 35.3781 198.553 35.8852 198.752 37.7685C198.993 40.0193 199.184 40.4073 201.073 42.3088C202.457 43.7032 202.736 43.9412 202.94 43.8455C203.243 43.7162 210.135 36.8734 210.267 36.5733C210.438 36.1878 207.488 33.3033 206.456 32.848Z" fill="#1A1A25"/>
<path d="M232.668 71.8528C232.463 71.5191 232.476 71.4854 233.307 70.7249C234.116 69.985 234.171 69.9539 234.494 70.1479C234.794 70.342 234.882 70.3006 235.41 69.7754C235.94 69.2502 235.982 69.1649 235.79 68.8622C235.599 68.5595 235.64 68.4741 236.3 67.7549C236.96 67.0357 237.045 66.9943 237.529 67.0486C237.842 67.0823 238.077 67.0176 238.1 66.9115C238.178 66.6218 236.934 65.3903 236.685 65.5068C236.577 65.5482 235.27 66.8262 233.767 68.3396L231.043 71.1077L231.741 71.8088C232.311 72.3806 232.471 72.4789 232.655 72.3625C232.807 72.2512 232.807 72.1012 232.668 71.8528Z" fill="#1A1A25"/>
<path d="M196.384 28.1267C196.322 27.9895 196.063 27.5446 195.603 27.0789C194.863 26.3338 194.798 26.2898 194.441 26.4502C194.043 26.6313 194.053 26.6417 193.148 25.7078C193.145 25.7052 193.14 25.7 193.137 25.6974C192.576 25.0118 192.144 24.8282 191.657 25.3973C191.435 25.656 191.438 26.0389 191.663 26.295L192.126 26.8202C192.886 27.6739 192.961 27.8136 192.811 28.049C192.553 28.4138 192.602 28.6648 193.378 29.3762C194.498 30.4033 194.392 30.2946 195.473 29.221C196.053 28.6441 196.443 28.256 196.384 28.1267Z" fill="#1A1A25"/>
<path d="M238.686 62.3687L238.635 62.1307C238.583 61.9056 238.389 61.5796 238.195 61.3856C237.786 60.9975 237.693 60.5344 237.983 60.2447C238.316 59.911 238.213 59.4168 237.664 58.8658C237.054 58.2501 237.023 57.7663 237.54 57.2515C237.768 57.0264 237.887 56.7134 237.877 56.3796C237.89 55.8726 237.815 55.7769 236.7 54.6515C236.172 54.1186 235.877 53.8029 235.74 53.6063L234.816 52.7215L230.982 49.0039C230.982 49.0039 230.312 48.3339 229.647 49.1747C229.647 49.1747 229.458 49.48 229.171 49.6223C229.114 49.6585 229.05 49.6818 228.985 49.6843C228.76 49.7231 228.499 49.6404 228.227 49.2782C227.813 48.9237 227.114 48.233 225.857 46.9653C222.854 43.9411 222.898 44.0265 223.643 42.9839C224.271 42.1043 224.271 42.125 220.29 38.159C216.202 34.1077 216.567 34.3017 215.271 35.5901C214.386 36.4697 213.856 36.6068 213.354 36.0997C213.204 35.9497 212.839 35.8177 212.536 35.8177L212.115 35.8151C212.04 35.8151 211.967 35.8436 211.916 35.8979L206.941 40.8987L201.979 45.8891C201.919 45.9486 201.888 46.034 201.898 46.1194L201.935 46.4479C201.966 46.867 202.18 47.105 204.529 49.4722L206.946 51.904C207.029 51.9868 207.052 52.1136 207 52.2197L206.876 52.4835L206.749 52.7319C206.695 52.8405 206.716 52.9699 206.801 53.0553L211.217 57.505L215.68 61.9987C215.742 62.0608 215.77 62.1462 215.757 62.2341L215.708 62.5912C215.675 62.8809 215.566 63.1836 215.457 63.2897C215.359 63.3854 215.284 63.6337 215.294 63.8381C215.315 64.1822 215.711 64.6246 218.854 67.7911C222.147 71.1077 222.416 71.3561 222.76 71.338C222.975 71.338 223.234 71.2319 223.353 71.1129C223.785 70.6835 224.248 70.7611 224.978 71.3664C225.632 71.9175 225.686 71.9278 226.312 71.7364C226.915 71.545 227.003 71.5656 227.583 72.0417C227.937 72.334 228.312 72.5177 228.452 72.4866C228.612 72.4556 230.84 70.3316 233.714 67.4781L238.609 62.6196C238.679 62.5601 238.707 62.4618 238.686 62.3687ZM208.304 41.0099C208.322 40.9479 208.353 40.8909 208.4 40.8418C208.55 40.6943 208.79 40.6943 208.938 40.8444L215.589 47.5448C215.737 47.6949 215.737 47.9355 215.587 48.083C215.437 48.2304 215.196 48.2304 215.048 48.0804L213.605 46.6264C213.103 46.1427 212.438 45.4907 211.546 44.6111C208.304 41.3877 208.123 41.2066 208.304 41.0099ZM206.884 43.4211C207.034 43.2736 207.274 43.2736 207.422 43.4237L214.073 50.1241C214.221 50.2742 214.221 50.5148 214.071 50.6622C213.92 50.8097 213.68 50.8097 213.532 50.6597L206.881 43.9592C206.734 43.8091 206.734 43.5685 206.884 43.4211ZM212.016 53.0216L205.365 46.3212C205.218 46.1711 205.218 45.9305 205.368 45.7831C205.518 45.6356 205.758 45.6356 205.906 45.7857L212.557 52.4861C212.705 52.6362 212.705 52.8768 212.555 53.0242C212.404 53.1717 212.164 53.1717 212.016 53.0216ZM230.434 65.5249C230.315 65.6439 230.121 65.6439 230.004 65.5223C229.885 65.4033 229.885 65.2093 230.007 65.0928L235.949 59.1944C236.068 59.0753 236.262 59.0754 236.379 59.1969C236.498 59.3159 236.498 59.51 236.376 59.6264L230.434 65.5249ZM228.263 70.6835C228.144 70.8025 227.95 70.8025 227.834 70.6809C227.715 70.5619 227.715 70.3678 227.836 70.2514L236.48 61.6702C236.599 61.5512 236.793 61.5512 236.909 61.6727C237.028 61.7918 237.028 61.9858 236.906 62.1022L228.263 70.6835Z" fill="#1A1A25"/>
<path d="M224.452 42.1379C224.452 42.3966 224.276 42.826 224.061 43.1054L223.828 43.4159C223.746 43.5271 223.756 43.6823 223.854 43.7806L226.527 46.4712C227.688 47.6405 228.374 48.3416 228.749 48.7581C228.749 48.7581 229.344 49.2316 229.727 48.6339C229.727 48.6339 230.64 47.9199 231.181 48.2511L235.938 53.0449C236.021 52.9517 236.06 52.7034 236.019 52.4938C235.957 52.1498 235.558 51.6841 233.683 49.793C231.579 47.6742 231.388 47.5008 230.925 47.4465C230.666 47.4232 230.288 47.4775 230.107 47.594C229.805 47.7647 229.709 47.7544 229.44 47.418C229.16 47.0714 229.173 46.9963 229.476 46.6316C229.66 46.4065 229.823 46.1167 229.833 45.9977C229.843 45.8787 229.931 45.7934 230.05 45.783C230.159 45.783 232.079 44.3705 234.314 42.6449C237.811 39.944 238.427 39.5042 238.751 39.5508C238.945 39.5741 239.452 39.4137 239.85 39.1886C240.432 38.8885 240.626 38.8471 240.81 39.0308C241.12 39.3438 242.241 39.2843 243.568 38.8678C245.022 38.4099 245.379 38.1848 245.64 37.5407C245.956 36.7775 245.699 36.1514 244.53 34.8449L243.63 33.8179C243.575 33.7558 243.498 33.7222 243.415 33.7222L242.908 33.7299C242.111 33.7273 241.506 34.1335 240.199 35.603C239.679 36.2032 238.968 36.9974 238.621 37.3854C238.275 37.7502 237.982 38.1486 237.951 38.2443C237.93 38.353 236.06 39.8845 233.814 41.6411C231.608 43.3486 229.73 44.8957 229.559 45.0923C229.551 45.1 229.546 45.1078 229.541 45.1181C229.414 45.3199 229.297 45.3484 229.119 45.2527C228.935 45.1337 228.731 45.1854 228.408 45.4648C228.04 45.7856 227.9 45.8192 227.675 45.6356C227.29 45.3536 227.269 44.8801 227.613 44.7094C227.991 44.505 227.994 44.0549 227.585 43.6435C227.199 43.2555 226.757 43.2218 226.488 43.553C226.141 43.9824 226.012 44.0031 225.701 43.6901C225.443 43.4314 225.422 43.2787 225.598 42.8493C225.717 42.5595 225.774 42.1818 225.72 41.9982C225.655 41.7834 224.755 40.79 223.319 39.3413C221.226 37.2354 220.99 37.0388 220.657 37.0491C220.442 37.0491 220.248 37.0905 220.204 37.1345C220.17 37.1655 221.115 38.2029 222.305 39.4473C224.325 41.5558 224.465 41.7188 224.452 42.1379Z" fill="#1A1A25"/>
<path d="M267.457 55.6631L276.184 56.5634L276.178 43.6953L267.507 44.3654C267.064 41.0565 266.226 37.8745 265.041 34.8657L273.959 30.8092L267.452 19.7056L259.582 25.1669C257.453 22.3573 254.97 19.8324 252.196 17.6592L257.779 10.149L246.714 3.5779L242.534 12.0298C239.525 10.7932 236.338 9.90324 233.019 9.41171L234.043 0.080199L221.175 0L221.832 9.28753C218.309 9.7325 214.927 10.625 211.743 11.9082L208.064 3.30884L196.74 9.61867L202.24 17.3152C200.81 18.4069 199.449 19.5866 198.176 20.8542L208.31 29.2415C213.246 24.7607 219.801 22.0288 226.993 22.0288C242.353 22.0288 254.804 34.4803 254.804 49.8396C254.804 65.1989 242.353 77.6504 226.993 77.6504C219.214 77.6504 212.182 74.4554 207.135 69.3072H191.044H0L198.691 79.3269L198.675 79.3062C199.627 80.222 200.626 81.0912 201.663 81.9113L196.05 89.6492L207.189 96.0936L211.28 87.5796C214.34 88.8576 217.589 89.7734 220.973 90.2727L220.262 100L233.125 99.6119L232.136 90.3943C235.683 89.9493 239.088 89.049 242.291 87.7555L246.515 96.5592L257.482 89.8277L251.958 82.2062C254.675 80.1081 257.122 77.6737 259.236 74.9677L266.505 80.6644L273.356 69.7703L264.847 65.2869C266.091 62.2445 266.979 59.0185 267.457 55.6631Z" fill="#009DEA"/>
</svg>
