<svg width="328" height="63" viewBox="0 0 328 63" fill="none" xmlns="http://www.w3.org/2000/svg">
<path d="M58.5325 1.89693C57.86 2.43841 55.441 4.20138 54.1719 5.07027C53.7706 5.34731 53.0872 6.00212 52.6533 6.51842C51.8831 7.43768 51.8723 7.45027 51.6553 7.22361C51.5252 7.08509 51.3733 6.79546 51.2974 6.56879C51.2214 6.32953 51.1021 6.14064 51.0153 6.14064C50.7767 6.14064 50.1475 6.94657 50.0716 7.34953C50.0391 7.55102 49.9414 8.02954 49.8547 8.40731C49.7679 8.83546 49.7462 9.15028 49.8113 9.23843C49.8655 9.31398 50.4838 9.88065 51.1889 10.4977C53.5319 12.5629 55.8749 14.9429 56.5692 15.9629C57.8491 17.8392 58.2397 19.2873 58.3373 22.4229C58.3915 24.0473 58.4349 24.5636 58.5542 24.614C58.6302 24.6518 59.0098 24.5888 59.4003 24.4755C59.78 24.3622 60.2681 24.274 60.485 24.274C60.9081 24.274 60.9732 24.0725 60.702 23.5185C60.6152 23.3422 60.5501 23.1281 60.5393 23.0399C60.5393 22.8511 61.1793 22.511 61.5372 22.511C61.6783 22.511 62.0796 22.3096 62.4376 22.0451C63.4572 21.3273 67.4056 18.6451 68.2409 18.1162C68.3602 18.0407 68.4036 17.7888 68.4036 17.1844C68.4036 16.731 68.371 16.3281 68.3385 16.2777C68.2734 16.2021 65.1928 18.3681 62.8715 20.131C61.7325 20.9873 61.342 21.0755 60.984 20.5466C60.8539 20.3577 60.7562 20.1059 60.7562 19.9799C60.7562 19.7407 61.1793 19.2999 61.5481 19.1614C61.7867 19.0733 63.2294 18.091 65.5833 16.4036C66.245 15.9251 67.1345 15.3458 67.5683 15.1066C67.9914 14.8673 68.3494 14.6155 68.3494 14.5273C68.3494 14.2755 68.1107 13.3814 68.0022 13.2303C67.9155 13.1044 67.7961 13.1295 67.449 13.3436C66.7548 13.7466 64.4552 15.3584 62.6979 16.6681C61.8193 17.3229 61.0166 17.8518 60.8972 17.8518C60.6044 17.8518 60.2139 17.3355 60.2139 16.9325C60.2139 16.5421 60.2356 16.5296 62.1121 15.2199C62.8932 14.6784 63.7935 14.0488 64.1189 13.797C64.4443 13.5577 65.3555 12.9532 66.1473 12.4495L67.5792 11.5303L67.2646 10.7873C67.0802 10.3844 66.9175 10.0444 66.8958 10.0444C66.7982 10.0444 62.622 12.991 61.2227 14.0362C60.1488 14.8547 59.5739 15.0436 59.2593 14.6784C59.064 14.4518 59.0966 13.8851 59.3244 13.5829C59.4979 13.3436 62.3833 11.2407 64.1189 10.0947C64.5636 9.80509 65.2145 9.37695 65.5507 9.15028L66.169 8.74731L65.9629 8.29398C65.8436 8.04213 65.6592 7.70213 65.5507 7.53842L65.3446 7.2362L64.7047 7.7399C64.3575 8.01694 63.2837 8.79768 62.3291 9.47769C61.3745 10.1451 60.1813 11.0392 59.6823 11.4547C58.6193 12.3362 58.1637 12.4873 57.8925 12.0466C57.6539 11.6562 57.6756 11.1399 57.9251 10.8755C58.0444 10.7495 58.5868 10.334 59.1508 9.93102C62.0471 7.85324 63.0559 7.13546 63.7718 6.65694C64.6287 6.07768 64.6396 6.05249 64.0647 5.34731C63.7067 4.91916 63.5548 4.91916 62.9365 5.37249C62.6654 5.56138 61.5155 6.39249 60.3766 7.21101C59.2485 8.01694 57.9468 8.99917 57.4803 9.36435C57.0139 9.75472 56.5366 10.0444 56.3848 10.0444C56.0702 10.0444 55.7665 9.6288 55.7665 9.22583C55.7665 8.70954 55.9617 8.54583 60.4959 5.38508C61.3854 4.75545 62.264 4.10064 62.4484 3.93693L62.763 3.62212L62.3833 3.24434C61.9386 2.8036 61.8193 2.791 61.4288 3.09323C61.2661 3.23175 60.6478 3.65989 60.0512 4.07545C58.2397 5.30953 55.4193 7.3999 55.0505 7.77768C54.5082 8.33176 54.2478 8.36954 53.955 7.97916C53.6512 7.56361 53.6404 7.27398 53.9224 6.87101C54.1502 6.51842 54.237 6.45546 57.0139 4.5036C60.0945 2.32508 60.5718 1.83397 60.0078 1.48137C59.6173 1.24211 59.1942 1.35545 58.5325 1.89693Z" fill="#1A1A25"/>
<path d="M69.8143 1.79765C67.3736 3.28358 65.8442 4.27839 65.5513 4.56802C65.5404 4.58062 65.7032 4.81987 65.9201 5.08432C67.6774 7.26284 68.9574 9.93248 69.3479 12.2117C69.3696 12.388 69.478 12.3503 69.977 11.9599C70.3133 11.708 71.2678 10.9651 72.1248 10.3229C73.1227 9.56729 73.7627 8.98803 73.9363 8.6984C74.8366 7.1621 74.381 4.51765 72.9383 2.81765C71.8644 1.55838 70.7906 1.20579 69.8143 1.79765Z" fill="#1A1A25"/>
<path d="M31.2413 2.34862C30.4928 2.63825 29.8854 3.21751 29.7878 3.75899C29.6793 4.30047 30.0698 5.18196 30.5688 5.55974C31.3823 6.18937 32.7274 6.25233 33.6169 5.71085C34.0074 5.47159 34.4629 4.89233 34.604 4.46418C34.8209 3.79677 34.3328 2.95306 33.4867 2.5501C32.9986 2.31084 31.6535 2.18491 31.2413 2.34862Z" fill="#1A1A25"/>
<path d="M37.3811 3.25666C37.0882 3.48333 36.8279 3.67222 36.8062 3.68481C36.7953 3.6974 36.8604 4.05 36.9581 4.45296C37.0882 5.00704 37.1425 5.97667 37.1859 8.34408C37.2401 11.3159 37.2292 11.53 37.0123 12.1848C36.893 12.5752 36.6543 13.0663 36.4916 13.293C36.0794 13.8345 34.5174 14.8922 33.6496 15.2197C31.9032 15.8745 29.5819 15.2952 28.2151 13.8596C27.2931 12.9026 27.1955 12.5752 27.1521 10.2582C27.1304 9.17519 27.0653 8.28112 27.0111 8.28112C26.5663 8.28112 20.4593 12.5626 19.5156 13.5448C19.4071 13.6456 19.3203 13.7715 19.3203 13.8219C19.3203 13.9478 20.9691 15.3456 23.0084 16.9448C26.2409 19.4886 27.369 20.4204 29.9507 22.6493C34.9513 26.9686 35.2442 27.296 36.1771 29.4997C37.0557 31.6027 37.0123 30.9604 37.0448 44.7368C37.0665 51.4486 37.0448 57.9968 37.0014 59.2812C36.9689 60.5657 36.9364 61.6235 36.9472 61.6361C36.9581 61.6612 37.9886 60.9561 39.236 60.0746C40.4834 59.2057 42.5336 57.7827 43.781 56.9138C45.0393 56.0449 46.9159 54.7353 47.9572 53.9923C48.9986 53.2494 50.4847 52.242 51.244 51.7509C52.8385 50.7183 54.9646 49.1442 55.6155 48.5146C55.8649 48.2753 56.2012 47.7842 56.3531 47.419L56.6351 46.7642V35.116C56.6243 28.6938 56.5809 22.75 56.5375 21.8811C56.3965 19.5641 55.9192 18.2797 54.6392 16.7937C53.9016 15.9374 51.3525 13.4819 49.8013 12.1219C49.1721 11.5678 48.2393 10.7241 47.7295 10.2204C45.8746 8.44482 41.5139 4.98185 39.6048 3.79815C38.7913 3.28185 38.0753 2.86629 38.0211 2.86629C37.9669 2.86629 37.6848 3.04259 37.3811 3.25666ZM42.0021 15.2826C43.3146 15.736 44.5403 16.7811 44.9308 17.7885C45.202 18.4685 45.202 19.753 44.9308 20.4582C44.6922 21.0626 43.9871 21.8937 43.3471 22.3345C41.297 23.7197 38.3465 23.2663 36.8062 21.3271C35.7215 19.9419 35.6998 18.0404 36.7628 16.5797C37.0557 16.1641 38.2923 15.396 38.9323 15.2197C39.6265 15.0308 41.3512 15.0685 42.0021 15.2826ZM51.1355 29.8901C51.8297 30.1671 52.5457 30.9227 52.8385 31.7286C53.1965 32.6982 53.1206 34.1338 52.6433 35.2671C52.0033 36.7782 50.3762 38.1256 49.2155 38.1256C48.3044 38.1256 47.8488 37.9116 47.2305 37.1938C46.5146 36.3627 46.2868 35.5316 46.3518 34.0456C46.4061 32.9249 46.699 32.0938 47.3064 31.2752C47.6861 30.7841 48.6081 30.0412 49.0962 29.8397C49.5843 29.6382 50.5714 29.6634 51.1355 29.8901ZM45.6251 42.2686C48.1959 43.6538 47.6318 48.4642 44.6922 50.2271C44.0739 50.6049 43.9003 50.6427 43.1193 50.6553C42.3492 50.6553 42.1973 50.6175 41.8068 50.3153C41.297 49.9249 40.7329 49.0057 40.5702 48.2753C40.375 47.4568 40.516 45.8701 40.8522 44.8879C41.3946 43.3138 43.0326 42.0419 44.5403 42.0419C44.9525 42.0419 45.3539 42.1175 45.6251 42.2686Z" fill="#1A1A25"/>
<path d="M39.6047 17.0473C39.5179 17.0851 39.2359 17.1984 38.9756 17.3117C38.4224 17.5384 37.8691 18.3191 37.8691 18.8858C37.8691 20.8377 41.0366 21.8702 42.5335 20.4221C43.9436 19.0369 42.9023 17.1858 40.6352 17.0347C40.1579 16.9969 39.6915 17.0095 39.6047 17.0473Z" fill="#1A1A25"/>
<path d="M49.4214 31.6923C49.1828 31.8183 48.8574 32.0953 48.6838 32.2968C48.3475 32.7123 47.957 33.8961 47.957 34.4753C47.957 35.382 48.5862 36.2383 49.2696 36.2383C49.6167 36.2383 50.4628 35.6212 50.7448 35.1553C51.1678 34.4249 51.4499 33.4553 51.3848 32.939C51.2872 32.2716 51.1136 31.982 50.6472 31.6923C50.1482 31.4027 49.9746 31.3901 49.4214 31.6923Z" fill="#1A1A25"/>
<path d="M43.6617 44.1476C43.1193 44.4498 42.501 45.2683 42.3383 45.9231C41.937 47.4594 42.4143 48.832 43.3471 48.832C44.562 48.832 45.8312 46.515 45.4623 44.9409C45.2563 44.0594 44.4752 43.7194 43.6617 44.1476Z" fill="#1A1A25"/>
<path d="M28.9727 9.11391C28.9727 10.9524 29.016 11.8465 29.1137 12.0606C29.1896 12.2621 29.5584 12.5643 30.1116 12.8791C30.9577 13.3702 30.9903 13.3828 32.1726 13.3828C33.2573 13.3828 33.4309 13.345 34.0167 13.0302C34.3746 12.8413 34.8302 12.5013 35.0255 12.2747L35.3726 11.8843V9.26502C35.3726 7.82947 35.3292 6.64576 35.275 6.64576C35.2316 6.64576 35.0038 6.80946 34.776 7.02354C34.277 7.47687 33.3224 7.90502 32.5848 7.99317C31.5109 8.13169 30.1008 7.64058 29.3632 6.89761L28.9727 6.49465V9.11391Z" fill="#1A1A25"/>
<path d="M11.629 12.3744C10.7395 12.6641 10.0345 13.1678 9.39448 13.9611C8.58093 14.9937 8.45076 15.4848 8.38568 17.89L8.34229 19.8671L8.03856 20.1189C7.87585 20.2574 7.7023 20.3708 7.65891 20.3708C7.52874 20.3708 4.84945 22.5367 4.39386 23.0152C4.15522 23.2671 3.51523 23.7834 2.97286 24.1485C2.38711 24.5389 1.93152 24.9419 1.86644 25.1182C1.72542 25.4834 1.71458 26.5411 1.84474 27.2211C1.89898 27.4856 1.92067 27.7752 1.88813 27.8634C1.86644 27.9641 1.51932 28.1908 1.13967 28.3797C0.326118 28.7826 0.120019 29.11 0.120019 30.0293C0.120019 30.7849 0.412897 31.5278 0.976957 32.2456C1.22645 32.5478 1.4217 32.8626 1.4217 32.9508C1.4217 33.0263 1.15051 33.2656 0.825095 33.4797C0.0983243 33.9582 -0.010149 34.1723 0.000698367 35.1167C0.0115457 36.3634 0.35866 37.056 1.2156 37.5597C1.96406 38.0004 2.03999 38.1767 1.67119 38.5293C0.933568 39.2345 0.662385 39.6501 0.662385 40.0782C0.662385 40.6701 1.07458 42.1308 1.31322 42.4078C1.4217 42.5338 1.85559 42.7604 2.27864 42.9116C3.29828 43.2641 3.35252 43.4153 2.92948 44.473C2.65829 45.153 2.60406 45.4049 2.66914 45.7701C2.78846 46.513 3.01625 46.9034 3.6454 47.4449C3.97082 47.7219 4.242 47.9738 4.242 47.9864C4.242 48.339 4.53488 49.636 4.68674 49.9886C4.92538 50.5301 5.55453 50.996 6.35723 51.2227C7.11654 51.4242 7.27925 51.6382 7.27925 52.4064C7.2901 53.7286 8.10365 54.9627 9.19923 55.3153C10.4792 55.7308 10.5985 55.8568 11.0324 57.2042C11.4555 58.5138 12.5077 59.282 13.8744 59.282C14.4493 59.282 14.471 59.2946 15.1978 60.1131C16.0981 61.1205 16.532 61.2968 18.0289 61.2968C18.8425 61.2968 19.233 61.3597 19.6994 61.5612C20.372 61.8509 21.012 61.8886 21.717 61.6746C23.2248 61.2212 24.7977 60.516 26.4465 59.559C27.477 58.9671 28.3448 58.5138 28.3773 58.5516C28.4207 58.5894 28.399 58.9042 28.3556 59.2316C28.3014 59.5716 28.2797 59.9368 28.3014 60.0627C28.3231 60.176 28.7678 60.516 29.3427 60.8309C29.8959 61.1457 30.6552 61.6368 31.024 61.9138C32.2606 62.8331 33.443 62.8709 34.3325 62.0272C35.1677 61.2338 35.1026 62.4931 35.1135 46.9412C35.1135 38.9197 35.0809 32.7115 35.0267 32.2708C34.9616 31.8552 34.7013 30.8982 34.4193 30.13C33.8226 28.4678 33.5732 28.1656 31.6315 26.6041C30.8613 25.9871 29.0715 24.5515 27.6722 23.4056C26.2729 22.2597 24.3746 20.7485 23.4635 20.0308C22.5523 19.3256 21.6736 18.6204 21.5109 18.4819C20.6106 17.6885 18.8316 16.1648 17.9096 15.3967C17.3347 14.9056 16.4669 14.1752 16.0005 13.7596C14.4059 12.3493 13.0392 11.9211 11.629 12.3744ZM14.97 18.1545C15.2737 18.5322 15.2195 18.6708 14.4168 19.5774C13.7117 20.3708 11.1517 22.3856 10.8589 22.3856C10.7395 22.3856 10.6419 22.3982 10.6419 22.4108C10.6419 22.4359 10.7179 22.7256 10.8046 23.0656C10.8914 23.393 10.9999 24.1108 11.0324 24.6522L11.1084 25.6345L11.6724 25.7226C11.9761 25.7604 12.3666 25.8863 12.5294 25.9745C12.7029 26.0752 12.8439 26.1634 12.8656 26.1634C12.8765 26.1634 12.9199 25.5967 12.9524 24.9041C12.9849 24.2115 13.0609 23.5441 13.126 23.4182C13.1802 23.3048 13.8093 22.8011 14.5144 22.3226C15.2195 21.8441 16.2174 21.1137 16.7381 20.7234C17.2479 20.3204 17.7469 19.993 17.8337 19.993C18.0615 19.993 18.452 20.5974 18.452 20.95C18.452 21.1137 18.3218 21.4159 18.1591 21.6174C17.8012 22.0456 15.5991 23.6574 14.9049 23.9848C14.4602 24.1989 14.4276 24.2367 14.4819 24.5767C14.5144 24.7782 14.547 25.433 14.547 26.05C14.547 26.8056 14.5903 27.1708 14.6663 27.1708C14.7422 27.1708 15.0351 27.3345 15.3171 27.5486C15.8161 27.9011 15.8486 27.9137 15.9571 27.6745C16.0113 27.5486 16.0656 27.3848 16.0656 27.3093C16.0656 27.2337 16.1632 26.8686 16.2934 26.4908C16.4995 25.836 16.5537 25.773 17.3456 25.2693C17.8012 24.9797 18.7774 24.3248 19.4933 23.8211C20.2201 23.3048 20.9035 22.8893 21.0228 22.8893C21.2723 22.8893 21.5435 23.1915 21.6953 23.67C21.793 23.9597 21.7713 24.0604 21.5652 24.3248C21.3048 24.6522 19.5042 25.9997 18.5605 26.5663L17.9639 26.9315L17.8445 27.7752C17.7686 28.2411 17.6927 28.8204 17.6493 29.0597C17.5842 29.4752 17.6167 29.513 18.1374 29.9034C18.4411 30.13 18.7557 30.3189 18.8316 30.3189C18.9184 30.3189 19.1137 30.0293 19.2872 29.6641C19.4716 29.2612 19.7211 28.9212 19.9164 28.8078C20.1008 28.7071 21.0228 28.0774 21.9774 27.41C22.9319 26.7426 23.7997 26.1634 23.8973 26.1256C24.1251 26.0374 24.5048 26.453 24.5916 26.8811C24.7543 27.6241 24.4072 27.9893 22.1726 29.4374C21.0553 30.1552 20.936 30.2686 20.8384 30.6841C20.7842 30.936 20.5781 31.3893 20.3937 31.6789L20.0465 32.2204L20.4696 32.7241C21.1204 33.5175 21.2181 33.5426 21.6953 33.1019C21.9231 32.8878 22.6933 32.3589 23.4201 31.9056C24.136 31.4649 25.058 30.873 25.4702 30.596C26.5441 29.8782 26.6417 29.853 27.0214 30.3063C27.6831 31.0745 27.3468 31.6034 25.416 32.8375C24.7434 33.2656 23.9733 33.8071 23.7238 34.0338C23.4635 34.2604 23.0513 34.5878 22.8018 34.7389C22.5631 34.9026 22.357 35.1293 22.3679 35.2301C22.3679 35.3308 22.5523 35.7338 22.7692 36.1115C23.4309 37.2449 23.7672 37.1945 26.7285 35.4693C27.7915 34.8523 28.7244 34.3486 28.8112 34.3486C28.9956 34.3486 29.3969 34.9278 29.4729 35.3182C29.5813 35.7967 29.0932 36.2752 27.6288 37.1441C26.9238 37.5597 26.0994 38.0634 25.8173 38.2649C25.5244 38.4538 25.0146 38.7056 24.6784 38.8064C24.3421 38.9071 24.0492 39.0204 24.0275 39.0456C23.995 39.0708 24.1577 39.499 24.3638 39.9901C24.7434 40.859 24.7651 40.8841 25.2967 41.0101C25.6004 41.0856 25.98 41.1486 26.1427 41.1486C26.3055 41.1486 27.3143 40.6575 28.3664 40.0656C29.4295 39.4738 30.3949 39.0078 30.5142 39.033C30.6335 39.0582 30.8396 39.2849 30.9698 39.5367C31.3495 40.3175 31.1759 40.5064 28.7461 41.9293L26.6526 43.1634L25.915 43.0753C25.0797 42.9871 25.0906 42.9619 25.3292 43.9567C25.416 44.3219 25.5136 44.7627 25.5461 44.9516C25.6004 45.2034 25.6872 45.3041 25.8499 45.3041C25.98 45.3041 26.4031 45.4175 26.7936 45.5686L27.5095 45.8204L29.5163 44.6116C30.6227 43.9567 31.6206 43.4278 31.74 43.4404C31.8701 43.4656 32.0437 43.6671 32.1522 43.9316C32.4776 44.7123 32.3149 44.9264 30.5576 45.9464C29.7115 46.4375 28.7569 47.0419 28.4207 47.2686C27.7373 47.7471 27.4336 47.7849 26.6526 47.5079C25.7197 47.1805 25.7197 47.1805 25.7197 48.3138C25.7197 49.2456 25.7414 49.3212 25.9692 49.3968C26.0994 49.4471 26.6309 49.7116 27.1407 49.9886L28.0844 50.4923L29.1475 49.7368C29.7441 49.3338 30.6552 48.7168 31.1759 48.3893L32.1413 47.7849L32.4233 48.0367C32.5861 48.1753 32.7596 48.4649 32.8138 48.6916C32.944 49.2205 32.7922 49.3968 31.4688 50.1775C30.9047 50.5175 29.8959 51.1471 29.2342 51.5753L28.0302 52.356L27.3902 52.0286C26.5332 51.5879 25.5895 51.2101 25.5244 51.2856C25.4919 51.3108 25.4485 51.6256 25.416 51.9531L25.3726 52.5701L26.3814 53.8545C26.9454 54.5471 27.4661 55.1264 27.5312 55.1264C27.6071 55.1264 27.9976 54.8871 28.399 54.6101C28.8112 54.3205 29.7224 53.7538 30.4274 53.3382L31.7183 52.6079L31.9786 52.8849C32.2932 53.2249 32.3149 53.8671 32.022 54.1694C31.9135 54.2827 31.1325 54.7108 30.2973 55.1138C29.462 55.5168 28.4424 56.0834 28.0302 56.3731C26.9346 57.1286 26.7936 57.1034 25.7089 55.8694C25.2099 55.3027 24.6133 54.6982 24.3746 54.5219C23.9733 54.2071 23.9516 54.1945 23.8106 54.4338C23.496 54.9249 23.637 55.479 24.4072 56.8894C25.3075 58.5264 25.3617 59.156 24.5699 59.156C23.9733 59.156 23.7021 58.9546 23.1489 58.136C22.8669 57.6953 22.4547 57.1286 22.2377 56.8642C21.8581 56.4108 21.8364 56.3983 21.4242 56.5242C20.6757 56.7634 20.6648 56.8138 21.0011 58.4257C21.1747 59.219 21.2723 59.962 21.2398 60.0753C21.1855 60.2264 21.0337 60.2894 20.6865 60.2894C20.296 60.2894 20.155 60.2264 20.0249 59.9997C19.873 59.7101 19.4066 58.136 19.2655 57.4057C19.1788 56.9145 19.1462 56.902 18.3761 56.8138C18.0289 56.7886 17.6601 56.7257 17.5517 56.6879C17.3673 56.6249 17.3564 56.7131 17.389 58.0983C17.4215 59.7605 17.4215 59.7731 16.6405 59.5968C16.1524 59.496 16.0005 59.0679 15.8378 57.3679C15.7727 56.6501 15.6534 56.0079 15.5883 55.9197C15.5232 55.8442 15.1436 55.6301 14.7422 55.4538L14.0046 55.139L13.9504 55.416C13.9178 55.5671 13.8527 56.0582 13.7876 56.5116C13.6683 57.4686 13.4948 57.6701 12.9958 57.5064C12.3449 57.2923 12.2582 57.0279 12.2799 55.3279L12.3016 53.8042L11.6073 53.1494C11.2277 52.7842 10.8263 52.4819 10.7287 52.4819C10.6202 52.4819 10.4141 52.759 10.2189 53.1619C10.0345 53.5397 9.80668 53.8797 9.70905 53.9175C9.62227 53.9553 9.57888 53.9427 9.61143 53.8671C9.64397 53.7916 9.57888 53.7412 9.45956 53.7412C9.14499 53.7412 8.58093 53.036 8.58093 52.6331C8.58093 52.4442 8.73279 51.9279 8.90635 51.4871C9.09075 51.0464 9.21007 50.5931 9.17753 50.4797C9.14499 50.3664 8.88465 49.9886 8.58093 49.6486C8.07111 49.0568 8.03856 49.0442 7.83246 49.2582C7.48535 49.6234 6.54163 49.9886 6.30299 49.8375C6.0535 49.6738 5.65215 48.9434 5.65215 48.616C5.65215 48.4775 5.8474 48.0367 6.09689 47.6464C6.4657 47.0419 6.53079 46.853 6.47655 46.5256C6.35723 45.7953 6.2813 45.7449 5.65215 45.9086C4.41556 46.236 4.02505 46.0723 4.02505 45.2034C4.02505 44.813 4.43725 44.2841 4.96877 44.0071C5.28334 43.8434 5.28334 43.8182 4.92538 42.7101L4.62166 41.7908L4.07929 41.7153C2.71253 41.5138 2.39796 41.4004 2.17016 40.9849C1.8122 40.2923 1.88813 40.0656 2.53897 39.776C2.86439 39.6501 3.29828 39.4864 3.51523 39.4486C3.97082 39.3478 3.95997 39.373 3.77557 38.0256L3.6454 37.1064L2.75592 36.7538C1.6061 36.313 1.29153 35.9856 1.33492 35.293C1.36746 34.8145 1.38916 34.7893 1.74712 34.7515C1.95322 34.7263 2.4088 34.7767 2.75592 34.8523C3.11388 34.9278 3.40676 34.9782 3.42845 34.953C3.4393 34.9278 3.49354 34.4871 3.52608 33.9708L3.60201 33.0263L3.18981 32.7115C2.96202 32.5352 2.47389 32.0693 2.10508 31.6537C1.50848 30.9989 1.4217 30.8478 1.4217 30.4449C1.4217 29.513 1.74712 29.5256 3.11388 30.5204C3.54777 30.8226 3.93828 31.0745 4.00336 31.0745C4.06844 31.0745 4.17692 30.8604 4.242 30.596C4.31793 30.3441 4.4481 30.0293 4.54573 29.916C4.68674 29.7145 4.66505 29.6389 4.28539 29.11C3.46099 27.9893 2.83185 26.8811 2.83185 26.5663C2.83185 26.1508 3.12473 25.7856 3.46099 25.7856C3.66709 25.7856 3.95997 26.0626 4.62166 26.8811L5.50029 27.9641L6.06435 27.4856L6.61756 27.0071L6.38977 26.3648C6.02096 25.2945 5.65215 23.8967 5.65215 23.6071C5.65215 23.456 5.74978 23.1411 5.8691 22.9145C6.04266 22.5871 6.14028 22.5115 6.42231 22.5367C6.68265 22.5619 6.73689 22.6122 6.6935 22.8011C6.66095 22.9397 6.75858 23.2545 6.8996 23.5063C7.04061 23.7582 7.34434 24.4256 7.56128 25.0048C7.78908 25.5841 8.01687 26.0248 8.08195 25.9997C8.15788 25.9619 8.49415 25.8737 8.84127 25.7856L9.47041 25.6345L9.40533 24.9923C9.11245 21.9071 9.1233 21.8063 10.0345 21.29C10.425 21.0634 11.4338 20.27 12.2907 19.5145C13.1477 18.7589 13.9395 18.0789 14.0588 18.0033C14.4059 17.7767 14.7097 17.827 14.97 18.1545ZM11.2928 18.7337C11.2928 19.2626 10.7179 20.0434 9.99108 20.4841L9.34024 20.8871V20.3959C9.34024 19.9804 9.42702 19.7789 9.91515 19.1493C10.2189 18.7337 10.5985 18.3056 10.7504 18.1922C10.9999 18.0033 11.0324 18.0033 11.1626 18.1922C11.2277 18.3056 11.2928 18.5574 11.2928 18.7337Z" fill="#1A1A25"/>
<path d="M9.77342 27.9268C8.58022 28.1787 7.56057 28.972 6.85549 30.1683C6.51923 30.7476 5.54297 32.9639 5.54297 33.1402C5.54297 33.1906 8.2331 34.7394 9.82766 35.6209C10.3049 35.8854 10.8256 36.2002 10.9883 36.3135C11.2704 36.5402 11.2812 36.5402 11.509 36.2128C11.791 35.7846 12.5612 35.3565 13.0385 35.3565H13.4073L13.3747 31.9313C13.353 29.5009 13.2988 28.4557 13.212 28.355C12.8758 27.9772 10.728 27.7128 9.77342 27.9268Z" fill="#1A1A25"/>
<path d="M15.1973 31.2887C15.1973 32.1828 15.2298 33.6057 15.2623 34.4746L15.3383 36.0613L15.8806 36.4265C17.1281 37.2954 18.4732 39.4487 18.7877 41.0858C18.8854 41.5895 19.0047 41.8539 19.1999 42.0176C19.6989 42.4332 23.0724 44.2969 23.3219 44.2969C23.5931 44.2969 23.5931 44.2591 23.3436 42.9117C22.7578 39.8391 20.8053 35.6835 18.766 33.165C17.6162 31.7546 15.5444 29.6894 15.2623 29.6894C15.2298 29.6894 15.1973 30.4072 15.1973 31.2887Z" fill="#1A1A25"/>
<path d="M5.21875 35.7084C5.21875 36.3381 5.58756 38.6929 5.86959 39.8514C6.16247 41.0729 6.86754 43.1129 7.4533 44.4225C8.08244 45.8581 9.78547 48.4522 11.1739 50.127C12.2695 51.4366 13.9075 52.8848 14.6885 53.2248L14.9813 53.3633V49.6485V45.9462L14.3847 45.6314C13.1698 44.9892 12.4431 44.0573 11.5861 42.0677C10.9787 40.6699 10.8377 40.1536 10.7617 39.1462L10.6966 38.3403L8.09329 36.7914C6.66144 35.9351 5.42485 35.2299 5.35977 35.2299C5.27299 35.2299 5.21875 35.4062 5.21875 35.7084Z" fill="#1A1A25"/>
<path d="M13.0931 37.889C12.7242 38.3927 12.6592 38.7202 12.7351 39.7276C12.8544 41.5661 14.1561 43.6439 15.4795 44.1224C16.2062 44.3994 16.5533 44.2861 16.9005 43.6816C17.2259 43.115 17.2367 41.8809 16.933 40.8483C16.4232 39.1231 14.9046 37.5113 13.7656 37.4987C13.4619 37.4987 13.31 37.5868 13.0931 37.889Z" fill="#1A1A25"/>
<path d="M18.9937 44.3829C18.9937 44.5088 18.8418 44.8991 18.6683 45.2643C18.3103 45.9821 17.6161 46.5614 17.1171 46.5614H16.8242V50.3895V54.2177L17.1605 54.3562C17.7137 54.5829 19.1022 54.6584 19.7964 54.5073C21.4018 54.1673 22.2913 53.3236 23.1048 51.4347C23.6038 50.2762 23.658 50.0243 23.7665 48.8532C23.9401 46.8006 24.0594 47.0525 22.5516 46.2088C21.814 45.8058 20.7618 45.1762 20.1977 44.8236C19.6445 44.4584 19.1455 44.1688 19.0913 44.1688C19.0371 44.1688 18.9937 44.2695 18.9937 44.3829Z" fill="#1A1A25"/>
<circle cx="57.4411" cy="44.5797" r="16.9586" fill="white"/>
<circle cx="57.4411" cy="44.5818" r="15.9411" fill="#1A99DE"/>
<path d="M63.8757 45.8383L58.67 43.8584L56.7519 38.4847C56.6542 38.2113 56.4777 37.9754 56.2461 37.8087C56.0145 37.6421 55.739 37.5528 55.4567 37.5528C55.1744 37.5528 54.8988 37.6421 54.6672 37.8087C54.4356 37.9754 54.2591 38.2113 54.1614 38.4847L52.2433 43.8584L47.0376 45.8383C46.7727 45.9392 46.5442 46.1214 46.3827 46.3605C46.2213 46.5996 46.1348 46.884 46.1348 47.1754C46.1348 47.4668 46.2213 47.7512 46.3827 47.9902C46.5442 48.2293 46.7727 48.4116 47.0376 48.5124L52.2433 50.4923L54.1614 55.866C54.2591 56.1394 54.4356 56.3754 54.6672 56.542C54.8988 56.7086 55.1744 56.798 55.4567 56.798C55.739 56.798 56.0145 56.7086 56.2461 56.542C56.4777 56.3754 56.6542 56.1394 56.7519 55.866L58.67 50.4923L63.8757 48.5124C64.1406 48.4116 64.3692 48.2293 64.5306 47.9902C64.692 47.7512 64.7786 47.4668 64.7786 47.1754C64.7786 46.884 64.692 46.5996 64.5306 46.3605C64.3692 46.1214 64.1406 45.9392 63.8757 45.8383ZM63.4642 47.3596L58.0015 49.4379C57.9206 49.4686 57.8471 49.5171 57.7862 49.58C57.7252 49.643 57.6782 49.7188 57.6485 49.8023L55.6352 55.4412C55.6216 55.4788 55.5973 55.5112 55.5654 55.5341C55.5335 55.5571 55.4955 55.5693 55.4567 55.5693C55.4178 55.5693 55.3798 55.5571 55.3479 55.5341C55.316 55.5112 55.2917 55.4788 55.2781 55.4412L53.2649 49.8023C53.2351 49.7188 53.1881 49.643 53.1272 49.58C53.0662 49.5171 52.9927 49.4686 52.9118 49.4379L47.4492 47.3596C47.4127 47.3457 47.3813 47.3205 47.3591 47.2876C47.3369 47.2547 47.325 47.2155 47.325 47.1754C47.325 47.1352 47.3369 47.0961 47.3591 47.0631C47.3813 47.0302 47.4127 47.0051 47.4492 46.9911L52.9118 44.9129C52.9927 44.8821 53.0662 44.8336 53.1272 44.7707C53.1881 44.7078 53.2351 44.6319 53.2649 44.5484L55.2781 38.9096C55.2917 38.8719 55.316 38.8395 55.3479 38.8166C55.3798 38.7937 55.4178 38.7814 55.4567 38.7814C55.4955 38.7814 55.5335 38.7937 55.5654 38.8166C55.5973 38.8395 55.6216 38.8719 55.6352 38.9096L57.6485 44.5484C57.6782 44.6319 57.7252 44.7078 57.7862 44.7707C57.8471 44.8336 57.9206 44.8821 58.0015 44.9129L63.4642 46.9911C63.5006 47.0051 63.532 47.0302 63.5542 47.0631C63.5764 47.0961 63.5883 47.1352 63.5883 47.1754C63.5883 47.2155 63.5764 47.2547 63.5542 47.2876C63.532 47.3205 63.5006 47.3457 63.4642 47.3596ZM58.8287 36.5283C58.8287 36.3654 58.8913 36.2092 59.0029 36.094C59.1145 35.9788 59.2659 35.914 59.4237 35.914H61.2089V34.0713C61.2089 33.9084 61.2716 33.7521 61.3832 33.6369C61.4948 33.5217 61.6461 33.457 61.8039 33.457C61.9618 33.457 62.1131 33.5217 62.2247 33.6369C62.3363 33.7521 62.399 33.9084 62.399 34.0713V35.914H64.1842C64.342 35.914 64.4934 35.9788 64.6049 36.094C64.7165 36.2092 64.7792 36.3654 64.7792 36.5283C64.7792 36.6912 64.7165 36.8474 64.6049 36.9626C64.4934 37.0778 64.342 37.1426 64.1842 37.1426H62.399V38.9853C62.399 39.1482 62.3363 39.3045 62.2247 39.4197C62.1131 39.5349 61.9618 39.5996 61.8039 39.5996C61.6461 39.5996 61.4948 39.5349 61.3832 39.4197C61.2716 39.3045 61.2089 39.1482 61.2089 38.9853V37.1426H59.4237C59.2659 37.1426 59.1145 37.0778 59.0029 36.9626C58.8913 36.8474 58.8287 36.6912 58.8287 36.5283ZM68.7463 41.4423C68.7463 41.6052 68.6836 41.7615 68.572 41.8767C68.4604 41.9919 68.3091 42.0566 68.1512 42.0566H67.1595V43.0803C67.1595 43.2433 67.0968 43.3995 66.9852 43.5147C66.8736 43.6299 66.7222 43.6946 66.5644 43.6946C66.4066 43.6946 66.2552 43.6299 66.1436 43.5147C66.032 43.3995 65.9694 43.2433 65.9694 43.0803V42.0566H64.9776C64.8198 42.0566 64.6684 41.9919 64.5568 41.8767C64.4452 41.7615 64.3825 41.6052 64.3825 41.4423C64.3825 41.2794 64.4452 41.1232 64.5568 41.008C64.6684 40.8928 64.8198 40.8281 64.9776 40.8281H65.9694V39.8043C65.9694 39.6414 66.032 39.4852 66.1436 39.37C66.2552 39.2548 66.4066 39.1901 66.5644 39.1901C66.7222 39.1901 66.8736 39.2548 66.9852 39.37C67.0968 39.4852 67.1595 39.6414 67.1595 39.8043V40.8281H68.1512C68.3091 40.8281 68.4604 40.8928 68.572 41.008C68.6836 41.1232 68.7463 41.2794 68.7463 41.4423Z" fill="white"/>
<path d="M105.269 7.8575C105.269 9.92536 104.797 11.6613 103.852 13.0654C102.933 14.4696 101.695 15.4397 100.138 15.9758L103.163 28H96.9596L94.7003 17.0863H92.709L90.8326 28H85.1651L89.8753 0.888049H97.8404C100.24 0.888049 102.078 1.47522 103.355 2.64956C104.631 3.79837 105.269 5.53435 105.269 7.8575ZM99.4104 8.62338C99.4104 7.57668 99.1296 6.8491 98.5679 6.44064C98.0063 6.03217 97.3681 5.82794 96.6533 5.82794H94.662L93.4366 12.9123H95.3513C96.4746 12.9123 97.4319 12.5549 98.2233 11.8401C99.0147 11.1252 99.4104 10.053 99.4104 8.62338ZM123.294 6.0577H116.21L115.214 11.6869H121.839L120.997 16.5119H114.41L113.338 22.7155H121.073L120.154 28H106.79L111.5 0.888049H124.175L123.294 6.0577ZM149.104 28H143.322L146.807 9.15949H146.692L138.727 28H134.514L133.289 9.15949H133.174L130.072 28H124.75L129.498 0.888049H136.889L138.191 18.618H138.344L145.735 0.888049H153.853L149.104 28ZM167.302 28L167.187 22.9069H160.869L158.839 28H152.712L164.469 0.888049H171.859L173.276 28H167.302ZM167.034 6.74699H166.881L162.401 18.3883H167.264L167.034 6.74699ZM194.973 28H188.654L185.093 11.1125H184.978L182.221 28H176.937L181.647 0.888049H188.118L191.526 18.0053H191.68L194.513 0.888049H199.683L194.973 28Z" fill="#1A99DE"/>
<path d="M102.206 36.9045H97.2277L93.36 59H87.5394L91.407 36.9045H86.4288L87.3096 31.888H103.087L102.206 36.9045ZM122.032 38.8575C122.032 40.9254 121.56 42.6613 120.616 44.0654C119.697 45.4696 118.458 46.4397 116.901 46.9758L119.926 59H113.723L111.463 48.0863H109.472L107.596 59H101.928L106.638 31.888H114.603C117.003 31.888 118.841 32.4752 120.118 33.6496C121.394 34.7984 122.032 36.5344 122.032 38.8575ZM116.174 39.6234C116.174 38.5767 115.893 37.8491 115.331 37.4406C114.769 37.0322 114.131 36.8279 113.416 36.8279H111.425L110.2 43.9123H112.114C113.238 43.9123 114.195 43.5549 114.986 42.8401C115.778 42.1252 116.174 41.053 116.174 39.6234ZM135.73 59L135.615 53.9069H129.297L127.267 59H121.14L132.897 31.888H140.287L141.704 59H135.73ZM135.462 37.747H135.309L130.829 49.3883H135.692L135.462 37.747ZM163.401 59H157.082L153.521 42.1125H153.406L150.649 59H145.364L150.075 31.888H156.546L159.954 49.0053H160.108L162.941 31.888H168.111L163.401 59ZM184.355 38.0916C183.921 37.581 183.385 37.1853 182.747 36.9045C182.109 36.5982 181.445 36.445 180.756 36.445C180.398 36.445 180.015 36.5216 179.607 36.6748C179.224 36.8024 178.867 37.0066 178.535 37.2875C178.228 37.5683 177.96 37.9257 177.731 38.3597C177.526 38.7682 177.424 39.266 177.424 39.8531C177.424 40.5935 177.641 41.2062 178.075 41.6912C178.535 42.1763 179.211 42.6741 180.105 43.1847C180.615 43.491 181.151 43.8612 181.713 44.2952C182.3 44.7037 182.824 45.2015 183.283 45.7887C183.768 46.3503 184.164 47.0141 184.47 47.7799C184.777 48.5203 184.93 49.3883 184.93 50.3839C184.93 51.9412 184.662 53.307 184.126 54.4813C183.615 55.6302 182.913 56.6003 182.019 57.3917C181.151 58.1575 180.156 58.7319 179.032 59.1149C177.909 59.4978 176.748 59.6893 175.548 59.6893C173.888 59.6893 172.369 59.4085 170.991 58.8468C169.612 58.2852 168.54 57.5959 167.774 56.779L171.259 52.3752C171.769 52.9624 172.395 53.4474 173.135 53.8303C173.901 54.1878 174.693 54.3665 175.509 54.3665C175.918 54.3665 176.326 54.2899 176.735 54.1367C177.143 53.9835 177.501 53.7665 177.807 53.4857C178.139 53.2049 178.394 52.8602 178.573 52.4518C178.777 52.0433 178.879 51.5838 178.879 51.0732C178.879 50.3329 178.65 49.6819 178.19 49.1202C177.756 48.5331 177.028 47.9459 176.007 47.3587C175.42 47.0268 174.846 46.6567 174.284 46.2482C173.748 45.8397 173.263 45.3547 172.829 44.793C172.42 44.2314 172.089 43.5932 171.833 42.8783C171.578 42.1635 171.45 41.3338 171.45 40.3893C171.45 39.0873 171.68 37.8746 172.14 36.7513C172.599 35.6281 173.237 34.658 174.054 33.841C174.871 33.0241 175.854 32.3859 177.003 31.9263C178.152 31.4413 179.415 31.1988 180.794 31.1988C182.351 31.1988 183.743 31.4413 184.968 31.9263C186.193 32.4114 187.151 33.0496 187.84 33.841L184.355 38.0916ZM212.52 59H206.737L210.222 40.1595H210.107L202.142 59H197.93L196.704 40.1595H196.59L193.488 59H188.165L192.913 31.888H200.304L201.606 49.618H201.759L209.15 31.888H217.268L212.52 59ZM224.476 59H218.54L223.25 31.888H229.186L224.476 59ZM245.452 38.0916C245.018 37.581 244.482 37.1853 243.844 36.9045C243.206 36.5982 242.542 36.445 241.853 36.445C241.495 36.445 241.112 36.5216 240.704 36.6748C240.321 36.8024 239.963 37.0066 239.632 37.2875C239.325 37.5683 239.057 37.9257 238.827 38.3597C238.623 38.7682 238.521 39.266 238.521 39.8531C238.521 40.5935 238.738 41.2062 239.172 41.6912C239.632 42.1763 240.308 42.6741 241.202 43.1847C241.712 43.491 242.248 43.8612 242.81 44.2952C243.397 44.7037 243.92 45.2015 244.38 45.7887C244.865 46.3503 245.261 47.0141 245.567 47.7799C245.873 48.5203 246.027 49.3883 246.027 50.3839C246.027 51.9412 245.759 53.307 245.222 54.4813C244.712 55.6302 244.01 56.6003 243.116 57.3917C242.248 58.1575 241.253 58.7319 240.129 59.1149C239.006 59.4978 237.844 59.6893 236.645 59.6893C234.985 59.6893 233.466 59.4085 232.088 58.8468C230.709 58.2852 229.637 57.5959 228.871 56.779L232.356 52.3752C232.866 52.9624 233.492 53.4474 234.232 53.8303C234.998 54.1878 235.789 54.3665 236.606 54.3665C237.015 54.3665 237.423 54.2899 237.832 54.1367C238.24 53.9835 238.598 53.7665 238.904 53.4857C239.236 53.2049 239.491 52.8602 239.67 52.4518C239.874 52.0433 239.976 51.5838 239.976 51.0732C239.976 50.3329 239.746 49.6819 239.287 49.1202C238.853 48.5331 238.125 47.9459 237.104 47.3587C236.517 47.0268 235.943 46.6567 235.381 46.2482C234.845 45.8397 234.36 45.3547 233.926 44.793C233.517 44.2314 233.185 43.5932 232.93 42.8783C232.675 42.1635 232.547 41.3338 232.547 40.3893C232.547 39.0873 232.777 37.8746 233.236 36.7513C233.696 35.6281 234.334 34.658 235.151 33.841C235.968 33.0241 236.951 32.3859 238.1 31.9263C239.249 31.4413 240.512 31.1988 241.891 31.1988C243.448 31.1988 244.839 31.4413 246.065 31.9263C247.29 32.4114 248.248 33.0496 248.937 33.841L245.452 38.0916ZM264.235 38.0916C263.801 37.581 263.265 37.1853 262.626 36.9045C261.988 36.5982 261.324 36.445 260.635 36.445C260.278 36.445 259.895 36.5216 259.486 36.6748C259.103 36.8024 258.746 37.0066 258.414 37.2875C258.108 37.5683 257.84 37.9257 257.61 38.3597C257.406 38.7682 257.304 39.266 257.304 39.8531C257.304 40.5935 257.521 41.2062 257.955 41.6912C258.414 42.1763 259.091 42.6741 259.984 43.1847C260.495 43.491 261.031 43.8612 261.592 44.2952C262.18 44.7037 262.703 45.2015 263.162 45.7887C263.648 46.3503 264.043 47.0141 264.35 47.7799C264.656 48.5203 264.809 49.3883 264.809 50.3839C264.809 51.9412 264.541 53.307 264.005 54.4813C263.494 55.6302 262.792 56.6003 261.899 57.3917C261.031 58.1575 260.035 58.7319 258.912 59.1149C257.789 59.4978 256.627 59.6893 255.427 59.6893C253.768 59.6893 252.249 59.4085 250.87 58.8468C249.492 58.2852 248.419 57.5959 247.654 56.779L251.138 52.3752C251.649 52.9624 252.274 53.4474 253.015 53.8303C253.78 54.1878 254.572 54.3665 255.389 54.3665C255.797 54.3665 256.206 54.2899 256.614 54.1367C257.023 53.9835 257.38 53.7665 257.686 53.4857C258.018 53.2049 258.274 52.8602 258.452 52.4518C258.657 52.0433 258.759 51.5838 258.759 51.0732C258.759 50.3329 258.529 49.6819 258.069 49.1202C257.635 48.5331 256.908 47.9459 255.887 47.3587C255.299 47.0268 254.725 46.6567 254.163 46.2482C253.627 45.8397 253.142 45.3547 252.708 44.793C252.3 44.2314 251.968 43.5932 251.713 42.8783C251.457 42.1635 251.33 41.3338 251.33 40.3893C251.33 39.0873 251.559 37.8746 252.019 36.7513C252.479 35.6281 253.117 34.658 253.934 33.841C254.751 33.0241 255.733 32.3859 256.882 31.9263C258.031 31.4413 259.295 31.1988 260.673 31.1988C262.231 31.1988 263.622 31.4413 264.847 31.9263C266.073 32.4114 267.03 33.0496 267.719 33.841L264.235 38.0916ZM273.98 59H268.044L272.754 31.888H278.69L273.98 59ZM302.194 41.6147C302.194 43.8357 301.9 46.0312 301.313 48.2012C300.726 50.3456 299.883 52.2731 298.786 53.9835C297.713 55.694 296.386 57.0725 294.803 58.1192C293.246 59.1659 291.484 59.6893 289.518 59.6893C288.14 59.6893 286.902 59.4468 285.804 58.9617C284.732 58.4511 283.825 57.7491 283.085 56.8556C282.345 55.9365 281.783 54.8515 281.4 53.6006C281.017 52.3241 280.826 50.9073 280.826 49.35C280.826 47.1289 281.107 44.9334 281.668 42.7635C282.255 40.5935 283.085 38.6533 284.157 36.9428C285.255 35.2324 286.583 33.8538 288.14 32.8071C289.723 31.7349 291.51 31.1988 293.501 31.1988C294.956 31.1988 296.22 31.4541 297.292 31.9646C298.39 32.4497 299.296 33.1517 300.011 34.0708C300.751 34.9898 301.3 36.0876 301.658 37.3641C302.015 38.6405 302.194 40.0574 302.194 41.6147ZM296.105 42.4571C296.105 41.7423 296.054 41.0402 295.952 40.351C295.85 39.6617 295.671 39.0617 295.416 38.5512C295.186 38.0406 294.867 37.6321 294.458 37.3258C294.05 36.9939 293.539 36.8279 292.927 36.8279C291.957 36.8279 291.089 37.2236 290.323 38.015C289.582 38.8064 288.957 39.8021 288.446 41.002C287.936 42.2018 287.553 43.5038 287.297 44.9079C287.042 46.312 286.915 47.614 286.915 48.8139C286.915 49.5287 286.966 50.2052 287.068 50.8434C287.195 51.4817 287.374 52.0433 287.604 52.5284C287.859 52.9879 288.191 53.3581 288.599 53.6389C289.033 53.8942 289.557 54.0218 290.169 54.0218C291.089 54.0218 291.918 53.6516 292.659 52.9113C293.399 52.171 294.024 51.2264 294.535 50.0776C295.046 48.9288 295.428 47.6778 295.684 46.3248C295.965 44.9717 296.105 43.6825 296.105 42.4571ZM322.374 59H316.056L312.494 42.1125H312.38L309.622 59H304.338L309.048 31.888H315.52L318.928 49.0053H319.081L321.915 31.888H327.084L322.374 59Z" fill="#1A1A25"/>
</svg>
