<svg id="Layer_1" data-name="Layer 1" xmlns="http://www.w3.org/2000/svg" xmlns:xlink="http://www.w3.org/1999/xlink" viewBox="0 0 1293.11 2430.89"><defs><style>.cls-1{fill:none;}.cls-2{fill:#353240;}.cls-3{clip-path:url(#clip-path);}.cls-4{clip-path:url(#clip-path-2);}.cls-5{fill:#fff;}.cls-6{clip-path:url(#clip-path-3);}.cls-7{clip-path:url(#clip-path-5);}</style><clipPath id="clip-path" transform="translate(-2.17)"><path id="SVGID" class="cls-1" d="M1043.65,2194.07a2.45,2.45,0,0,0,2.47,2.43h41.37c11.82,0,19.21-6.55,19.21-17,0-9.95-7.39-17-19.21-17h-39.62l-4.22,4.22v27.31"/></clipPath><clipPath id="clip-path-2" transform="translate(-2.17)"><rect id="SVGID-2" data-name="SVGID" class="cls-1" x="-2171.78" y="-2802.72" width="4363.25" height="5646.55"/></clipPath><clipPath id="clip-path-3" transform="translate(-2.17)"><path id="SVGID-3" data-name="SVGID" class="cls-1" d="M1199.18,2011.09l-121,121.13h17c31.28,0,49.69,19.65,49.69,41.23,0,16.9-11.42,29.35-23.48,34.79a2.32,2.32,0,0,0,.1,4.31c14,5.55,24.18,20.31,24.18,37.56,0,24.5-16.26,43.91-47.78,43.91h-86.68a2.45,2.45,0,0,1-2.47-2.43v-89.83L876.05,2334.52a2.88,2.88,0,0,0,2,4.91h323.09a2.2,2.2,0,0,0,2.2-2.22V2012.83a2.45,2.45,0,0,0-4.18-1.74"/></clipPath><clipPath id="clip-path-5" transform="translate(-2.17)"><path id="SVGID-5" data-name="SVGID" class="cls-1" d="M1043.65,2229.25a2.45,2.45,0,0,1,2.47-2.43H1089c13.54,0,20.92,8.25,20.92,18.44,0,11.64-7.87,18.43-20.92,18.43h-42.85a2.45,2.45,0,0,1-2.47-2.43v-32"/></clipPath></defs><path class="cls-2" d="M783.28,1918.89h512v512h-512Z" transform="translate(-2.17)"/><g class="cls-3"><g class="cls-4"><path class="cls-5" d="M1008,2126.9h134.34v105.25H1008Z" transform="translate(-2.17)"/></g></g><g class="cls-6"><g class="cls-4"><path class="cls-5" d="M839.55,1974.72H1239v400.35H839.55Z" transform="translate(-2.17)"/></g></g><g class="cls-7"><g class="cls-4"><path class="cls-5" d="M1008,2191.17h137.53v108.17H1008Z" transform="translate(-2.17)"/></g></g><path class="cls-5" d="M23,36l10.83-2.34S29.92,7.21,29.89,7a.34.34,0,0,0-.32-.29l-2.89-.2s-1.91-1.91-2.16-2.12a.67.67,0,0,0-.18-.11L23,36ZM17.56,17a6.34,6.34,0,0,0-2.66-.64c-2.17,0-2.25,1.36-2.25,1.71,0,1.85,4.86,2.58,4.86,7,0,3.44-2.16,5.64-5.11,5.64a7,7,0,0,1-5.31-2.2l1-3.13s1.86,1.6,3.42,1.6a1.42,1.42,0,0,0,1.46-1.4c0-2.43-4-2.54-4-6.54-.05-3.35,2.36-6.62,7.24-6.62a6,6,0,0,1,2.81.54l-1.42,4.07ZM16.75,1.24a1,1,0,0,1,.61.21c-1.47.69-3.09,2.46-3.76,6-1,.32-1.94.6-2.83.86.77-2.68,2.66-7,6-7Zm1.86,4.43v.2L15,7c.69-2.66,2-4,3.12-4.45A8.77,8.77,0,0,1,18.61,5.67Zm.81-3.35c1,.11,1.71,1.3,2.14,2.63l-1.74.55V5.12a8.63,8.63,0,0,0-.4-2.81ZM23.9,4.25l-.11,0s-.44.11-1.07.32C22.08,2.75,21,1,19,1h-.17A2.47,2.47,0,0,0,16.9,0C12.24,0,10,5.82,9.31,8.77c-1.79.55-3.09,1-3.24,1-1,.32-1,.35-1.15,1.31-.12.69-2.75,21.09-2.75,21.09L22.51,36Z" transform="translate(-2.17)"/></svg>