<svg id="Layer_1" data-name="Layer 1" xmlns="http://www.w3.org/2000/svg" viewBox="0 0 31.66 36"><defs><style>.cls-1{fill:#fff;}</style></defs><path class="cls-1" d="M23,36l10.83-2.34L29.89,7a.34.34,0,0,0-.32-.29l-2.89-.2S24.77,4.6,24.52,4.39a.54.54,0,0,0-.18-.11ZM17.56,17a6.46,6.46,0,0,0-2.66-.64c-2.17,0-2.25,1.36-2.25,1.71,0,1.85,4.86,2.58,4.86,7,0,3.44-2.16,5.64-5.11,5.64a7,7,0,0,1-5.31-2.2l1-3.13S10,27,11.51,27A1.43,1.43,0,0,0,13,25.6v0C13,23.15,9,23,9,19c-.05-3.35,2.36-6.62,7.24-6.62A6,6,0,0,1,19,13L17.6,17ZM16.75,1.24a1,1,0,0,1,.61.21c-1.47.69-3.09,2.46-3.76,6-1,.32-1.94.6-2.83.86.77-2.68,2.66-7,6-7Zm1.86,4.43v.2L15,7c.69-2.66,2-4,3.12-4.45A8.71,8.71,0,0,1,18.61,5.67Zm.81-3.35c1,.11,1.71,1.3,2.14,2.63l-1.74.55V5.12a8.65,8.65,0,0,0-.4-2.81ZM23.9,4.25h-.11s-.44.11-1.07.32C22.08,2.75,21,1,19,1h-.17A2.49,2.49,0,0,0,16.9,0C12.24,0,10,5.82,9.31,8.77c-1.79.55-3.09,1-3.24,1-1,.32-1,.35-1.15,1.31-.12.69-2.75,21.09-2.75,21.09L22.51,36Z" transform="translate(-2.17)"/></svg>