<svg xmlns="http://www.w3.org/2000/svg" viewBox="0 0 513 342"><path fill="#00318b" d="M0 0h513v342H0z"/><path fill="#FFF" d="M454.8 265.38c7.94-10.93 13.24-24.27 13.24-40.42V104.89a59.754 59.754 0 0 1-36.02 12.01c-19.64 0-37.07-9.43-48.03-24.01-10.95 14.58-28.39 24.01-48.03 24.01-13.52 0-25.99-4.47-36.02-12v120.06c0 16.16 5.3 29.5 13.24 40.42H454.8z"/><path fill="#8DCCFF" d="M310.23 260.98C332.65 296.96 384 309 384 309s51.35-12.04 73.77-48.02H310.23z"/><path fill="#D87B00" d="M396.66 172.21c.32 1.42 8.72 10.17 17.56 20.15 1.39 1.57-8.74 12.63-6.91 12.59 4.75-.12 19.27-17.26 19.34 6.65.05 15.94-30 27.51-30 27.51h17.47l.65 14.96s4.97-13.34 7.59-16.57c8.1-9.97 20.18-30.07 34.59-27.1 14.41 2.97-13.66-13.92-13.66-13.92s-5.2-15.19-16.63-16.97c-10.06-1.57-14.29-2.51-26.64-7.3-1.68-.65-3.88-2.32-3.36 0z"/><path fill="#D87B00" d="M359.69 198.69c1.07-.99 4.46-12.63 8.69-25.28.67-1.99 15.31 1.27 14.35-.3-2.47-4.06-24.58-8.08-3.9-20.08 13.79-8 38.82 12.27 38.82 12.27l-8.72-15.14 12.64-8.03s-14.05 2.35-18.14 1.69c-12.68-2.04-36.13-2.48-40.75-16.45-4.62-13.97-5.25 18.79-5.25 18.79s-10.56 12.08-6.4 22.88c3.66 9.5 4.96 13.64 6.97 26.73.29 1.79-.06 4.53 1.69 2.92z"/><path fill="#D87B00" d="M395.67 219.87c-1.39-.43-13.16 2.49-26.22 5.18-2.06.42-6.59-13.88-7.47-12.26-2.27 4.17 5.36 25.31-15.41 13.45-13.84-7.91-8.89-39.73-8.89-39.73l-8.71 15.14-13.29-6.9s9.09 10.96 10.57 14.84c4.6 11.99 16 32.49 6.24 43.49-9.76 11.01 18.88-4.9 18.88-4.9s15.76 3.07 23-5.96c6.38-7.94 9.3-11.14 19.61-19.45 1.43-1.12 3.97-2.19 1.69-2.9z"/><path fill="#FFF" d="M256.5 0h-23.1L160 48.9V0H96v48.9L22.6 0H0v22.7l46.1 30.7H0v64h46.1L0 148.1V171h22.6L96 121.8V171h64v-49.2l73.4 49.2h23.1v-22.9l-46.6-30.7h46.6v-64h-46.6l46.6-30.7z"/><path fill="#D80027" d="M144 0h-32v69.4H0v32h112V171h32v-69.6h112.5v-32H144z"/><path fill="#D80027" d="M0 171v-11.3l62.5-42.3h22.6L7.3 171zM7.3.1l77.8 53.2H62.5L0 11.1V.1zM256.5.1v11l-63 42.3h-22.6L248.7.1zM248.7 171l-77.8-53.6h22.6l63 42.3V171z"/></svg>