<svg xmlns="http://www.w3.org/2000/svg" viewBox="0 0 513 342"><path fill="#10338c" d="M0 0h513v342H0z"/><g fill="#FFF"><path d="M222.2 170.7c.3-.3.5-.6.8-.9-.2.3-.5.6-.8.9zM188 212.6l11 22.9 24.7-5.7-11 22.8 19.9 15.8-24.8 5.6.1 25.4-19.9-15.9-19.8 15.9.1-25.4-24.8-5.6 19.9-15.8-11.1-22.8 24.8 5.7zM385.9 241.1l5.2 10.9 11.8-2.7-5.3 10.9 9.5 7.5-11.8 2.6v12.2l-9.4-7.6-9.5 7.6.1-12.2-11.8-2.6 9.5-7.5-5.3-10.9 11.8 2.7zM337.3 125.1l5.2 10.9 11.8-2.7-5.3 10.9 9.5 7.5-11.8 2.7v12.1l-9.4-7.6-9.5 7.6.1-12.1-11.9-2.7 9.5-7.5-5.3-10.9L332 136zM385.9 58.9l5.2 10.9 11.8-2.7-5.3 10.9 9.5 7.5-11.8 2.7v12.1l-9.4-7.6-9.5 7.6.1-12.1-11.8-2.7 9.5-7.5-5.3-10.9 11.8 2.7zM428.4 108.6l5.2 10.9 11.8-2.7-5.3 10.9 9.5 7.5-11.8 2.6V150l-9.4-7.6-9.5 7.6v-12.2l-11.8-2.6 9.5-7.5-5.3-10.9 11.8 2.7zM398 166.5l4.1 12.7h13.3l-10.8 7.8 4.2 12.7-10.8-7.9-10.8 7.9 4.1-12.7-10.7-7.8h13.3z"/><path d="M254.8 0v30.6l-45.1 25.1h45.1V115h-59.1l59.1 32.8v22.9h-26.7l-73.5-40.9v40.9H99v-48.6l-87.4 48.6H-1.2v-30.6L44 115H-1.2V55.7h59.1L-1.2 22.8V0h26.7L99 40.8V0h55.6v48.6L242.1 0z"/></g><path fill="#D80027" d="M142.8 0h-32v69.3h-112v32h112v69.4h32v-69.4h112v-32h-112z"/><path fill="#0052B4" d="m154.6 115 100.2 55.7v-15.8L183 115z"/><path fill="#FFF" d="m154.6 115 100.2 55.7v-15.8L183 115z"/><g fill="#D80027"><path d="m154.6 115 100.2 55.7v-15.8L183 115zM70.7 115l-71.9 39.9v15.8L99 115z"/></g><path fill="#0052B4" d="M99 55.7-1.2 0v15.7l71.9 40z"/><path fill="#FFF" d="M99 55.7-1.2 0v15.7l71.9 40z"/><g fill="#D80027"><path d="M99 55.7-1.2 0v15.7l71.9 40zM183 55.7l71.8-40V0L154.6 55.7z"/></g></svg>