<svg xmlns="http://www.w3.org/2000/svg" viewBox="0 0 513 342"><path fill="#10338C" d="M0 0h513.1v342H0z"/><path fill="#F6C500" d="M99.9 0h342v342"/><g fill="#FFF"><path d="M19.9 21.1 40.3 6.2 60.9 21 54 0H26.7z"/><path d="M92.3 25.5 84.4 1.3l-7.8 24.2H51.3l20.5 14.8-7.8 24 20.4-14.8L105 64.3l-7.9-24 20.5-14.9z"/><path d="m136.3 69.2-7.8-24-7.8 24H95.5l20.4 14.9-7.8 24 20.4-14.8 20.6 14.8-7.8-24 20.4-14.9z"/><path d="m179.4 112.3-7.8-24.1-7.8 24.1h-25.3l20.5 14.9-7.8 24 20.4-14.8 20.6 14.8-7.9-24 20.5-15z"/><path d="m222.5 155.3-7.8-24-7.8 24h-25.4l20.6 15-7.8 24 20.4-14.9 20.4 14.9-7.8-24 20.6-15z"/><path d="m265.6 198.4-7.8-24-7.8 24h-25.4l20.6 14.9-7.8 24.1 20.4-14.9 20.4 14.9-7.8-24.2 20.5-14.8z"/><path d="m308.7 241.5-7.9-24-7.8 24h-25.3l20.5 14.8-7.9 24.2 20.6-14.9 20.4 14.8-7.8-24.1 20.5-14.8z"/><path d="m351.7 284.6-7.8-24.2-7.8 24.2h-25.3l20.4 14.8-7.8 24.1 20.5-14.9 20.5 14.9-7.8-24.1 20.4-14.8z"/><path d="m387 303.5-7.9 24.1-25.3.1 19.8 14.3h26.6l19.9-14.4h-25.3z"/></g></svg>