<svg xmlns="http://www.w3.org/2000/svg" viewBox="0 0 513 342"><path fill="green" d="M0 0h513v342H0z"/><g fill="#FFDA44"><path d="m422.7 252.4 6.2 12.8 13.8-3.2-6.2 12.8 11.2 8.8-13.9 3.2V301l-11.1-8.9-11.1 8.9v-14.2l-13.8-3.2 11.1-8.8-6.2-12.8 13.9 3.2zM376.1 116.1l6.2 12.9 13.8-3.2-6.2 12.8 11.2 8.8-13.9 3.1v14.3l-11.1-8.9-11.1 8.9.1-14.3-13.9-3.1 11.1-8.8-6.2-12.8L370 129zM413.1 38.3l6.2 12.8 13.8-3.2-6.2 12.8 11.2 8.9-13.9 3.1v14.2L413.1 78 402 86.9l.1-14.2-13.9-3.1 11.1-8.9-6.2-12.8 13.9 3.2zM464.9 96.7l6.2 12.8 13.9-3.2-6.3 12.8 11.2 8.9-13.9 3.1.1 14.2-11.2-8.9-11.1 8.9.1-14.2L440 128l11.2-8.9-6.3-12.8 13.9 3.2zM436.9 164.8l4.9 14.8h15.6l-12.6 9.2 4.8 14.9-12.7-9.2-12.6 9.2 4.8-14.9-12.6-9.2h15.6z"/></g><path fill="#FFDA44" d="M306.8 254.7c-49.2 0-89.1-39.9-89.1-89.1s39.9-89.1 89.1-89.1c15.3 0 29.8 3.9 42.4 10.7C329.4 67.9 302.3 56 272.5 56c-60.5 0-109.6 49.1-109.6 109.6S212 275.3 272.5 275.3c29.8 0 56.9-11.9 76.6-31.3-12.6 6.8-27 10.7-42.3 10.7zM140.4 59.5C129.7 41 109.7 28.6 86.8 28.6S44 41 33.3 59.5h107.1zM140.6 59.9l-53.8 53.8-53.7-53.8C28 68.9 25 79.3 25 90.5c0 34.2 27.7 61.9 61.9 61.9s61.9-27.7 61.9-61.9c-.1-11.2-3.1-21.6-8.2-30.6z"/><path fill="#A2001D" d="M71.4 98.2v52.2c4.9 1.3 10.1 1.9 15.5 1.9s10.5-.7 15.5-1.9V98.2h-31z"/></svg>