<svg xmlns="http://www.w3.org/2000/svg" viewBox="0 85.333 513 342"><path fill="#01237a" d="M0 85.332h513v342H0z"/><g fill="#FFF"><path d="m384 156.705 5.283 16.254h17.089l-13.826 10.045 5.281 16.254L384 189.211l-13.825 10.047 5.28-16.254-13.825-10.045h17.089zM313.791 185.786l15.228 7.758 12.084-12.083-2.673 16.879 15.227 7.759-16.879 2.673-2.674 16.88-7.76-15.227-16.878 2.673 12.086-12.084zM284.71 255.995l16.254-5.281.001-17.089 10.044 13.825 16.254-5.282-10.046 13.827 10.046 13.826-16.254-5.28-10.044 13.825v-17.09zM313.791 326.204l7.759-15.229-12.084-12.084 16.881 2.674 7.757-15.227 2.674 16.879 16.879 2.672-15.227 7.759 2.673 16.882-12.084-12.087zM384 355.284l-5.281-16.253h-17.091l13.827-10.045-5.28-16.254L384 322.776l13.827-10.044-5.281 16.254 13.826 10.045h-17.089zM454.209 326.204l-15.229-7.758-12.083 12.084 2.673-16.882-15.227-7.756 16.879-2.675 2.675-16.879 7.756 15.227 16.881-2.674-12.086 12.085zM483.29 255.995l-16.254 5.281v17.09l-10.045-13.826-16.254 5.281 10.046-13.826-10.046-13.827 16.254 5.282 10.045-13.825v17.089zM454.209 185.788l-7.757 15.226 12.082 12.084-16.881-2.673-7.756 15.227-2.675-16.88-16.879-2.675 15.227-7.757-2.673-16.878 12.084 12.082zM0 186.665v16h46.069L0 233.377v7.539l57.377-38.252H80L0 255.998h112v-69.334H0zm96 69.331H22.628L96 207.083v48.913zM176 138.665l80-53.334H144v69.334h112v-16h-46.069L256 107.951v-7.539l-57.377 38.251H176v.002zm-16-53.332h73.372L160 134.246V85.333zM144 255.998h112l-80-53.334h22.623L256 240.917v-7.539l-46.069-30.713H256v-16H144v69.333zm16-48.915 73.372 48.913H160v-48.913zM112 85.331H0l80 53.334H57.377L0 100.413v7.539l46.069 30.712H0v16h112V85.331zm-16 48.915L22.628 85.333H96v48.913z"/></g><g fill="#D80027"><path d="M144 85.331h-32v69.334H0v32h112v69.333h32v-69.333h112v-32H144z"/><path d="M80 138.665 0 85.331v15.082l57.377 38.252zM176 138.665h22.623L256 100.413V85.331zM57.377 202.665 0 240.917v15.081l80-53.333zM176 202.665l80 53.333v-15.081l-57.377-38.252z"/></g></svg>