<svg xmlns="http://www.w3.org/2000/svg" viewBox="0 0 513 342"><path fill="#D80027" d="M0 0h513v342H0z"/><g fill="#FFDA44"><path d="m226.8 239.2-9.7-15.6-17.9 4.4 11.9-14.1-9.7-15.6 17.1 6.9 11.8-14.1-1.3 18.4 17.1 6.9-17.9 4.4zM290.6 82l-10.1 15.4 11.6 14.3-17.7-4.8-10.1 15.5-1-18.4-17.7-4.8 17.2-6.6-1-18.4 11.6 14.3zM236.2 25.4l-2 18.3 16.8 7.6-18 3.8-2 18.3-9.2-16-17.9 3.8 12.3-13.7-9.2-15.9 16.8 7.5zM292.8 161.8l-14.9 10.9 5.8 17.5-14.9-10.8-14.9 11 5.6-17.6-14.9-10.7 18.4-.1 5.6-17.6 5.8 17.5zM115 46.3l17.3 53.5h56.2l-45.4 32.9 17.3 53.5-45.4-33-45.5 33 17.4-53.5-45.5-32.9h56.3z"/></g></svg>