<svg xmlns="http://www.w3.org/2000/svg" viewBox="0 0 513 342"><path fill="#003893" d="M0 0h513v342H0z"/><path fill="#cf2027" d="M0 182.2h513v41.4H0z"/><path fill="#FFF" d="M0 140.8h513v41.4H0zM0 223.6h513V265H0z"/><g fill="#f7d116" stroke="#000"><path d="m150.4 70 6.9 21.1h22.2l-18 13.1 6.9 21.1-18-13.1-17.9 13.1 6.8-21.1-17.9-13.1h22.2zM150.4 279.7l6.9 21.1h22.2l-18 13 6.9 21.2-18-13.1-17.9 13.1 6.8-21.2-17.9-13h22.2zM52.8 208.8l6.9 21.1h22.2l-18 13 6.9 21.2-18-13.1-17.9 13.1 6.8-21.2-17.9-13H46zM90.1 91l6.9 21.1h22.2l-18 13 6.9 21.2-18-13.1-17.9 13.1 6.8-21.2-18-13h22.3zM23.8 162H46l6.8-21.1 6.9 21.1h22.2l-18 13.1 6.9 21.1-18-13-17.9 13 6.8-21.1zM72.2 310.9l6.8-21.1-18-13h22.3l6.8-21.2 6.9 21.2h22.2l-18 13 6.9 21.1-18-13zM248 208.8l-6.9 21.1h-22.2l18 13-6.9 21.2 18-13.1 18 13.1-6.9-21.2 18-13h-22.2zM210.7 91l-6.8 21.1h-22.2l17.9 13-6.8 21.2 17.9-13.1 18 13.1-6.9-21.2 18-13h-22.2zM277.1 162h-22.2l-6.9-21.1-6.9 21.1h-22.2l18 13.1-6.9 21.1 18-13 18 13-6.9-21.1zM228.7 310.9l-6.9-21.1 18-13h-22.2l-6.9-21.2-6.8 21.2h-22.2l17.9 13-6.8 21.1 17.9-13z"/></g></svg>