<svg xmlns="http://www.w3.org/2000/svg" viewBox="0 0 513 342"><path fill="#0021ad" d="M0 0h513v342H0z"/><path fill="#1c8a42" d="M0 0h513v342"/><g fill="#FFF"><path d="m77.6 272 5.7 11.9 12.8-3-5.7 11.9 10.3 8.1-12.8 2.9V317l-10.3-8.3-10.2 8.3v-13.2l-12.8-2.9 10.3-8.1-5.8-11.9 12.9 3zM40.5 173.1l5.7 11.9 12.8-3-5.7 11.8 10.3 8.2-12.9 2.9.1 13.2-10.3-8.3-10.3 8.3.1-13.2-12.9-2.9 10.4-8.2L22 182l12.8 3zM77.6 92.2l5.7 11.8 12.8-2.9-5.7 11.8 10.3 8.2-12.8 2.9v13.1l-10.3-8.2-10.2 8.2V124l-12.8-2.9 10.3-8.2-5.8-11.8L72 104zM123.7 155.1l5.7 11.9 12.8-3-5.7 11.9 10.3 8.1-12.8 2.9v13.2l-10.3-8.2-10.2 8.2v-13.2l-12.8-2.9 10.3-8.1-5.7-11.9 12.8 3zM90.8 209.1l4.4 13.7h14.5L98 231.3l4.5 13.7-11.7-8.4-11.7 8.4 4.5-13.7-11.7-8.5h14.4z"/></g><circle fill="#ffc639" cx="267.1" cy="170.7" r="74.5"/><path fill="#1c8a42" d="M267.1 220.3h24.8s10.8-19 0-37.2l24.8-24.8-12.4-24.8h-12.4s-6.2 18.6-31 18.6-31-18.6-31-18.6h-12.4l12.4 24.8-12.4 24.8 12.4 12.4s12.4-24.8 37.2-12.4c0 0 10.5 15.5 0 37.2z"/><path fill="#ffc639" d="M464.4 92.2c.6-2.9-.2-17.6-.2-20.7 0-21.3-13.9-39.4-33.2-45.7 5.9 12 9.2 25.4 9.2 39.7 0 4.8-.4 9.5-1.1 14.1-2.9-4.7-6.6-8.9-11.2-12.6-17.1-13.6-40.6-14-57.9-2.5 13.4 2.9 26.3 8.9 37.7 18 9 7.1 16.2 16.8 21.7 26.1 0 0-17.8 10.9-31 15.1s-42.3 7.9-42.3 7.9c72 12 132-36 132-36-6.5-13.4-15.8-4-23.7-3.4z"/></svg>