<svg xmlns="http://www.w3.org/2000/svg" viewBox="0 0 513 342"><path fill="#496E2D" d="M0 0h513v342H0z"/><path d="M0 110.7v120h513v-120z"/><path fill="#FFDA44" d="M0 110.7h513v40H0z"/><path fill="#FFF" d="M0 190.7h513v40H0z"/><path d="M196 0h120v342H196z"/><path fill="#FFDA44" d="M196 0h40v342h-40z"/><path fill="#FFF" d="M274.7 0h40v342h-40z"/><circle fill="#D80027" cx="256" cy="170.7" r="123.1"/><g fill="#496E2D"><path d="m256 58.6 4.6 14.2h15l-12.1 8.9 4.6 14.2-12.1-8.8-12.1 8.8 4.6-14.2-12.1-8.9h15zM190.1 80l12.2 8.8 12.1-8.8-4.6 14.3 12.1 8.8h-15l-4.6 14.2-4.7-14.2h-15l12.1-8.8zM149.4 136h15l4.6-14.2 4.7 14.2h15l-12.2 8.8 4.7 14.3-12.2-8.8-12.1 8.8 4.6-14.3zM149.4 205.3l12.1-8.8-4.6-14.3L169 191l12.2-8.8-4.7 14.3 12.2 8.8h-15l-4.7 14.3-4.6-14.3zM190.1 261.4l4.6-14.3-12.1-8.8h15l4.7-14.3 4.6 14.3h15l-12.1 8.8 4.6 14.3-12.1-8.9zM256 282.8l-4.6-14.3h-15l12.1-8.8-4.6-14.3 12.1 8.8 12.1-8.8-4.6 14.3 12.1 8.8h-15zM321.9 261.4l-12.2-8.9-12.1 8.9 4.6-14.3-12.1-8.8h15l4.6-14.3 4.7 14.3h15l-12.1 8.8zM362.6 205.3h-15l-4.6 14.3-4.7-14.3h-15l12.2-8.8-4.7-14.3L343 191l12.1-8.8-4.6 14.3zM362.6 136l-12.1 8.8 4.6 14.3-12.1-8.8-12.2 8.8 4.7-14.3-12.2-8.8h15l4.7-14.2 4.6 14.2zM321.9 80l-4.6 14.3 12.1 8.8h-15l-4.7 14.2-4.6-14.2h-15l12.1-8.8-4.6-14.3 12.1 8.8z"/></g><path fill="#496E2D" d="M279.3 168.7c-11-21.1-14.5-25.1-14.5-25.1s.4-9.7.4-15.6c0-8.8-7.4-15.8-16.5-15.8-8.6 0-15.7 2.9-16.5 11-4.2.9-8.6 4.1-8.6 10.7 0 4.8 1 7.3 5.2 9.3 2.1-4.6 4.3-4.8 9.3-6.4.8.6 1.7 3 2.6 3.4l.3 1s-13.3 6.6-13.3 30.9c0 29.5 22 45.4 22 45.4l-1.8.3-1.9 7.1h22v-7.2l11 17.5c.3-.3 10.2-47.6.3-66.5z"/></svg>