<svg xmlns="http://www.w3.org/2000/svg" viewBox="0 0 22.5 15"><path fill="#20AA46" d="M0 0h22.5v5H0V0z"/><path fill="#E92F3B" d="M0 10h22.5v5H0v-5z"/><path fill="#FADF50" d="M0 5h22.5v5H0V5z"/><circle fill="#205CCA" cx="11.3" cy="7.5" r="5.2"/><g stroke="#FFDB3D" fill="none"><g stroke-width=".5"><path d="m11.3 8.8-2.1 1.5.8-2.4-2-1.5h2.5l.8-2.3.8 2.3h2.6l-2.1 1.5.8 2.4-2.1-1.5zM10.3 6.4h1.9M9.9 7.8l1.3 1M12 6.2l.7 1.8M10 7.9l.6-1.8M11 9l1.6-1.1"/></g><g stroke-width=".25"><path d="m8.7 3.9 1.1 1.6M13.8 3.8l-1 1.6M11.3 10.1V12M8.9 8.3 7.1 9M15.5 9l-1.8-.7"/></g></g></svg>