<svg xmlns="http://www.w3.org/2000/svg" viewBox="0 0 810 540"><path fill="#039" d="M0 0h810v540H0z"/><path fill="#FC0" d="m404.951 59.865 6.735 20.718h21.894l-17.633 12.812 6.638 20.74-17.634-12.812-17.634 12.812 6.736-20.729-17.633-12.812h21.796zm-90 24 6.735 20.718h21.894l-17.633 12.812 6.638 20.74-17.634-12.812-17.634 12.812 6.736-20.729-17.633-12.812h21.796zm-66 66 6.735 20.718h21.894l-17.633 12.812 6.638 20.74-17.634-12.812-17.634 12.812 6.736-20.729-17.633-12.812h21.796zm-24 89.999 6.735 20.719h21.894l-17.633 12.813 6.638 20.74-17.634-12.813-17.634 12.813 6.736-20.731-17.633-12.811h21.796zm24 90.001 6.735 20.719h21.894l-17.633 12.811 6.638 20.74-17.634-12.811-17.634 12.811 6.736-20.729-17.633-12.812h21.796zm66 66 6.735 20.719h21.894l-17.633 12.811 6.638 20.74-17.634-12.811-17.634 12.811 6.736-20.729-17.633-12.812h21.796zm180-312 6.735 20.718h21.894l-17.633 12.812 6.637 20.74-17.633-12.812-17.635 12.812 6.737-20.729-17.633-12.812h21.795zm66 66 6.735 20.718h21.894l-17.633 12.812 6.637 20.74-17.633-12.812-17.635 12.812 6.737-20.729-17.633-12.812h21.795zm24 90 6.735 20.718h21.894l-17.633 12.813 6.638 20.74-17.634-12.813-17.634 12.813 6.736-20.731-17.633-12.811h21.796zm-24 90 6.735 20.719h21.894l-17.633 12.811 6.638 20.74-17.634-12.811-17.634 12.811 6.736-20.729-17.633-12.812h21.796zm-156 90 6.735 20.719h21.894l-17.633 12.811 6.638 20.74-17.634-12.811-17.634 12.811 6.736-20.729-17.633-12.812h21.796zm90-24.001 6.735 20.719h21.894l-17.633 12.812 6.639 20.74-17.635-12.812-17.633 12.812 6.735-20.73-17.633-12.811h21.797z"/></svg>