<svg xmlns="http://www.w3.org/2000/svg" viewBox="0 0 513 342"><path fill="#0052B4" d="M0 0h513v342H0z"/><path fill="#FFF" d="M256 0v30.6l-45.2 25.1H256V115h-59.1l59.1 32.8v22.9h-26.7l-73.5-40.9v40.9h-55.6v-48.6l-87.5 48.6H0v-30.6L45.2 115H0V55.7h59.1L0 22.8V0h26.7l73.5 40.8V0h55.6v48.6L243.3 0z"/><path fill="#D80027" d="M144 0h-32v69.3H0v32h112v69.4h32v-69.4h112v-32H144z"/><path fill="#0052B4" d="M155.8 115 256 170.7v-15.8L184.2 115z"/><path fill="#FFF" d="M155.8 115 256 170.7v-15.8L184.2 115z"/><g fill="#D80027"><path d="M155.8 115 256 170.7v-15.8L184.2 115zM71.8 115 0 154.9v15.8L100.2 115z"/></g><path fill="#0052B4" d="M100.2 55.6 0 0v15.7l71.8 39.9z"/><path fill="#FFF" d="M100.2 55.6 0 0v15.7l71.8 39.9z"/><g fill="#D80027"><path d="M100.2 55.6 0 0v15.7l71.8 39.9zM184.2 55.6 256 15.7V0L155.8 55.6z"/></g><path fill="#1F8BDE" d="M312.2 194.2v-90c0-8.5 6.5-15.3 15-15.3h120.5c8.3 0 15 6.8 15 15.3v90c0 75.2-75.2 105.3-75.2 105.3s-75.3-30.1-75.3-105.3z"/><path fill="#FFF" d="M312.2 194.2v-90c0-8.5 6.5-15.3 15-15.3h120.5c8.3 0 15 6.8 15 15.3v90c0 75.2-75.2 105.3-75.2 105.3s-75.3-30.1-75.3-105.3zm79.6 86.3c7.9-4.5 15.9-10 23.2-16.7 20.5-18.5 32.6-41.4 32.6-69.7v-90c0-.3-120.4-.3-120.4-.3v90.3c0 28.3 12.1 51.2 32.6 69.7 8.3 7.5 17.6 13.9 27.6 19 1.4-.6 2.8-1.4 4.4-2.3z"/><path fill="#187536" d="M347.1 193.4c-2.6-7.9 1.7-14.3 10.1-14.3h60.5c8.2 0 12.8 6.3 10.1 14.3l-5.5 16.5c-2.6 7.9-8.9 9.2-15.8 4 0 0 2.6-4.8-19.1-4.8-21.7 0-19.1 4.8-19.1 4.8-6.1 5.7-13.1 4-15.8-4 .1.1-5.4-16.5-5.4-16.5z"/><path fill="#FFF" d="M357.4 179.1c8.1 1.6 17.8-15 30.1-15 13.1 0 21.8 17.1 30.1 15 7.4-1.8 15-22.2 15-30.1 0-16.6-20.2-30.1-45.1-30.1-24.9 0-45.1 13.5-45.1 30.1-.1 8.5 6.6 28.5 15 30.1zM356 270.7c6.2.4 12.5-1.8 17.2-6.5l9-9c2.9-2.9 7.5-2.9 10.4 0l9 9c4.7 4.7 11 6.9 17.1 6.5 5.3-.3 32.5-33.5 25.7-32.6-4.6.6-9.1 2.8-12.7 6.3l-.1.1-9 9c-2.9 2.9-7.5 2.9-10.4 0l-9-9c-8.7-8.8-22.9-8.8-31.7-.1l-.1.1-9 9c-2.9 2.9-7.5 2.9-10.4 0l-9-9c-3.5-3.5-7.8-5.6-12.3-6.3-6.7-1.1 20.1 32.2 25.3 32.5zM322.1 210c2.9-2.9 7.5-2.9 10.4 0l9 9c8.8 8.7 22.9 8.7 31.7 0l9-9c2.9-2.9 7.5-2.9 10.4 0l9 9c8.8 8.7 22.9 8.7 31.7 0l9-9c2.9-2.9 7.5-2.9 10.4 0 0 0 5.5-14.8 2.5-15.9-7.9-2.9-17.2-1.2-23.5 5.2l-.1.1-9 9c-2.9 2.9-7.5 2.9-10.4 0l-9-9c-8.7-8.8-22.9-8.8-31.7-.1l-.1.1-9 9c-2.9 2.9-7.5 2.9-10.4 0l-9-9c-6.2-6.2-15.1-8-22.8-5.5-3.1 1.1 1.9 16.1 1.9 16.1z"/></svg>