<svg xmlns="http://www.w3.org/2000/svg" viewBox="0 0 513 342"><path fill="#FFF" d="M0 0h513v342H0z"/><path fill="#D80027" d="M0 230h513v112H0z"/><path fill="#D80027" stroke="#000" stroke-miterlimit="10" d="M363.1 131.8V99.1H374V77.3h-21.9v10.9h-21.8V77.3h-21.8v21.8h10.9v32.7h-21.8V55.5h10.9V33.7h-21.8v10.9h-10.9V33.7H254v10.9h-10.9V33.7h-21.8v21.8h10.9v76.3h-21.8V99.1h10.9V77.3h-21.8v10.9h-21.8V77.3h-21.8v21.8h10.9v32.7H145V219h239.9v-87.2z"/><path fill="#FFDA44" stroke="#000" stroke-miterlimit="10" d="m264.9 235.5-24.2 18.2 19.1 14.3v31.3h-23.2v9h23v7.9h-23v9.3H270V268l19.1-14.3-24.2-18.2zm0 25.3-10.1-7.1 10.1-7.1 10.1 7.1-10.1 7.1z"/><path d="M239.6 209.7v-27.9s.1-22.3 25-22.3c24.8 0 25.7 22 25.7 22v28.2h-50.7zM170.5 209.7v-24.3s.1-18.7 19.6-18.7 20.2 18.4 20.2 18.4v24.5h-39.8z"/><path d="M169.1 209.7v-24.3s.1-18.7 19.6-18.7 20.2 18.4 20.2 18.4v24.5h-39.8zM320.9 209.7v-24.3s.1-18.7 19.6-18.7 20.2 18.4 20.2 18.4v24.5h-39.8zM329.3 132v-15.7s.1-12.1 11.3-12.1c11.3 0 11.7 11.9 11.7 11.9V132h-23zM250.5 132v-23.7s.1-18.3 14.3-18.3c14.2 0 14.7 18 14.7 18v24h-29zM177.5 132v-15.7s.1-12.1 11.3-12.1 11.7 11.9 11.7 11.9V132h-23z"/></svg>