<svg xmlns="http://www.w3.org/2000/svg" viewBox="0 0 513 342"><path fill="#FFF" d="M0 0h513v342H0z"/><path fill="#6DA544" d="M0 0h513v113.8H0z"/><path fill="#D80027" d="M0 227.6h513V342H0z"/><path fill="#0070C8" d="M126 171 0 342V0z"/><path fill="none" stroke="#000" stroke-miterlimit="10" d="M233.8 139.4v40.4c0 35.6 35.6 35.6 35.6 35.6s35.6 0 35.6-35.6v-40.4h-71.2z"/><path fill="#786145" d="M264.5 179.8h9.8l4 25.8h-17.8z"/><path fill="#6DA544" d="M287.2 162c0-9.8-8-14.8-17.8-14.8s-17.8 5-17.8 14.8c-4.9 0-8.9 4-8.9 8.9s4 8.9 8.9 8.9h35.6c4.9 0 8.9-4 8.9-8.9s-4-8.9-8.9-8.9z"/><g fill="#FFDA00" stroke="#000" stroke-miterlimit="10"><path d="m230.7 120 1.9 3.3h3.8l-1.9 3.3 1.9 3.2h-3.8l-1.9 3.3-1.9-3.3H225l1.9-3.2-1.9-3.3h3.8zM246 120l1.9 3.3h3.7l-1.9 3.3 1.9 3.2h-3.7l-1.9 3.3-1.9-3.3h-3.8l1.9-3.2-1.9-3.3h3.8zM261.3 120l1.9 3.3h3.7l-1.9 3.3 1.9 3.2h-3.7l-1.9 3.3-1.9-3.3h-3.8l1.9-3.2-1.9-3.3h3.8zM277.1 120l1.9 3.3h3.8l-1.9 3.3 1.9 3.2H279l-1.9 3.3-1.9-3.3h-3.7l1.8-3.2-1.8-3.3h3.7zM293.1 120l1.9 3.3h3.8l-1.9 3.3 1.9 3.2H295l-1.9 3.3-1.9-3.3h-3.7l1.8-3.2-1.8-3.3h3.7zM308.1 120l1.9 3.3h3.7l-1.9 3.3 1.9 3.2H310l-1.9 3.3-1.9-3.3h-3.8l1.9-3.2-1.9-3.3h3.8z"/></g></svg>