<svg xmlns="http://www.w3.org/2000/svg" viewBox="0 0 513 342"><path fill="#E52D42" d="M0 0h513v342H0z"/><path fill="#FFF" d="M393.3 68.2h-45.8l-33.8 80.2-34.4-22.9s-24.7-59.1-34.4-68.2c-9.7-9.7-18.7-.6-48.9 7.8-29.6 8.4-30.8 18.7-42.2 18.7-4.8 0-19.9-17.5-27.7-22.3-12.1-7.8-16.9-4.2-13.9 7.2 1.2 4.8 10.9 10.9 16.9 19.9 7.8 11.5 12.7 25.9 12.7 25.9s10.9-10.3 16.9-12.1c9-2.4 19.3 1.8 31.4 0 15.1-2.4 31.4-10.9 31.4-10.9l4.2 43.4s-54.3 50.7-49.5 70.6 56.1 44.6 68.2 62.7c12.1 17.5-7.2 24.1-7.2 32.6s-1.8 19.9 7.2 16.3c9-3.6 10.3-18.1 18.7-31.4 6-9 10.3-13.9 11.5-17.5 1.8-9-23.5-32-37.4-48.9-6.6-7.8-19.9-18.7-19.9-18.7l39.2-29.6s67.6 27.7 82.6 18.7c15.1-9 19.3-98.3 19.3-98.3l47-11.5-12.1-11.7z"/><path fill="#F8DD4E" d="M279.3 262.4c-6 0-11.5-4.8-11.5-11.5s4.8-11.5 11.5-11.5c6 0 11.5 4.8 11.5 11.5s-5.5 11.5-11.5 11.5zm45.8-182.8c-6 0-11.5-4.8-11.5-11.5s4.8-11.5 11.5-11.5c6 0 11.5 4.8 11.5 11.5s-5.5 11.5-11.5 11.5zm0 91.1c-6 0-11.5-4.8-11.5-11.5 0-6 4.8-11.5 11.5-11.5 6 0 11.5 4.8 11.5 11.5-.6 6.7-5.5 11.5-11.5 11.5zm-136.9 45.8c-6 0-11.5-4.8-11.5-11.5 0-6 4.8-11.5 11.5-11.5 6.6 0 11.5 4.8 11.5 11.5s-5.5 11.5-11.5 11.5zm45.2-136.9c-6 0-11.5-4.8-11.5-11.5s4.8-11.5 11.5-11.5c6 0 11.5 4.8 11.5 11.5s-4.8 11.5-11.5 11.5zm22.9 91.1c-6 0-11.5-10.3-11.5-22.9s4.8-22.9 11.5-22.9c6 0 11.5 10.3 11.5 22.9s-4.8 22.9-11.5 22.9zm-114-45.2c-6 0-11.5-4.8-11.5-11.5 0-6.6 4.8-11.5 11.5-11.5 6.6 0 11.5 4.8 11.5 11.5 0 6.6-4.8 11.5-11.5 11.5z"/></svg>