<svg xmlns="http://www.w3.org/2000/svg" viewBox="0 0 513 342"><path fill="#FFF" d="M0-.3h513V342H0V-.3z"/><path fill="#0052B4" d="M462.9 198.1c-4 0-14-5-21-9-11-6-21-12-31.1-12s-20 6-31.1 12c-7 4-16 9-20 9s-14-5-20-9c-11-6-22-12-32.1-12-9 0-20 6-31.1 12-7 4-16 9-20 9s-13-5-20-9c-11-6-22-12-31.1-12-10 0-21 6-32.1 12-6 4-16 9-20 9s-13-5-20-9c-11-6-21-12-31.1-12s-20 6-31.1 12c-7 4-17 9-21 9s-13-5-20-9c-10-6-20-12-30.1-12v22l19 10c11 6 21 12 31.1 12s21-6 32.1-12c6-4 16-10 20-10s13 6 20 10c11 6 21 12 31.1 12s20-6 31.1-12c7-4 17-10 21-10s13 6 20 10c11 6 21 12 31.1 12s20-6 31.1-12c7-4 16-10 20-10s14 6 21 10c11 6 21 12 31.1 12s20-6 31.1-12c7-4 16-10 20-10s14 6 20 10c11 6 22 12 32.1 12s20-6 31.1-12l19-10v-22c-10 0-20 6-30.1 12-7 4-16 9-20 9zM0 31.7l19 10c11 6 21 12 31.1 12s21-6 32.1-12c6-4 16-10 20-10s13 6 20 10c11 6 21 12 31.1 12s20-6 31.1-12c7-4 17-10 21-10s13 6 20 10c11 6 21 12 31.1 12s20-6 31.1-12c7-4 16-10 20-10s14 6 21 10c11 6 21 12 31.1 12s20-6 31.1-12c7-4 16-10 20-10s14 6 20 10c11 6 22 12 32.1 12s20-6 31.1-12l19-10v-22c-10 1-20 6-30.1 12-7 4-16 9-20 9s-14-5-21-9c-11-6-21-12-31.1-12s-20 6-31.1 12c-7 4-16 9-20 9s-14-5-20-9c-11-6-22-12-32.1-12s-20 6-31.1 12c-7 4-16 9-20 9s-13-5-20-9c-11-6-22-12-31.1-12s-21 6-32.1 12c-6 4-16 9-20 9s-13-5-20-9c-11-6-21-12-31.1-12s-20 6-31.1 12c-7 4-17 9-21 9s-13-5-20-9c-10-6-20-11-30.1-12v22zm462.9 55.2c-4 0-14-5-21-9-11-6-21-12-31.1-12s-20 6-31.1 12c-7 4-16 9-20 9s-14-5-20-9c-11-6-22-12-32.1-12-9 0-20 6-31.1 12-7 4-16 9-20 9s-13-5-20-9c-11-6-22-12-31.1-12-10 0-21 6-32.1 12-6 4-16 9-20 9s-13-5-20-9c-11-6-21-12-31.1-12s-20 6-31.1 12c-7 4-17 9-21 9s-13-5-20-9c-10-6-20-12-30.1-12v22l19 9c11 6 21 12 31.1 12s21-6 32.1-12c6-4 16-9 20-9s13 5 20 9c11 6 21 12 31.1 12s20-6 31.1-12c7-4 17-9 21-9s13 5 20 9c11 6 21 12 31.1 12s20-6 31.1-12c7-4 16-9 20-9s14 5 21 9c11 6 21 12 31.1 12s20-6 31.1-12c7-4 16-9 20-9s14 5 20 9c11 6 22 12 32.1 12s20-6 31.1-12l19-9v-22c-10 0-20 6-30.1 12-7 3.9-16 9-20 9zm50.1 34c-10 1-20 6-30.1 12-7 4-16 10-20 10s-14-6-21-10c-11-6-21-12-31.1-12s-20 6-31.1 12c-7 4-16 10-20 10s-14-6-20-10c-11-6-22-12-32.1-12s-20 6-31.1 12c-7 4-16 10-20 10s-13-6-20-10c-11-6-22-12-31.1-12s-21 6-32.1 12c-6 4-16 10-20 10s-13-6-20-10c-11-6-21-12-31.1-12s-20 6-31.1 12c-7 4-17 10-21 10s-13-6-20-10c-10-6-20-11-30.1-12v23c4 1 13 5 19 9 11 6 21 12 31.1 12s21-6 32.1-12c6-4 16-9 20-9s13 5 20 9c11 6 21 12 31.1 12s20-6 31.1-12c7-4 17-9 21-9s13 5 20 9c11 6 21 12 31.1 12s20-6 31.1-12c7-4 16-9 20-9s14 5 21 9c11 6 21 12 31.1 12s20-6 31.1-12c7-4 16-9 20-9s14 5 20 9c11 6 22 12 32.1 12s20-6 31.1-12c6-4 15-8 19-9v-23zm-50.1 133.3c-4 0-14-5-21-9-11-6-21-12-31.1-12s-20 6-31.1 12c-7 4-16 9-20 9s-14-5-20-9c-11-6-22-12-32.1-12-9 0-20 6-31.1 12-7 4-16 9-20 9s-13-5-20-9c-11-6-22-12-31.1-12-10 0-21 6-32.1 12-6 4-16 9-20 9s-13-5-20-9c-11-6-21-12-31.1-12s-20 6-31.1 12c-7 4-17 9-21 9s-13-5-20-9c-10-6-20-12-30.1-12v22l19 9c11 6 21 12 31.1 12s21-6 32.1-12c6-4 16-9 20-9s13 5 20 9c11 6 21 12 31.1 12s20-6 31.1-12c7-4 17-9 21-9s13 5 20 9c11 6 21 12 31.1 12s20-6 31.1-12c7-4 16-9 20-9s14 5 21 9c11 6 21 12 31.1 12s20-6 31.1-12c7-4 16-9 20-9s14 5 20 9c11 6 22 12 32.1 12s20-6 31.1-12l19-9v-22c-10 0-20 6-30.1 12-7 4-16 9-20 9zm50.1 34c-10 1-20 6-30.1 12-7 4-16 10-20 10s-14-6-21-10c-11-6-21-12-31.1-12s-20 6-31.1 12c-7 4-16 10-20 10s-14-6-20-10c-11-6-22-12-32.1-12s-20 6-31.1 12c-7 4-16 10-20 10s-13-6-20-10c-11-6-22-12-31.1-12s-21 6-32.1 12c-6 4-16 10-20 10s-13-6-20-10c-11-6-21-12-31.1-12s-20 6-31.1 12c-7 4-17 10-21 10s-13-6-20-10c-10-6-20-11-30.1-12v23c4 0 13 5 19 9 11 6 21 12 31.1 12s21-6 32.1-12c6-4 16-9 20-9s13 5 20 9c11 6 21 12 31.1 12s20-6 31.1-12c7-4 17-9 21-9s13 5 20 9c11 6 21 12 31.1 12s20-6 31.1-12c7-4 16-9 20-9s14 5 21 9c11 6 21 12 31.1 12s20-6 31.1-12c7-4 16-9 20-9s14 5 20 9c11 6 22 12 32.1 12s20-6 31.1-12c6-4 15-9 19-9v-23z"/><path fill="#FFF" d="M0-.3h256v171H0V-.3z"/><path d="M389.8 119.9H408v78.8h-18.3l.1-78.8zm0 117.8H408v75.1h-18.3l.1-75.1z" fill="#A2001D"/><g fill="#D80027"><path d="M144-.3h-32v70H0v32h112v69h32v-69h112v-32H144v-70z"/><path d="M0-.3v15l57 39h23L0-.3zM256-.3v15l-57 39h-23l80-54z"/><path d="M0-.3v15l57 39h23L0-.3zM256-.3v15l-57 39h-23l80-54zM0 170.7v-15l57-38h23l-80 53zM256 170.7v-15l-57-38h-23l80 53z"/></g><g fill="#2E52B2"><path d="M0 22.7v31h46l-46-31zm96-23v49L23-.3h73zM256 22.7v31h-46l46-31zm-96-23v49l73-49h-73z"/><path d="M0 22.7v31h46l-46-31zm96-23v49L23-.3h73zM256 22.7v31h-46l46-31zm-96-23v49l73-49h-73zM0 147.7v-30h46l-46 30zm96 23v-49l-73 49h73zM256 147.7v-30h-46l46 30zm-96 23v-49l73 49h-73z"/></g><path fill="#5DA51E" stroke="#45602C" stroke-width="4" stroke-miterlimit="10" d="M462.8 91.5h-29.1l25.7-25.7c4.5-4.4 4.5-11.4 0-15.8l-3.4-3.4c-4.4-4.4-11.4-4.4-15.8 0l-25.9 25.9V37.4c0-6.2-5.1-11.3-11.3-11.3h-4.7c-6.2 0-11.3 5.1-11.3 11.3v31.7l-23.5-23.8c-4.7-4.7-12.2-4.7-16.9 0l-3.6 3.6c-4.7 4.7-4.7 12.4 0 17.2l25 25.4h-30.6c-6 0-10.9 4.9-10.9 10.9v4.6c0 6 4.9 10.9 10.9 10.9H369l-20.7 20.7c-4.4 4.4-4.4 11.4 0 15.8l3.4 3.4c4.4 4.4 11.4 4.4 15.8 0l19.6-19.6V167c0 6.1 5.1 11.1 11.3 11.3h4.7c6.2 0 11.3-5.1 11.3-11.3v-28.3l22.2 22.6c4.7 4.7 12.4 4.7 17.1 0l3.6-3.6c4.7-4.7 4.7-12.4 0-17.2L435.2 118h27.6c5.9 0 10.7-4.9 10.9-10.9v-4.6c0-6.1-4.9-11-10.9-11z"/><path fill="#E2DD24" stroke="#525625" stroke-width="4" stroke-miterlimit="10" d="M439.2 249.1h-79.8s-.9-13.4-6-21.8c-6.2-10.4-13.9-28.1-1.4-36.7 15.9-10.9 33.7.8 48.2.8 11.8.1 26.9-14 45-.8 12.2 8.9 3.9 28.2-1.3 36.7-7 11.5-4.7 21.8-4.7 21.8z"/></svg>