<svg xmlns="http://www.w3.org/2000/svg" viewBox="0 0 513 342"><path fill="#FFF" d="M0 0h512v342H0z"/><path fill="#6DA544" d="M0 0h513v114H0z"/><g fill="#D80027"><path d="M0 227.9h513v114H0zM278.8 134.8c.1 2 8.7 26.2 4.4 39.4-6.6 20.3-15.8 21.8-19.8 24.5V134l-6.9-4.2-6.9 4.2v64.7c-4-2.7-12.4-2.4-19.8-24.5-4.3-12.7 5.7-37.3 5.8-39.2 0 0-9.5 8.1-15.8 24-5.9 14.8 1.9 49.6 29.5 54.8 2.3.4 4.7 5.6 7.2 5.6 2.1 0 4.1-5.2 6-5.5 28.4-4.6 35-41.7 29.9-55.6-5.4-14.6-13.6-23.5-13.6-23.5z"/></g><g fill="#FFF" opacity=".5"><path d="M44.6 98.9h22.3v24.4H44.6zM0 98.9h22.3v24.4H0zM89.2 98.9h22.3v24.4H89.2zM133.8 98.9h22.3v24.4h-22.3zM178.4 98.9h22.3v24.4h-22.3zM223 98.9h22.3v24.4H223zM267.7 98.9H290v24.4h-22.3zM312.3 98.9h22.3v24.4h-22.3zM356.9 98.9h22.3v24.4h-22.3zM401.5 98.9h22.3v24.4h-22.3zM446.1 98.9h22.3v24.4h-22.3zM490.7 98.9H513v24.4h-22.3zM44.6 216.9h22.3v25.5H44.6zM0 216.9h22.3v25.5H0zM89.2 216.9h22.3v25.5H89.2zM133.8 216.9h22.3v25.5h-22.3zM178.4 216.9h22.3v25.5h-22.3zM223 216.9h22.3v25.5H223zM267.7 216.9H290v25.5h-22.3zM312.3 216.9h22.3v25.5h-22.3zM356.9 216.9h22.3v25.5h-22.3zM401.5 216.9h22.3v25.5h-22.3zM446.1 216.9h22.3v25.5h-22.3zM490.7 216.9H513v25.5h-22.3z"/></g></svg>