<svg xmlns="http://www.w3.org/2000/svg" viewBox="0 0 450 300"><path fill="#CE1126" d="M0 0h450v300H0V0z"/><g fill="#FCD116"><circle cx="227.6" cy="161.2" r="56.2"/><path d="m254.1 73.4-23.7 26 28.6 6.5zM202.6 73.6l-4.8 33.1 28.5-8zM296.9 100.3l-34.7 8.5 20.1 23.7zM158.6 98.5l15.5 32.7 20.2-22.7zM317.6 143.8l-34.4-9.9 5.6 29.5zM135.6 141.2l31.9 19.8 5.2-27.7z"/></g><path fill="#003F87" d="M0 175h450v125H0V175z"/><path fill="#FFF" d="M0 267c15 0 30 13 45 13s30-13 45-13 30 13 45 13 30-13 45-13 30 13 45 13 30-13 45-13 30 13 45 13 30-13 45-13 30 13 45 13 30-13 45-13v-21c-15 0-30 13-45 13s-30-13-45-13-30 13-45 13-30-13-45-13-30 13-45 13-30-13-45-13-30 13-45 13-30-13-45-13-30 13-45 13-30-13-45-13v21zm0-43c15 0 30 13 45 13s30-13 45-13 30 13 45 13 30-13 45-13 30 13 45 13 30-13 45-13 30 13 45 13 30-13 45-13 30 13 45 13 30-13 45-13v-21c-15 0-30 13-45 13s-30-13-45-13-30 13-45 13-30-13-45-13-30 13-45 13-30-13-45-13-30 13-45 13-30-13-45-13-30 13-45 13-30-13-45-13v21zm0-43c15 0 30 13 45 13s30-13 45-13 30 13 45 13 30-13 45-13 30 13 45 13 30-13 45-13 30 13 45 13 30-13 45-13 30 13 45 13 30-13 45-13v-21c-15 0-30 13-45 13s-30-13-45-13-30 13-45 13-30-13-45-13-30 13-45 13-30-13-45-13-30 13-45 13-30-13-45-13-30 13-45 13-30-13-45-13v21z"/><path fill-rule="evenodd" clip-rule="evenodd" fill="#FCD116" d="m183.2 48.3-1.1-5.3 22.4-3.7s-30.1-7.1-40-10.7c-14.3-5.1-16.3-12.1-16.3-12.1s44.7 11 64.8 11c4.3 0 12.8 10.7 12.8 10.7s14.8-14.9 21.9-15.4c32.1-2.3 66.6-6.4 66.6-6.4s-10 6.7-16 8.5c-16.2 4.9-50.6 11.7-50.6 11.7l-4.8 7.5H277l-14.4 4.3 7.4 6.9s-7.8-4.1-18.1-2.1c-7.1 1.3-15.4 6-22.9 8-18.7 4.8-29.9-12.8-29.9-12.8l-15.9-.1z"/></svg>