<svg xmlns="http://www.w3.org/2000/svg" viewBox="0 0 513 342"><path fill="#FFDA44" d="M0 0h513v342H0z"/><path fill="#A2001D" d="M222.6 22.3h267.1v296.8H222.6z"/><path fill="#D80027" d="M22.3 22.3h200.3v296.8H22.3z"/><path fill="#FFDA44" d="M200.3 0h22.3v342h-22.3z"/><path fill="#6DA544" d="M22.3 22.3h89v296.8h-89z"/><path fill="#FF9811" d="M111.3 22.3h89v296.8h-89z"/><path fill="#FFDA44" d="M368.2 156.8c-1.4-2 0-37.9 0-37.9.9-7.4.1-8.4 1-11.4.9-2.9 5.4-11.6 5.4-11.6s-6-2.3-10.3-.6c-4.3 1.7-24.7-7.5-31.2 3.4-4.4 7-23.6 16.2-24.6 14-1-2.2-5.9-5-6.9-2.9s-.7 13.9 0 16c.8 2.6 9.8 2 12.3 3.1 3.7 1.8 12.2 8.2 11.9 10.7-.3 2.5-22.5-6-24.2-4.5-1.4 1.2-1.9 13.2-.4 15 1.8 2.1 23.4 5.6 25 7.5 1.6 1.9-13.1 7.4-12.3 25 .7 14.7 8 17.4 8 17.4s-2.4 3.6-7.8 3.1c-6.2-.6-27.4-17.7-27.4-17.7s-3.5-109 3.6-121.4c4.9-8.5-22.7 10.1-22.7 50.8V151c0 6.6-1.4 22.4 2.6 34 0 0-.4 46.9 1.5 49.6s12.7 2.2 14.8 0 0-30 0-30c7.7.2 18.3 17.5 32.5 16.4 20.6-1.6 28.7-9.9 34.3-5 8.1 7.1 5.5 23.2.4 31.5-2.2 3.5-14.3 4.7-15.7 7.6-1.4 2.9.5 5.4.5 5.4h29.7s1.4-20.5 2.7-26.1c1.3-5.7-.6-10.7 5.9-10.4 23.5 1.1 39.8-15.3 45.5-8 3.2 4.1 5.6 29.9 3.3 33.3-2.2 3.4-13.8 2.8-15.2 6.7-1.4 4 .8 4.4.8 4.4h29.7s-.4-21.2 2.5-27.7 4.9-10.4 9.3-17.2c4.4-6.8 11.3-15.7 11.3-36.2 0-14.2-8.1-22.8-8.1-22.8H417c-14.1.2-47.4 2.3-48.8.3zM232.2 32.3c10.7-10.6 20.2-2.7 22.2 2.1 1.9 4.8 2.1 8.2 2.8 13.6.9 6.9 4.9 14 4.9 14s-7.1-3.8-14.7-4.2c-4.7-.3-9-.6-13.6-2.5-5.7-2.3-11.7-12.9-1.6-23zM480.6 32.2c10.7 10.6 2.8 20.2-2 22.2s-8.2 2.1-13.6 2.8c-6.9.9-14 5-14 5s3.7-7.1 4.2-14.7c.3-4.7.6-9.1 2.4-13.6 2.2-5.7 12.8-11.8 23-1.7zM480.7 309.1c-10.7 10.6-20.2 2.6-22.2-2.2-1.9-4.8-2.1-8.2-2.7-13.6-.8-6.9-4.9-14.1-4.9-14.1s7 3.8 14.7 4.3c4.7.3 9 .6 13.6 2.5 5.7 2.4 11.7 13.1 1.5 23.1zM232.5 309c-10.6-10.7-2.7-20.2 2.1-22.2 4.8-1.9 8.2-2.1 13.6-2.8 6.9-.9 14-4.9 14-4.9s-3.8 7.1-4.2 14.7c-.3 4.7-.6 9-2.5 13.6-2.3 5.7-12.9 11.8-23 1.6z"/><path fill="none" stroke="#FFDA44" stroke-width="6" stroke-miterlimit="10" d="M446.9 162.4s7.5-2.6 8.4-16.1c.6-8.6-19.8-16-39-11.5-19.7 4.6-34-3.1-34-14.6 0-22.9 29.7-16.2 38.9-11.3 9.1 4.9 29.7 23.5 35.1 9.4"/></svg>