<svg xmlns="http://www.w3.org/2000/svg" viewBox="0 0 513 342"><path fill="#0052B4" d="M0 0h513v342H0z"/><g fill="#fff"><path d="M512 148.4v44.5H278.3v148.4h-44.6V192.9H0v-44.5h233.7V0h44.6v148.4z"/><path d="M101 36.1c4.2-.2 8.3-.1 12.5.2 5.5.4 9.4 1.6 9.1.5-.5-1.8-.1-2.2-.8-1.8-1.3 1 .7-.2-7.4 4.4-11.8 6.7-16.9 11.8-14.3 21 2.3 8.1 8.2 10.3 22.3 12.5l1.9.3c5.6.9 8.1 1.4 9.8 2.2.4.2-.3-1-.1-1.7-.2.6-3.9 2.1-13.3 3.9l-4.7.9c-18.1 3.7-27.1 8.5-28.5 21-1.5 13.7 12.7 23.3 30.6 25.6 18.2 2.4 34.1-3.6 35.7-18.4 1-9.4-5.5-15-15.9-17.1-7-1.4-16.3-1.4-27.4-.3-12.4 1.3-24.7 3.4-36.9 6.3-3.6.7-5.9 4.2-5.2 7.8.7 3.6 4.2 5.9 7.8 5.2.2 0 .3-.1.5-.1 11.6-2.7 23.3-4.7 35.1-5.9 9.9-1 18-1 23.4.1 4.4.9 5.3 1.7 5.2 2.6-.5 5.1-8.9 8.2-20.7 6.7-11.6-1.5-19.5-6.8-19.1-11 .5-4.3 5.3-6.8 17.9-9.4l4.6-.9c15.5-3 21.1-5.3 23.5-13.2 1.9-6.5-1.3-11.6-7.2-14.2-3.2-1.4-6.3-2.1-13.2-3.1l-1.8-.3c-8-1.3-11.4-2.6-11.5-3-.1-.4 1.8-2.3 8.1-5.9l4.4-2.5c1.5-.8 2.9-1.8 4.3-2.7 4.6-3.4 7.2-7.1 5.8-12.3-1.9-7.3-9-9.5-20.9-10.4-4.7-.3-9.3-.4-14-.3l-2 .1c-3.7.2-6.5 3.4-6.3 7 .2 3.7 3.4 6.5 7 6.3l1.7-.1zM385 36.1c4.2-.2 8.3-.1 12.5.2 5.5.4 9.4 1.6 9.1.5-.5-1.8-.1-2.2-.8-1.8-1.3 1 .7-.2-7.4 4.4-11.8 6.7-16.9 11.8-14.3 21 2.3 8.1 8.2 10.3 22.3 12.5l1.9.3c5.6.9 8.1 1.4 9.8 2.2.4.2-.3-1-.1-1.7-.2.6-3.9 2.1-13.3 3.9l-4.7.9c-18.1 3.7-27.1 8.5-28.5 21-1.5 13.7 12.7 23.3 30.6 25.6 18.2 2.4 34.1-3.6 35.7-18.4 1-9.4-5.5-15-15.9-17.1-7-1.4-16.3-1.4-27.4-.3-12.4 1.3-24.7 3.4-36.9 6.3-3.6.7-5.9 4.2-5.2 7.8.7 3.6 4.2 5.9 7.8 5.2.2 0 .3-.1.5-.1 11.6-2.7 23.3-4.7 35.1-5.9 9.9-1 18-1 23.4.1 4.4.9 5.3 1.7 5.2 2.6-.5 5.1-8.9 8.2-20.7 6.7-11.6-1.5-19.5-6.8-19.1-11 .5-4.3 5.3-6.8 17.9-9.4l4.6-.9c15.5-3 21.1-5.3 23.5-13.2 1.9-6.5-1.3-11.6-7.2-14.2-3.2-1.4-6.3-2.1-13.2-3.1l-1.8-.3c-8-1.3-11.4-2.6-11.5-3-.1-.4 1.8-2.3 8.1-5.9l4.4-2.5c1.5-.8 2.9-1.8 4.3-2.7 4.6-3.4 7.2-7.1 5.8-12.3-1.9-7.3-9-9.5-20.9-10.4-4.7-.3-9.3-.4-14-.3l-2 .1c-3.7.2-6.5 3.4-6.3 7 .2 3.7 3.4 6.5 7 6.3l1.7-.1zM379.6 235.1c4.2-.2 8.3-.1 12.5.2 5.5.4 9.4 1.6 9.1.5-.5-1.8-.1-2.2-.8-1.8-1.3 1 .7-.2-7.4 4.4-11.8 6.7-16.9 11.8-14.3 21 2.3 8.1 8.2 10.3 22.3 12.5l1.9.3c5.6.9 8.1 1.4 9.8 2.2.4.2-.3-1-.1-1.7-.2.6-3.9 2.1-13.3 3.9l-4.7.9c-18.1 3.7-27.1 8.5-28.5 21-1.5 13.7 12.7 23.3 30.6 25.6 18.2 2.4 34.1-3.6 35.7-18.4 1-9.4-5.5-15-15.9-17.1-7-1.4-16.3-1.4-27.4-.3-12.4 1.3-24.7 3.4-36.9 6.3-3.6.7-5.9 4.2-5.2 7.8.7 3.6 4.2 5.9 7.8 5.2.2 0 .3-.1.5-.1 11.6-2.7 23.3-4.7 35.1-5.9 9.9-1 18-1 23.4.1 4.4.9 5.3 1.7 5.2 2.6-.5 5.1-8.9 8.2-20.7 6.7-11.6-1.5-19.5-6.8-19.1-11 .5-4.3 5.3-6.8 17.9-9.4l4.6-.9c15.5-3 21.1-5.3 23.5-13.2 1.9-6.5-1.3-11.6-7.2-14.2-3.2-1.4-6.3-2.1-13.2-3.1l-1.8-.3c-8-1.3-11.4-2.6-11.5-3-.1-.4 1.8-2.3 8.1-5.9l4.4-2.5c1.5-.8 2.9-1.8 4.3-2.7 4.6-3.4 7.2-7.1 5.8-12.3-1.9-7.3-9-9.5-20.9-10.4-4.7-.3-9.3-.4-14-.3l-2 .1c-3.7.2-6.5 3.4-6.3 7s3.4 6.5 7 6.3l1.7-.1zM101 235.1c4.2-.2 8.3-.1 12.5.2 5.5.4 9.4 1.6 9.1.5-.5-1.8-.1-2.2-.8-1.8-1.3 1 .7-.2-7.4 4.4-11.8 6.7-16.9 11.8-14.3 21 2.3 8.1 8.2 10.3 22.3 12.5l1.9.3c5.6.9 8.1 1.4 9.8 2.2.4.2-.3-1-.1-1.7-.2.6-3.9 2.1-13.3 3.9l-4.7.9c-18.1 3.7-27.1 8.5-28.5 21-1.5 13.7 12.7 23.3 30.6 25.6 18.2 2.4 34.1-3.6 35.7-18.4 1-9.4-5.5-15-15.9-17.1-7-1.4-16.3-1.4-27.4-.3-12.4 1.3-24.7 3.4-36.9 6.3-3.6.7-5.9 4.2-5.2 7.8s4.2 5.9 7.8 5.2c.2 0 .3-.1.5-.1 11.6-2.7 23.3-4.7 35.1-5.9 9.9-1 18-1 23.4.1 4.4.9 5.3 1.7 5.2 2.6-.5 5.1-8.9 8.2-20.7 6.7-11.6-1.5-19.5-6.8-19.1-11 .5-4.3 5.3-6.8 17.9-9.4l4.6-.9c15.5-3 21.1-5.3 23.5-13.2 1.9-6.5-1.3-11.6-7.2-14.2-3.2-1.4-6.3-2.1-13.2-3.1l-1.8-.3c-8-1.3-11.4-2.6-11.5-3-.1-.4 1.8-2.3 8.1-5.9l4.4-2.5c1.5-.8 2.9-1.8 4.3-2.7 4.6-3.4 7.2-7.1 5.8-12.3-1.9-7.3-9-9.5-20.9-10.4-4.7-.3-9.3-.4-14-.3l-2 .1c-3.7.2-6.5 3.4-6.3 7 .2 3.7 3.4 6.5 7 6.3l1.7-.1z"/></g></svg>