<svg xmlns="http://www.w3.org/2000/svg" viewBox="0 85.333 512 341.333"><path fill="#FFDA44" d="M0 85.334h512v341.337H0z"/><path fill="#FFF" d="M0 85.334h256v170.663H0z"/><g fill="#D80027"><path d="M144 85.33h-32v69.333H0v32h112v69.334h32v-69.334h112v-32H144z"/><path d="M0 85.329v15.083l57.377 38.251H80z"/></g><g fill="#2E52B2"><path d="M0 107.951v30.712h46.069zM96 85.331v48.913L22.628 85.331z"/></g><path fill="#D80027" d="M256 85.329v15.083l-57.377 38.251H176z"/><g fill="#2E52B2"><path d="M256 107.951v30.712h-46.069zM160 85.331v48.913l73.372-48.913z"/></g><path fill="#D80027" d="M0 85.329v15.083l57.377 38.251H80z"/><g fill="#2E52B2"><path d="M0 107.951v30.712h46.069zM96 85.331v48.913L22.628 85.331z"/></g><path fill="#D80027" d="M256 85.329v15.083l-57.377 38.251H176z"/><g fill="#2E52B2"><path d="M256 107.951v30.712h-46.069zM160 85.331v48.913l73.372-48.913z"/></g><path fill="#D80027" d="M0 255.997v-15.082l57.377-38.252H80z"/><g fill="#2E52B2"><path d="M0 233.376v-30.713h46.069zM96 255.994v-48.912l-73.372 48.912z"/></g><path fill="#D80027" d="M256 255.997v-15.082l-57.377-38.252H176z"/><g fill="#2E52B2"><path d="M256 233.376v-30.713h-46.069zM160 255.994v-48.912l73.372 48.912z"/><circle cx="128" cy="170.66" r="22.627"/></g><g fill="#FFDA44"><path d="m128 154.663 3.97 12.222h12.854l-10.398 7.556 3.971 12.222L128 179.109l-10.398 7.554 3.972-12.222-10.398-7.556h12.853zM128 219.803l2.364 7.278h7.653l-6.19 4.498 2.364 7.278-6.191-4.498-6.191 4.498 2.364-7.278-6.19-4.498h7.652zM128 102.469l2.364 7.278h7.653l-6.19 4.498 2.364 7.278-6.191-4.498-6.191 4.498 2.364-7.278-6.19-4.498h7.652zM197.931 161.136l2.365 7.277h7.653l-6.192 4.499 2.365 7.279-6.191-4.498-6.191 4.498 2.365-7.279-6.191-4.499h7.652zM58.069 161.136l2.364 7.277h7.653l-6.191 4.499 2.364 7.279-6.19-4.498-6.191 4.498 2.365-7.279-6.192-4.499h7.653z"/></g></svg>