<svg xmlns="http://www.w3.org/2000/svg" viewBox="0 85.333 512 341.333"><path d="M0 85.333h512V426.67H0z"/><path fill="#A2001D" d="M0 85.33h512v341.332"/><g fill="#FFF"><path d="m204.631 326.488 2.762 8.504h8.941l-7.233 5.255 2.763 8.502-7.233-5.254-7.233 5.254 2.762-8.502-7.233-5.255h8.94zM181.797 244.866l4.605 14.172h14.901l-12.056 8.757 4.605 14.172-12.055-8.759-12.055 8.759 4.606-14.172-12.056-8.757h14.901zM181.797 348.749l4.604 14.173h14.902l-12.057 8.757 4.606 14.173-12.055-8.759-12.055 8.759 4.604-14.173-12.054-8.757h14.899zM225.363 281.967l4.606 14.172h14.901l-12.056 8.758 4.605 14.172-12.056-8.759-12.054 8.759 4.606-14.172-12.056-8.758h14.901zM138.23 281.967l4.606 14.172h14.899l-12.054 8.758 4.603 14.172-12.054-8.759-12.055 8.759 4.605-14.172-12.055-8.758h14.9z"/></g><path fill="#FFDA44" d="M376.526 204.163c-7.628-7.628-17.538-12.133-28.189-12.908l31.88-24.795c-12.698-12.698-29.714-18.431-46.319-17.218a44.31 44.31 0 0 0-11.396-19.511l-12.593 25.186a18.47 18.47 0 0 0-3.148-4.197c-7.245-7.245-18.991-7.244-26.234 0s-7.245 18.99 0 26.234a18.536 18.536 0 0 0 4.197 3.148l-25.186 12.593a44.303 44.303 0 0 0 19.519 11.399c-1.217 16.606 4.511 33.619 17.209 46.317L324.12 214.6a11.053 11.053 0 0 1 7.807-3.202c2.973 0 5.768 1.158 7.87 3.26a11.055 11.055 0 0 1 3.26 7.87c0 2.974-1.158 5.768-3.26 7.87l10.494 10.494c4.905-4.905 7.607-11.428 7.607-18.364 0-5.675-1.81-11.071-5.153-15.534a29.492 29.492 0 0 1 13.288 7.662c11.573 11.572 11.573 30.403 0 41.975l10.494 10.494c8.409-8.409 13.039-19.59 13.039-31.481-.001-11.892-4.632-23.072-13.04-31.481z"/></svg>