<svg xmlns="http://www.w3.org/2000/svg" viewBox="0 85.333 512 341.333"><path fill="#338AF3" d="M0 85.34h512v341.326H0z"/><path fill="#FFF" d="M512 85.334v166.69L0 256.175V85.334z"/><path fill="#6DA544" d="M323.744 203.099 256 270.843l-67.744-67.744a81.156 81.156 0 0 0-13.879 45.483v22.261c0 35.744 23.097 66.193 55.148 77.213-4.277 8.385-3.556 18.848 2.712 26.671l24.258-19.439 24.258 19.439c6.342-7.915 7.011-18.534 2.564-26.968 31.614-11.261 54.308-41.485 54.308-76.916v-22.261a81.174 81.174 0 0 0-13.881-45.483z"/><path fill="#FFDA44" d="M256 330.206c-32.732 0-59.362-26.63-59.362-59.362v-22.261c0-32.733 26.63-59.363 59.362-59.363s59.362 26.63 59.362 59.362v22.261c0 32.733-26.63 59.363-59.362 59.363z"/><path fill="#338AF3" d="M293.101 270.843v-22.261c0-20.458-16.643-37.101-37.101-37.101s-37.101 16.643-37.101 37.101v22.261L256 278.264l37.101-7.421z"/><path fill="#6DA544" d="M218.899 270.843c0 20.458 16.643 37.101 37.101 37.101s37.101-16.643 37.101-37.101h-74.202z"/><path fill="#FFDA44" d="M300.522 189.22c0-12.295-9.966-22.261-22.261-22.261a22.173 22.173 0 0 0-14.84 5.672v-13.093h7.421v-14.84h-7.421v-7.421h-14.84v7.421h-7.421v14.84h7.421v13.093a22.177 22.177 0 0 0-14.841-5.672c-12.295 0-22.261 9.966-22.261 22.261 0 6.591 2.867 12.512 7.421 16.589v13.093h74.203v-13.093c4.552-4.077 7.419-9.997 7.419-16.589z"/></svg>