<svg xmlns="http://www.w3.org/2000/svg" viewBox="0 85.333 512 341.333"><path fill="#496E2D" d="M0 85.337h512v341.326H0z"/><g fill="#FFF"><path d="M357.208 183.679c8.397-23.404-1.036-48.858-21.281-61.536a52.131 52.131 0 0 1 10.884 2.621c27.002 9.688 41.038 39.428 31.35 66.431s-39.428 41.038-66.431 31.35a52.182 52.182 0 0 1-10.069-4.895c23.686 3.084 47.15-10.566 55.547-33.971zM310.637 115.729l-7.297 9.427-11.22-4.026 6.712 9.852-7.296 9.427 11.443-3.338 6.712 9.852.361-11.914 11.444-3.339-11.221-4.025z"/><path d="m330.338 146.448-7.296 9.427-11.221-4.026 6.712 9.852-7.296 9.427 11.443-3.339 6.712 9.853.36-11.915 11.445-3.34-11.221-4.024zM275.9 126.916l-7.296 9.427-11.219-4.024 6.711 9.851-7.296 9.426 11.443-3.338 6.712 9.852.361-11.915 11.444-3.337-11.221-4.027zM275.101 162.105l-7.296 9.427-11.221-4.026 6.712 9.852-7.296 9.427 11.444-3.338 6.711 9.852.362-11.915 11.443-3.338-11.22-4.026zM308.585 174.118l-7.296 9.427-11.22-4.026 6.712 9.853-7.297 9.426 11.444-3.338 6.712 9.852.36-11.915 11.443-3.338-11.219-4.025z"/></g><path fill="#D80027" d="M83.478 85.337h89.043v341.326H83.478z"/><path fill="#FFF" d="m117.458 175.191-14.908-11.105v-15.705l14.908-11.105h21.084l14.908 11.105v15.705l-14.908 11.105z"/><g fill="#FF9811"><path d="M128 137.276h-10.542l-14.908 11.105v7.678H128zM128 175.191h10.542l14.908-11.105v-8.012H128z"/></g><path fill="#FFF" d="m117.458 374.725-14.908-11.106v-15.704l14.908-11.105h21.084l14.908 11.105v15.704l-14.908 11.106z"/><g fill="#FF9811"><path d="M128 336.81h-10.542l-14.908 11.105v7.678H128zM128 374.725h10.542l14.908-11.106v-8.011H128z"/></g><g fill="#496E2D"><path d="m117.458 274.957-14.908-11.105v-15.703l14.908-11.106h21.084l14.908 11.106v15.703l-14.908 11.105zM153.971 299.391h-6.493v-6.493h-11.411l-8.068-8.068-8.067 8.068h-11.41v6.493h-6.493v12.986h6.493v6.492h11.41l8.068 8.069 8.068-8.069h11.41v-6.492h6.493zM153.971 199.623h-6.493v-6.492h-11.411l-8.068-8.069-8.067 8.069h-11.41v6.492h-6.493v12.986h6.493v6.492h11.41l8.068 8.07 8.068-8.07h11.41v-6.492h6.493z"/></g><g fill="#D80027"><path d="M120.576 248.576h14.84v14.84h-14.84z"/><circle cx="128" cy="206.113" r="7.421"/><circle cx="128" cy="305.887" r="7.421"/></g></svg>