<svg xmlns="http://www.w3.org/2000/svg" viewBox="0 85.333 512 341.333"><path fill="#D80027" d="M0 85.331h512v341.337H0z"/><circle fill="#FFF" cx="256" cy="255.994" r="96"/><g fill="#D80027"><path d="m267.826 219.291 16.47 22.695 26.673-8.649-16.496 22.676 16.468 22.695-26.664-8.681-16.495 22.676.017-28.04-26.664-8.682 26.674-8.648z"/><path d="M277.818 312.724c-31.33 0-56.727-25.397-56.727-56.727s25.397-56.727 56.727-56.727c9.769 0 18.96 2.47 26.985 6.819-12.589-12.31-29.804-19.909-48.803-19.909-38.558 0-69.818 31.259-69.818 69.818s31.26 69.818 69.818 69.818c18.999 0 36.215-7.599 48.803-19.909-8.026 4.347-17.216 6.817-26.985 6.817z"/></g></svg>