<svg xmlns="http://www.w3.org/2000/svg" viewBox="0 0 512 341.3"><path fill="#232323" d="M0 0h512v341.3H0z"/><path fill="#FFDA44" d="M0 56.9h512v56.9H0z"/><path fill="#D32300" d="M0 113.8h512v56.9H0z"/><path fill="#FFDA44" d="M0 227.6h512v56.9H0z"/><path fill="#D32300" d="M0 284.4h512v56.9H0z"/><circle fill="#FFF" cx="256" cy="170.7" r="80.7"/><path d="M234.5 127.5c.9-1.4-19.6-2-19.6-2 1.7-2.5 18.4-10.5 18.4-10.5s-.9-6 2.7-9.8l-4.5-9.8s7-3.4 18.4-3.4 19.9 7 21 13.1l-6.4 3.4c-.1 4.7 1.7 11.6-4.3 17.3-5.9 5.7-8.3 6.9-8.5 18.8 0 3.9 2.3 8.2 8.8 11.7 17.4 9.3 38.6 28.2 44.6 33.9 6.1 5.7 5.1 19.2 2.6 25.2s-12.1 14.3-14.3 13.6c-2.2-.6 1.2-9.2-3.5-11.6 0 0-8.9-7.6-16.8.6s-.2 25.2 3.9 28c4.1 2.8 1.7 5-1.9 5H247c-3.8 0-5.4-2.3-1.9-5 7.6-3.8 12.4-15.3 7.4-20.3-4.9-4.9-18.3 1.5-21.5 6.3-2.8 2.8-8.8 3.6-12.9-1.4s-4.1-10.4-1.1-12.5c7-4.8 0 0 .1-.1 0 0 11.9-8.6 29.9-9 3.9 0 4.8-2.2 2.2-4.8 0 0-30.9-27.4-28.1-44.2 3-18.3 20-26.3 13.4-32.5-1.3-1.8 0 0 0 0z"/></svg>