<svg xmlns="http://www.w3.org/2000/svg" viewBox="0 0 513 342"><path fill="#FFF" d="M0 0h513v342H0z"/><g fill="#0038a8"><path d="M0 38h513v38H0zM0 114h513v38H0zM0 190h513v38H0zM0 266h513v38H0z"/></g><path fill="#FFF" d="M0 0h256.5v190H0z"/><path fill="#FED443" d="m128.3 138.7-15.1 22.6-3.8-26.9L86 148.2l8.2-25.9-27.2 2.2 18.6-19.8L60.3 95l25.4-9.7L67 65.5l27.1 2.3-8.2-25.9 23.4 13.8 3.9-26.9 15.1 22.6 15.1-22.6 3.8 26.9 23.4-13.8-8.2 25.9 27.1-2.2-18.6 19.8 25.4 9.7-25.4 9.7 18.6 19.8-27.1-2.2 8.2 25.9-23.4-13.8-3.9 26.9-15-22.7zm0-.5c23.9.9 44-17.6 44.9-41.5.9-23.9-17.6-44-41.5-44.9h-3.4c-23.9.8-42.6 20.8-41.8 44.6.6 22.8 19 41.1 41.8 41.8zm0-10.6c-18.8 0-34-15.2-34-34s15.2-34 34-34 34 15.2 34 34-15.3 34-34 34z"/></svg>