<svg xmlns="http://www.w3.org/2000/svg" viewBox="0 85.333 512 341.333"><path fill="#D80027" d="M0 85.337h512v341.326H0z"/><path fill="#6DA544" d="M0 322.783h512v103.88H0z"/><path fill="#338AF3" d="M0 85.337h512v104.515H0z"/><path fill="#FFF" d="M0 210.877h512v89.656H0z"/><path fill="#338AF3" d="M0 85.337h512v104.515H0z"/><g fill="#FFF"><path d="M188.688 137.589c0-15.984 11.234-29.339 26.236-32.614a33.531 33.531 0 0 0-7.155-.777c-18.442 0-33.391 14.949-33.391 33.391s14.949 33.391 33.391 33.391c2.458 0 4.85-.273 7.155-.777-15.002-3.275-26.236-16.63-26.236-32.614zM234.658 152.766l2.261 6.957h7.315l-5.918 4.301 2.261 6.956-5.919-4.3-5.918 4.3 2.261-6.956-5.918-4.301h7.315zM258.006 152.766l2.26 6.957h7.315l-5.918 4.301 2.261 6.956-5.918-4.3-5.918 4.3 2.26-6.956-5.917-4.301h7.314zM281.353 152.766l2.26 6.957h7.315l-5.917 4.301 2.26 6.956-5.918-4.3-5.918 4.3 2.26-6.956-5.918-4.301h7.315zM304.7 152.766l2.262 6.957h7.315l-5.919 4.301 2.261 6.956-5.919-4.3-5.918 4.3 2.262-6.956-5.919-4.301h7.314zM328.048 152.766l2.26 6.957h7.315l-5.918 4.301 2.261 6.956-5.918-4.3-5.918 4.3 2.26-6.956-5.917-4.301h7.314zM258.006 128.482l2.26 6.956h7.315l-5.918 4.3 2.261 6.957-5.918-4.299-5.918 4.299 2.26-6.957-5.917-4.3h7.314zM281.353 128.482l2.26 6.956h7.315l-5.917 4.3 2.26 6.957-5.918-4.299-5.918 4.299 2.26-6.957-5.918-4.3h7.315zM304.7 128.482l2.262 6.956h7.315l-5.919 4.3 2.261 6.957-5.919-4.299-5.918 4.299 2.262-6.957-5.919-4.3h7.314zM328.048 128.482l2.26 6.956h7.315l-5.918 4.3 2.261 6.957-5.918-4.299-5.918 4.299 2.26-6.957-5.917-4.3h7.314zM281.353 104.198l2.26 6.956h7.315l-5.917 4.3 2.26 6.957-5.918-4.3-5.918 4.3 2.26-6.957-5.918-4.3h7.315zM304.7 104.198l2.262 6.956h7.315l-5.919 4.3 2.261 6.957-5.919-4.3-5.918 4.3 2.262-6.957-5.919-4.3h7.314zM328.048 104.198l2.26 6.956h7.315l-5.918 4.3 2.261 6.957-5.918-4.3-5.918 4.3 2.26-6.957-5.917-4.3h7.314z"/></g></svg>