<svg xmlns="http://www.w3.org/2000/svg" viewBox="0 85.333 512 341.333"><path fill="#FFDA44" d="M0 85.331h512v341.326H0z"/><path fill="#FFF" d="M256 85.331h256v341.337H256z"/><path fill="#ACABB1" d="m321.353 233.837 32.073 42.43c-5.053 7.651-5.026 17.961.817 25.692 7.414 9.807 21.374 11.748 31.182 4.335 9.807-7.414 11.748-21.374 4.334-31.182-5.843-7.731-15.756-10.568-24.495-7.795l-49.988-66.129-11.838 8.949-17.759 13.424 17.899 23.677 17.775-13.401zm46.175 48.78a7.421 7.421 0 1 1 8.95 11.84 7.421 7.421 0 0 1-8.95-11.84z"/><path fill="#FFDA44" d="m376.367 247.24 17.899-23.677-17.759-13.424-11.838-8.949-49.988 66.129c-8.74-2.775-18.651.063-24.495 7.795-7.414 9.808-5.473 23.768 4.334 31.182 9.808 7.414 23.768 5.473 31.182-4.335 5.845-7.731 5.871-18.041.817-25.692l32.073-42.43 17.775 13.401zm-62.504 45.771a7.42 7.42 0 1 1-11.84-8.95 7.42 7.42 0 0 1 11.84 8.95z"/></svg>