<svg xmlns="http://www.w3.org/2000/svg" viewBox="0 0 22.5 15"><path fill="#FFCE00" d="M0 0h22.5v5H0z"/><path fill="#203899" d="M0 5h22.5v5H0z"/><path fill="#D82B2B" d="M0 10h22.5v5H0z"/><path fill="#FFF" d="m12.13 5.38.14.46.45.14-.39.27.01.48-.38-.29-.45.15.15-.44-.28-.38h.47zM10.36 5.38l.27.39h.47l-.28.38.15.45-.45-.16-.38.28.01-.47-.39-.28.45-.13zM13.8 5.94l-.01.48.39.27-.46.14-.14.45-.27-.38h-.48l.29-.38-.15-.45.45.16zM8.69 5.96l.4.27.44-.18-.13.46.3.36-.47.02-.26.4-.16-.44-.46-.12.37-.3zM15.24 7.13l-.2.44.25.4-.47-.05-.31.36-.1-.46-.43-.18.41-.24.03-.47.35.31zM15.43 8.25l.21.43.47.07-.34.33.08.46-.42-.22-.42.22.08-.46-.34-.33.47-.07zM7 8.2l.21.43.47.06-.34.33.08.47L7 9.27l-.42.22.08-.47-.34-.33.47-.06zM7.31 7.05l.45.14.38-.29v.48l.39.26-.45.15-.13.46-.28-.38-.47.01.27-.38z"/></svg>