<svg xmlns="http://www.w3.org/2000/svg" viewBox="0 0 512 341.3"><path fill="#FFF" d="M0 0h512v341.3H0z"/><path fill="#1583C4" d="m397.7 166.3-51 97.7c-1.1 2-.3 4.5 1.8 5.6 2 1.1 4.5.3 5.6-1.8l51-97.7c1-2.1.1-4.6-2-5.5-2-.9-4.3-.2-5.4 1.7z"/><path fill="#1583C4" d="m404.9 188-57.8 75.4c-1.3 1.9-.8 4.5 1.1 5.8 1.7 1.2 4.1.9 5.5-.7l57.8-75.4c1.4-1.8 1.1-4.4-.8-5.8-1.8-1.5-4.4-1.1-5.8.7z"/><path fill="#1583C4" d="m379 181.3-32.5 83.1c-.8 2.1.2 4.6 2.4 5.4 2.1.8 4.6-.2 5.4-2.4l32.5-83.1c.7-2.2-.4-4.5-2.6-5.3-2.1-.6-4.3.4-5.2 2.3z"/><path fill="#409347" d="M122.1 171.9c.4 1.7 1.2 4.7 2.2 8.5 1.7 6.4 3.6 12.8 5.6 18.7 2.3 6.9 14.7 31.4 20.2 39.1 6.9 9.7 14.1 19.3 21.5 28.6 1.6 1.9 4.5 2.1 6.4.5 1.8-1.6 2.1-4.3.7-6.2-7.3-9.2-14.4-18.6-21.2-28.2-4.2-5.8-17.2-31.1-19-36.7-2.9-8.7-5.4-17.6-7.6-26.5-.5-2.4-2.9-4-5.3-3.5s-4 2.9-3.5 5.3c-.1.2 0 .3 0 .4z"/><g fill="#FFD836" stroke="#231F20" stroke-miterlimit="10"><path d="M297.1 114.9S279.5 42.8 261 42.8c-6.9 0-11.9-.6-15.4 6.4-.9 1.7-20.7-1.6-19.1 20.8.5 6.9 1.1-9.8 14.9-3.4 6.3 3-16.4 48.2-16.4 48.2h72.1z"/><path d="m466.1 48.4-90.9 22c-75.3 18.3-42.1 44.4-42.1 44.4l-72.1 12-72.1-12s33.2-26.1-42.1-44.4l-90.9-22C43.1 45.3 38.1 51.8 45.3 63c0 0 106.6 104 126.8 112 20.2 8.1 40.8 0 40.8 0s-14.9 8.7-24 24c-9.2 15.3-4.6 34.7-38.9 40.2-5.5 6.6-5 14 2.9 19.9 7.9 5.8 72.1-48.1 72.1-48.1s-24 24.4-24 36.1c0 5.1 44.1 53.8 60.1 53.8s60.1-48.7 60.1-53.8c0-11.7-24-36.1-24-36.1s64.2 53.9 72.1 48.1 11.4-19.3 2.8-19.9c-28-1.8-29.7-24.9-38.9-40.2-9.2-15.3-24-24-24-24s20.6 8.1 40.8 0S476.7 63 476.7 63c7.2-11.2 2.3-17.7-10.6-14.6z"/></g><path fill="#FFF" stroke="#231F20" stroke-miterlimit="10" d="M201.3 111.8v80.3c0 45.7 59.7 59.7 59.7 59.7s59.7-14 59.7-59.7v-80.3H201.3z"/><g fill="#D80027"><path d="M225.2 137.7V235c8.2 6 17 10.2 23.9 12.9V137.7h-23.9zM296.8 137.7V235c-8.2 6-17 10.2-23.9 12.9V137.7h23.9z"/></g><path fill="#0052B4" d="M201.3 111.8h119.4v37.9H201.3z"/><path fill="#1583C4" d="m60.1 210.5-21.9-58.1H15.7l31.8 80.8h25.2l31.5-80.8H81.7zM451.5 151.9h18.9v81.7h-18.9z"/></svg>