<svg xmlns="http://www.w3.org/2000/svg" viewBox="0 85.333 512 341.333"><path d="M0 85.337h512v341.326H0z"/><path fill="#6DA544" d="M512 256v170.663H0L215.185 256z"/><path fill="#D80027" d="M512 85.337V256H215.185L0 85.337z"/><path d="M221.001 239.304 26.868 85.337H8.956l208.168 165.098H512v-11.131zM8.956 426.663h17.912l194.133-153.967H512v-11.131H217.124zM0 92.44v14.206L188.317 256 0 405.354v14.205L206.229 256z"/><g fill="#FFDA44"><path d="M8.956 85.337H0v7.103L206.229 256 0 419.559v7.104h8.956l208.168-165.098H512v-11.13H217.124z"/><path d="M63.718 292.382v-14.295c14.265 0 25.87-11.606 25.87-25.869 0-10.092-8.211-18.303-18.304-18.303-6.875 0-12.469 5.593-12.469 12.469 0 4.397 3.577 7.974 7.974 7.974a4.514 4.514 0 0 0 4.508-4.508h14.295c0 10.368-8.435 18.804-18.802 18.804-12.279-.002-22.269-9.993-22.269-22.271 0-14.758 12.006-26.764 26.764-26.764 17.975 0 32.599 14.623 32.599 32.599 0 22.145-18.018 40.164-40.166 40.164z"/></g></svg>