<svg xmlns="http://www.w3.org/2000/svg" viewBox="0 85.333 512 341.333"><path fill="#D80027" d="M0 85.331h512v341.337H0z"/><path fill="#0052B4" d="M0 85.331h256v170.663H0z"/><g fill="#FFF"><path d="m165.483 181.79 2.764 8.504h8.939l-7.232 5.254 2.763 8.503-7.234-5.255-7.233 5.255 2.763-8.503-7.233-5.254h8.94zM120.579 115.007l4.606 14.173h14.9l-12.055 8.757 4.605 14.171-12.056-8.758-12.054 8.758 4.605-14.171-12.056-8.757h14.901zM165.101 129.848l4.606 14.172h14.9l-12.055 8.757 4.604 14.173-12.055-8.76-12.054 8.76 4.604-14.173-12.055-8.757h14.9zM129.909 189.211l4.606 14.172h14.9l-12.055 8.758 4.604 14.171-12.055-8.759-12.054 8.759 4.604-14.171-12.055-8.758h14.9zM90.899 152.108l4.605 14.173h14.9l-12.055 8.757 4.604 14.173-12.054-8.76-12.055 8.76 4.604-14.173-12.055-8.757h14.9z"/></g></svg>