<svg xmlns="http://www.w3.org/2000/svg" viewBox="0 0 512 341.33"><path fill="#0052B4" d="M0 0h512v341.34H0z"/><g fill="#FFF"><path d="m220.72 42.63 7.95 16.11 17.77 2.58-12.86 12.54 3.04 17.7-15.9-8.36-15.9 8.36 3.03-17.7-12.86-12.54 17.78-2.58zM291.28 42.57l7.95 16.1 17.78 2.59-12.86 12.53 3.03 17.71-15.9-8.36-15.9 8.36 3.04-17.71-12.86-12.53 17.77-2.59zM353.36 53.93l7.95 16.11 17.77 2.58-12.86 12.54 3.04 17.7-15.9-8.35-15.9 8.35 3.04-17.7-12.87-12.54 17.78-2.58zM416.37 72.23l7.95 16.11 17.77 2.59-12.86 12.53 3.04 17.71-15.9-8.36-15.9 8.36 3.03-17.71-12.86-12.53 17.78-2.59zM158.64 53.93l7.95 16.11 17.78 2.58-12.87 12.54 3.04 17.7-15.9-8.35-15.9 8.35 3.04-17.7-12.86-12.54 17.77-2.58zM95.63 72.23l7.95 16.11 17.78 2.59-12.86 12.53 3.03 17.71-15.9-8.36-15.9 8.36 3.04-17.71-12.86-12.53 17.77-2.59z"/></g><path fill="#FFDA44" d="m217.53 259.33-27.22-13.61-27.22-54.43h27.22l27.22-27.22 13.61-27.22 27.22-13.61 13.61 13.61 27.22 13.61v13.61l13.61 13.61 40.83 27.22L340 245.73l-40.83 40.83-13.61-27.22-40.83 27.22v27.22l-13.61-13.61-13.59-40.84z"/></svg>