<svg xmlns="http://www.w3.org/2000/svg" viewBox="0 0 90 60"><path fill="#FFF" d="M0 0h90v60H0z"/><path stroke="#7f7f7f" stroke-width=".25" fill="#ABABAB" d="M75.6 39.6c-1.1.7 0 1.8-.6 1.9-.6.1-1.5-1.4-.2-2.5 1.6-1.5 5.8 0 5.9 4.3 0 2.2-.9 6.8-7.2 6.8-7.6 0-11.4-5.7-11.4-11.4 0-4.8 3.7-13.5 6.5-14.6 3.1-1.2 6.7-3.5 6.8-5 0-.5-1.4-.1-3.3.9-3.1 1.7-6.6 2.5-6.6 1.4s2.9-3.1 4-4.6c1.2-1.6.9-5.5 3-5.5 7.6 0 9.9 7.7 7 11.7-1.9 2.6 4.3 1 4.3 1s0 5.3-3.2 7.3c-3 1.8-4.8 3.9-4.8 3.9s.2-4.6-.5-3.9c-.6.7-11.1 4.5-10.3 12 .3 3 4.5 5.4 8.5 5.2s5.7-2.4 5.8-4.9c.1-3.9-3-4.4-3.7-4zM10.7 43.6c.1 2.5 1.8 4.7 5.8 4.9s8.2-2.2 8.5-5.2c.8-7.5-9.7-11.3-10.3-12-.7-.7-.5 3.9-.5 3.9s-1.8-2.1-4.8-3.9c-3.2-2-3.2-7.3-3.2-7.3s6.2 1.6 4.3-1c-2.9-4-.6-11.7 7-11.7 2.1 0 1.8 3.9 3 5.5 1.1 1.5 4 3.5 4 4.6s-3.5.3-6.6-1.4c-1.9-1-3.3-1.4-3.3-.9.1 1.5 3.7 3.8 6.8 5 2.8 1.1 6.5 9.8 6.5 14.6 0 5.7-3.8 11.4-11.4 11.4-6.3 0-7.2-4.6-7.2-6.8.1-4.3 4.3-5.8 5.9-4.3 1.2 1.1.4 2.7-.2 2.5-.6-.1.6-1.2-.6-1.9-.6-.4-3.7.1-3.7 4z"/><path fill="#DE393A" d="M31 28.8v14c0 1.9 2.1 1.6 2.1 1.6h9.3c1.2 0 2.6 2.3 2.6 2.3s1.4-2.3 2.5-2.3h9.6s2 .2 2-1.8V28.7H31z"/><path fill="#3951A3" d="M31 13.1h28v15.7H31z"/><path fill="#FFF" d="M50.1 16.5c-.4 2.4-2.5 4.2-5.1 4.2-2.5 0-4.6-1.8-5.1-4.2-.5.9-.8 1.9-.8 3 0 3.3 2.6 5.9 5.9 5.9 3.3 0 5.9-2.6 5.9-5.9 0-1.1-.3-2.1-.8-3z"/><circle fill="#FEE05F" cx="39.1" cy="36.5" r="3"/><circle fill="#FEE05F" cx="50.9" cy="36.5" r="3"/></svg>