<svg width="240" height="268" viewBox="0 0 240 268" fill="none" xmlns="http://www.w3.org/2000/svg">
<g opacity="0.6">
<rect x="170.045" y="167.357" width="32.2656" height="16.5938" rx="4" transform="rotate(-16 170.045 167.357)" stroke="#CDF4DD" stroke-width="4"/>
<path d="M170.168 201.23C167.732 192.736 172.644 183.875 181.138 181.439L199.117 176.284C207.611 173.848 216.471 178.76 218.907 187.254L234.907 243.052C236.125 247.299 233.669 251.73 229.422 252.948L196.063 262.513C191.816 263.731 187.386 261.275 186.168 257.028L170.168 201.23Z" stroke="#CDF4DD" stroke-width="4"/>
<rect x="177.519" y="170.009" width="3.6875" height="11.9844" rx="1.84375" transform="rotate(-16 177.519 170.009)" fill="#CDF4DD"/>
<rect x="185.494" y="167.723" width="3.6875" height="11.9844" rx="1.84375" transform="rotate(-16 185.494 167.723)" fill="#CDF4DD"/>
<rect x="193.47" y="165.436" width="3.6875" height="11.9844" rx="1.84375" transform="rotate(-16 193.47 165.436)" fill="#CDF4DD"/>
</g>
<g opacity="0.6">
<path d="M36.5973 106.436L39.9701 94.6735L64.4373 101.689L60.9881 113.718C59.4878 118.951 60.973 124.584 64.8578 128.397C69.0553 132.516 70.4233 138.726 68.3451 144.228L55.6959 177.716C54.5922 180.638 51.4315 182.224 48.4292 181.363L11.314 170.721C8.31623 169.861 6.47675 166.848 7.08188 163.789L13.7174 130.242C14.9118 124.203 19.3948 119.345 25.3188 117.671C30.7696 116.131 35.036 111.881 36.5973 106.436Z" stroke="#CDF4DD" stroke-width="4"/>
<rect x="42.3359" y="74.5464" width="32" height="19" rx="6" transform="rotate(16 42.3359 74.5464)" stroke="#CDF4DD" stroke-width="4"/>
<rect x="70.6162" y="92.0181" width="4" height="32" rx="2" transform="rotate(106 70.6162 92.0181)" fill="#CDF4DD"/>
</g>
<g opacity="0.6">
<path d="M186.052 83.4148L179.934 94.0117L157.891 81.2851L164.148 70.448C166.869 65.7341 166.791 59.9085 163.944 55.2694C160.868 50.2567 161.043 43.9002 164.39 39.0645L184.765 9.63163C186.543 7.06354 189.994 6.28885 192.699 7.85054L226.137 27.156C228.837 28.7153 229.893 32.0836 228.566 34.9057L214.012 65.8511C211.392 71.4217 205.867 75.0504 199.714 75.2416C194.052 75.4176 188.885 78.5093 186.052 83.4148Z" stroke="#CDF4DD" stroke-width="4"/>
<rect x="172.769" y="112.969" width="32" height="19" rx="6" transform="rotate(-150 172.769 112.969)" stroke="#CDF4DD" stroke-width="4"/>
<rect x="149.557" y="89.1743" width="4" height="32" rx="2" transform="rotate(-60 149.557 89.1743)" fill="#CDF4DD"/>
</g>
</svg>
