<svg width="237" height="252" viewBox="0 0 237 252" fill="none" xmlns="http://www.w3.org/2000/svg">
<g opacity="0.6">
<rect x="196.607" y="142.667" width="32.2656" height="16.5938" rx="4" transform="rotate(16.8391 196.607 142.667)" stroke="#CDF4DD" strokeWidth="4"/>
<path d="M178.342 171.193C180.901 162.736 189.833 157.955 198.291 160.514L216.192 165.932C224.649 168.492 229.431 177.424 226.871 185.881L210.055 241.439C208.776 245.668 204.31 248.059 200.081 246.779L166.866 236.726C162.637 235.446 160.246 230.98 161.526 226.751L178.342 171.193Z" stroke="#CDF4DD" strokeWidth="4"/>
<rect x="201.447" y="148.949" width="3.6875" height="11.9844" rx="1.84375" transform="rotate(16.8391 201.447 148.949)" fill="#CDF4DD"/>
<rect x="209.389" y="151.352" width="3.6875" height="11.9844" rx="1.84375" transform="rotate(16.8391 209.389 151.352)" fill="#CDF4DD"/>
<rect x="217.33" y="153.756" width="3.6875" height="11.9844" rx="1.84375" transform="rotate(16.8391 217.33 153.756)" fill="#CDF4DD"/>
</g>
<g opacity="0.6">
<rect x="150.723" y="109.167" width="32.2656" height="16.5938" rx="4" transform="rotate(-150 150.723 109.167)" stroke="#CDF4DD" strokeWidth="4"/>
<path d="M175.004 85.5494C170.586 93.202 160.8 95.824 153.147 91.4058L136.95 82.0542C129.297 77.6359 126.675 67.8505 131.094 60.1978L160.117 9.92772C162.326 6.10138 167.219 4.79038 171.045 6.99952L201.099 24.3511C204.925 26.5602 206.236 31.4529 204.027 35.2793L175.004 85.5494Z" stroke="#CDF4DD" strokeWidth="4"/>
<rect x="147.439" y="101.949" width="3.6875" height="11.9844" rx="1.84375" transform="rotate(-150 147.439 101.949)" fill="#CDF4DD"/>
<rect x="140.254" y="97.8003" width="3.6875" height="11.9844" rx="1.84375" transform="rotate(-150 140.254 97.8003)" fill="#CDF4DD"/>
<rect x="133.068" y="93.6519" width="3.6875" height="11.9844" rx="1.84375" transform="rotate(-150 133.068 93.6519)" fill="#CDF4DD"/>
</g>
<g opacity="0.6">
<path d="M32.8015 122.764L35.7266 112.563L56.9458 118.648L53.9545 129.08C52.6533 133.618 53.9413 138.504 57.3104 141.81C60.9508 145.383 62.1371 150.768 60.3348 155.54L49.6241 183.896C48.5204 186.818 45.3597 188.404 42.3573 187.543L11.5784 178.717C8.5806 177.858 6.74113 174.845 7.34625 171.786L12.9588 143.41C13.9947 138.173 17.8826 133.96 23.0201 132.508C27.7474 131.172 31.4475 127.486 32.8015 122.764Z" stroke="#CDF4DD" strokeWidth="4"/>
<rect x="37.7793" y="95.1074" width="27.7521" height="16.4778" rx="6" transform="rotate(16 37.7793 95.1074)" stroke="#CDF4DD" strokeWidth="4"/>
<rect x="62.3047" y="110.26" width="3.46901" height="27.7521" rx="1.7345" transform="rotate(106 62.3047 110.26)" fill="#CDF4DD"/>
</g>
</svg>
