<svg width="1218" height="10" viewBox="0 0 1218 10" fill="none" xmlns="http://www.w3.org/2000/svg">
<path d="M1217 8.7178C1217 8.7178 1121.32 3.23613 1059.29 3.23613C997.264 3.23613 963.303 10.5028 901.58 8.7178C877.507 8.02164 864.784 5.99259 840.671 5.4288C803.937 4.56994 783.439 7.45558 746.589 7.55698C675.555 7.75244 637.026 1.87283 566.038 1.10795C473.992 0.116195 339.077 6.2342 299.466 8.15455C291.912 8.5208 284.378 8.48227 276.826 8.06798C259.967 7.14308 227.736 5.54524 204.392 5.4288C173.47 5.27456 156.446 7.25264 125.537 7.55698C76.8464 8.0364 1 5.4288 1 5.4288" stroke="#EBEBEB" stroke-width="2"/>
</svg>
